<?xml version="1.0" encoding="utf-8"?>
<svg version="1.1" xmlns:xlink="http://www.w3.org/1999/xlink" width="50px" height="43px" xmlns="http://www.w3.org/2000/svg">
  <defs>
    <pattern id="BGPattern" patternUnits="userSpaceOnUse" alignment="0 0" imageRepeat="None" />
    <mask fill="white" id="Clip474">
      <path d="M 46 3.5786736020806256  L 46 14.314694408322497  C 47.414434523809526 14.314694408322497  48.256138392857146 14.664174252275682  48.953683035714285 15.363133940182054  C 49.65122767857143 16.062093628088427  50 16.905504984828784  50 17.893368010403123  C 50 18.881231035977457  49.65122767857143 19.724642392717815  48.953683035714285 20.423602080624185  C 48.256138392857146 21.122561768530556  47.414434523809526 21.472041612483743  46 21.472041612483743  L 46 32.20806241872562  C 46.42857142857143 33.17728651928912  46.07514880952381 34.016038144776765  45.36830357142857 34.724317295188555  C 44.661458333333336 35.432596445600346  43.82440476190476 35.78673602080624  42.857142857142854 35.78673602080624  C 35.10044642857143 29.319029042045944  27.5483630952381 25.777633289986994  20.200892857142858 25.162548764629392  C 19.12202380952381 25.51668833983528  18.275669642857142 26.13177286519289  17.661830357142858 27.00780234070221  C 17.047991071428573 27.883831816211526  16.75967261904762 28.82043779800606  16.796875 29.817620286085827  C 16.83407738095238 30.81480277416558  17.206101190476193 31.676853055916773  17.912946428571427 32.403771131339404  C 17.54092261904762 33.018855656697006  17.327008928571427 33.62928045080191  17.271205357142858 34.2350455136541  C 17.215401785714285 34.840810576506286  17.271205357142858 35.38133940182055  17.438616071428573 35.85663198959688  C 17.606026785714285 36.331924577373215  17.917596726190478 36.84449501517122  18.373325892857142 37.3943433029909  C 18.82905505952381 37.94419159081058  19.27548363095238 38.41016471608149  19.712611607142858 38.79226267880364  C 20.149739583333336 39.174360641525794  20.721726190476193 39.644993498049416  21.428571428571427 40.20416124837451  C 20.889136904761905 41.285218899003034  19.852120535714285 42.05873428695275  18.317522321428573 42.52470741222367  C 16.782924107142858 42.99068053749458  15.21577380952381 43.09785435630689  13.616071428571427 42.846228868660596  C 12.01636904761905 42.5946033810143  10.788690476190478 42.07737321196359  9.933035714285714 41.29453836150845  C 9.802827380952381 40.86584308625921  9.528459821428571 40.05039011703511  9.109933035714286 38.84817945383615  C 8.69140625 37.64596879063719  8.393787202380953 36.76527958387516  8.217075892857142 36.20611183355006  C 8.040364583333334 35.646944083224966  7.826450892857142 34.81751192024274  7.575334821428571 33.71781534460338  C 7.32421875 32.61811876896402  7.184709821428571 31.676853055916773  7.1568080357142865 30.89401820546164  C 7.128906250000002 30.1111833550065  7.161458333333334 29.193216298222797  7.2544642857142865 28.140117035110535  C 7.34747023809524 27.087017771998266  7.552083333333334 26.05721716514954  7.868303571428571 25.05071521456437  L 4.464285714285714 25.05071521456437  C 3.2366071428571432 25.05071521456437  2.1856398809523814 24.612700476809707  1.3113839285714286 23.73667100130039  C 0.4371279761904762 22.860641525791067  0 21.807542262678805  0 20.57737321196359  L 0 15.209362808842652  C 0 13.97919375812744  0.4371279761904762 12.926094495015167  1.3113839285714286 12.05006501950585  C 2.1856398809523814 11.174035543996528  3.2366071428571432 10.736020806241871  4.464285714285714 11  L 17.857142857142858 11  C 25.948660714285715 10.736020806241871  34.28199404761905 7.157347204161246  42.857142857142854 0  C 43.82440476190476 0  44.661458333333336 0.3541395752058907  45.36830357142857 1.0624187256176865  C 46.07514880952381 1.7706978760294725  46.42857142857143 2.609449501517119  46 3.5786736020806256  Z M 21.428571428571427 21.667750325097533  C 28.441220238095237 22.450585175552664  35.58407738095239 25.6285218899003  42 31.201560468140443  L 42 4.52925877763329  C 35.52827380952381 10.158214130905936  28.385416666666668 13.354789770264409  21.428571428571427 14.118985695708714  L 21.428571428571427 21.667750325097533  Z " fill-rule="evenodd" />
    </mask>
  </defs>
  <g transform="matrix(1 0 0 1 -35 -272 )">
    <path d="M 46 3.5786736020806256  L 46 14.314694408322497  C 47.414434523809526 14.314694408322497  48.256138392857146 14.664174252275682  48.953683035714285 15.363133940182054  C 49.65122767857143 16.062093628088427  50 16.905504984828784  50 17.893368010403123  C 50 18.881231035977457  49.65122767857143 19.724642392717815  48.953683035714285 20.423602080624185  C 48.256138392857146 21.122561768530556  47.414434523809526 21.472041612483743  46 21.472041612483743  L 46 32.20806241872562  C 46.42857142857143 33.17728651928912  46.07514880952381 34.016038144776765  45.36830357142857 34.724317295188555  C 44.661458333333336 35.432596445600346  43.82440476190476 35.78673602080624  42.857142857142854 35.78673602080624  C 35.10044642857143 29.319029042045944  27.5483630952381 25.777633289986994  20.200892857142858 25.162548764629392  C 19.12202380952381 25.51668833983528  18.275669642857142 26.13177286519289  17.661830357142858 27.00780234070221  C 17.047991071428573 27.883831816211526  16.75967261904762 28.82043779800606  16.796875 29.817620286085827  C 16.83407738095238 30.81480277416558  17.206101190476193 31.676853055916773  17.912946428571427 32.403771131339404  C 17.54092261904762 33.018855656697006  17.327008928571427 33.62928045080191  17.271205357142858 34.2350455136541  C 17.215401785714285 34.840810576506286  17.271205357142858 35.38133940182055  17.438616071428573 35.85663198959688  C 17.606026785714285 36.331924577373215  17.917596726190478 36.84449501517122  18.373325892857142 37.3943433029909  C 18.82905505952381 37.94419159081058  19.27548363095238 38.41016471608149  19.712611607142858 38.79226267880364  C 20.149739583333336 39.174360641525794  20.721726190476193 39.644993498049416  21.428571428571427 40.20416124837451  C 20.889136904761905 41.285218899003034  19.852120535714285 42.05873428695275  18.317522321428573 42.52470741222367  C 16.782924107142858 42.99068053749458  15.21577380952381 43.09785435630689  13.616071428571427 42.846228868660596  C 12.01636904761905 42.5946033810143  10.788690476190478 42.07737321196359  9.933035714285714 41.29453836150845  C 9.802827380952381 40.86584308625921  9.528459821428571 40.05039011703511  9.109933035714286 38.84817945383615  C 8.69140625 37.64596879063719  8.393787202380953 36.76527958387516  8.217075892857142 36.20611183355006  C 8.040364583333334 35.646944083224966  7.826450892857142 34.81751192024274  7.575334821428571 33.71781534460338  C 7.32421875 32.61811876896402  7.184709821428571 31.676853055916773  7.1568080357142865 30.89401820546164  C 7.128906250000002 30.1111833550065  7.161458333333334 29.193216298222797  7.2544642857142865 28.140117035110535  C 7.34747023809524 27.087017771998266  7.552083333333334 26.05721716514954  7.868303571428571 25.05071521456437  L 4.464285714285714 25.05071521456437  C 3.2366071428571432 25.05071521456437  2.1856398809523814 24.612700476809707  1.3113839285714286 23.73667100130039  C 0.4371279761904762 22.860641525791067  0 21.807542262678805  0 20.57737321196359  L 0 15.209362808842652  C 0 13.97919375812744  0.4371279761904762 12.926094495015167  1.3113839285714286 12.05006501950585  C 2.1856398809523814 11.174035543996528  3.2366071428571432 10.736020806241871  4.464285714285714 11  L 17.857142857142858 11  C 25.948660714285715 10.736020806241871  34.28199404761905 7.157347204161246  42.857142857142854 0  C 43.82440476190476 0  44.661458333333336 0.3541395752058907  45.36830357142857 1.0624187256176865  C 46.07514880952381 1.7706978760294725  46.42857142857143 2.609449501517119  46 3.5786736020806256  Z M 21.428571428571427 21.667750325097533  C 28.441220238095237 22.450585175552664  35.58407738095239 25.6285218899003  42 31.201560468140443  L 42 4.52925877763329  C 35.52827380952381 10.158214130905936  28.385416666666668 13.354789770264409  21.428571428571427 14.118985695708714  L 21.428571428571427 21.667750325097533  Z " fill-rule="nonzero" fill="rgba(0, 0, 0, 1)" stroke="none" transform="matrix(1 0 0 1 35 272 )" class="fill" />
    <path d="M 46 3.5786736020806256  L 46 14.314694408322497  C 47.414434523809526 14.314694408322497  48.256138392857146 14.664174252275682  48.953683035714285 15.363133940182054  C 49.65122767857143 16.062093628088427  50 16.905504984828784  50 17.893368010403123  C 50 18.881231035977457  49.65122767857143 19.724642392717815  48.953683035714285 20.423602080624185  C 48.256138392857146 21.122561768530556  47.414434523809526 21.472041612483743  46 21.472041612483743  L 46 32.20806241872562  C 46.42857142857143 33.17728651928912  46.07514880952381 34.016038144776765  45.36830357142857 34.724317295188555  C 44.661458333333336 35.432596445600346  43.82440476190476 35.78673602080624  42.857142857142854 35.78673602080624  C 35.10044642857143 29.319029042045944  27.5483630952381 25.777633289986994  20.200892857142858 25.162548764629392  C 19.12202380952381 25.51668833983528  18.275669642857142 26.13177286519289  17.661830357142858 27.00780234070221  C 17.047991071428573 27.883831816211526  16.75967261904762 28.82043779800606  16.796875 29.817620286085827  C 16.83407738095238 30.81480277416558  17.206101190476193 31.676853055916773  17.912946428571427 32.403771131339404  C 17.54092261904762 33.018855656697006  17.327008928571427 33.62928045080191  17.271205357142858 34.2350455136541  C 17.215401785714285 34.840810576506286  17.271205357142858 35.38133940182055  17.438616071428573 35.85663198959688  C 17.606026785714285 36.331924577373215  17.917596726190478 36.84449501517122  18.373325892857142 37.3943433029909  C 18.82905505952381 37.94419159081058  19.27548363095238 38.41016471608149  19.712611607142858 38.79226267880364  C 20.149739583333336 39.174360641525794  20.721726190476193 39.644993498049416  21.428571428571427 40.20416124837451  C 20.889136904761905 41.285218899003034  19.852120535714285 42.05873428695275  18.317522321428573 42.52470741222367  C 16.782924107142858 42.99068053749458  15.21577380952381 43.09785435630689  13.616071428571427 42.846228868660596  C 12.01636904761905 42.5946033810143  10.788690476190478 42.07737321196359  9.933035714285714 41.29453836150845  C 9.802827380952381 40.86584308625921  9.528459821428571 40.05039011703511  9.109933035714286 38.84817945383615  C 8.69140625 37.64596879063719  8.393787202380953 36.76527958387516  8.217075892857142 36.20611183355006  C 8.040364583333334 35.646944083224966  7.826450892857142 34.81751192024274  7.575334821428571 33.71781534460338  C 7.32421875 32.61811876896402  7.184709821428571 31.676853055916773  7.1568080357142865 30.89401820546164  C 7.128906250000002 30.1111833550065  7.161458333333334 29.193216298222797  7.2544642857142865 28.140117035110535  C 7.34747023809524 27.087017771998266  7.552083333333334 26.05721716514954  7.868303571428571 25.05071521456437  L 4.464285714285714 25.05071521456437  C 3.2366071428571432 25.05071521456437  2.1856398809523814 24.612700476809707  1.3113839285714286 23.73667100130039  C 0.4371279761904762 22.860641525791067  0 21.807542262678805  0 20.57737321196359  L 0 15.209362808842652  C 0 13.97919375812744  0.4371279761904762 12.926094495015167  1.3113839285714286 12.05006501950585  C 2.1856398809523814 11.174035543996528  3.2366071428571432 10.736020806241871  4.464285714285714 11  L 17.857142857142858 11  C 25.948660714285715 10.736020806241871  34.28199404761905 7.157347204161246  42.857142857142854 0  C 43.82440476190476 0  44.661458333333336 0.3541395752058907  45.36830357142857 1.0624187256176865  C 46.07514880952381 1.7706978760294725  46.42857142857143 2.609449501517119  46 3.5786736020806256  Z " stroke-width="0" stroke-dasharray="0" stroke="rgba(255, 255, 255, 0)" fill="none" transform="matrix(1 0 0 1 35 272 )" class="stroke" mask="url(#Clip474)" />
    <path d="M 21.428571428571427 21.667750325097533  C 28.441220238095237 22.450585175552664  35.58407738095239 25.6285218899003  42 31.201560468140443  L 42 4.52925877763329  C 35.52827380952381 10.158214130905936  28.385416666666668 13.354789770264409  21.428571428571427 14.118985695708714  L 21.428571428571427 21.667750325097533  Z " stroke-width="0" stroke-dasharray="0" stroke="rgba(255, 255, 255, 0)" fill="none" transform="matrix(1 0 0 1 35 272 )" class="stroke" mask="url(#Clip474)" />
  </g>
</svg>