<?xml version="1.0" encoding="utf-8"?>
<svg version="1.1" xmlns:xlink="http://www.w3.org/1999/xlink" width="13px" height="22px" xmlns="http://www.w3.org/2000/svg">
  <defs>
    <pattern id="BGPattern" patternUnits="userSpaceOnUse" alignment="0 0" imageRepeat="None" />
    <mask fill="white" id="Clip461">
      <path d="M 4.875 13.172991071428555  C 5.399739583333343 13.295758928571445  5.94140625 13.357142857142831  6.5 13.357142857142831  C 7.05859375 13.357142857142831  7.600260416666657 13.295758928571445  8.125 13.172991071428555  L 8.125 21.214285714285722  C 8.125 21.427083333333314  8.044596354166657 21.611235119047592  7.8837890625 21.766741071428555  C 7.722981770833343 21.92224702380952  7.532552083333343 22  7.3125 22  L 5.6875 22  C 5.467447916666657 22  5.277018229166657 21.92224702380952  5.1162109375 21.766741071428555  C 4.955403645833343 21.611235119047592  4.875 21.427083333333314  4.875 21.214285714285722  L 4.875 16.65789473684208  L 4.875 13.172991071428555  Z M 1.904296875 1.8415178571428328  C 3.173828125 0.6138392857142776  4.705729166666657 0  6.5 0  C 8.294270833333343 0  9.826171875 0.6138392857142776  11.095703125 1.8415178571428328  C 12.365234375 3.0691964285714444  13 4.550595238095241  13 6.285714285714278  C 13 8.020833333333314  12.365234375 9.502232142857167  11.095703125 10.729910714285722  C 9.826171875 11.957589285714278  8.294270833333343 12.571428571428555  6.5 12.571428571428555  C 4.705729166666657 12.571428571428555  3.173828125 11.957589285714278  1.904296875 10.729910714285722  C 0.634765625 9.502232142857167  0 8.020833333333314  0 6.285714285714278  C 0 4.550595238095241  0.634765625 3.0691964285714444  1.904296875 1.8415178571428328  Z M 3.91650390625 3.787388392857167  C 4.631673177083343 3.095796130952351  5.492838541666657 2.75  6.5 2.75  C 6.618489583333343 2.75  6.7158203125 2.713169642857167  6.7919921875 2.639508928571445  C 6.8681640625 2.5658482142857224  6.90625 2.471726190476204  6.90625 2.357142857142833  C 6.90625 2.2425595238095184  6.8681640625 2.1484375  6.7919921875 2.0747767857142776  C 6.7158203125 2.001116071428555  6.618489583333343 1.9642857142857222  6.5 1.9642857142857222  C 5.264322916666657 1.9642857142857222  4.210611979166657 2.385788690476204  3.3388671875 3.228794642857167  C 2.467122395833343 4.071800595238074  2.03125 5.090773809523796  2.03125 6.285714285714278  C 2.03125 6.400297619047591  2.0693359375 6.494419642857167  2.1455078125 6.568080357142833  C 2.2216796875 6.641741071428555  2.319010416666657 6.678571428571445  2.4375 6.678571428571445  C 2.555989583333343 6.678571428571445  2.6533203125 6.641741071428555  2.7294921875 6.568080357142833  C 2.8056640625 6.494419642857167  2.84375 6.400297619047591  2.84375 6.285714285714278  C 2.84375 5.311755952380963  3.201334635416657 4.478980654761926  3.91650390625 3.787388392857167  Z " fill-rule="evenodd" />
    </mask>
  </defs>
  <g transform="matrix(1 0 0 1 -208 -309 )">
    <path d="M 4.875 13.172991071428555  C 5.399739583333343 13.295758928571445  5.94140625 13.357142857142831  6.5 13.357142857142831  C 7.05859375 13.357142857142831  7.600260416666657 13.295758928571445  8.125 13.172991071428555  L 8.125 21.214285714285722  C 8.125 21.427083333333314  8.044596354166657 21.611235119047592  7.8837890625 21.766741071428555  C 7.722981770833343 21.92224702380952  7.532552083333343 22  7.3125 22  L 5.6875 22  C 5.467447916666657 22  5.277018229166657 21.92224702380952  5.1162109375 21.766741071428555  C 4.955403645833343 21.611235119047592  4.875 21.427083333333314  4.875 21.214285714285722  L 4.875 16.65789473684208  L 4.875 13.172991071428555  Z M 1.904296875 1.8415178571428328  C 3.173828125 0.6138392857142776  4.705729166666657 0  6.5 0  C 8.294270833333343 0  9.826171875 0.6138392857142776  11.095703125 1.8415178571428328  C 12.365234375 3.0691964285714444  13 4.550595238095241  13 6.285714285714278  C 13 8.020833333333314  12.365234375 9.502232142857167  11.095703125 10.729910714285722  C 9.826171875 11.957589285714278  8.294270833333343 12.571428571428555  6.5 12.571428571428555  C 4.705729166666657 12.571428571428555  3.173828125 11.957589285714278  1.904296875 10.729910714285722  C 0.634765625 9.502232142857167  0 8.020833333333314  0 6.285714285714278  C 0 4.550595238095241  0.634765625 3.0691964285714444  1.904296875 1.8415178571428328  Z M 3.91650390625 3.787388392857167  C 4.631673177083343 3.095796130952351  5.492838541666657 2.75  6.5 2.75  C 6.618489583333343 2.75  6.7158203125 2.713169642857167  6.7919921875 2.639508928571445  C 6.8681640625 2.5658482142857224  6.90625 2.471726190476204  6.90625 2.357142857142833  C 6.90625 2.2425595238095184  6.8681640625 2.1484375  6.7919921875 2.0747767857142776  C 6.7158203125 2.001116071428555  6.618489583333343 1.9642857142857222  6.5 1.9642857142857222  C 5.264322916666657 1.9642857142857222  4.210611979166657 2.385788690476204  3.3388671875 3.228794642857167  C 2.467122395833343 4.071800595238074  2.03125 5.090773809523796  2.03125 6.285714285714278  C 2.03125 6.400297619047591  2.0693359375 6.494419642857167  2.1455078125 6.568080357142833  C 2.2216796875 6.641741071428555  2.319010416666657 6.678571428571445  2.4375 6.678571428571445  C 2.555989583333343 6.678571428571445  2.6533203125 6.641741071428555  2.7294921875 6.568080357142833  C 2.8056640625 6.494419642857167  2.84375 6.400297619047591  2.84375 6.285714285714278  C 2.84375 5.311755952380963  3.201334635416657 4.478980654761926  3.91650390625 3.787388392857167  Z " fill-rule="nonzero" fill="rgba(217, 0, 27, 0.9921568627450981)" stroke="none" transform="matrix(1 0 0 1 208 309 )" class="fill" />
    <path d="M 4.875 13.172991071428555  C 5.399739583333343 13.295758928571445  5.94140625 13.357142857142831  6.5 13.357142857142831  C 7.05859375 13.357142857142831  7.600260416666657 13.295758928571445  8.125 13.172991071428555  L 8.125 21.214285714285722  C 8.125 21.427083333333314  8.044596354166657 21.611235119047592  7.8837890625 21.766741071428555  C 7.722981770833343 21.92224702380952  7.532552083333343 22  7.3125 22  L 5.6875 22  C 5.467447916666657 22  5.277018229166657 21.92224702380952  5.1162109375 21.766741071428555  C 4.955403645833343 21.611235119047592  4.875 21.427083333333314  4.875 21.214285714285722  L 4.875 16.65789473684208  L 4.875 13.172991071428555  Z " stroke-width="0" stroke-dasharray="0" stroke="rgba(255, 255, 255, 0)" fill="none" transform="matrix(1 0 0 1 208 309 )" class="stroke" mask="url(#Clip461)" />
    <path d="M 1.904296875 1.8415178571428328  C 3.173828125 0.6138392857142776  4.705729166666657 0  6.5 0  C 8.294270833333343 0  9.826171875 0.6138392857142776  11.095703125 1.8415178571428328  C 12.365234375 3.0691964285714444  13 4.550595238095241  13 6.285714285714278  C 13 8.020833333333314  12.365234375 9.502232142857167  11.095703125 10.729910714285722  C 9.826171875 11.957589285714278  8.294270833333343 12.571428571428555  6.5 12.571428571428555  C 4.705729166666657 12.571428571428555  3.173828125 11.957589285714278  1.904296875 10.729910714285722  C 0.634765625 9.502232142857167  0 8.020833333333314  0 6.285714285714278  C 0 4.550595238095241  0.634765625 3.0691964285714444  1.904296875 1.8415178571428328  Z " stroke-width="0" stroke-dasharray="0" stroke="rgba(255, 255, 255, 0)" fill="none" transform="matrix(1 0 0 1 208 309 )" class="stroke" mask="url(#Clip461)" />
    <path d="M 3.91650390625 3.787388392857167  C 4.631673177083343 3.095796130952351  5.492838541666657 2.75  6.5 2.75  C 6.618489583333343 2.75  6.7158203125 2.713169642857167  6.7919921875 2.639508928571445  C 6.8681640625 2.5658482142857224  6.90625 2.471726190476204  6.90625 2.357142857142833  C 6.90625 2.2425595238095184  6.8681640625 2.1484375  6.7919921875 2.0747767857142776  C 6.7158203125 2.001116071428555  6.618489583333343 1.9642857142857222  6.5 1.9642857142857222  C 5.264322916666657 1.9642857142857222  4.210611979166657 2.385788690476204  3.3388671875 3.228794642857167  C 2.467122395833343 4.071800595238074  2.03125 5.090773809523796  2.03125 6.285714285714278  C 2.03125 6.400297619047591  2.0693359375 6.494419642857167  2.1455078125 6.568080357142833  C 2.2216796875 6.641741071428555  2.319010416666657 6.678571428571445  2.4375 6.678571428571445  C 2.555989583333343 6.678571428571445  2.6533203125 6.641741071428555  2.7294921875 6.568080357142833  C 2.8056640625 6.494419642857167  2.84375 6.400297619047591  2.84375 6.285714285714278  C 2.84375 5.311755952380963  3.201334635416657 4.478980654761926  3.91650390625 3.787388392857167  Z " stroke-width="0" stroke-dasharray="0" stroke="rgba(255, 255, 255, 0)" fill="none" transform="matrix(1 0 0 1 208 309 )" class="stroke" mask="url(#Clip461)" />
  </g>
</svg>