<?xml version="1.0" encoding="utf-8"?>
<svg version="1.1" xmlns:xlink="http://www.w3.org/1999/xlink" width="40px" height="29px" xmlns="http://www.w3.org/2000/svg">
  <defs>
    <pattern id="BGPattern" patternUnits="userSpaceOnUse" alignment="0 0" imageRepeat="None" />
    <mask fill="white" id="Clip444">
      <path d="M 39.27741935483871 4.003367003367004  C 39.75913978494624 4.459034792368125  40.00000000000001 5.012345679012346  40 5.6632996632996635  C 40.00000000000001 6.314253647586978  39.75913978494624 6.867564534231199  39.27741935483871 7.323232323232322  L 20.593548387096774 24.996632996632997  L 17.083870967741937 28.316498316498315  C 16.60215053763441 28.77216610549944  16.01720430107527 29  15.329032258064517 29  C 14.640860215053763 29  14.055913978494626 28.77216610549944  13.574193548387097 28.316498316498315  L 10.064516129032256 24.996632996632997  L 0.7225806451612904 16.15993265993266  C 0.24086021505376368 15.704264870931535  0 15.150953984287314  0 14.5  C 0 13.849046015712682  0.24086021505376368 13.295735129068461  0.7225806451612904 12.84006734006734  L 4.232258064516129 9.52020202020202  C 4.713978494623657 9.064534231200897  5.298924731182797 8.836700336700334  5.987096774193549 8.836700336700337  C 6.675268817204303 8.836700336700334  7.260215053763441 9.064534231200897  7.741935483870968 9.52020202020202  L 15.329032258064517 16.72138047138047  L 32.25806451612903 0.6835016835016836  C 32.73978494623656 0.22783389450056013  33.3247311827957 0  34.012903225806454 0  C 34.701075268817206 0  35.28602150537635 0.22783389450056013  35.76774193548387 0.6835016835016836  L 39.27741935483871 4.003367003367004  Z " fill-rule="evenodd" />
    </mask>
  </defs>
  <g transform="matrix(1 0 0 1 -311 -63 )">
    <path d="M 39.27741935483871 4.003367003367004  C 39.75913978494624 4.459034792368125  40.00000000000001 5.012345679012346  40 5.6632996632996635  C 40.00000000000001 6.314253647586978  39.75913978494624 6.867564534231199  39.27741935483871 7.323232323232322  L 20.593548387096774 24.996632996632997  L 17.083870967741937 28.316498316498315  C 16.60215053763441 28.77216610549944  16.01720430107527 29  15.329032258064517 29  C 14.640860215053763 29  14.055913978494626 28.77216610549944  13.574193548387097 28.316498316498315  L 10.064516129032256 24.996632996632997  L 0.7225806451612904 16.15993265993266  C 0.24086021505376368 15.704264870931535  0 15.150953984287314  0 14.5  C 0 13.849046015712682  0.24086021505376368 13.295735129068461  0.7225806451612904 12.84006734006734  L 4.232258064516129 9.52020202020202  C 4.713978494623657 9.064534231200897  5.298924731182797 8.836700336700334  5.987096774193549 8.836700336700337  C 6.675268817204303 8.836700336700334  7.260215053763441 9.064534231200897  7.741935483870968 9.52020202020202  L 15.329032258064517 16.72138047138047  L 32.25806451612903 0.6835016835016836  C 32.73978494623656 0.22783389450056013  33.3247311827957 0  34.012903225806454 0  C 34.701075268817206 0  35.28602150537635 0.22783389450056013  35.76774193548387 0.6835016835016836  L 39.27741935483871 4.003367003367004  Z " fill-rule="nonzero" fill="rgba(0, 0, 0, 1)" stroke="none" transform="matrix(1 0 0 1 311 63 )" class="fill" />
    <path d="M 39.27741935483871 4.003367003367004  C 39.75913978494624 4.459034792368125  40.00000000000001 5.012345679012346  40 5.6632996632996635  C 40.00000000000001 6.314253647586978  39.75913978494624 6.867564534231199  39.27741935483871 7.323232323232322  L 20.593548387096774 24.996632996632997  L 17.083870967741937 28.316498316498315  C 16.60215053763441 28.77216610549944  16.01720430107527 29  15.329032258064517 29  C 14.640860215053763 29  14.055913978494626 28.77216610549944  13.574193548387097 28.316498316498315  L 10.064516129032256 24.996632996632997  L 0.7225806451612904 16.15993265993266  C 0.24086021505376368 15.704264870931535  0 15.150953984287314  0 14.5  C 0 13.849046015712682  0.24086021505376368 13.295735129068461  0.7225806451612904 12.84006734006734  L 4.232258064516129 9.52020202020202  C 4.713978494623657 9.064534231200897  5.298924731182797 8.836700336700334  5.987096774193549 8.836700336700337  C 6.675268817204303 8.836700336700334  7.260215053763441 9.064534231200897  7.741935483870968 9.52020202020202  L 15.329032258064517 16.72138047138047  L 32.25806451612903 0.6835016835016836  C 32.73978494623656 0.22783389450056013  33.3247311827957 0  34.012903225806454 0  C 34.701075268817206 0  35.28602150537635 0.22783389450056013  35.76774193548387 0.6835016835016836  L 39.27741935483871 4.003367003367004  Z " stroke-width="16" stroke-dasharray="0" stroke="rgba(255, 255, 255, 0)" fill="none" transform="matrix(1 0 0 1 311 63 )" class="stroke" mask="url(#Clip444)" />
  </g>
</svg>