<?xml version="1.0" encoding="utf-8"?>
<svg version="1.1" xmlns:xlink="http://www.w3.org/1999/xlink" width="104px" height="104px" xmlns="http://www.w3.org/2000/svg">
  <defs>
    <pattern id="BGPattern" patternUnits="userSpaceOnUse" alignment="0 0" imageRepeat="None" />
    <mask fill="white" id="Clip482">
      <path d="M 102.44473342002601 42.87126137841352  L 93.11313394018205 52  L 102.44473342002601 61.12873862158648  C 103.79713914174252 62.39098396185522  104.24794104898136 63.968790637191155  103.79713914174252 65.86215864759428  C 103.2561768530559 67.7104464672735  102.08409189423494 68.85999133073256  100.28088426527958 69.3107932379714  L 87.56827048114434 72.55656697009103  L 91.1521456436931 85.13394018205462  C 91.69310793237972 86.98222800173384  91.26484612050282 88.5600346770698  89.86736020806242 89.86736020806242  C 88.5600346770698 91.26484612050282  86.98222800173387 91.69310793237972  85.13394018205462 91.1521456436931  L 72.55656697009103 87.56827048114434  L 69.31079323797138 100.28088426527958  C 68.85999133073257 102.08409189423494  67.71044646727353 103.2561768530559  65.86215864759428 103.79713914174252  C 65.32119635890767 103.88729952319028  64.89293454703078 103.93237971391417  64.57737321196359 103.93237971391417  C 63.179887299523195 103.93237971391417  62.03034243606416 103.43649761595145  61.12873862158648 102.44473342002601  L 52 93.11313394018205  L 42.87126137841352 102.44473342002601  C 41.60901603814478 103.79713914174252  40.031209362808845 104.24794104898136  38.13784135240572 103.79713914174252  C 36.28955353272649 103.30125704377981  35.14000866926745 102.12917208495882  34.68920676202861 100.28088426527958  L 31.443433029908974 87.56827048114434  L 18.866059817945384 91.1521456436931  C 17.01777199826615 91.69310793237972  15.439965322930215 91.26484612050282  14.132639791937581 89.86736020806242  C 12.735153879497183 88.5600346770698  12.306892067620286 86.98222800173384  12.847854356306891 85.13394018205462  L 16.431729518855658 72.55656697009103  L 3.7191157347204165 69.3107932379714  C 1.9159081057650629 68.85999133073256  0.7438231469440832 67.7104464672735  0.20286085825747724 65.86215864759428  C -0.24794104898136107 63.968790637191155  0.20286085825747718 62.39098396185522  1.5552665799739922 61.12873862158648  L 10.886866059817946 52  L 1.5552665799739922 42.87126137841352  C 0.20286085825747718 41.60901603814477  -0.24794104898136107 40.031209362808845  0.20286085825747724 38.13784135240572  C 0.7438231469440832 36.28955353272649  1.9159081057650629 35.140008669267445  3.7191157347204165 34.68920676202861  L 16.431729518855658 31.443433029908974  L 12.847854356306891 18.86605981794538  C 12.306892067620286 17.017771998266134  12.735153879497183 15.439965322930206  14.132639791937581 14.132639791937578  C 15.439965322930215 12.735153879497176  17.01777199826615 12.306892067620286  18.866059817945384 12.847854356306893  L 31.443433029908974 16.43172951885566  L 34.68920676202861 3.7191157347204165  C 35.14000866926745 1.8708279150411684  36.28955353272649 0.7212830515821329  38.13784135240572 0.2704811443432984  C 39.986129172084965 -0.2704811443432984  41.5639358474209 0.15778066753359266  42.87126137841352 1.5552665799739946  L 52 10.95448634590377  L 61.12873862158648 1.5552665799739946  C 62.43606415257911 0.20286085825747957  64.01387082791504 -0.22540095361943457  65.86215864759428 0.2704811443432984  C 67.71044646727353 0.7212830515821329  68.85999133073257 1.8708279150411684  69.31079323797138 3.7191157347204165  L 72.55656697009103 16.43172951885566  L 85.13394018205462 12.847854356306893  C 86.98222800173387 12.306892067620286  88.5600346770698 12.735153879497176  89.86736020806242 14.132639791937578  C 91.26484612050282 15.439965322930206  91.69310793237972 17.017771998266134  91.1521456436931 18.86605981794538  L 87.56827048114434 31.443433029908974  L 100.28088426527958 34.68920676202861  C 102.08409189423494 35.140008669267445  103.2561768530559 36.28955353272649  103.79713914174252 38.13784135240572  C 104.24794104898136 40.031209362808845  103.79713914174252 41.60901603814477  102.44473342002601 42.87126137841352  Z " fill-rule="evenodd" />
    </mask>
  </defs>
  <g transform="matrix(1 0 0 1 -128 -519 )">
    <path d="M 102.44473342002601 42.87126137841352  L 93.11313394018205 52  L 102.44473342002601 61.12873862158648  C 103.79713914174252 62.39098396185522  104.24794104898136 63.968790637191155  103.79713914174252 65.86215864759428  C 103.2561768530559 67.7104464672735  102.08409189423494 68.85999133073256  100.28088426527958 69.3107932379714  L 87.56827048114434 72.55656697009103  L 91.1521456436931 85.13394018205462  C 91.69310793237972 86.98222800173384  91.26484612050282 88.5600346770698  89.86736020806242 89.86736020806242  C 88.5600346770698 91.26484612050282  86.98222800173387 91.69310793237972  85.13394018205462 91.1521456436931  L 72.55656697009103 87.56827048114434  L 69.31079323797138 100.28088426527958  C 68.85999133073257 102.08409189423494  67.71044646727353 103.2561768530559  65.86215864759428 103.79713914174252  C 65.32119635890767 103.88729952319028  64.89293454703078 103.93237971391417  64.57737321196359 103.93237971391417  C 63.179887299523195 103.93237971391417  62.03034243606416 103.43649761595145  61.12873862158648 102.44473342002601  L 52 93.11313394018205  L 42.87126137841352 102.44473342002601  C 41.60901603814478 103.79713914174252  40.031209362808845 104.24794104898136  38.13784135240572 103.79713914174252  C 36.28955353272649 103.30125704377981  35.14000866926745 102.12917208495882  34.68920676202861 100.28088426527958  L 31.443433029908974 87.56827048114434  L 18.866059817945384 91.1521456436931  C 17.01777199826615 91.69310793237972  15.439965322930215 91.26484612050282  14.132639791937581 89.86736020806242  C 12.735153879497183 88.5600346770698  12.306892067620286 86.98222800173384  12.847854356306891 85.13394018205462  L 16.431729518855658 72.55656697009103  L 3.7191157347204165 69.3107932379714  C 1.9159081057650629 68.85999133073256  0.7438231469440832 67.7104464672735  0.20286085825747724 65.86215864759428  C -0.24794104898136107 63.968790637191155  0.20286085825747718 62.39098396185522  1.5552665799739922 61.12873862158648  L 10.886866059817946 52  L 1.5552665799739922 42.87126137841352  C 0.20286085825747718 41.60901603814477  -0.24794104898136107 40.031209362808845  0.20286085825747724 38.13784135240572  C 0.7438231469440832 36.28955353272649  1.9159081057650629 35.140008669267445  3.7191157347204165 34.68920676202861  L 16.431729518855658 31.443433029908974  L 12.847854356306891 18.86605981794538  C 12.306892067620286 17.017771998266134  12.735153879497183 15.439965322930206  14.132639791937581 14.132639791937578  C 15.439965322930215 12.735153879497176  17.01777199826615 12.306892067620286  18.866059817945384 12.847854356306893  L 31.443433029908974 16.43172951885566  L 34.68920676202861 3.7191157347204165  C 35.14000866926745 1.8708279150411684  36.28955353272649 0.7212830515821329  38.13784135240572 0.2704811443432984  C 39.986129172084965 -0.2704811443432984  41.5639358474209 0.15778066753359266  42.87126137841352 1.5552665799739946  L 52 10.95448634590377  L 61.12873862158648 1.5552665799739946  C 62.43606415257911 0.20286085825747957  64.01387082791504 -0.22540095361943457  65.86215864759428 0.2704811443432984  C 67.71044646727353 0.7212830515821329  68.85999133073257 1.8708279150411684  69.31079323797138 3.7191157347204165  L 72.55656697009103 16.43172951885566  L 85.13394018205462 12.847854356306893  C 86.98222800173387 12.306892067620286  88.5600346770698 12.735153879497176  89.86736020806242 14.132639791937578  C 91.26484612050282 15.439965322930206  91.69310793237972 17.017771998266134  91.1521456436931 18.86605981794538  L 87.56827048114434 31.443433029908974  L 100.28088426527958 34.68920676202861  C 102.08409189423494 35.140008669267445  103.2561768530559 36.28955353272649  103.79713914174252 38.13784135240572  C 104.24794104898136 40.031209362808845  103.79713914174252 41.60901603814477  102.44473342002601 42.87126137841352  Z " fill-rule="nonzero" fill="rgba(212, 175, 55, 0.9921568627450981)" stroke="none" transform="matrix(1 0 0 1 128 519 )" class="fill" />
    <path d="M 102.44473342002601 42.87126137841352  L 93.11313394018205 52  L 102.44473342002601 61.12873862158648  C 103.79713914174252 62.39098396185522  104.24794104898136 63.968790637191155  103.79713914174252 65.86215864759428  C 103.2561768530559 67.7104464672735  102.08409189423494 68.85999133073256  100.28088426527958 69.3107932379714  L 87.56827048114434 72.55656697009103  L 91.1521456436931 85.13394018205462  C 91.69310793237972 86.98222800173384  91.26484612050282 88.5600346770698  89.86736020806242 89.86736020806242  C 88.5600346770698 91.26484612050282  86.98222800173387 91.69310793237972  85.13394018205462 91.1521456436931  L 72.55656697009103 87.56827048114434  L 69.31079323797138 100.28088426527958  C 68.85999133073257 102.08409189423494  67.71044646727353 103.2561768530559  65.86215864759428 103.79713914174252  C 65.32119635890767 103.88729952319028  64.89293454703078 103.93237971391417  64.57737321196359 103.93237971391417  C 63.179887299523195 103.93237971391417  62.03034243606416 103.43649761595145  61.12873862158648 102.44473342002601  L 52 93.11313394018205  L 42.87126137841352 102.44473342002601  C 41.60901603814478 103.79713914174252  40.031209362808845 104.24794104898136  38.13784135240572 103.79713914174252  C 36.28955353272649 103.30125704377981  35.14000866926745 102.12917208495882  34.68920676202861 100.28088426527958  L 31.443433029908974 87.56827048114434  L 18.866059817945384 91.1521456436931  C 17.01777199826615 91.69310793237972  15.439965322930215 91.26484612050282  14.132639791937581 89.86736020806242  C 12.735153879497183 88.5600346770698  12.306892067620286 86.98222800173384  12.847854356306891 85.13394018205462  L 16.431729518855658 72.55656697009103  L 3.7191157347204165 69.3107932379714  C 1.9159081057650629 68.85999133073256  0.7438231469440832 67.7104464672735  0.20286085825747724 65.86215864759428  C -0.24794104898136107 63.968790637191155  0.20286085825747718 62.39098396185522  1.5552665799739922 61.12873862158648  L 10.886866059817946 52  L 1.5552665799739922 42.87126137841352  C 0.20286085825747718 41.60901603814477  -0.24794104898136107 40.031209362808845  0.20286085825747724 38.13784135240572  C 0.7438231469440832 36.28955353272649  1.9159081057650629 35.140008669267445  3.7191157347204165 34.68920676202861  L 16.431729518855658 31.443433029908974  L 12.847854356306891 18.86605981794538  C 12.306892067620286 17.017771998266134  12.735153879497183 15.439965322930206  14.132639791937581 14.132639791937578  C 15.439965322930215 12.735153879497176  17.01777199826615 12.306892067620286  18.866059817945384 12.847854356306893  L 31.443433029908974 16.43172951885566  L 34.68920676202861 3.7191157347204165  C 35.14000866926745 1.8708279150411684  36.28955353272649 0.7212830515821329  38.13784135240572 0.2704811443432984  C 39.986129172084965 -0.2704811443432984  41.5639358474209 0.15778066753359266  42.87126137841352 1.5552665799739946  L 52 10.95448634590377  L 61.12873862158648 1.5552665799739946  C 62.43606415257911 0.20286085825747957  64.01387082791504 -0.22540095361943457  65.86215864759428 0.2704811443432984  C 67.71044646727353 0.7212830515821329  68.85999133073257 1.8708279150411684  69.31079323797138 3.7191157347204165  L 72.55656697009103 16.43172951885566  L 85.13394018205462 12.847854356306893  C 86.98222800173387 12.306892067620286  88.5600346770698 12.735153879497176  89.86736020806242 14.132639791937578  C 91.26484612050282 15.439965322930206  91.69310793237972 17.017771998266134  91.1521456436931 18.86605981794538  L 87.56827048114434 31.443433029908974  L 100.28088426527958 34.68920676202861  C 102.08409189423494 35.140008669267445  103.2561768530559 36.28955353272649  103.79713914174252 38.13784135240572  C 104.24794104898136 40.031209362808845  103.79713914174252 41.60901603814477  102.44473342002601 42.87126137841352  Z " stroke-width="0" stroke-dasharray="0" stroke="rgba(255, 255, 255, 0)" fill="none" transform="matrix(1 0 0 1 128 519 )" class="stroke" mask="url(#Clip482)" />
  </g>
</svg>