<?xml version="1.0" encoding="utf-8"?>
<svg version="1.1" xmlns:xlink="http://www.w3.org/1999/xlink" width="84px" height="86px" xmlns="http://www.w3.org/2000/svg">
  <defs>
    <pattern id="BGPattern" patternUnits="userSpaceOnUse" alignment="0 0" imageRepeat="None" />
    <mask fill="white" id="Clip483">
      <path d="M 82.74382314694408 35.45123537061118  L 75.20676202860858 43  L 82.74382314694408 50.54876462938882  C 83.83615084525357 51.59254442999566  84.2002600780234 52.89726918075422  83.83615084525357 54.4629388816645  C 83.39921976592977 55.99133073255309  82.45253576072822 56.94191590810576  80.9960988296489 57.3146944083225  L 70.72821846553965 59.99869960988296  L 73.62288686605982 70.39921976592979  C 74.05981794538361 71.92761161681837  73.71391417425228 73.23233636757695  72.5851755526658 74.31339401820546  C 71.52925877763329 75.46900736887733  70.2548764629389 75.82314694408322  68.76202860858258 75.37581274382315  L 58.60338101430429 72.41222366710012  L 55.981794538361505 82.92457737321196  C 55.617685305591685 84.4156913740789  54.68920676202862 85.38491547464238  53.196358907672305 85.83224967490247  C 52.75942782834851 85.9068053749458  52.41352405721717 85.94408322496749  52.158647594278285 85.94408322496749  C 51.02990897269181 85.94408322496749  50.10143042912874 85.5340268747291  49.37321196358908 84.71391417425227  L 42 76.99739921976592  L 34.62678803641092 84.71391417425227  C 33.6072821846554 85.83224967490247  32.33289986996099 86.2050281751192  30.803641092327698 85.83224967490247  C 29.310793237971396 85.42219332466408  28.38231469440833 84.45296922410056  28.01820546163849 82.92457737321196  L 25.39661898569571 72.41222366710012  L 15.237971391417425 75.37581274382315  C 13.745123537061119 75.82314694408322  12.470741222366712 75.46900736887733  11.4148244473342 74.31339401820546  C 10.286085825747724 73.23233636757695  9.940182054616384 71.92761161681837  10.377113133940181 70.39921976592979  L 13.271781534460338 59.99869960988296  L 3.0039011703511056 57.3146944083225  C 1.5474642392717817 56.94191590810576  0.6007802340702211 55.99133073255309  0.16384915474642392 54.4629388816645  C -0.200260078023407 52.89726918075422  0.16384915474642386 51.59254442999566  1.2561768530559168 50.54876462938882  L 8.793237971391417 43  L 1.2561768530559168 35.45123537061118  C 0.16384915474642386 34.40745557000433  -0.200260078023407 33.10273081924578  0.16384915474642392 31.5370611183355  C 0.6007802340702211 30.0086692674469  1.5474642392717817 29.058084091894237  3.0039011703511056 28.68530559167751  L 13.271781534460338 26.001300390117038  L 10.377113133940181 15.600780234070218  C 9.940182054616384 14.07238838318161  10.286085825747724 12.767663632423055  11.4148244473342 11.686605981794536  C 12.470741222366712 10.530992631122665  13.745123537061119 10.176853055916775  15.237971391417425 10.624187256176853  L 25.39661898569571 13.587776332899873  L 28.01820546163849 3.0754226267880367  C 28.38231469440833 1.5470307758994277  29.310793237971396 0.5964456003467637  30.803641092327698 0.2236671001300352  C 32.29648894668401 -0.2236671001300352  33.57087126137842 0.13047247507585547  34.62678803641092 1.2860858257477263  L 42 9.05851755526658  L 49.37321196358908 1.2860858257477263  C 50.429128738621586 0.16775032509753118  51.703511053316 -0.1863892501083786  53.196358907672305 0.2236671001300352  C 54.68920676202862 0.5964456003467637  55.617685305591685 1.5470307758994277  55.981794538361505 3.0754226267880367  L 58.60338101430429 13.587776332899873  L 68.76202860858258 10.624187256176853  C 70.2548764629389 10.176853055916775  71.52925877763329 10.530992631122665  72.5851755526658 11.686605981794536  C 73.71391417425228 12.767663632423055  74.05981794538361 14.07238838318161  73.62288686605982 15.600780234070218  L 70.72821846553965 26.001300390117038  L 80.9960988296489 28.68530559167751  C 82.45253576072822 29.058084091894237  83.39921976592977 30.0086692674469  83.83615084525357 31.5370611183355  C 84.2002600780234 33.10273081924578  83.83615084525357 34.40745557000433  82.74382314694408 35.45123537061118  Z " fill-rule="evenodd" />
    </mask>
  </defs>
  <g transform="matrix(1 0 0 1 -138 -528 )">
    <path d="M 82.74382314694408 35.45123537061118  L 75.20676202860858 43  L 82.74382314694408 50.54876462938882  C 83.83615084525357 51.59254442999566  84.2002600780234 52.89726918075422  83.83615084525357 54.4629388816645  C 83.39921976592977 55.99133073255309  82.45253576072822 56.94191590810576  80.9960988296489 57.3146944083225  L 70.72821846553965 59.99869960988296  L 73.62288686605982 70.39921976592979  C 74.05981794538361 71.92761161681837  73.71391417425228 73.23233636757695  72.5851755526658 74.31339401820546  C 71.52925877763329 75.46900736887733  70.2548764629389 75.82314694408322  68.76202860858258 75.37581274382315  L 58.60338101430429 72.41222366710012  L 55.981794538361505 82.92457737321196  C 55.617685305591685 84.4156913740789  54.68920676202862 85.38491547464238  53.196358907672305 85.83224967490247  C 52.75942782834851 85.9068053749458  52.41352405721717 85.94408322496749  52.158647594278285 85.94408322496749  C 51.02990897269181 85.94408322496749  50.10143042912874 85.5340268747291  49.37321196358908 84.71391417425227  L 42 76.99739921976592  L 34.62678803641092 84.71391417425227  C 33.6072821846554 85.83224967490247  32.33289986996099 86.2050281751192  30.803641092327698 85.83224967490247  C 29.310793237971396 85.42219332466408  28.38231469440833 84.45296922410056  28.01820546163849 82.92457737321196  L 25.39661898569571 72.41222366710012  L 15.237971391417425 75.37581274382315  C 13.745123537061119 75.82314694408322  12.470741222366712 75.46900736887733  11.4148244473342 74.31339401820546  C 10.286085825747724 73.23233636757695  9.940182054616384 71.92761161681837  10.377113133940181 70.39921976592979  L 13.271781534460338 59.99869960988296  L 3.0039011703511056 57.3146944083225  C 1.5474642392717817 56.94191590810576  0.6007802340702211 55.99133073255309  0.16384915474642392 54.4629388816645  C -0.200260078023407 52.89726918075422  0.16384915474642386 51.59254442999566  1.2561768530559168 50.54876462938882  L 8.793237971391417 43  L 1.2561768530559168 35.45123537061118  C 0.16384915474642386 34.40745557000433  -0.200260078023407 33.10273081924578  0.16384915474642392 31.5370611183355  C 0.6007802340702211 30.0086692674469  1.5474642392717817 29.058084091894237  3.0039011703511056 28.68530559167751  L 13.271781534460338 26.001300390117038  L 10.377113133940181 15.600780234070218  C 9.940182054616384 14.07238838318161  10.286085825747724 12.767663632423055  11.4148244473342 11.686605981794536  C 12.470741222366712 10.530992631122665  13.745123537061119 10.176853055916775  15.237971391417425 10.624187256176853  L 25.39661898569571 13.587776332899873  L 28.01820546163849 3.0754226267880367  C 28.38231469440833 1.5470307758994277  29.310793237971396 0.5964456003467637  30.803641092327698 0.2236671001300352  C 32.29648894668401 -0.2236671001300352  33.57087126137842 0.13047247507585547  34.62678803641092 1.2860858257477263  L 42 9.05851755526658  L 49.37321196358908 1.2860858257477263  C 50.429128738621586 0.16775032509753118  51.703511053316 -0.1863892501083786  53.196358907672305 0.2236671001300352  C 54.68920676202862 0.5964456003467637  55.617685305591685 1.5470307758994277  55.981794538361505 3.0754226267880367  L 58.60338101430429 13.587776332899873  L 68.76202860858258 10.624187256176853  C 70.2548764629389 10.176853055916775  71.52925877763329 10.530992631122665  72.5851755526658 11.686605981794536  C 73.71391417425228 12.767663632423055  74.05981794538361 14.07238838318161  73.62288686605982 15.600780234070218  L 70.72821846553965 26.001300390117038  L 80.9960988296489 28.68530559167751  C 82.45253576072822 29.058084091894237  83.39921976592977 30.0086692674469  83.83615084525357 31.5370611183355  C 84.2002600780234 33.10273081924578  83.83615084525357 34.40745557000433  82.74382314694408 35.45123537061118  Z " fill-rule="nonzero" fill="rgba(0, 0, 0, 1)" stroke="none" transform="matrix(1 0 0 1 138 528 )" class="fill" />
    <path d="M 82.74382314694408 35.45123537061118  L 75.20676202860858 43  L 82.74382314694408 50.54876462938882  C 83.83615084525357 51.59254442999566  84.2002600780234 52.89726918075422  83.83615084525357 54.4629388816645  C 83.39921976592977 55.99133073255309  82.45253576072822 56.94191590810576  80.9960988296489 57.3146944083225  L 70.72821846553965 59.99869960988296  L 73.62288686605982 70.39921976592979  C 74.05981794538361 71.92761161681837  73.71391417425228 73.23233636757695  72.5851755526658 74.31339401820546  C 71.52925877763329 75.46900736887733  70.2548764629389 75.82314694408322  68.76202860858258 75.37581274382315  L 58.60338101430429 72.41222366710012  L 55.981794538361505 82.92457737321196  C 55.617685305591685 84.4156913740789  54.68920676202862 85.38491547464238  53.196358907672305 85.83224967490247  C 52.75942782834851 85.9068053749458  52.41352405721717 85.94408322496749  52.158647594278285 85.94408322496749  C 51.02990897269181 85.94408322496749  50.10143042912874 85.5340268747291  49.37321196358908 84.71391417425227  L 42 76.99739921976592  L 34.62678803641092 84.71391417425227  C 33.6072821846554 85.83224967490247  32.33289986996099 86.2050281751192  30.803641092327698 85.83224967490247  C 29.310793237971396 85.42219332466408  28.38231469440833 84.45296922410056  28.01820546163849 82.92457737321196  L 25.39661898569571 72.41222366710012  L 15.237971391417425 75.37581274382315  C 13.745123537061119 75.82314694408322  12.470741222366712 75.46900736887733  11.4148244473342 74.31339401820546  C 10.286085825747724 73.23233636757695  9.940182054616384 71.92761161681837  10.377113133940181 70.39921976592979  L 13.271781534460338 59.99869960988296  L 3.0039011703511056 57.3146944083225  C 1.5474642392717817 56.94191590810576  0.6007802340702211 55.99133073255309  0.16384915474642392 54.4629388816645  C -0.200260078023407 52.89726918075422  0.16384915474642386 51.59254442999566  1.2561768530559168 50.54876462938882  L 8.793237971391417 43  L 1.2561768530559168 35.45123537061118  C 0.16384915474642386 34.40745557000433  -0.200260078023407 33.10273081924578  0.16384915474642392 31.5370611183355  C 0.6007802340702211 30.0086692674469  1.5474642392717817 29.058084091894237  3.0039011703511056 28.68530559167751  L 13.271781534460338 26.001300390117038  L 10.377113133940181 15.600780234070218  C 9.940182054616384 14.07238838318161  10.286085825747724 12.767663632423055  11.4148244473342 11.686605981794536  C 12.470741222366712 10.530992631122665  13.745123537061119 10.176853055916775  15.237971391417425 10.624187256176853  L 25.39661898569571 13.587776332899873  L 28.01820546163849 3.0754226267880367  C 28.38231469440833 1.5470307758994277  29.310793237971396 0.5964456003467637  30.803641092327698 0.2236671001300352  C 32.29648894668401 -0.2236671001300352  33.57087126137842 0.13047247507585547  34.62678803641092 1.2860858257477263  L 42 9.05851755526658  L 49.37321196358908 1.2860858257477263  C 50.429128738621586 0.16775032509753118  51.703511053316 -0.1863892501083786  53.196358907672305 0.2236671001300352  C 54.68920676202862 0.5964456003467637  55.617685305591685 1.5470307758994277  55.981794538361505 3.0754226267880367  L 58.60338101430429 13.587776332899873  L 68.76202860858258 10.624187256176853  C 70.2548764629389 10.176853055916775  71.52925877763329 10.530992631122665  72.5851755526658 11.686605981794536  C 73.71391417425228 12.767663632423055  74.05981794538361 14.07238838318161  73.62288686605982 15.600780234070218  L 70.72821846553965 26.001300390117038  L 80.9960988296489 28.68530559167751  C 82.45253576072822 29.058084091894237  83.39921976592977 30.0086692674469  83.83615084525357 31.5370611183355  C 84.2002600780234 33.10273081924578  83.83615084525357 34.40745557000433  82.74382314694408 35.45123537061118  Z " stroke-width="0" stroke-dasharray="0" stroke="rgba(255, 255, 255, 0)" fill="none" transform="matrix(1 0 0 1 138 528 )" class="stroke" mask="url(#Clip483)" />
  </g>
</svg>