<?xml version="1.0" encoding="utf-8"?>
<svg version="1.1" xmlns:xlink="http://www.w3.org/1999/xlink" width="69px" height="69px" xmlns="http://www.w3.org/2000/svg">
  <defs>
    <pattern id="BGPattern" patternUnits="userSpaceOnUse" alignment="0 0" imageRepeat="None" />
    <mask fill="white" id="Clip484">
      <path d="M 67.96814044213264 28.443433029908974  L 61.776983094928475 34.5  L 67.96814044213264 40.556566970091026  C 68.86540962288686 41.394018205461634  69.16449934980494 42.440832249674905  68.86540962288686 43.69700910273082  C 68.50650195058518 44.92327698309492  67.72886866059818 45.68595578673602  66.53250975292588 45.9850455136541  L 58.098179453836146 48.138491547464234  L 60.47594278283485 56.48309492847854  C 60.83485045513654 57.70936280884265  60.55071521456438 58.75617685305592  59.62353706111834 59.62353706111834  C 58.75617685305592 60.55071521456438  57.70936280884266 60.83485045513654  56.48309492847854 60.47594278283485  L 48.138491547464234 58.098179453836146  L 45.98504551365409 66.53250975292588  C 45.68595578673603 67.72886866059818  44.92327698309494 68.50650195058518  43.69700910273082 68.86540962288686  C 43.33810143042913 68.92522756827047  43.05396618985696 68.95513654096229  42.84460338101431 68.95513654096229  C 41.91742522756827 68.95513654096229  41.15474642392718 68.62613784135242  40.556566970091026 67.96814044213264  L 34.5 61.776983094928475  L 28.443433029908974 67.96814044213264  C 27.605981794538366 68.86540962288686  26.5591677503251 69.16449934980494  25.30299089726918 68.86540962288686  C 24.076723016905074 68.53641092327699  23.314044213263983 67.75877763328998  23.014954486345903 66.53250975292588  L 20.861508452535762 58.098179453836146  L 12.516905071521457 60.47594278283485  C 11.290637191157348 60.83485045513654  10.243823146944084 60.55071521456438  9.376462938881664 59.62353706111834  C 8.449284785435632 58.75617685305592  8.165149544863459 57.70936280884265  8.524057217165149 56.48309492847854  L 10.901820546163849 48.138491547464234  L 2.4674902470741227 45.9850455136541  C 1.2711313394018207 45.68595578673602  0.49349804941482445 44.92327698309492  0.13459037711313393 43.69700910273082  C -0.1644993498049415 42.440832249674905  0.1345903771131339 41.394018205461634  1.0318595578673602 40.556566970091026  L 7.223016905071521 34.5  L 1.0318595578673602 28.443433029908974  C 0.1345903771131339 27.60598179453836  -0.1644993498049415 26.5591677503251  0.13459037711313393 25.30299089726918  C 0.49349804941482445 24.07672301690507  1.2711313394018207 23.31404421326398  2.4674902470741227 23.014954486345907  L 10.901820546163849 20.861508452535762  L 8.524057217165149 12.516905071521455  C 8.165149544863459 11.290637191157337  8.449284785435632 10.243823146944079  9.376462938881664 9.376462938881662  C 10.243823146944084 8.449284785435626  11.290637191157348 8.165149544863459  12.516905071521457 8.52405721716515  L 20.861508452535762 10.90182054616385  L 23.014954486345903 2.4674902470741227  C 23.314044213263983 1.241222366710006  24.076723016905074 0.4785435630689151  25.30299089726918 0.1794538361508422  C 26.52925877763329 -0.1794538361508422  27.57607282184656 0.1046814044213259  28.443433029908974 1.031859557867362  L 34.5 7.2678803641092316  L 40.556566970091026 1.031859557867362  C 41.42392717815344 0.13459037711313548  42.47074122236671 -0.14954486345904794  43.69700910273082 0.1794538361508422  C 44.92327698309494 0.4785435630689151  45.68595578673603 1.241222366710006  45.98504551365409 2.4674902470741227  L 48.138491547464234 10.90182054616385  L 56.48309492847854 8.52405721716515  C 57.70936280884266 8.165149544863459  58.75617685305592 8.449284785435626  59.62353706111834 9.376462938881662  C 60.55071521456438 10.243823146944079  60.83485045513654 11.290637191157337  60.47594278283485 12.516905071521455  L 58.098179453836146 20.861508452535762  L 66.53250975292588 23.014954486345907  C 67.72886866059818 23.31404421326398  68.50650195058518 24.07672301690507  68.86540962288686 25.30299089726918  C 69.16449934980494 26.5591677503251  68.86540962288686 27.60598179453836  67.96814044213264 28.443433029908974  Z " fill-rule="evenodd" />
    </mask>
  </defs>
  <g transform="matrix(1 0 0 1 -146 -537 )">
    <path d="M 67.96814044213264 28.443433029908974  L 61.776983094928475 34.5  L 67.96814044213264 40.556566970091026  C 68.86540962288686 41.394018205461634  69.16449934980494 42.440832249674905  68.86540962288686 43.69700910273082  C 68.50650195058518 44.92327698309492  67.72886866059818 45.68595578673602  66.53250975292588 45.9850455136541  L 58.098179453836146 48.138491547464234  L 60.47594278283485 56.48309492847854  C 60.83485045513654 57.70936280884265  60.55071521456438 58.75617685305592  59.62353706111834 59.62353706111834  C 58.75617685305592 60.55071521456438  57.70936280884266 60.83485045513654  56.48309492847854 60.47594278283485  L 48.138491547464234 58.098179453836146  L 45.98504551365409 66.53250975292588  C 45.68595578673603 67.72886866059818  44.92327698309494 68.50650195058518  43.69700910273082 68.86540962288686  C 43.33810143042913 68.92522756827047  43.05396618985696 68.95513654096229  42.84460338101431 68.95513654096229  C 41.91742522756827 68.95513654096229  41.15474642392718 68.62613784135242  40.556566970091026 67.96814044213264  L 34.5 61.776983094928475  L 28.443433029908974 67.96814044213264  C 27.605981794538366 68.86540962288686  26.5591677503251 69.16449934980494  25.30299089726918 68.86540962288686  C 24.076723016905074 68.53641092327699  23.314044213263983 67.75877763328998  23.014954486345903 66.53250975292588  L 20.861508452535762 58.098179453836146  L 12.516905071521457 60.47594278283485  C 11.290637191157348 60.83485045513654  10.243823146944084 60.55071521456438  9.376462938881664 59.62353706111834  C 8.449284785435632 58.75617685305592  8.165149544863459 57.70936280884265  8.524057217165149 56.48309492847854  L 10.901820546163849 48.138491547464234  L 2.4674902470741227 45.9850455136541  C 1.2711313394018207 45.68595578673602  0.49349804941482445 44.92327698309492  0.13459037711313393 43.69700910273082  C -0.1644993498049415 42.440832249674905  0.1345903771131339 41.394018205461634  1.0318595578673602 40.556566970091026  L 7.223016905071521 34.5  L 1.0318595578673602 28.443433029908974  C 0.1345903771131339 27.60598179453836  -0.1644993498049415 26.5591677503251  0.13459037711313393 25.30299089726918  C 0.49349804941482445 24.07672301690507  1.2711313394018207 23.31404421326398  2.4674902470741227 23.014954486345907  L 10.901820546163849 20.861508452535762  L 8.524057217165149 12.516905071521455  C 8.165149544863459 11.290637191157337  8.449284785435632 10.243823146944079  9.376462938881664 9.376462938881662  C 10.243823146944084 8.449284785435626  11.290637191157348 8.165149544863459  12.516905071521457 8.52405721716515  L 20.861508452535762 10.90182054616385  L 23.014954486345903 2.4674902470741227  C 23.314044213263983 1.241222366710006  24.076723016905074 0.4785435630689151  25.30299089726918 0.1794538361508422  C 26.52925877763329 -0.1794538361508422  27.57607282184656 0.1046814044213259  28.443433029908974 1.031859557867362  L 34.5 7.2678803641092316  L 40.556566970091026 1.031859557867362  C 41.42392717815344 0.13459037711313548  42.47074122236671 -0.14954486345904794  43.69700910273082 0.1794538361508422  C 44.92327698309494 0.4785435630689151  45.68595578673603 1.241222366710006  45.98504551365409 2.4674902470741227  L 48.138491547464234 10.90182054616385  L 56.48309492847854 8.52405721716515  C 57.70936280884266 8.165149544863459  58.75617685305592 8.449284785435626  59.62353706111834 9.376462938881662  C 60.55071521456438 10.243823146944079  60.83485045513654 11.290637191157337  60.47594278283485 12.516905071521455  L 58.098179453836146 20.861508452535762  L 66.53250975292588 23.014954486345907  C 67.72886866059818 23.31404421326398  68.50650195058518 24.07672301690507  68.86540962288686 25.30299089726918  C 69.16449934980494 26.5591677503251  68.86540962288686 27.60598179453836  67.96814044213264 28.443433029908974  Z " fill-rule="nonzero" fill="rgba(212, 175, 55, 0.9921568627450981)" stroke="none" transform="matrix(1 0 0 1 146 537 )" class="fill" />
    <path d="M 67.96814044213264 28.443433029908974  L 61.776983094928475 34.5  L 67.96814044213264 40.556566970091026  C 68.86540962288686 41.394018205461634  69.16449934980494 42.440832249674905  68.86540962288686 43.69700910273082  C 68.50650195058518 44.92327698309492  67.72886866059818 45.68595578673602  66.53250975292588 45.9850455136541  L 58.098179453836146 48.138491547464234  L 60.47594278283485 56.48309492847854  C 60.83485045513654 57.70936280884265  60.55071521456438 58.75617685305592  59.62353706111834 59.62353706111834  C 58.75617685305592 60.55071521456438  57.70936280884266 60.83485045513654  56.48309492847854 60.47594278283485  L 48.138491547464234 58.098179453836146  L 45.98504551365409 66.53250975292588  C 45.68595578673603 67.72886866059818  44.92327698309494 68.50650195058518  43.69700910273082 68.86540962288686  C 43.33810143042913 68.92522756827047  43.05396618985696 68.95513654096229  42.84460338101431 68.95513654096229  C 41.91742522756827 68.95513654096229  41.15474642392718 68.62613784135242  40.556566970091026 67.96814044213264  L 34.5 61.776983094928475  L 28.443433029908974 67.96814044213264  C 27.605981794538366 68.86540962288686  26.5591677503251 69.16449934980494  25.30299089726918 68.86540962288686  C 24.076723016905074 68.53641092327699  23.314044213263983 67.75877763328998  23.014954486345903 66.53250975292588  L 20.861508452535762 58.098179453836146  L 12.516905071521457 60.47594278283485  C 11.290637191157348 60.83485045513654  10.243823146944084 60.55071521456438  9.376462938881664 59.62353706111834  C 8.449284785435632 58.75617685305592  8.165149544863459 57.70936280884265  8.524057217165149 56.48309492847854  L 10.901820546163849 48.138491547464234  L 2.4674902470741227 45.9850455136541  C 1.2711313394018207 45.68595578673602  0.49349804941482445 44.92327698309492  0.13459037711313393 43.69700910273082  C -0.1644993498049415 42.440832249674905  0.1345903771131339 41.394018205461634  1.0318595578673602 40.556566970091026  L 7.223016905071521 34.5  L 1.0318595578673602 28.443433029908974  C 0.1345903771131339 27.60598179453836  -0.1644993498049415 26.5591677503251  0.13459037711313393 25.30299089726918  C 0.49349804941482445 24.07672301690507  1.2711313394018207 23.31404421326398  2.4674902470741227 23.014954486345907  L 10.901820546163849 20.861508452535762  L 8.524057217165149 12.516905071521455  C 8.165149544863459 11.290637191157337  8.449284785435632 10.243823146944079  9.376462938881664 9.376462938881662  C 10.243823146944084 8.449284785435626  11.290637191157348 8.165149544863459  12.516905071521457 8.52405721716515  L 20.861508452535762 10.90182054616385  L 23.014954486345903 2.4674902470741227  C 23.314044213263983 1.241222366710006  24.076723016905074 0.4785435630689151  25.30299089726918 0.1794538361508422  C 26.52925877763329 -0.1794538361508422  27.57607282184656 0.1046814044213259  28.443433029908974 1.031859557867362  L 34.5 7.2678803641092316  L 40.556566970091026 1.031859557867362  C 41.42392717815344 0.13459037711313548  42.47074122236671 -0.14954486345904794  43.69700910273082 0.1794538361508422  C 44.92327698309494 0.4785435630689151  45.68595578673603 1.241222366710006  45.98504551365409 2.4674902470741227  L 48.138491547464234 10.90182054616385  L 56.48309492847854 8.52405721716515  C 57.70936280884266 8.165149544863459  58.75617685305592 8.449284785435626  59.62353706111834 9.376462938881662  C 60.55071521456438 10.243823146944079  60.83485045513654 11.290637191157337  60.47594278283485 12.516905071521455  L 58.098179453836146 20.861508452535762  L 66.53250975292588 23.014954486345907  C 67.72886866059818 23.31404421326398  68.50650195058518 24.07672301690507  68.86540962288686 25.30299089726918  C 69.16449934980494 26.5591677503251  68.86540962288686 27.60598179453836  67.96814044213264 28.443433029908974  Z " stroke-width="0" stroke-dasharray="0" stroke="rgba(255, 255, 255, 0)" fill="none" transform="matrix(1 0 0 1 146 537 )" class="stroke" mask="url(#Clip484)" />
  </g>
</svg>