<?xml version="1.0" encoding="utf-8"?>
<svg version="1.1" xmlns:xlink="http://www.w3.org/1999/xlink" width="56px" height="48px" xmlns="http://www.w3.org/2000/svg">
  <defs>
    <pattern id="BGPattern" patternUnits="userSpaceOnUse" alignment="0 0" imageRepeat="None" />
    <mask fill="white" id="Clip446">
      <path d="M 46.125 25.749999999999996  C 50.04166666666667 21.83333333333333  52 18.125  52 14.625  C 52 12.9375  51.77604166666667 11.447916666666664  51.328125 10.156249999999998  C 50.880208333333336 8.864583333333327  50.30729166666667 7.838541666666664  49.609375 7.078125  C 48.91145833333334 6.31770833333333  48.06250000000001 5.697916666666666  47.0625 5.218750000000002  C 46.0625 4.739583333333327  45.083333333333336 4.416666666666664  44.125 4.249999999999998  C 43.16666666666667 4.083333333333327  42.145833333333336 4.000000000000002  41.0625 4.000000000000002  C 39.97916666666667 4.000000000000002  38.8125 4.265625  37.5625 4.796875000000002  C 36.3125 5.328124999999998  35.161458333333336 5.9947916666666625  34.109375 6.796875  C 33.05729166666667 7.598958333333327  32.15625 8.348958333333327  31.406250000000004 9.046875  C 30.656250000000007 9.744791666666663  30.031250000000004 10.385416666666666  29.53125 10.96875  C 29.156250000000004 11.42708333333333  28.645833333333336 11.656249999999998  28 11.656249999999998  C 27.354166666666668 11.656249999999998  26.84375 11.42708333333333  26.46875 10.96875  C 25.96875 10.385416666666666  25.34375 9.744791666666663  24.59375 9.046875  C 23.84375 8.348958333333327  22.942708333333336 7.598958333333327  21.890625 6.796875  C 20.838541666666668 5.9947916666666625  19.6875 5.328124999999998  18.4375 4.796875000000002  C 17.1875 4.265625  16.020833333333336 4.000000000000002  14.937500000000002 4.000000000000002  C 13.854166666666668 4.000000000000002  12.833333333333336 4.083333333333327  11.875 4.249999999999998  C 10.916666666666668 4.416666666666664  9.9375 4.739583333333327  8.9375 5.218750000000002  C 7.9375 5.697916666666666  7.088541666666667 6.31770833333333  6.390625 7.078125  C 5.692708333333334 7.838541666666664  5.119791666666667 8.864583333333327  4.671875 10.156249999999998  C 4.223958333333334 11.447916666666664  4 12.9375  4 14.625  C 4 18.125  5.947916666666667 21.822916666666664  9.84375 25.718750000000004  L 28 43.21875  L 46.125 25.749999999999996  Z M 52.03125 3.8749999999999982  C 54.677083333333336 6.45833333333333  56 10.041666666666664  56 14.625  C 56 19.229166666666664  53.614583333333336 23.916666666666664  48.84375 28.6875  L 29.375 47.4375  C 29.000000000000004 47.8125  28.541666666666668 48  28 48  C 27.458333333333336 48  27.000000000000004 47.8125  26.625 47.4375  L 7.125 28.625000000000004  C 6.916666666666667 28.458333333333332  6.630208333333334 28.187499999999996  6.265625 27.812499999999996  C 5.901041666666667 27.437499999999996  5.322916666666667 26.755208333333336  4.53125 25.765625000000004  C 3.739583333333333 24.77604166666666  3.03125 23.760416666666664  2.40625 22.71875  C 1.78125 21.677083333333336  1.2239583333333335 20.416666666666664  0.734375 18.9375  C 0.24479166666666669 17.45833333333333  0 16.02083333333333  0 14.625  C 0 10.041666666666664  1.3229166666666665 6.45833333333333  3.96875 3.8749999999999982  C 6.614583333333334 1.291666666666666  10.270833333333332 0  14.937500000000002 0  C 16.229166666666668 0  17.546875 0.22395833333333037  18.890625 0.6718750000000018  C 20.234375 1.1197916666666625  21.484375 1.7239583333333304  22.640625 2.484375  C 23.796875000000004 3.2447916666666643  24.79166666666667 3.9583333333333286  25.625 4.624999999999998  C 26.458333333333336 5.2916666666666625  27.25 6  28 6.75  C 28.749999999999996 6  29.54166666666667 5.2916666666666625  30.375 4.624999999999998  C 31.208333333333336 3.9583333333333286  32.203125 3.2447916666666643  33.359375 2.484375  C 34.515625 1.7239583333333304  35.765625 1.1197916666666625  37.109375 0.6718750000000018  C 38.453125 0.22395833333333037  39.770833333333336 0  41.0625 0  C 45.72916666666667 0  49.38541666666667 1.291666666666666  52.03125 3.8749999999999982  Z " fill-rule="evenodd" />
    </mask>
  </defs>
  <g transform="matrix(1 0 0 1 -44 -286 )">
    <path d="M 46.125 25.749999999999996  C 50.04166666666667 21.83333333333333  52 18.125  52 14.625  C 52 12.9375  51.77604166666667 11.447916666666664  51.328125 10.156249999999998  C 50.880208333333336 8.864583333333327  50.30729166666667 7.838541666666664  49.609375 7.078125  C 48.91145833333334 6.31770833333333  48.06250000000001 5.697916666666666  47.0625 5.218750000000002  C 46.0625 4.739583333333327  45.083333333333336 4.416666666666664  44.125 4.249999999999998  C 43.16666666666667 4.083333333333327  42.145833333333336 4.000000000000002  41.0625 4.000000000000002  C 39.97916666666667 4.000000000000002  38.8125 4.265625  37.5625 4.796875000000002  C 36.3125 5.328124999999998  35.161458333333336 5.9947916666666625  34.109375 6.796875  C 33.05729166666667 7.598958333333327  32.15625 8.348958333333327  31.406250000000004 9.046875  C 30.656250000000007 9.744791666666663  30.031250000000004 10.385416666666666  29.53125 10.96875  C 29.156250000000004 11.42708333333333  28.645833333333336 11.656249999999998  28 11.656249999999998  C 27.354166666666668 11.656249999999998  26.84375 11.42708333333333  26.46875 10.96875  C 25.96875 10.385416666666666  25.34375 9.744791666666663  24.59375 9.046875  C 23.84375 8.348958333333327  22.942708333333336 7.598958333333327  21.890625 6.796875  C 20.838541666666668 5.9947916666666625  19.6875 5.328124999999998  18.4375 4.796875000000002  C 17.1875 4.265625  16.020833333333336 4.000000000000002  14.937500000000002 4.000000000000002  C 13.854166666666668 4.000000000000002  12.833333333333336 4.083333333333327  11.875 4.249999999999998  C 10.916666666666668 4.416666666666664  9.9375 4.739583333333327  8.9375 5.218750000000002  C 7.9375 5.697916666666666  7.088541666666667 6.31770833333333  6.390625 7.078125  C 5.692708333333334 7.838541666666664  5.119791666666667 8.864583333333327  4.671875 10.156249999999998  C 4.223958333333334 11.447916666666664  4 12.9375  4 14.625  C 4 18.125  5.947916666666667 21.822916666666664  9.84375 25.718750000000004  L 28 43.21875  L 46.125 25.749999999999996  Z M 52.03125 3.8749999999999982  C 54.677083333333336 6.45833333333333  56 10.041666666666664  56 14.625  C 56 19.229166666666664  53.614583333333336 23.916666666666664  48.84375 28.6875  L 29.375 47.4375  C 29.000000000000004 47.8125  28.541666666666668 48  28 48  C 27.458333333333336 48  27.000000000000004 47.8125  26.625 47.4375  L 7.125 28.625000000000004  C 6.916666666666667 28.458333333333332  6.630208333333334 28.187499999999996  6.265625 27.812499999999996  C 5.901041666666667 27.437499999999996  5.322916666666667 26.755208333333336  4.53125 25.765625000000004  C 3.739583333333333 24.77604166666666  3.03125 23.760416666666664  2.40625 22.71875  C 1.78125 21.677083333333336  1.2239583333333335 20.416666666666664  0.734375 18.9375  C 0.24479166666666669 17.45833333333333  0 16.02083333333333  0 14.625  C 0 10.041666666666664  1.3229166666666665 6.45833333333333  3.96875 3.8749999999999982  C 6.614583333333334 1.291666666666666  10.270833333333332 0  14.937500000000002 0  C 16.229166666666668 0  17.546875 0.22395833333333037  18.890625 0.6718750000000018  C 20.234375 1.1197916666666625  21.484375 1.7239583333333304  22.640625 2.484375  C 23.796875000000004 3.2447916666666643  24.79166666666667 3.9583333333333286  25.625 4.624999999999998  C 26.458333333333336 5.2916666666666625  27.25 6  28 6.75  C 28.749999999999996 6  29.54166666666667 5.2916666666666625  30.375 4.624999999999998  C 31.208333333333336 3.9583333333333286  32.203125 3.2447916666666643  33.359375 2.484375  C 34.515625 1.7239583333333304  35.765625 1.1197916666666625  37.109375 0.6718750000000018  C 38.453125 0.22395833333333037  39.770833333333336 0  41.0625 0  C 45.72916666666667 0  49.38541666666667 1.291666666666666  52.03125 3.8749999999999982  Z " fill-rule="nonzero" fill="rgba(0, 0, 0, 1)" stroke="none" transform="matrix(1 0 0 1 44 286 )" class="fill" />
    <path d="M 46.125 25.749999999999996  C 50.04166666666667 21.83333333333333  52 18.125  52 14.625  C 52 12.9375  51.77604166666667 11.447916666666664  51.328125 10.156249999999998  C 50.880208333333336 8.864583333333327  50.30729166666667 7.838541666666664  49.609375 7.078125  C 48.91145833333334 6.31770833333333  48.06250000000001 5.697916666666666  47.0625 5.218750000000002  C 46.0625 4.739583333333327  45.083333333333336 4.416666666666664  44.125 4.249999999999998  C 43.16666666666667 4.083333333333327  42.145833333333336 4.000000000000002  41.0625 4.000000000000002  C 39.97916666666667 4.000000000000002  38.8125 4.265625  37.5625 4.796875000000002  C 36.3125 5.328124999999998  35.161458333333336 5.9947916666666625  34.109375 6.796875  C 33.05729166666667 7.598958333333327  32.15625 8.348958333333327  31.406250000000004 9.046875  C 30.656250000000007 9.744791666666663  30.031250000000004 10.385416666666666  29.53125 10.96875  C 29.156250000000004 11.42708333333333  28.645833333333336 11.656249999999998  28 11.656249999999998  C 27.354166666666668 11.656249999999998  26.84375 11.42708333333333  26.46875 10.96875  C 25.96875 10.385416666666666  25.34375 9.744791666666663  24.59375 9.046875  C 23.84375 8.348958333333327  22.942708333333336 7.598958333333327  21.890625 6.796875  C 20.838541666666668 5.9947916666666625  19.6875 5.328124999999998  18.4375 4.796875000000002  C 17.1875 4.265625  16.020833333333336 4.000000000000002  14.937500000000002 4.000000000000002  C 13.854166666666668 4.000000000000002  12.833333333333336 4.083333333333327  11.875 4.249999999999998  C 10.916666666666668 4.416666666666664  9.9375 4.739583333333327  8.9375 5.218750000000002  C 7.9375 5.697916666666666  7.088541666666667 6.31770833333333  6.390625 7.078125  C 5.692708333333334 7.838541666666664  5.119791666666667 8.864583333333327  4.671875 10.156249999999998  C 4.223958333333334 11.447916666666664  4 12.9375  4 14.625  C 4 18.125  5.947916666666667 21.822916666666664  9.84375 25.718750000000004  L 28 43.21875  L 46.125 25.749999999999996  Z " stroke-width="0" stroke-dasharray="0" stroke="rgba(255, 255, 255, 0)" fill="none" transform="matrix(1 0 0 1 44 286 )" class="stroke" mask="url(#Clip446)" />
    <path d="M 52.03125 3.8749999999999982  C 54.677083333333336 6.45833333333333  56 10.041666666666664  56 14.625  C 56 19.229166666666664  53.614583333333336 23.916666666666664  48.84375 28.6875  L 29.375 47.4375  C 29.000000000000004 47.8125  28.541666666666668 48  28 48  C 27.458333333333336 48  27.000000000000004 47.8125  26.625 47.4375  L 7.125 28.625000000000004  C 6.916666666666667 28.458333333333332  6.630208333333334 28.187499999999996  6.265625 27.812499999999996  C 5.901041666666667 27.437499999999996  5.322916666666667 26.755208333333336  4.53125 25.765625000000004  C 3.739583333333333 24.77604166666666  3.03125 23.760416666666664  2.40625 22.71875  C 1.78125 21.677083333333336  1.2239583333333335 20.416666666666664  0.734375 18.9375  C 0.24479166666666669 17.45833333333333  0 16.02083333333333  0 14.625  C 0 10.041666666666664  1.3229166666666665 6.45833333333333  3.96875 3.8749999999999982  C 6.614583333333334 1.291666666666666  10.270833333333332 0  14.937500000000002 0  C 16.229166666666668 0  17.546875 0.22395833333333037  18.890625 0.6718750000000018  C 20.234375 1.1197916666666625  21.484375 1.7239583333333304  22.640625 2.484375  C 23.796875000000004 3.2447916666666643  24.79166666666667 3.9583333333333286  25.625 4.624999999999998  C 26.458333333333336 5.2916666666666625  27.25 6  28 6.75  C 28.749999999999996 6  29.54166666666667 5.2916666666666625  30.375 4.624999999999998  C 31.208333333333336 3.9583333333333286  32.203125 3.2447916666666643  33.359375 2.484375  C 34.515625 1.7239583333333304  35.765625 1.1197916666666625  37.109375 0.6718750000000018  C 38.453125 0.22395833333333037  39.770833333333336 0  41.0625 0  C 45.72916666666667 0  49.38541666666667 1.291666666666666  52.03125 3.8749999999999982  Z " stroke-width="0" stroke-dasharray="0" stroke="rgba(255, 255, 255, 0)" fill="none" transform="matrix(1 0 0 1 44 286 )" class="stroke" mask="url(#Clip446)" />
  </g>
</svg>