<?xml version="1.0" encoding="utf-8"?>
<svg version="1.1" xmlns:xlink="http://www.w3.org/1999/xlink" width="24px" height="32px" xmlns="http://www.w3.org/2000/svg">
  <defs>
    <pattern id="BGPattern" patternUnits="userSpaceOnUse" alignment="0 0" imageRepeat="None" />
    <mask fill="white" id="Clip413">
      <path d="M 23.58762886597938 1.92384769539078  C 23.862542955326465 2.137608550434198  24 2.383433533734131  24 2.661322645290582  C 24 2.939211756847026  23.862542955326465 3.185036740146959  23.58762886597938 3.3987975951903806  L 7.381443298969073 16  L 23.58762886597938 28.60120240480962  C 23.862542955326465 28.81496325985304  24 29.06078824315297  24 29.338677354709418  C 24 29.616566466265866  23.862542955326465 29.862391449565795  23.58762886597938 30.07615230460922  L 21.52577319587629 31.67935871743487  C 21.250859106529212 31.89311957247829  20.934707903780073 32  20.577319587628864 32  C 20.219931271477666 32  19.903780068728526 31.89311957247829  19.628865979381445 31.67935871743487  L 0.4123711340206186 16.7374749498998  C 0.1374570446735396 16.523714094856377  0 16.277889111556444  0 16  C 0 15.722110888443552  0.1374570446735396 15.47628590514362  0.4123711340206186 15.262525050100201  L 19.628865979381445 0.3206412825651306  C 19.903780068728526 0.10688042752170901  20.219931271477666 0  20.577319587628864 0  C 20.934707903780073 0  21.250859106529212 0.10688042752170901  21.52577319587629 0.3206412825651306  L 23.58762886597938 1.92384769539078  Z " fill-rule="evenodd" />
    </mask>
  </defs>
  <g transform="matrix(1 0 0 1 -18 -11 )">
    <path d="M 23.58762886597938 1.92384769539078  C 23.862542955326465 2.137608550434198  24 2.383433533734131  24 2.661322645290582  C 24 2.939211756847026  23.862542955326465 3.185036740146959  23.58762886597938 3.3987975951903806  L 7.381443298969073 16  L 23.58762886597938 28.60120240480962  C 23.862542955326465 28.81496325985304  24 29.06078824315297  24 29.338677354709418  C 24 29.616566466265866  23.862542955326465 29.862391449565795  23.58762886597938 30.07615230460922  L 21.52577319587629 31.67935871743487  C 21.250859106529212 31.89311957247829  20.934707903780073 32  20.577319587628864 32  C 20.219931271477666 32  19.903780068728526 31.89311957247829  19.628865979381445 31.67935871743487  L 0.4123711340206186 16.7374749498998  C 0.1374570446735396 16.523714094856377  0 16.277889111556444  0 16  C 0 15.722110888443552  0.1374570446735396 15.47628590514362  0.4123711340206186 15.262525050100201  L 19.628865979381445 0.3206412825651306  C 19.903780068728526 0.10688042752170901  20.219931271477666 0  20.577319587628864 0  C 20.934707903780073 0  21.250859106529212 0.10688042752170901  21.52577319587629 0.3206412825651306  L 23.58762886597938 1.92384769539078  Z " fill-rule="nonzero" fill="rgba(255, 255, 255, 1)" stroke="none" transform="matrix(1 0 0 1 18 11 )" class="fill" />
    <path d="M 23.58762886597938 1.92384769539078  C 23.862542955326465 2.137608550434198  24 2.383433533734131  24 2.661322645290582  C 24 2.939211756847026  23.862542955326465 3.185036740146959  23.58762886597938 3.3987975951903806  L 7.381443298969073 16  L 23.58762886597938 28.60120240480962  C 23.862542955326465 28.81496325985304  24 29.06078824315297  24 29.338677354709418  C 24 29.616566466265866  23.862542955326465 29.862391449565795  23.58762886597938 30.07615230460922  L 21.52577319587629 31.67935871743487  C 21.250859106529212 31.89311957247829  20.934707903780073 32  20.577319587628864 32  C 20.219931271477666 32  19.903780068728526 31.89311957247829  19.628865979381445 31.67935871743487  L 0.4123711340206186 16.7374749498998  C 0.1374570446735396 16.523714094856377  0 16.277889111556444  0 16  C 0 15.722110888443552  0.1374570446735396 15.47628590514362  0.4123711340206186 15.262525050100201  L 19.628865979381445 0.3206412825651306  C 19.903780068728526 0.10688042752170901  20.219931271477666 0  20.577319587628864 0  C 20.934707903780073 0  21.250859106529212 0.10688042752170901  21.52577319587629 0.3206412825651306  L 23.58762886597938 1.92384769539078  Z " stroke-width="0" stroke-dasharray="0" stroke="rgba(255, 255, 255, 0)" fill="none" transform="matrix(1 0 0 1 18 11 )" class="stroke" mask="url(#Clip413)" />
  </g>
</svg>