<?xml version="1.0" encoding="utf-8"?>
<svg version="1.1" xmlns:xlink="http://www.w3.org/1999/xlink" width="50px" height="50px" xmlns="http://www.w3.org/2000/svg">
  <defs>
    <pattern id="BGPattern" patternUnits="userSpaceOnUse" alignment="0 0" imageRepeat="None" />
    <mask fill="white" id="Clip478">
      <path d="M 49.25227568270481 20.611183355006503  L 44.765929778933675 25  L 49.25227568270481 29.388816644993497  C 49.902470741222366 29.995665366276548  50.11920242739488 30.754226267880362  49.902470741222366 31.66449934980494  C 49.64239271781534 32.55309926311226  49.0788903337668 33.105765062852186  48.211963589076724 33.32249674902471  L 42.1001300390117 34.88296488946684  L 43.82314694408323 40.929778933680105  C 44.083224967490246 41.81837884698743  43.87732986562636 42.57693974859124  43.20546163849155 43.20546163849155  C 42.57693974859124 43.87732986562636  41.818378846987436 44.083224967490246  40.929778933680105 43.82314694408323  L 34.88296488946684 42.1001300390117  L 33.32249674902471 48.211963589076724  C 33.10576506285219 49.0788903337668  32.55309926311227 49.64239271781534  31.66449934980494 49.902470741222366  C 31.40442132639792 49.94581707845687  31.198526224534028 49.96749024707412  31.046814044213267 49.96749024707412  C 30.37494581707846 49.96749024707412  29.82228001733854 49.729085392284354  29.388816644993497 49.25227568270481  L 25 44.765929778933675  L 20.611183355006503 49.25227568270481  C 20.004334633723452 49.902470741222366  19.245773732119638 50.11920242739488  18.33550065019506 49.902470741222366  C 17.446900736887734 49.6640658864326  16.894234937147814 49.10056350238405  16.677503250975292 48.211963589076724  L 15.11703511053316 42.1001300390117  L 9.070221066319895 43.82314694408323  C 8.181621153012571 44.083224967490246  7.423060251408757 43.87732986562636  6.794538361508453 43.20546163849155  C 6.122670134373646 42.57693974859124  5.9167750325097535 41.81837884698743  6.176853055916775 40.929778933680105  L 7.899869960988297 34.88296488946684  L 1.7880364109232771 33.32249674902471  C 0.9211096662332033 33.105765062852186  0.3576072821846554 32.55309926311226  0.0975292587776333 31.66449934980494  C -0.11920242739488512 30.754226267880362  0.09752925877763326 29.995665366276548  0.7477243172951885 29.388816644993497  L 5.23407022106632 25  L 0.7477243172951885 20.611183355006503  C 0.09752925877763326 20.00433463372345  -0.11920242739488512 19.245773732119638  0.0975292587776333 18.33550065019506  C 0.3576072821846554 17.446900736887734  0.9211096662332033 16.89423493714781  1.7880364109232771 16.677503250975295  L 7.899869960988297 15.11703511053316  L 6.176853055916775 9.070221066319895  C 5.9167750325097535 8.181621153012564  6.122670134373646 7.423060251408753  6.794538361508453 6.794538361508451  C 7.423060251408757 6.122670134373642  8.181621153012571 5.916775032509753  9.070221066319895 6.176853055916776  L 15.11703511053316 7.8998699609882985  L 16.677503250975292 1.7880364109232771  C 16.894234937147814 0.8994364976159464  17.446900736887734 0.34677069787602544  18.33550065019506 0.13003901170350884  C 19.224100563502386 -0.13003901170350884  19.9826614651062 0.07585609016038108  20.611183355006503 0.7477243172951897  L 25 5.266579973992197  L 29.388816644993497 0.7477243172951897  C 30.0173385348938 0.09752925877763441  30.775899436497618 -0.10836584308626662  31.66449934980494 0.13003901170350884  C 32.55309926311227 0.34677069787602544  33.10576506285219 0.8994364976159464  33.32249674902471 1.7880364109232771  L 34.88296488946684 7.8998699609882985  L 40.929778933680105 6.176853055916776  C 41.818378846987436 5.916775032509753  42.57693974859124 6.122670134373642  43.20546163849155 6.794538361508451  C 43.87732986562636 7.423060251408753  44.083224967490246 8.181621153012564  43.82314694408323 9.070221066319895  L 42.1001300390117 15.11703511053316  L 48.211963589076724 16.677503250975295  C 49.0788903337668 16.89423493714781  49.64239271781534 17.446900736887734  49.902470741222366 18.33550065019506  C 50.11920242739488 19.245773732119638  49.902470741222366 20.00433463372345  49.25227568270481 20.611183355006503  Z " fill-rule="evenodd" />
    </mask>
  </defs>
  <g transform="matrix(1 0 0 1 -35 -375 )">
    <path d="M 49.25227568270481 20.611183355006503  L 44.765929778933675 25  L 49.25227568270481 29.388816644993497  C 49.902470741222366 29.995665366276548  50.11920242739488 30.754226267880362  49.902470741222366 31.66449934980494  C 49.64239271781534 32.55309926311226  49.0788903337668 33.105765062852186  48.211963589076724 33.32249674902471  L 42.1001300390117 34.88296488946684  L 43.82314694408323 40.929778933680105  C 44.083224967490246 41.81837884698743  43.87732986562636 42.57693974859124  43.20546163849155 43.20546163849155  C 42.57693974859124 43.87732986562636  41.818378846987436 44.083224967490246  40.929778933680105 43.82314694408323  L 34.88296488946684 42.1001300390117  L 33.32249674902471 48.211963589076724  C 33.10576506285219 49.0788903337668  32.55309926311227 49.64239271781534  31.66449934980494 49.902470741222366  C 31.40442132639792 49.94581707845687  31.198526224534028 49.96749024707412  31.046814044213267 49.96749024707412  C 30.37494581707846 49.96749024707412  29.82228001733854 49.729085392284354  29.388816644993497 49.25227568270481  L 25 44.765929778933675  L 20.611183355006503 49.25227568270481  C 20.004334633723452 49.902470741222366  19.245773732119638 50.11920242739488  18.33550065019506 49.902470741222366  C 17.446900736887734 49.6640658864326  16.894234937147814 49.10056350238405  16.677503250975292 48.211963589076724  L 15.11703511053316 42.1001300390117  L 9.070221066319895 43.82314694408323  C 8.181621153012571 44.083224967490246  7.423060251408757 43.87732986562636  6.794538361508453 43.20546163849155  C 6.122670134373646 42.57693974859124  5.9167750325097535 41.81837884698743  6.176853055916775 40.929778933680105  L 7.899869960988297 34.88296488946684  L 1.7880364109232771 33.32249674902471  C 0.9211096662332033 33.105765062852186  0.3576072821846554 32.55309926311226  0.0975292587776333 31.66449934980494  C -0.11920242739488512 30.754226267880362  0.09752925877763326 29.995665366276548  0.7477243172951885 29.388816644993497  L 5.23407022106632 25  L 0.7477243172951885 20.611183355006503  C 0.09752925877763326 20.00433463372345  -0.11920242739488512 19.245773732119638  0.0975292587776333 18.33550065019506  C 0.3576072821846554 17.446900736887734  0.9211096662332033 16.89423493714781  1.7880364109232771 16.677503250975295  L 7.899869960988297 15.11703511053316  L 6.176853055916775 9.070221066319895  C 5.9167750325097535 8.181621153012564  6.122670134373646 7.423060251408753  6.794538361508453 6.794538361508451  C 7.423060251408757 6.122670134373642  8.181621153012571 5.916775032509753  9.070221066319895 6.176853055916776  L 15.11703511053316 7.8998699609882985  L 16.677503250975292 1.7880364109232771  C 16.894234937147814 0.8994364976159464  17.446900736887734 0.34677069787602544  18.33550065019506 0.13003901170350884  C 19.224100563502386 -0.13003901170350884  19.9826614651062 0.07585609016038108  20.611183355006503 0.7477243172951897  L 25 5.266579973992197  L 29.388816644993497 0.7477243172951897  C 30.0173385348938 0.09752925877763441  30.775899436497618 -0.10836584308626662  31.66449934980494 0.13003901170350884  C 32.55309926311227 0.34677069787602544  33.10576506285219 0.8994364976159464  33.32249674902471 1.7880364109232771  L 34.88296488946684 7.8998699609882985  L 40.929778933680105 6.176853055916776  C 41.818378846987436 5.916775032509753  42.57693974859124 6.122670134373642  43.20546163849155 6.794538361508451  C 43.87732986562636 7.423060251408753  44.083224967490246 8.181621153012564  43.82314694408323 9.070221066319895  L 42.1001300390117 15.11703511053316  L 48.211963589076724 16.677503250975295  C 49.0788903337668 16.89423493714781  49.64239271781534 17.446900736887734  49.902470741222366 18.33550065019506  C 50.11920242739488 19.245773732119638  49.902470741222366 20.00433463372345  49.25227568270481 20.611183355006503  Z " fill-rule="nonzero" fill="rgba(0, 0, 0, 1)" stroke="none" transform="matrix(1 0 0 1 35 375 )" class="fill" />
    <path d="M 49.25227568270481 20.611183355006503  L 44.765929778933675 25  L 49.25227568270481 29.388816644993497  C 49.902470741222366 29.995665366276548  50.11920242739488 30.754226267880362  49.902470741222366 31.66449934980494  C 49.64239271781534 32.55309926311226  49.0788903337668 33.105765062852186  48.211963589076724 33.32249674902471  L 42.1001300390117 34.88296488946684  L 43.82314694408323 40.929778933680105  C 44.083224967490246 41.81837884698743  43.87732986562636 42.57693974859124  43.20546163849155 43.20546163849155  C 42.57693974859124 43.87732986562636  41.818378846987436 44.083224967490246  40.929778933680105 43.82314694408323  L 34.88296488946684 42.1001300390117  L 33.32249674902471 48.211963589076724  C 33.10576506285219 49.0788903337668  32.55309926311227 49.64239271781534  31.66449934980494 49.902470741222366  C 31.40442132639792 49.94581707845687  31.198526224534028 49.96749024707412  31.046814044213267 49.96749024707412  C 30.37494581707846 49.96749024707412  29.82228001733854 49.729085392284354  29.388816644993497 49.25227568270481  L 25 44.765929778933675  L 20.611183355006503 49.25227568270481  C 20.004334633723452 49.902470741222366  19.245773732119638 50.11920242739488  18.33550065019506 49.902470741222366  C 17.446900736887734 49.6640658864326  16.894234937147814 49.10056350238405  16.677503250975292 48.211963589076724  L 15.11703511053316 42.1001300390117  L 9.070221066319895 43.82314694408323  C 8.181621153012571 44.083224967490246  7.423060251408757 43.87732986562636  6.794538361508453 43.20546163849155  C 6.122670134373646 42.57693974859124  5.9167750325097535 41.81837884698743  6.176853055916775 40.929778933680105  L 7.899869960988297 34.88296488946684  L 1.7880364109232771 33.32249674902471  C 0.9211096662332033 33.105765062852186  0.3576072821846554 32.55309926311226  0.0975292587776333 31.66449934980494  C -0.11920242739488512 30.754226267880362  0.09752925877763326 29.995665366276548  0.7477243172951885 29.388816644993497  L 5.23407022106632 25  L 0.7477243172951885 20.611183355006503  C 0.09752925877763326 20.00433463372345  -0.11920242739488512 19.245773732119638  0.0975292587776333 18.33550065019506  C 0.3576072821846554 17.446900736887734  0.9211096662332033 16.89423493714781  1.7880364109232771 16.677503250975295  L 7.899869960988297 15.11703511053316  L 6.176853055916775 9.070221066319895  C 5.9167750325097535 8.181621153012564  6.122670134373646 7.423060251408753  6.794538361508453 6.794538361508451  C 7.423060251408757 6.122670134373642  8.181621153012571 5.916775032509753  9.070221066319895 6.176853055916776  L 15.11703511053316 7.8998699609882985  L 16.677503250975292 1.7880364109232771  C 16.894234937147814 0.8994364976159464  17.446900736887734 0.34677069787602544  18.33550065019506 0.13003901170350884  C 19.224100563502386 -0.13003901170350884  19.9826614651062 0.07585609016038108  20.611183355006503 0.7477243172951897  L 25 5.266579973992197  L 29.388816644993497 0.7477243172951897  C 30.0173385348938 0.09752925877763441  30.775899436497618 -0.10836584308626662  31.66449934980494 0.13003901170350884  C 32.55309926311227 0.34677069787602544  33.10576506285219 0.8994364976159464  33.32249674902471 1.7880364109232771  L 34.88296488946684 7.8998699609882985  L 40.929778933680105 6.176853055916776  C 41.818378846987436 5.916775032509753  42.57693974859124 6.122670134373642  43.20546163849155 6.794538361508451  C 43.87732986562636 7.423060251408753  44.083224967490246 8.181621153012564  43.82314694408323 9.070221066319895  L 42.1001300390117 15.11703511053316  L 48.211963589076724 16.677503250975295  C 49.0788903337668 16.89423493714781  49.64239271781534 17.446900736887734  49.902470741222366 18.33550065019506  C 50.11920242739488 19.245773732119638  49.902470741222366 20.00433463372345  49.25227568270481 20.611183355006503  Z " stroke-width="0" stroke-dasharray="0" stroke="rgba(255, 255, 255, 0)" fill="none" transform="matrix(1 0 0 1 35 375 )" class="stroke" mask="url(#Clip478)" />
  </g>
</svg>