<?xml version="1.0" encoding="utf-8"?>
<svg version="1.1" xmlns:xlink="http://www.w3.org/1999/xlink" width="10px" height="18px" xmlns="http://www.w3.org/2000/svg">
  <defs>
    <pattern id="BGPattern" patternUnits="userSpaceOnUse" alignment="0 0" imageRepeat="None" />
    <mask fill="white" id="Clip447">
      <path d="M 9.487750556792873 4.575721153846153  C 9.628804751299183 4.575721153846153  9.755011135857462 4.629807692307692  9.866369710467707 4.737980769230769  C 10.000000000000002 4.882211538461538  10.02598366740906 5.040865384615383  9.944320712694877 5.213942307692308  L 3.9309576837416484 17.729567307692307  C 3.8344469190794364 17.90985576923077  3.678544914625093 18  3.4632516703786194 18  C 3.433556050482554 18  3.3815887156644395 17.99278846153846  3.307349665924276 17.978365384615383  C 3.181143281365999 17.942307692307693  3.08648849294729 17.87379807692308  3.0233853006681515 17.77283653846154  C 2.9602821083890127 17.671875  2.9435783221974763 17.563701923076923  2.9732739420935412 17.448317307692307  L 5.167037861915368 8.707932692307692  L 0.645879732739421 9.80048076923077  C 0.6161841128433556 9.807692307692307  0.5716406829992576 9.811298076923077  0.512249443207127 9.811298076923077  C 0.37861915367483295 9.811298076923077  0.2635486265775799 9.771634615384613  0.1670378619153675 9.692307692307692  C 0.033407572383073486 9.584134615384617  -0.014847809948032666 9.443509615384617  0.022271714922048998 9.270432692307692  L 2.2605790645879735 0.3461538461538469  C 2.290274684484039 0.24519230769230682  2.3496659242761693 0.1622596153846163  2.4387527839643655 0.09735576923076938  C 2.527839643652561 0.03245192307692246  2.63177431328879 0  2.750556792873051 0  L 6.403118040089087 0  C 6.544172234595398 0  6.662954714179659 0.045072115384612976  6.759465478841871 0.13521634615384692  C 6.855976243504084 0.22536057692307687  6.904231625835189 0.33173076923076805  6.904231625835189 0.45432692307692246  C 6.904231625835189 0.51201923076923  6.885671863400149 0.5769230769230769  6.848552338530068 0.6490384615384612  L 4.944320712694878 5.6574519230769225  L 9.35412026726058 4.597355769230769  C 9.41351150705271 4.582932692307691  9.458054936896808 4.575721153846153  9.487750556792873 4.575721153846153  Z " fill-rule="evenodd" />
    </mask>
  </defs>
  <g transform="matrix(1 0 0 1 -67 -209 )">
    <path d="M 9.487750556792873 4.575721153846153  C 9.628804751299183 4.575721153846153  9.755011135857462 4.629807692307692  9.866369710467707 4.737980769230769  C 10.000000000000002 4.882211538461538  10.02598366740906 5.040865384615383  9.944320712694877 5.213942307692308  L 3.9309576837416484 17.729567307692307  C 3.8344469190794364 17.90985576923077  3.678544914625093 18  3.4632516703786194 18  C 3.433556050482554 18  3.3815887156644395 17.99278846153846  3.307349665924276 17.978365384615383  C 3.181143281365999 17.942307692307693  3.08648849294729 17.87379807692308  3.0233853006681515 17.77283653846154  C 2.9602821083890127 17.671875  2.9435783221974763 17.563701923076923  2.9732739420935412 17.448317307692307  L 5.167037861915368 8.707932692307692  L 0.645879732739421 9.80048076923077  C 0.6161841128433556 9.807692307692307  0.5716406829992576 9.811298076923077  0.512249443207127 9.811298076923077  C 0.37861915367483295 9.811298076923077  0.2635486265775799 9.771634615384613  0.1670378619153675 9.692307692307692  C 0.033407572383073486 9.584134615384617  -0.014847809948032666 9.443509615384617  0.022271714922048998 9.270432692307692  L 2.2605790645879735 0.3461538461538469  C 2.290274684484039 0.24519230769230682  2.3496659242761693 0.1622596153846163  2.4387527839643655 0.09735576923076938  C 2.527839643652561 0.03245192307692246  2.63177431328879 0  2.750556792873051 0  L 6.403118040089087 0  C 6.544172234595398 0  6.662954714179659 0.045072115384612976  6.759465478841871 0.13521634615384692  C 6.855976243504084 0.22536057692307687  6.904231625835189 0.33173076923076805  6.904231625835189 0.45432692307692246  C 6.904231625835189 0.51201923076923  6.885671863400149 0.5769230769230769  6.848552338530068 0.6490384615384612  L 4.944320712694878 5.6574519230769225  L 9.35412026726058 4.597355769230769  C 9.41351150705271 4.582932692307691  9.458054936896808 4.575721153846153  9.487750556792873 4.575721153846153  Z " fill-rule="nonzero" fill="rgba(0, 0, 0, 1)" stroke="none" transform="matrix(1 0 0 1 67 209 )" class="fill" />
    <path d="M 9.487750556792873 4.575721153846153  C 9.628804751299183 4.575721153846153  9.755011135857462 4.629807692307692  9.866369710467707 4.737980769230769  C 10.000000000000002 4.882211538461538  10.02598366740906 5.040865384615383  9.944320712694877 5.213942307692308  L 3.9309576837416484 17.729567307692307  C 3.8344469190794364 17.90985576923077  3.678544914625093 18  3.4632516703786194 18  C 3.433556050482554 18  3.3815887156644395 17.99278846153846  3.307349665924276 17.978365384615383  C 3.181143281365999 17.942307692307693  3.08648849294729 17.87379807692308  3.0233853006681515 17.77283653846154  C 2.9602821083890127 17.671875  2.9435783221974763 17.563701923076923  2.9732739420935412 17.448317307692307  L 5.167037861915368 8.707932692307692  L 0.645879732739421 9.80048076923077  C 0.6161841128433556 9.807692307692307  0.5716406829992576 9.811298076923077  0.512249443207127 9.811298076923077  C 0.37861915367483295 9.811298076923077  0.2635486265775799 9.771634615384613  0.1670378619153675 9.692307692307692  C 0.033407572383073486 9.584134615384617  -0.014847809948032666 9.443509615384617  0.022271714922048998 9.270432692307692  L 2.2605790645879735 0.3461538461538469  C 2.290274684484039 0.24519230769230682  2.3496659242761693 0.1622596153846163  2.4387527839643655 0.09735576923076938  C 2.527839643652561 0.03245192307692246  2.63177431328879 0  2.750556792873051 0  L 6.403118040089087 0  C 6.544172234595398 0  6.662954714179659 0.045072115384612976  6.759465478841871 0.13521634615384692  C 6.855976243504084 0.22536057692307687  6.904231625835189 0.33173076923076805  6.904231625835189 0.45432692307692246  C 6.904231625835189 0.51201923076923  6.885671863400149 0.5769230769230769  6.848552338530068 0.6490384615384612  L 4.944320712694878 5.6574519230769225  L 9.35412026726058 4.597355769230769  C 9.41351150705271 4.582932692307691  9.458054936896808 4.575721153846153  9.487750556792873 4.575721153846153  Z " stroke-width="0" stroke-dasharray="0" stroke="rgba(255, 255, 255, 0)" fill="none" transform="matrix(1 0 0 1 67 209 )" class="stroke" mask="url(#Clip447)" />
  </g>
</svg>