<?xml version="1.0" encoding="utf-8"?>
<svg version="1.1" xmlns:xlink="http://www.w3.org/1999/xlink" width="18px" height="16px" xmlns="http://www.w3.org/2000/svg">
  <defs>
    <pattern id="BGPattern" patternUnits="userSpaceOnUse" alignment="0 0" imageRepeat="None" />
    <mask fill="white" id="Clip448">
      <path d="M 9.441964285714285 15.8125  C 9.321428571428573 15.9375  9.174107142857142 16  9 16  C 8.825892857142858 16  8.67857142857143 15.9375  8.558035714285714 15.8125  L 2.290178571428571 9.541666666666668  C 2.2232142857142856 9.48611111111111  2.1311383928571432 9.395833333333332  2.013950892857143 9.270833333333332  C 1.896763392857143 9.145833333333332  1.7109375000000002 8.918402777777779  1.4564732142857144 8.588541666666668  C 1.2020089285714286 8.258680555555554  0.9743303571428572 7.9201388888888875  0.7734375 7.572916666666666  C 0.5725446428571428 7.225694444444445  0.3934151785714286 6.805555555555555  0.23604910714285715 6.3125  C 0.07868303571428571 5.819444444444443  0 5.340277777777777  0 4.875  C 0 3.3472222222222214  0.4252232142857142 2.152777777777777  1.2756696428571428 1.291666666666666  C 2.1261160714285716 0.43055555555555536  3.3013392857142856 0  4.8013392857142865 0  C 5.216517857142857 0  5.6400669642857135 0.07465277777777679  6.071986607142858 0.22395833333333393  C 6.50390625 0.3732638888888875  6.9056919642857135 0.5746527777777768  7.27734375 0.828125  C 7.648995535714287 1.0815972222222214  7.968750000000002 1.3194444444444429  8.236607142857142 1.541666666666666  C 8.504464285714286 1.7638888888888875  8.758928571428571 2  9 2.25  C 9.241071428571427 2  9.495535714285715 1.7638888888888875  9.763392857142858 1.541666666666666  C 10.031250000000002 1.3194444444444429  10.351004464285715 1.0815972222222214  10.72265625 0.828125  C 11.094308035714285 0.5746527777777768  11.49609375 0.3732638888888875  11.928013392857142 0.22395833333333393  C 12.359933035714285 0.07465277777777679  12.783482142857144 0  13.198660714285715 0  C 14.698660714285715 0  15.87388392857143 0.43055555555555536  16.724330357142858 1.291666666666666  C 17.574776785714285 2.152777777777777  18 3.3472222222222214  18 4.875  C 18 6.409722222222221  17.23325892857143 7.972222222222221  15.699776785714285 9.5625  L 9.441964285714285 15.8125  Z " fill-rule="evenodd" />
    </mask>
  </defs>
  <g transform="matrix(1 0 0 1 -39 -210 )">
    <path d="M 9.441964285714285 15.8125  C 9.321428571428573 15.9375  9.174107142857142 16  9 16  C 8.825892857142858 16  8.67857142857143 15.9375  8.558035714285714 15.8125  L 2.290178571428571 9.541666666666668  C 2.2232142857142856 9.48611111111111  2.1311383928571432 9.395833333333332  2.013950892857143 9.270833333333332  C 1.896763392857143 9.145833333333332  1.7109375000000002 8.918402777777779  1.4564732142857144 8.588541666666668  C 1.2020089285714286 8.258680555555554  0.9743303571428572 7.9201388888888875  0.7734375 7.572916666666666  C 0.5725446428571428 7.225694444444445  0.3934151785714286 6.805555555555555  0.23604910714285715 6.3125  C 0.07868303571428571 5.819444444444443  0 5.340277777777777  0 4.875  C 0 3.3472222222222214  0.4252232142857142 2.152777777777777  1.2756696428571428 1.291666666666666  C 2.1261160714285716 0.43055555555555536  3.3013392857142856 0  4.8013392857142865 0  C 5.216517857142857 0  5.6400669642857135 0.07465277777777679  6.071986607142858 0.22395833333333393  C 6.50390625 0.3732638888888875  6.9056919642857135 0.5746527777777768  7.27734375 0.828125  C 7.648995535714287 1.0815972222222214  7.968750000000002 1.3194444444444429  8.236607142857142 1.541666666666666  C 8.504464285714286 1.7638888888888875  8.758928571428571 2  9 2.25  C 9.241071428571427 2  9.495535714285715 1.7638888888888875  9.763392857142858 1.541666666666666  C 10.031250000000002 1.3194444444444429  10.351004464285715 1.0815972222222214  10.72265625 0.828125  C 11.094308035714285 0.5746527777777768  11.49609375 0.3732638888888875  11.928013392857142 0.22395833333333393  C 12.359933035714285 0.07465277777777679  12.783482142857144 0  13.198660714285715 0  C 14.698660714285715 0  15.87388392857143 0.43055555555555536  16.724330357142858 1.291666666666666  C 17.574776785714285 2.152777777777777  18 3.3472222222222214  18 4.875  C 18 6.409722222222221  17.23325892857143 7.972222222222221  15.699776785714285 9.5625  L 9.441964285714285 15.8125  Z " fill-rule="nonzero" fill="rgba(0, 0, 0, 1)" stroke="none" transform="matrix(1 0 0 1 39 210 )" class="fill" />
    <path d="M 9.441964285714285 15.8125  C 9.321428571428573 15.9375  9.174107142857142 16  9 16  C 8.825892857142858 16  8.67857142857143 15.9375  8.558035714285714 15.8125  L 2.290178571428571 9.541666666666668  C 2.2232142857142856 9.48611111111111  2.1311383928571432 9.395833333333332  2.013950892857143 9.270833333333332  C 1.896763392857143 9.145833333333332  1.7109375000000002 8.918402777777779  1.4564732142857144 8.588541666666668  C 1.2020089285714286 8.258680555555554  0.9743303571428572 7.9201388888888875  0.7734375 7.572916666666666  C 0.5725446428571428 7.225694444444445  0.3934151785714286 6.805555555555555  0.23604910714285715 6.3125  C 0.07868303571428571 5.819444444444443  0 5.340277777777777  0 4.875  C 0 3.3472222222222214  0.4252232142857142 2.152777777777777  1.2756696428571428 1.291666666666666  C 2.1261160714285716 0.43055555555555536  3.3013392857142856 0  4.8013392857142865 0  C 5.216517857142857 0  5.6400669642857135 0.07465277777777679  6.071986607142858 0.22395833333333393  C 6.50390625 0.3732638888888875  6.9056919642857135 0.5746527777777768  7.27734375 0.828125  C 7.648995535714287 1.0815972222222214  7.968750000000002 1.3194444444444429  8.236607142857142 1.541666666666666  C 8.504464285714286 1.7638888888888875  8.758928571428571 2  9 2.25  C 9.241071428571427 2  9.495535714285715 1.7638888888888875  9.763392857142858 1.541666666666666  C 10.031250000000002 1.3194444444444429  10.351004464285715 1.0815972222222214  10.72265625 0.828125  C 11.094308035714285 0.5746527777777768  11.49609375 0.3732638888888875  11.928013392857142 0.22395833333333393  C 12.359933035714285 0.07465277777777679  12.783482142857144 0  13.198660714285715 0  C 14.698660714285715 0  15.87388392857143 0.43055555555555536  16.724330357142858 1.291666666666666  C 17.574776785714285 2.152777777777777  18 3.3472222222222214  18 4.875  C 18 6.409722222222221  17.23325892857143 7.972222222222221  15.699776785714285 9.5625  L 9.441964285714285 15.8125  Z " stroke-width="0" stroke-dasharray="0" stroke="rgba(255, 255, 255, 0)" fill="none" transform="matrix(1 0 0 1 39 210 )" class="stroke" mask="url(#Clip448)" />
  </g>
</svg>