<?xml version="1.0" encoding="utf-8"?>
<svg version="1.1" xmlns:xlink="http://www.w3.org/1999/xlink" width="98px" height="84px" xmlns="http://www.w3.org/2000/svg">
  <defs>
    <pattern id="BGPattern" patternUnits="userSpaceOnUse" alignment="0 0" imageRepeat="None" />
    <mask fill="white" id="Clip449">
      <path d="M 80.71875 45.06249999999999  C 87.57291666666667 38.20833333333333  91 31.718749999999996  91 25.59375  C 91 22.640625  90.60807291666667 20.033854166666664  89.82421875 17.773437499999996  C 89.04036458333334 15.513020833333321  88.03776041666669 13.717447916666663  86.81640625 12.38671875  C 85.59505208333334 11.055989583333329  84.10937500000001 9.971354166666666  82.359375 9.132812500000004  C 80.609375 8.294270833333321  78.89583333333334 7.7291666666666625  77.21875 7.4374999999999964  C 75.54166666666667 7.1458333333333215  73.75520833333334 7.0000000000000036  71.859375 7.0000000000000036  C 69.96354166666667 7.0000000000000036  67.921875 7.46484375  65.734375 8.394531250000004  C 63.546875 9.324218749999996  61.532552083333336 10.490885416666659  59.69140624999999 11.89453125  C 57.85026041666668 13.298177083333321  56.2734375 14.610677083333321  54.96093750000001 15.83203125  C 53.64843750000001 17.05338541666666  52.55468750000001 18.174479166666664  51.6796875 19.1953125  C 51.02343750000001 19.99739583333333  50.130208333333336 20.398437499999996  49 20.398437499999996  C 47.86979166666667 20.398437499999996  46.9765625 19.99739583333333  46.3203125 19.1953125  C 45.4453125 18.174479166666664  44.3515625 17.05338541666666  43.0390625 15.83203125  C 41.7265625 14.610677083333321  40.149739583333336 13.298177083333321  38.30859375 11.89453125  C 36.46744791666667 10.490885416666659  34.453125 9.324218749999996  32.265625 8.394531250000004  C 30.078125 7.46484375  28.03645833333334 7.0000000000000036  26.140625000000004 7.0000000000000036  C 24.244791666666668 7.0000000000000036  22.45833333333334 7.1458333333333215  20.78125 7.4374999999999964  C 19.104166666666668 7.7291666666666625  17.390625 8.294270833333321  15.640624999999998 9.132812500000004  C 13.890625 9.971354166666666  12.404947916666666 11.055989583333329  11.18359375 12.38671875  C 9.962239583333334 13.717447916666663  8.959635416666666 15.513020833333321  8.17578125 17.773437499999996  C 7.391927083333335 20.033854166666664  7 22.640625  7 25.59375  C 7 31.718749999999996  10.408854166666668 38.190104166666664  17.2265625 45.00781250000001  L 49 75.6328125  L 80.71875 45.06249999999999  Z M 91.0546875 6.7812499999999964  C 95.68489583333334 11.302083333333329  98 17.572916666666664  98 25.59375  C 98 33.651041666666664  93.82552083333334 41.854166666666664  85.4765625 50.203125  L 51.40625 83.015625  C 50.75000000000001 83.671875  49.94791666666667 84  49 84  C 48.052083333333336 84  47.25000000000001 83.671875  46.59375 83.015625  L 12.46875 50.09375000000001  C 12.104166666666668 49.80208333333333  11.602864583333336 49.32812499999999  10.96484375 48.67187499999999  C 10.326822916666668 48.01562499999999  9.315104166666668 46.821614583333336  7.9296875 45.08984375000001  C 6.544270833333333 43.35807291666666  5.3046875 41.58072916666666  4.2109375 39.7578125  C 3.1171875 37.934895833333336  2.1419270833333335 35.729166666666664  1.28515625 33.140625  C 0.4283854166666667 30.552083333333325  0 28.03645833333333  0 25.59375  C 0 17.572916666666664  2.315104166666666 11.302083333333329  6.9453125 6.7812499999999964  C 11.575520833333334 2.2604166666666656  17.973958333333332 0  26.140625000000004 0  C 28.401041666666668 0  30.707031249999996 0.39192708333332815  33.05859375 1.175781250000003  C 35.41015625 1.9596354166666594  37.59765625 3.016927083333328  39.62109375 4.34765625  C 41.64453125000001 5.6783854166666625  43.38541666666668 6.927083333333325  44.84375 8.093749999999996  C 46.302083333333336 9.260416666666659  47.6875 10.5  49 11.8125  C 50.31249999999999 10.5  51.69791666666667 9.260416666666659  53.15625 8.093749999999996  C 54.61458333333334 6.927083333333325  56.35546875 5.6783854166666625  58.37890625 4.34765625  C 60.40234375 3.016927083333328  62.58984375 1.9596354166666594  64.94140625 1.175781250000003  C 67.29296875 0.39192708333332815  69.59895833333334 0  71.859375 0  C 80.02604166666667 0  86.42447916666667 2.2604166666666656  91.0546875 6.7812499999999964  Z " fill-rule="evenodd" />
    </mask>
  </defs>
  <g transform="matrix(1 0 0 1 -46 -104 )">
    <path d="M 80.71875 45.06249999999999  C 87.57291666666667 38.20833333333333  91 31.718749999999996  91 25.59375  C 91 22.640625  90.60807291666667 20.033854166666664  89.82421875 17.773437499999996  C 89.04036458333334 15.513020833333321  88.03776041666669 13.717447916666663  86.81640625 12.38671875  C 85.59505208333334 11.055989583333329  84.10937500000001 9.971354166666666  82.359375 9.132812500000004  C 80.609375 8.294270833333321  78.89583333333334 7.7291666666666625  77.21875 7.4374999999999964  C 75.54166666666667 7.1458333333333215  73.75520833333334 7.0000000000000036  71.859375 7.0000000000000036  C 69.96354166666667 7.0000000000000036  67.921875 7.46484375  65.734375 8.394531250000004  C 63.546875 9.324218749999996  61.532552083333336 10.490885416666659  59.69140624999999 11.89453125  C 57.85026041666668 13.298177083333321  56.2734375 14.610677083333321  54.96093750000001 15.83203125  C 53.64843750000001 17.05338541666666  52.55468750000001 18.174479166666664  51.6796875 19.1953125  C 51.02343750000001 19.99739583333333  50.130208333333336 20.398437499999996  49 20.398437499999996  C 47.86979166666667 20.398437499999996  46.9765625 19.99739583333333  46.3203125 19.1953125  C 45.4453125 18.174479166666664  44.3515625 17.05338541666666  43.0390625 15.83203125  C 41.7265625 14.610677083333321  40.149739583333336 13.298177083333321  38.30859375 11.89453125  C 36.46744791666667 10.490885416666659  34.453125 9.324218749999996  32.265625 8.394531250000004  C 30.078125 7.46484375  28.03645833333334 7.0000000000000036  26.140625000000004 7.0000000000000036  C 24.244791666666668 7.0000000000000036  22.45833333333334 7.1458333333333215  20.78125 7.4374999999999964  C 19.104166666666668 7.7291666666666625  17.390625 8.294270833333321  15.640624999999998 9.132812500000004  C 13.890625 9.971354166666666  12.404947916666666 11.055989583333329  11.18359375 12.38671875  C 9.962239583333334 13.717447916666663  8.959635416666666 15.513020833333321  8.17578125 17.773437499999996  C 7.391927083333335 20.033854166666664  7 22.640625  7 25.59375  C 7 31.718749999999996  10.408854166666668 38.190104166666664  17.2265625 45.00781250000001  L 49 75.6328125  L 80.71875 45.06249999999999  Z M 91.0546875 6.7812499999999964  C 95.68489583333334 11.302083333333329  98 17.572916666666664  98 25.59375  C 98 33.651041666666664  93.82552083333334 41.854166666666664  85.4765625 50.203125  L 51.40625 83.015625  C 50.75000000000001 83.671875  49.94791666666667 84  49 84  C 48.052083333333336 84  47.25000000000001 83.671875  46.59375 83.015625  L 12.46875 50.09375000000001  C 12.104166666666668 49.80208333333333  11.602864583333336 49.32812499999999  10.96484375 48.67187499999999  C 10.326822916666668 48.01562499999999  9.315104166666668 46.821614583333336  7.9296875 45.08984375000001  C 6.544270833333333 43.35807291666666  5.3046875 41.58072916666666  4.2109375 39.7578125  C 3.1171875 37.934895833333336  2.1419270833333335 35.729166666666664  1.28515625 33.140625  C 0.4283854166666667 30.552083333333325  0 28.03645833333333  0 25.59375  C 0 17.572916666666664  2.315104166666666 11.302083333333329  6.9453125 6.7812499999999964  C 11.575520833333334 2.2604166666666656  17.973958333333332 0  26.140625000000004 0  C 28.401041666666668 0  30.707031249999996 0.39192708333332815  33.05859375 1.175781250000003  C 35.41015625 1.9596354166666594  37.59765625 3.016927083333328  39.62109375 4.34765625  C 41.64453125000001 5.6783854166666625  43.38541666666668 6.927083333333325  44.84375 8.093749999999996  C 46.302083333333336 9.260416666666659  47.6875 10.5  49 11.8125  C 50.31249999999999 10.5  51.69791666666667 9.260416666666659  53.15625 8.093749999999996  C 54.61458333333334 6.927083333333325  56.35546875 5.6783854166666625  58.37890625 4.34765625  C 60.40234375 3.016927083333328  62.58984375 1.9596354166666594  64.94140625 1.175781250000003  C 67.29296875 0.39192708333332815  69.59895833333334 0  71.859375 0  C 80.02604166666667 0  86.42447916666667 2.2604166666666656  91.0546875 6.7812499999999964  Z " fill-rule="nonzero" fill="rgba(0, 0, 0, 1)" stroke="none" transform="matrix(1 0 0 1 46 104 )" class="fill" />
    <path d="M 80.71875 45.06249999999999  C 87.57291666666667 38.20833333333333  91 31.718749999999996  91 25.59375  C 91 22.640625  90.60807291666667 20.033854166666664  89.82421875 17.773437499999996  C 89.04036458333334 15.513020833333321  88.03776041666669 13.717447916666663  86.81640625 12.38671875  C 85.59505208333334 11.055989583333329  84.10937500000001 9.971354166666666  82.359375 9.132812500000004  C 80.609375 8.294270833333321  78.89583333333334 7.7291666666666625  77.21875 7.4374999999999964  C 75.54166666666667 7.1458333333333215  73.75520833333334 7.0000000000000036  71.859375 7.0000000000000036  C 69.96354166666667 7.0000000000000036  67.921875 7.46484375  65.734375 8.394531250000004  C 63.546875 9.324218749999996  61.532552083333336 10.490885416666659  59.69140624999999 11.89453125  C 57.85026041666668 13.298177083333321  56.2734375 14.610677083333321  54.96093750000001 15.83203125  C 53.64843750000001 17.05338541666666  52.55468750000001 18.174479166666664  51.6796875 19.1953125  C 51.02343750000001 19.99739583333333  50.130208333333336 20.398437499999996  49 20.398437499999996  C 47.86979166666667 20.398437499999996  46.9765625 19.99739583333333  46.3203125 19.1953125  C 45.4453125 18.174479166666664  44.3515625 17.05338541666666  43.0390625 15.83203125  C 41.7265625 14.610677083333321  40.149739583333336 13.298177083333321  38.30859375 11.89453125  C 36.46744791666667 10.490885416666659  34.453125 9.324218749999996  32.265625 8.394531250000004  C 30.078125 7.46484375  28.03645833333334 7.0000000000000036  26.140625000000004 7.0000000000000036  C 24.244791666666668 7.0000000000000036  22.45833333333334 7.1458333333333215  20.78125 7.4374999999999964  C 19.104166666666668 7.7291666666666625  17.390625 8.294270833333321  15.640624999999998 9.132812500000004  C 13.890625 9.971354166666666  12.404947916666666 11.055989583333329  11.18359375 12.38671875  C 9.962239583333334 13.717447916666663  8.959635416666666 15.513020833333321  8.17578125 17.773437499999996  C 7.391927083333335 20.033854166666664  7 22.640625  7 25.59375  C 7 31.718749999999996  10.408854166666668 38.190104166666664  17.2265625 45.00781250000001  L 49 75.6328125  L 80.71875 45.06249999999999  Z " stroke-width="0" stroke-dasharray="0" stroke="rgba(255, 255, 255, 0)" fill="none" transform="matrix(1 0 0 1 46 104 )" class="stroke" mask="url(#Clip449)" />
    <path d="M 91.0546875 6.7812499999999964  C 95.68489583333334 11.302083333333329  98 17.572916666666664  98 25.59375  C 98 33.651041666666664  93.82552083333334 41.854166666666664  85.4765625 50.203125  L 51.40625 83.015625  C 50.75000000000001 83.671875  49.94791666666667 84  49 84  C 48.052083333333336 84  47.25000000000001 83.671875  46.59375 83.015625  L 12.46875 50.09375000000001  C 12.104166666666668 49.80208333333333  11.602864583333336 49.32812499999999  10.96484375 48.67187499999999  C 10.326822916666668 48.01562499999999  9.315104166666668 46.821614583333336  7.9296875 45.08984375000001  C 6.544270833333333 43.35807291666666  5.3046875 41.58072916666666  4.2109375 39.7578125  C 3.1171875 37.934895833333336  2.1419270833333335 35.729166666666664  1.28515625 33.140625  C 0.4283854166666667 30.552083333333325  0 28.03645833333333  0 25.59375  C 0 17.572916666666664  2.315104166666666 11.302083333333329  6.9453125 6.7812499999999964  C 11.575520833333334 2.2604166666666656  17.973958333333332 0  26.140625000000004 0  C 28.401041666666668 0  30.707031249999996 0.39192708333332815  33.05859375 1.175781250000003  C 35.41015625 1.9596354166666594  37.59765625 3.016927083333328  39.62109375 4.34765625  C 41.64453125000001 5.6783854166666625  43.38541666666668 6.927083333333325  44.84375 8.093749999999996  C 46.302083333333336 9.260416666666659  47.6875 10.5  49 11.8125  C 50.31249999999999 10.5  51.69791666666667 9.260416666666659  53.15625 8.093749999999996  C 54.61458333333334 6.927083333333325  56.35546875 5.6783854166666625  58.37890625 4.34765625  C 60.40234375 3.016927083333328  62.58984375 1.9596354166666594  64.94140625 1.175781250000003  C 67.29296875 0.39192708333332815  69.59895833333334 0  71.859375 0  C 80.02604166666667 0  86.42447916666667 2.2604166666666656  91.0546875 6.7812499999999964  Z " stroke-width="0" stroke-dasharray="0" stroke="rgba(255, 255, 255, 0)" fill="none" transform="matrix(1 0 0 1 46 104 )" class="stroke" mask="url(#Clip449)" />
  </g>
</svg>