<?xml version="1.0" encoding="utf-8"?>
<svg version="1.1" xmlns:xlink="http://www.w3.org/1999/xlink" width="14px" height="20px" xmlns="http://www.w3.org/2000/svg">
  <defs>
    <pattern id="BGPattern" patternUnits="userSpaceOnUse" alignment="0 0" imageRepeat="None" />
    <mask fill="white" id="Clip450">
      <path d="M 9.035675675675675 15.1875  C 9.156756756756756 15.3125  9.217297297297298 15.458333333333332  9.217297297297298 15.625  L 9.217297297297298 19.375  C 9.217297297297298 19.541666666666668  9.156756756756756 19.6875  9.035675675675675 19.8125  C 8.914594594594595 19.9375  8.773333333333333 20  8.611891891891892 20  L 4.979459459459459 20  C 4.8180180180180185 20  4.676756756756758 19.9375  4.555675675675676 19.8125  C 4.434594594594595 19.6875  4.374054054054054 19.541666666666668  4.374054054054054 19.375  L 4.374054054054054 15.625  C 4.374054054054054 15.458333333333332  4.434594594594595 15.3125  4.555675675675676 15.1875  C 4.676756756756758 15.0625  4.8180180180180185 15  4.979459459459459 15  L 8.611891891891892 15  C 8.773333333333333 15  8.914594594594595 15.0625  9.035675675675675 15.1875  Z M 13.37945945945946 3.773437500000001  C 13.793153153153156 4.559895833333332  14.000000000000004 5.385416666666664  14 6.25  C 14.000000000000004 6.812499999999999  13.921801801801804 7.338541666666667  13.765405405405405 7.828124999999999  C 13.60900900900901 8.317708333333332  13.432432432432432 8.716145833333332  13.235675675675676 9.0234375  C 13.03891891891892 9.330729166666668  12.761441441441443 9.640625  12.403243243243244 9.953125  C 12.045045045045049 10.265625  11.754954954954956 10.4921875  11.532972972972974 10.6328125  C 11.310990990990993 10.7734375  11.003243243243244 10.958333333333332  10.60972972972973 11.1875  C 10.196036036036038 11.427083333333332  9.85045045045045 11.765625  9.572972972972973 12.203125  C 9.295495495495498 12.640625  9.156756756756756 12.989583333333332  9.156756756756756 13.25  C 9.156756756756756 13.427083333333332  9.096216216216217 13.596354166666664  8.975135135135135 13.7578125  C 8.854054054054053 13.919270833333336  8.712792792792794 14  8.55135135135135 14  L 4.918918918918919 14  C 4.767567567567569 14  4.63891891891892 13.903645833333336  4.532972972972973 13.7109375  C 4.427027027027027 13.518229166666664  4.374054054054054 13.322916666666664  4.374054054054054 13.125  L 4.374054054054054 12.421875  C 4.374054054054054 11.557291666666668  4.701981981981981 10.7421875  5.357837837837837 9.9765625  C 6.013693693693694 9.2109375  6.735135135135136 8.645833333333332  7.522162162162162 8.28125  C 8.117477477477479 7.999999999999998  8.541261261261262 7.708333333333332  8.793513513513513 7.406250000000001  C 9.045765765765767 7.104166666666667  9.171891891891892 6.708333333333332  9.171891891891892 6.21875  C 9.171891891891892 5.781249999999998  8.937297297297297 5.395833333333333  8.468108108108108 5.062500000000001  C 7.998918918918919 4.729166666666666  7.456576576576579 4.5625  6.841081081081081 4.5625  C 6.185225225225226 4.5625  5.6403603603603605 4.713541666666665  5.206486486486487 5.015624999999999  C 4.8533333333333335 5.276041666666666  4.313513513513514 5.874999999999999  3.587027027027027 6.812499999999999  C 3.455855855855856 6.979166666666665  3.2994594594594595 7.062499999999998  3.117837837837838 7.0625  C 2.996756756756757 7.062499999999998  2.8706306306306306 7.020833333333332  2.7394594594594595 6.937500000000001  L 0.2572972972972973 4.984375000000001  C 0.12612612612612628 4.880208333333331  0.047927927927928216 4.750000000000001  0.0227027027027027 4.593750000000001  C -0.0025225225225223792 4.437500000000001  0.025225225225225294 4.291666666666667  0.10594594594594595 4.156249999999999  C 1.7203603603603606 1.3854166666666634  4.0612612612612615 0  7.128648648648649 0  C 7.935855855855857 0  8.748108108108108 0.16145833333333304  9.565405405405405 0.4843749999999991  C 10.382702702702701 0.8072916666666652  11.119279279279281 1.2395833333333317  11.775135135135134 1.7812500000000009  C 12.430990990990992 2.3229166666666634  12.965765765765767 2.9869791666666634  13.37945945945946 3.773437500000001  Z " fill-rule="evenodd" />
    </mask>
  </defs>
  <g transform="matrix(1 0 0 1 -137 -208 )">
    <path d="M 9.035675675675675 15.1875  C 9.156756756756756 15.3125  9.217297297297298 15.458333333333332  9.217297297297298 15.625  L 9.217297297297298 19.375  C 9.217297297297298 19.541666666666668  9.156756756756756 19.6875  9.035675675675675 19.8125  C 8.914594594594595 19.9375  8.773333333333333 20  8.611891891891892 20  L 4.979459459459459 20  C 4.8180180180180185 20  4.676756756756758 19.9375  4.555675675675676 19.8125  C 4.434594594594595 19.6875  4.374054054054054 19.541666666666668  4.374054054054054 19.375  L 4.374054054054054 15.625  C 4.374054054054054 15.458333333333332  4.434594594594595 15.3125  4.555675675675676 15.1875  C 4.676756756756758 15.0625  4.8180180180180185 15  4.979459459459459 15  L 8.611891891891892 15  C 8.773333333333333 15  8.914594594594595 15.0625  9.035675675675675 15.1875  Z M 13.37945945945946 3.773437500000001  C 13.793153153153156 4.559895833333332  14.000000000000004 5.385416666666664  14 6.25  C 14.000000000000004 6.812499999999999  13.921801801801804 7.338541666666667  13.765405405405405 7.828124999999999  C 13.60900900900901 8.317708333333332  13.432432432432432 8.716145833333332  13.235675675675676 9.0234375  C 13.03891891891892 9.330729166666668  12.761441441441443 9.640625  12.403243243243244 9.953125  C 12.045045045045049 10.265625  11.754954954954956 10.4921875  11.532972972972974 10.6328125  C 11.310990990990993 10.7734375  11.003243243243244 10.958333333333332  10.60972972972973 11.1875  C 10.196036036036038 11.427083333333332  9.85045045045045 11.765625  9.572972972972973 12.203125  C 9.295495495495498 12.640625  9.156756756756756 12.989583333333332  9.156756756756756 13.25  C 9.156756756756756 13.427083333333332  9.096216216216217 13.596354166666664  8.975135135135135 13.7578125  C 8.854054054054053 13.919270833333336  8.712792792792794 14  8.55135135135135 14  L 4.918918918918919 14  C 4.767567567567569 14  4.63891891891892 13.903645833333336  4.532972972972973 13.7109375  C 4.427027027027027 13.518229166666664  4.374054054054054 13.322916666666664  4.374054054054054 13.125  L 4.374054054054054 12.421875  C 4.374054054054054 11.557291666666668  4.701981981981981 10.7421875  5.357837837837837 9.9765625  C 6.013693693693694 9.2109375  6.735135135135136 8.645833333333332  7.522162162162162 8.28125  C 8.117477477477479 7.999999999999998  8.541261261261262 7.708333333333332  8.793513513513513 7.406250000000001  C 9.045765765765767 7.104166666666667  9.171891891891892 6.708333333333332  9.171891891891892 6.21875  C 9.171891891891892 5.781249999999998  8.937297297297297 5.395833333333333  8.468108108108108 5.062500000000001  C 7.998918918918919 4.729166666666666  7.456576576576579 4.5625  6.841081081081081 4.5625  C 6.185225225225226 4.5625  5.6403603603603605 4.713541666666665  5.206486486486487 5.015624999999999  C 4.8533333333333335 5.276041666666666  4.313513513513514 5.874999999999999  3.587027027027027 6.812499999999999  C 3.455855855855856 6.979166666666665  3.2994594594594595 7.062499999999998  3.117837837837838 7.0625  C 2.996756756756757 7.062499999999998  2.8706306306306306 7.020833333333332  2.7394594594594595 6.937500000000001  L 0.2572972972972973 4.984375000000001  C 0.12612612612612628 4.880208333333331  0.047927927927928216 4.750000000000001  0.0227027027027027 4.593750000000001  C -0.0025225225225223792 4.437500000000001  0.025225225225225294 4.291666666666667  0.10594594594594595 4.156249999999999  C 1.7203603603603606 1.3854166666666634  4.0612612612612615 0  7.128648648648649 0  C 7.935855855855857 0  8.748108108108108 0.16145833333333304  9.565405405405405 0.4843749999999991  C 10.382702702702701 0.8072916666666652  11.119279279279281 1.2395833333333317  11.775135135135134 1.7812500000000009  C 12.430990990990992 2.3229166666666634  12.965765765765767 2.9869791666666634  13.37945945945946 3.773437500000001  Z " fill-rule="nonzero" fill="rgba(0, 0, 0, 1)" stroke="none" transform="matrix(1 0 0 1 137 208 )" class="fill" />
    <path d="M 9.035675675675675 15.1875  C 9.156756756756756 15.3125  9.217297297297298 15.458333333333332  9.217297297297298 15.625  L 9.217297297297298 19.375  C 9.217297297297298 19.541666666666668  9.156756756756756 19.6875  9.035675675675675 19.8125  C 8.914594594594595 19.9375  8.773333333333333 20  8.611891891891892 20  L 4.979459459459459 20  C 4.8180180180180185 20  4.676756756756758 19.9375  4.555675675675676 19.8125  C 4.434594594594595 19.6875  4.374054054054054 19.541666666666668  4.374054054054054 19.375  L 4.374054054054054 15.625  C 4.374054054054054 15.458333333333332  4.434594594594595 15.3125  4.555675675675676 15.1875  C 4.676756756756758 15.0625  4.8180180180180185 15  4.979459459459459 15  L 8.611891891891892 15  C 8.773333333333333 15  8.914594594594595 15.0625  9.035675675675675 15.1875  Z " stroke-width="0" stroke-dasharray="0" stroke="rgba(255, 255, 255, 0)" fill="none" transform="matrix(1 0 0 1 137 208 )" class="stroke" mask="url(#Clip450)" />
    <path d="M 13.37945945945946 3.773437500000001  C 13.793153153153156 4.559895833333332  14.000000000000004 5.385416666666664  14 6.25  C 14.000000000000004 6.812499999999999  13.921801801801804 7.338541666666667  13.765405405405405 7.828124999999999  C 13.60900900900901 8.317708333333332  13.432432432432432 8.716145833333332  13.235675675675676 9.0234375  C 13.03891891891892 9.330729166666668  12.761441441441443 9.640625  12.403243243243244 9.953125  C 12.045045045045049 10.265625  11.754954954954956 10.4921875  11.532972972972974 10.6328125  C 11.310990990990993 10.7734375  11.003243243243244 10.958333333333332  10.60972972972973 11.1875  C 10.196036036036038 11.427083333333332  9.85045045045045 11.765625  9.572972972972973 12.203125  C 9.295495495495498 12.640625  9.156756756756756 12.989583333333332  9.156756756756756 13.25  C 9.156756756756756 13.427083333333332  9.096216216216217 13.596354166666664  8.975135135135135 13.7578125  C 8.854054054054053 13.919270833333336  8.712792792792794 14  8.55135135135135 14  L 4.918918918918919 14  C 4.767567567567569 14  4.63891891891892 13.903645833333336  4.532972972972973 13.7109375  C 4.427027027027027 13.518229166666664  4.374054054054054 13.322916666666664  4.374054054054054 13.125  L 4.374054054054054 12.421875  C 4.374054054054054 11.557291666666668  4.701981981981981 10.7421875  5.357837837837837 9.9765625  C 6.013693693693694 9.2109375  6.735135135135136 8.645833333333332  7.522162162162162 8.28125  C 8.117477477477479 7.999999999999998  8.541261261261262 7.708333333333332  8.793513513513513 7.406250000000001  C 9.045765765765767 7.104166666666667  9.171891891891892 6.708333333333332  9.171891891891892 6.21875  C 9.171891891891892 5.781249999999998  8.937297297297297 5.395833333333333  8.468108108108108 5.062500000000001  C 7.998918918918919 4.729166666666666  7.456576576576579 4.5625  6.841081081081081 4.5625  C 6.185225225225226 4.5625  5.6403603603603605 4.713541666666665  5.206486486486487 5.015624999999999  C 4.8533333333333335 5.276041666666666  4.313513513513514 5.874999999999999  3.587027027027027 6.812499999999999  C 3.455855855855856 6.979166666666665  3.2994594594594595 7.062499999999998  3.117837837837838 7.0625  C 2.996756756756757 7.062499999999998  2.8706306306306306 7.020833333333332  2.7394594594594595 6.937500000000001  L 0.2572972972972973 4.984375000000001  C 0.12612612612612628 4.880208333333331  0.047927927927928216 4.750000000000001  0.0227027027027027 4.593750000000001  C -0.0025225225225223792 4.437500000000001  0.025225225225225294 4.291666666666667  0.10594594594594595 4.156249999999999  C 1.7203603603603606 1.3854166666666634  4.0612612612612615 0  7.128648648648649 0  C 7.935855855855857 0  8.748108108108108 0.16145833333333304  9.565405405405405 0.4843749999999991  C 10.382702702702701 0.8072916666666652  11.119279279279281 1.2395833333333317  11.775135135135134 1.7812500000000009  C 12.430990990990992 2.3229166666666634  12.965765765765767 2.9869791666666634  13.37945945945946 3.773437500000001  Z " stroke-width="0" stroke-dasharray="0" stroke="rgba(255, 255, 255, 0)" fill="none" transform="matrix(1 0 0 1 137 208 )" class="stroke" mask="url(#Clip450)" />
  </g>
</svg>