<?xml version="1.0" encoding="utf-8"?>
<svg version="1.1" xmlns:xlink="http://www.w3.org/1999/xlink" width="18px" height="18px" xmlns="http://www.w3.org/2000/svg">
  <defs>
    <pattern id="BGPattern" patternUnits="userSpaceOnUse" alignment="0 0" imageRepeat="None" />
    <mask fill="white" id="Clip451">
      <path d="M 7.2220982142857135 11.57142857142857  L 6.1171875 8.196428571428573  L 9 6.107142857142858  L 11.8828125 8.196428571428573  L 10.787946428571427 11.57142857142857  L 7.2220982142857135 11.57142857142857  Z M 5.5044642857142865 0.7131696428571426  C 6.616071428571429 0.2377232142857142  7.78125 0  9 0  C 10.21875 0  11.383928571428573 0.2377232142857142  12.495535714285715 0.7131696428571426  C 13.60714285714286 1.188616071428571  14.564732142857142 1.828125  15.368303571428573 2.631696428571428  C 16.171875000000004 3.4352678571428577  16.81138392857143 4.3928571428571415  17.286830357142858 5.504464285714285  C 17.76227678571429 6.616071428571427  18 7.781249999999999  18 9  C 18 10.218749999999998  17.76227678571429 11.383928571428571  17.286830357142858 12.495535714285715  C 16.81138392857143 13.607142857142858  16.171875000000004 14.564732142857142  15.368303571428573 15.36830357142857  C 14.564732142857142 16.171875  13.60714285714286 16.81138392857143  12.495535714285715 17.286830357142858  C 11.383928571428573 17.762276785714285  10.21875 18  9 18  C 7.78125 18  6.616071428571429 17.762276785714285  5.5044642857142865 17.286830357142858  C 4.392857142857143 16.81138392857143  3.4352678571428568 16.171875  2.631696428571429 15.36830357142857  C 1.828125 14.564732142857142  1.1886160714285714 13.607142857142858  0.7131696428571428 12.495535714285715  C 0.23772321428571425 11.383928571428571  0 10.218749999999998  0 9  C 0 7.781249999999999  0.23772321428571425 6.616071428571427  0.7131696428571428 5.504464285714285  C 1.1886160714285714 4.3928571428571415  1.828125 3.4352678571428577  2.631696428571429 2.631696428571428  C 3.4352678571428568 1.828125  4.392857142857143 1.188616071428571  5.5044642857142865 0.7131696428571426  Z M 14.916294642857142 12.234375  L 15.217633928571427 13.560267857142858  C 16.21540178571429 12.200892857142858  16.714285714285715 10.680803571428571  16.714285714285715 9  L 16.714285714285715 8.969866071428573  L 15.689732142857142 9.863839285714285  L 13.279017857142858 7.613839285714285  L 13.911830357142858 4.369419642857142  L 15.2578125 4.489955357142858  C 14.253348214285715 3.1104910714285694  12.950892857142858 2.166294642857142  11.350446428571427 1.6573660714285723  L 11.8828125 2.902901785714285  L 9 4.5  L 6.1171875 2.902901785714285  L 6.649553571428571 1.6573660714285723  C 5.049107142857144 2.166294642857142  3.746651785714286 3.1104910714285694  2.7421875 4.489955357142858  L 4.098214285714286 4.369419642857142  L 4.720982142857142 7.613839285714285  L 2.3102678571428568 9.863839285714285  L 1.2857142857142856 8.969866071428573  L 1.2857142857142856 9  C 1.2857142857142856 10.680803571428571  1.7845982142857144 12.200892857142858  2.782366071428571 13.560267857142858  L 3.0837053571428568 12.234375  L 6.358258928571429 12.636160714285715  L 7.7544642857142865 15.629464285714285  L 6.5892857142857135 16.322544642857142  C 7.372767857142858 16.583705357142858  8.176339285714286 16.714285714285715  9 16.714285714285715  C 9.823660714285715 16.714285714285715  10.627232142857142 16.583705357142858  11.410714285714285 16.322544642857142  L 10.245535714285715 15.629464285714285  L 11.641741071428573 12.636160714285715  L 14.916294642857142 12.234375  Z " fill-rule="evenodd" />
    </mask>
  </defs>
  <g transform="matrix(1 0 0 1 -111 -209 )">
    <path d="M 7.2220982142857135 11.57142857142857  L 6.1171875 8.196428571428573  L 9 6.107142857142858  L 11.8828125 8.196428571428573  L 10.787946428571427 11.57142857142857  L 7.2220982142857135 11.57142857142857  Z M 5.5044642857142865 0.7131696428571426  C 6.616071428571429 0.2377232142857142  7.78125 0  9 0  C 10.21875 0  11.383928571428573 0.2377232142857142  12.495535714285715 0.7131696428571426  C 13.60714285714286 1.188616071428571  14.564732142857142 1.828125  15.368303571428573 2.631696428571428  C 16.171875000000004 3.4352678571428577  16.81138392857143 4.3928571428571415  17.286830357142858 5.504464285714285  C 17.76227678571429 6.616071428571427  18 7.781249999999999  18 9  C 18 10.218749999999998  17.76227678571429 11.383928571428571  17.286830357142858 12.495535714285715  C 16.81138392857143 13.607142857142858  16.171875000000004 14.564732142857142  15.368303571428573 15.36830357142857  C 14.564732142857142 16.171875  13.60714285714286 16.81138392857143  12.495535714285715 17.286830357142858  C 11.383928571428573 17.762276785714285  10.21875 18  9 18  C 7.78125 18  6.616071428571429 17.762276785714285  5.5044642857142865 17.286830357142858  C 4.392857142857143 16.81138392857143  3.4352678571428568 16.171875  2.631696428571429 15.36830357142857  C 1.828125 14.564732142857142  1.1886160714285714 13.607142857142858  0.7131696428571428 12.495535714285715  C 0.23772321428571425 11.383928571428571  0 10.218749999999998  0 9  C 0 7.781249999999999  0.23772321428571425 6.616071428571427  0.7131696428571428 5.504464285714285  C 1.1886160714285714 4.3928571428571415  1.828125 3.4352678571428577  2.631696428571429 2.631696428571428  C 3.4352678571428568 1.828125  4.392857142857143 1.188616071428571  5.5044642857142865 0.7131696428571426  Z M 14.916294642857142 12.234375  L 15.217633928571427 13.560267857142858  C 16.21540178571429 12.200892857142858  16.714285714285715 10.680803571428571  16.714285714285715 9  L 16.714285714285715 8.969866071428573  L 15.689732142857142 9.863839285714285  L 13.279017857142858 7.613839285714285  L 13.911830357142858 4.369419642857142  L 15.2578125 4.489955357142858  C 14.253348214285715 3.1104910714285694  12.950892857142858 2.166294642857142  11.350446428571427 1.6573660714285723  L 11.8828125 2.902901785714285  L 9 4.5  L 6.1171875 2.902901785714285  L 6.649553571428571 1.6573660714285723  C 5.049107142857144 2.166294642857142  3.746651785714286 3.1104910714285694  2.7421875 4.489955357142858  L 4.098214285714286 4.369419642857142  L 4.720982142857142 7.613839285714285  L 2.3102678571428568 9.863839285714285  L 1.2857142857142856 8.969866071428573  L 1.2857142857142856 9  C 1.2857142857142856 10.680803571428571  1.7845982142857144 12.200892857142858  2.782366071428571 13.560267857142858  L 3.0837053571428568 12.234375  L 6.358258928571429 12.636160714285715  L 7.7544642857142865 15.629464285714285  L 6.5892857142857135 16.322544642857142  C 7.372767857142858 16.583705357142858  8.176339285714286 16.714285714285715  9 16.714285714285715  C 9.823660714285715 16.714285714285715  10.627232142857142 16.583705357142858  11.410714285714285 16.322544642857142  L 10.245535714285715 15.629464285714285  L 11.641741071428573 12.636160714285715  L 14.916294642857142 12.234375  Z " fill-rule="nonzero" fill="rgba(0, 0, 0, 1)" stroke="none" transform="matrix(1 0 0 1 111 209 )" class="fill" />
    <path d="M 7.2220982142857135 11.57142857142857  L 6.1171875 8.196428571428573  L 9 6.107142857142858  L 11.8828125 8.196428571428573  L 10.787946428571427 11.57142857142857  L 7.2220982142857135 11.57142857142857  Z " stroke-width="0" stroke-dasharray="0" stroke="rgba(255, 255, 255, 0)" fill="none" transform="matrix(1 0 0 1 111 209 )" class="stroke" mask="url(#Clip451)" />
    <path d="M 5.5044642857142865 0.7131696428571426  C 6.616071428571429 0.2377232142857142  7.78125 0  9 0  C 10.21875 0  11.383928571428573 0.2377232142857142  12.495535714285715 0.7131696428571426  C 13.60714285714286 1.188616071428571  14.564732142857142 1.828125  15.368303571428573 2.631696428571428  C 16.171875000000004 3.4352678571428577  16.81138392857143 4.3928571428571415  17.286830357142858 5.504464285714285  C 17.76227678571429 6.616071428571427  18 7.781249999999999  18 9  C 18 10.218749999999998  17.76227678571429 11.383928571428571  17.286830357142858 12.495535714285715  C 16.81138392857143 13.607142857142858  16.171875000000004 14.564732142857142  15.368303571428573 15.36830357142857  C 14.564732142857142 16.171875  13.60714285714286 16.81138392857143  12.495535714285715 17.286830357142858  C 11.383928571428573 17.762276785714285  10.21875 18  9 18  C 7.78125 18  6.616071428571429 17.762276785714285  5.5044642857142865 17.286830357142858  C 4.392857142857143 16.81138392857143  3.4352678571428568 16.171875  2.631696428571429 15.36830357142857  C 1.828125 14.564732142857142  1.1886160714285714 13.607142857142858  0.7131696428571428 12.495535714285715  C 0.23772321428571425 11.383928571428571  0 10.218749999999998  0 9  C 0 7.781249999999999  0.23772321428571425 6.616071428571427  0.7131696428571428 5.504464285714285  C 1.1886160714285714 4.3928571428571415  1.828125 3.4352678571428577  2.631696428571429 2.631696428571428  C 3.4352678571428568 1.828125  4.392857142857143 1.188616071428571  5.5044642857142865 0.7131696428571426  Z " stroke-width="0" stroke-dasharray="0" stroke="rgba(255, 255, 255, 0)" fill="none" transform="matrix(1 0 0 1 111 209 )" class="stroke" mask="url(#Clip451)" />
    <path d="M 14.916294642857142 12.234375  L 15.217633928571427 13.560267857142858  C 16.21540178571429 12.200892857142858  16.714285714285715 10.680803571428571  16.714285714285715 9  L 16.714285714285715 8.969866071428573  L 15.689732142857142 9.863839285714285  L 13.279017857142858 7.613839285714285  L 13.911830357142858 4.369419642857142  L 15.2578125 4.489955357142858  C 14.253348214285715 3.1104910714285694  12.950892857142858 2.166294642857142  11.350446428571427 1.6573660714285723  L 11.8828125 2.902901785714285  L 9 4.5  L 6.1171875 2.902901785714285  L 6.649553571428571 1.6573660714285723  C 5.049107142857144 2.166294642857142  3.746651785714286 3.1104910714285694  2.7421875 4.489955357142858  L 4.098214285714286 4.369419642857142  L 4.720982142857142 7.613839285714285  L 2.3102678571428568 9.863839285714285  L 1.2857142857142856 8.969866071428573  L 1.2857142857142856 9  C 1.2857142857142856 10.680803571428571  1.7845982142857144 12.200892857142858  2.782366071428571 13.560267857142858  L 3.0837053571428568 12.234375  L 6.358258928571429 12.636160714285715  L 7.7544642857142865 15.629464285714285  L 6.5892857142857135 16.322544642857142  C 7.372767857142858 16.583705357142858  8.176339285714286 16.714285714285715  9 16.714285714285715  C 9.823660714285715 16.714285714285715  10.627232142857142 16.583705357142858  11.410714285714285 16.322544642857142  L 10.245535714285715 15.629464285714285  L 11.641741071428573 12.636160714285715  L 14.916294642857142 12.234375  Z " stroke-width="0" stroke-dasharray="0" stroke="rgba(255, 255, 255, 0)" fill="none" transform="matrix(1 0 0 1 111 209 )" class="stroke" mask="url(#Clip451)" />
  </g>
</svg>