<?xml version="1.0" encoding="utf-8"?>
<svg version="1.1" xmlns:xlink="http://www.w3.org/1999/xlink" width="15px" height="19px" xmlns="http://www.w3.org/2000/svg">
  <defs>
    <pattern id="BGPattern" patternUnits="userSpaceOnUse" alignment="0 0" imageRepeat="None" />
    <mask fill="white" id="Clip452">
      <path d="M 6.615767045454545 0.20145089285714346  C 6.750710227272728 0.3357514880952356  6.818181818181818 0.49479166666666596  6.818181818181818 0.6785714285714283  L 6.818181818181818 7.464285714285715  C 6.818181818181818 7.8954613095238075  6.692116477272728 8.287760416666666  6.439985795454545 8.641183035714285  C 6.187855113636364 8.994605654761903  5.859375 9.242001488095237  5.454545454545455 9.383370535714285  L 5.454545454545455 17.642857142857142  C 5.454545454545455 18.010416666666668  5.319602272727273 18.328497023809526  5.049715909090909 18.597098214285715  C 4.779829545454546 18.865699404761905  4.460227272727273 19  4.090909090909091 19  L 2.7272727272727275 19  C 2.357954545454546 19  2.0383522727272734 18.865699404761905  1.7684659090909092 18.597098214285715  C 1.4985795454545456 18.328497023809526  1.3636363636363638 18.010416666666668  1.3636363636363638 17.642857142857142  L 1.3636363636363638 9.383370535714285  C 0.9588068181818181 9.242001488095237  0.6303267045454546 8.994605654761903  0.3781960227272727 8.641183035714285  C 0.1260653409090909 8.287760416666666  0 7.8954613095238075  0 7.464285714285715  L 0 0.6785714285714283  C 0 0.49479166666666596  0.0674715909090909 0.3357514880952356  0.20241477272727273 0.20145089285714346  C 0.3373579545454546 0.06715029761904923  0.497159090909091 0  0.6818181818181819 0  C 0.8664772727272728 0  1.0262784090909092 0.06715029761904923  1.1612215909090908 0.20145089285714346  C 1.2961647727272727 0.3357514880952356  1.3636363636363638 0.49479166666666596  1.3636363636363638 0.6785714285714283  L 1.3636363636363638 5.089285714285715  C 1.3636363636363638 5.273065476190475  1.4311079545454546 5.432105654761903  1.5660511363636362 5.56640625  C 1.7009943181818183 5.700706845238094  1.8607954545454548 5.767857142857143  2.0454545454545454 5.767857142857143  C 2.2301136363636367 5.767857142857143  2.389914772727273 5.700706845238094  2.5248579545454546 5.56640625  C 2.6598011363636367 5.432105654761903  2.7272727272727275 5.273065476190475  2.7272727272727275 5.089285714285715  L 2.7272727272727275 0.6785714285714283  C 2.7272727272727275 0.49479166666666596  2.7947443181818183 0.3357514880952356  2.9296875 0.20145089285714346  C 3.064630681818182 0.06715029761904923  3.2244318181818183 0  3.409090909090909 0  C 3.5937500000000004 0  3.7535511363636367 0.06715029761904923  3.888494318181818 0.20145089285714346  C 4.023437499999999 0.3357514880952356  4.090909090909091 0.49479166666666596  4.090909090909091 0.6785714285714283  L 4.090909090909091 5.089285714285715  C 4.090909090909091 5.273065476190475  4.158380681818182 5.432105654761903  4.293323863636363 5.56640625  C 4.428267045454546 5.700706845238094  4.5880681818181825 5.767857142857143  4.7727272727272725 5.767857142857143  C 4.957386363636364 5.767857142857143  5.117187500000001 5.700706845238094  5.252130681818182 5.56640625  C 5.387073863636363 5.432105654761903  5.454545454545455 5.273065476190475  5.454545454545455 5.089285714285715  L 5.454545454545455 0.6785714285714283  C 5.454545454545455 0.49479166666666596  5.522017045454546 0.3357514880952356  5.6569602272727275 0.20145089285714346  C 5.79190340909091 0.06715029761904923  5.951704545454547 0  6.136363636363637 0  C 6.3210227272727275 0  6.480823863636364 0.06715029761904923  6.615767045454545 0.20145089285714346  Z M 14.797585227272727 0.20145089285714346  C 14.93252840909091 0.3357514880952356  15 0.49479166666666596  15 0.6785714285714283  L 15 17.642857142857142  C 15 18.010416666666668  14.86505681818182 18.328497023809526  14.595170454545455 18.597098214285715  C 14.325284090909092 18.865699404761905  14.005681818181818 19  13.636363636363637 19  L 12.272727272727273 19  C 11.903409090909093 19  11.58380681818182 18.865699404761905  11.313920454545455 18.597098214285715  C 11.044034090909092 18.328497023809526  10.90909090909091 18.010416666666668  10.90909090909091 17.642857142857142  L 10.90909090909091 12.214285714285714  L 8.522727272727273 12.214285714285714  C 8.430397727272727 12.214285714285714  8.35049715909091 12.180710565476193  8.283025568181818 12.113560267857144  C 8.215553977272728 12.046409970238095  8.181818181818182 11.96688988095238  8.181818181818182 11.875  L 8.181818181818182 3.3928571428571432  C 8.181818181818182 2.4598214285714284  8.515624999999998 1.6610863095238073  9.183238636363637 0.9966517857142848  C 9.850852272727273 0.3322172619047644  10.65340909090909 0  11.59090909090909 0  L 14.318181818181818 0  C 14.50284090909091 0  14.662642045454547 0.06715029761904923  14.797585227272727 0.20145089285714346  Z " fill-rule="evenodd" />
    </mask>
  </defs>
  <g transform="matrix(1 0 0 1 -88 -209 )">
    <path d="M 6.615767045454545 0.20145089285714346  C 6.750710227272728 0.3357514880952356  6.818181818181818 0.49479166666666596  6.818181818181818 0.6785714285714283  L 6.818181818181818 7.464285714285715  C 6.818181818181818 7.8954613095238075  6.692116477272728 8.287760416666666  6.439985795454545 8.641183035714285  C 6.187855113636364 8.994605654761903  5.859375 9.242001488095237  5.454545454545455 9.383370535714285  L 5.454545454545455 17.642857142857142  C 5.454545454545455 18.010416666666668  5.319602272727273 18.328497023809526  5.049715909090909 18.597098214285715  C 4.779829545454546 18.865699404761905  4.460227272727273 19  4.090909090909091 19  L 2.7272727272727275 19  C 2.357954545454546 19  2.0383522727272734 18.865699404761905  1.7684659090909092 18.597098214285715  C 1.4985795454545456 18.328497023809526  1.3636363636363638 18.010416666666668  1.3636363636363638 17.642857142857142  L 1.3636363636363638 9.383370535714285  C 0.9588068181818181 9.242001488095237  0.6303267045454546 8.994605654761903  0.3781960227272727 8.641183035714285  C 0.1260653409090909 8.287760416666666  0 7.8954613095238075  0 7.464285714285715  L 0 0.6785714285714283  C 0 0.49479166666666596  0.0674715909090909 0.3357514880952356  0.20241477272727273 0.20145089285714346  C 0.3373579545454546 0.06715029761904923  0.497159090909091 0  0.6818181818181819 0  C 0.8664772727272728 0  1.0262784090909092 0.06715029761904923  1.1612215909090908 0.20145089285714346  C 1.2961647727272727 0.3357514880952356  1.3636363636363638 0.49479166666666596  1.3636363636363638 0.6785714285714283  L 1.3636363636363638 5.089285714285715  C 1.3636363636363638 5.273065476190475  1.4311079545454546 5.432105654761903  1.5660511363636362 5.56640625  C 1.7009943181818183 5.700706845238094  1.8607954545454548 5.767857142857143  2.0454545454545454 5.767857142857143  C 2.2301136363636367 5.767857142857143  2.389914772727273 5.700706845238094  2.5248579545454546 5.56640625  C 2.6598011363636367 5.432105654761903  2.7272727272727275 5.273065476190475  2.7272727272727275 5.089285714285715  L 2.7272727272727275 0.6785714285714283  C 2.7272727272727275 0.49479166666666596  2.7947443181818183 0.3357514880952356  2.9296875 0.20145089285714346  C 3.064630681818182 0.06715029761904923  3.2244318181818183 0  3.409090909090909 0  C 3.5937500000000004 0  3.7535511363636367 0.06715029761904923  3.888494318181818 0.20145089285714346  C 4.023437499999999 0.3357514880952356  4.090909090909091 0.49479166666666596  4.090909090909091 0.6785714285714283  L 4.090909090909091 5.089285714285715  C 4.090909090909091 5.273065476190475  4.158380681818182 5.432105654761903  4.293323863636363 5.56640625  C 4.428267045454546 5.700706845238094  4.5880681818181825 5.767857142857143  4.7727272727272725 5.767857142857143  C 4.957386363636364 5.767857142857143  5.117187500000001 5.700706845238094  5.252130681818182 5.56640625  C 5.387073863636363 5.432105654761903  5.454545454545455 5.273065476190475  5.454545454545455 5.089285714285715  L 5.454545454545455 0.6785714285714283  C 5.454545454545455 0.49479166666666596  5.522017045454546 0.3357514880952356  5.6569602272727275 0.20145089285714346  C 5.79190340909091 0.06715029761904923  5.951704545454547 0  6.136363636363637 0  C 6.3210227272727275 0  6.480823863636364 0.06715029761904923  6.615767045454545 0.20145089285714346  Z M 14.797585227272727 0.20145089285714346  C 14.93252840909091 0.3357514880952356  15 0.49479166666666596  15 0.6785714285714283  L 15 17.642857142857142  C 15 18.010416666666668  14.86505681818182 18.328497023809526  14.595170454545455 18.597098214285715  C 14.325284090909092 18.865699404761905  14.005681818181818 19  13.636363636363637 19  L 12.272727272727273 19  C 11.903409090909093 19  11.58380681818182 18.865699404761905  11.313920454545455 18.597098214285715  C 11.044034090909092 18.328497023809526  10.90909090909091 18.010416666666668  10.90909090909091 17.642857142857142  L 10.90909090909091 12.214285714285714  L 8.522727272727273 12.214285714285714  C 8.430397727272727 12.214285714285714  8.35049715909091 12.180710565476193  8.283025568181818 12.113560267857144  C 8.215553977272728 12.046409970238095  8.181818181818182 11.96688988095238  8.181818181818182 11.875  L 8.181818181818182 3.3928571428571432  C 8.181818181818182 2.4598214285714284  8.515624999999998 1.6610863095238073  9.183238636363637 0.9966517857142848  C 9.850852272727273 0.3322172619047644  10.65340909090909 0  11.59090909090909 0  L 14.318181818181818 0  C 14.50284090909091 0  14.662642045454547 0.06715029761904923  14.797585227272727 0.20145089285714346  Z " fill-rule="nonzero" fill="rgba(0, 0, 0, 1)" stroke="none" transform="matrix(1 0 0 1 88 209 )" class="fill" />
    <path d="M 6.615767045454545 0.20145089285714346  C 6.750710227272728 0.3357514880952356  6.818181818181818 0.49479166666666596  6.818181818181818 0.6785714285714283  L 6.818181818181818 7.464285714285715  C 6.818181818181818 7.8954613095238075  6.692116477272728 8.287760416666666  6.439985795454545 8.641183035714285  C 6.187855113636364 8.994605654761903  5.859375 9.242001488095237  5.454545454545455 9.383370535714285  L 5.454545454545455 17.642857142857142  C 5.454545454545455 18.010416666666668  5.319602272727273 18.328497023809526  5.049715909090909 18.597098214285715  C 4.779829545454546 18.865699404761905  4.460227272727273 19  4.090909090909091 19  L 2.7272727272727275 19  C 2.357954545454546 19  2.0383522727272734 18.865699404761905  1.7684659090909092 18.597098214285715  C 1.4985795454545456 18.328497023809526  1.3636363636363638 18.010416666666668  1.3636363636363638 17.642857142857142  L 1.3636363636363638 9.383370535714285  C 0.9588068181818181 9.242001488095237  0.6303267045454546 8.994605654761903  0.3781960227272727 8.641183035714285  C 0.1260653409090909 8.287760416666666  0 7.8954613095238075  0 7.464285714285715  L 0 0.6785714285714283  C 0 0.49479166666666596  0.0674715909090909 0.3357514880952356  0.20241477272727273 0.20145089285714346  C 0.3373579545454546 0.06715029761904923  0.497159090909091 0  0.6818181818181819 0  C 0.8664772727272728 0  1.0262784090909092 0.06715029761904923  1.1612215909090908 0.20145089285714346  C 1.2961647727272727 0.3357514880952356  1.3636363636363638 0.49479166666666596  1.3636363636363638 0.6785714285714283  L 1.3636363636363638 5.089285714285715  C 1.3636363636363638 5.273065476190475  1.4311079545454546 5.432105654761903  1.5660511363636362 5.56640625  C 1.7009943181818183 5.700706845238094  1.8607954545454548 5.767857142857143  2.0454545454545454 5.767857142857143  C 2.2301136363636367 5.767857142857143  2.389914772727273 5.700706845238094  2.5248579545454546 5.56640625  C 2.6598011363636367 5.432105654761903  2.7272727272727275 5.273065476190475  2.7272727272727275 5.089285714285715  L 2.7272727272727275 0.6785714285714283  C 2.7272727272727275 0.49479166666666596  2.7947443181818183 0.3357514880952356  2.9296875 0.20145089285714346  C 3.064630681818182 0.06715029761904923  3.2244318181818183 0  3.409090909090909 0  C 3.5937500000000004 0  3.7535511363636367 0.06715029761904923  3.888494318181818 0.20145089285714346  C 4.023437499999999 0.3357514880952356  4.090909090909091 0.49479166666666596  4.090909090909091 0.6785714285714283  L 4.090909090909091 5.089285714285715  C 4.090909090909091 5.273065476190475  4.158380681818182 5.432105654761903  4.293323863636363 5.56640625  C 4.428267045454546 5.700706845238094  4.5880681818181825 5.767857142857143  4.7727272727272725 5.767857142857143  C 4.957386363636364 5.767857142857143  5.117187500000001 5.700706845238094  5.252130681818182 5.56640625  C 5.387073863636363 5.432105654761903  5.454545454545455 5.273065476190475  5.454545454545455 5.089285714285715  L 5.454545454545455 0.6785714285714283  C 5.454545454545455 0.49479166666666596  5.522017045454546 0.3357514880952356  5.6569602272727275 0.20145089285714346  C 5.79190340909091 0.06715029761904923  5.951704545454547 0  6.136363636363637 0  C 6.3210227272727275 0  6.480823863636364 0.06715029761904923  6.615767045454545 0.20145089285714346  Z " stroke-width="0" stroke-dasharray="0" stroke="rgba(255, 255, 255, 0)" fill="none" transform="matrix(1 0 0 1 88 209 )" class="stroke" mask="url(#Clip452)" />
    <path d="M 14.797585227272727 0.20145089285714346  C 14.93252840909091 0.3357514880952356  15 0.49479166666666596  15 0.6785714285714283  L 15 17.642857142857142  C 15 18.010416666666668  14.86505681818182 18.328497023809526  14.595170454545455 18.597098214285715  C 14.325284090909092 18.865699404761905  14.005681818181818 19  13.636363636363637 19  L 12.272727272727273 19  C 11.903409090909093 19  11.58380681818182 18.865699404761905  11.313920454545455 18.597098214285715  C 11.044034090909092 18.328497023809526  10.90909090909091 18.010416666666668  10.90909090909091 17.642857142857142  L 10.90909090909091 12.214285714285714  L 8.522727272727273 12.214285714285714  C 8.430397727272727 12.214285714285714  8.35049715909091 12.180710565476193  8.283025568181818 12.113560267857144  C 8.215553977272728 12.046409970238095  8.181818181818182 11.96688988095238  8.181818181818182 11.875  L 8.181818181818182 3.3928571428571432  C 8.181818181818182 2.4598214285714284  8.515624999999998 1.6610863095238073  9.183238636363637 0.9966517857142848  C 9.850852272727273 0.3322172619047644  10.65340909090909 0  11.59090909090909 0  L 14.318181818181818 0  C 14.50284090909091 0  14.662642045454547 0.06715029761904923  14.797585227272727 0.20145089285714346  Z " stroke-width="0" stroke-dasharray="0" stroke="rgba(255, 255, 255, 0)" fill="none" transform="matrix(1 0 0 1 88 209 )" class="stroke" mask="url(#Clip452)" />
  </g>
</svg>