<?xml version="1.0" encoding="utf-8"?>
<svg version="1.1" xmlns:xlink="http://www.w3.org/1999/xlink" width="16px" height="8px" xmlns="http://www.w3.org/2000/svg">
  <defs>
    <pattern id="BGPattern" patternUnits="userSpaceOnUse" alignment="0 0" imageRepeat="None" />
    <mask fill="white" id="Clip453">
      <path d="M 15.907407407407407 3.734720416124837  C 15.969135802469138 3.8040745557000433  16.000000000000004 3.8838318162115293  16 3.973992197659298  C 16.000000000000004 4.071087993064586  15.969135802469138 4.154312960554832  15.907407407407407 4.223667100130039  L 12.351851851851851 7.906371911573472  C 12.253086419753087 8.003467706978759  12.145061728395062 8.024273948851322  12.027777777777779 7.968790637191157  C 11.910493827160495 7.906371911573472  11.851851851851851 7.805808409189423  11.851851851851851 7.667100130039012  L 11.851851851851851 5.336801040312094  L 0.2962962962962963 5.336801040312094  C 0.20987654320987656 5.336801040312094  0.1388888888888889 5.3055916775032514  0.08333333333333333 5.243172951885565  C 0.027777777777777776 5.18075422626788  0 5.1009969657563925  0 5.003901170351105  L 0 3.006501950585175  C 0 2.9094061551798873  0.027777777777777776 2.8296488946684004  0.08333333333333333 2.7672301690507153  C 0.1388888888888889 2.70481144343303  0.20987654320987656 2.673602080624187  0.2962962962962963 2.673602080624187  L 11.851851851851851 2.673602080624187  L 11.851851851851851 0.34330299089726957  C 11.851851851851851 0.197659297789337  11.910493827160495 0.09709579540528779  12.027777777777779 0.04161248374512372  C 12.145061728395062 -0.013870827915042128  12.253086419753087 0.0034677069787596437  12.351851851851851 0.09362808842652814  L 15.907407407407407 3.734720416124837  Z " fill-rule="evenodd" />
    </mask>
  </defs>
  <g transform="matrix(1 0 0 1 -86 -455 )">
    <path d="M 15.907407407407407 3.734720416124837  C 15.969135802469138 3.8040745557000433  16.000000000000004 3.8838318162115293  16 3.973992197659298  C 16.000000000000004 4.071087993064586  15.969135802469138 4.154312960554832  15.907407407407407 4.223667100130039  L 12.351851851851851 7.906371911573472  C 12.253086419753087 8.003467706978759  12.145061728395062 8.024273948851322  12.027777777777779 7.968790637191157  C 11.910493827160495 7.906371911573472  11.851851851851851 7.805808409189423  11.851851851851851 7.667100130039012  L 11.851851851851851 5.336801040312094  L 0.2962962962962963 5.336801040312094  C 0.20987654320987656 5.336801040312094  0.1388888888888889 5.3055916775032514  0.08333333333333333 5.243172951885565  C 0.027777777777777776 5.18075422626788  0 5.1009969657563925  0 5.003901170351105  L 0 3.006501950585175  C 0 2.9094061551798873  0.027777777777777776 2.8296488946684004  0.08333333333333333 2.7672301690507153  C 0.1388888888888889 2.70481144343303  0.20987654320987656 2.673602080624187  0.2962962962962963 2.673602080624187  L 11.851851851851851 2.673602080624187  L 11.851851851851851 0.34330299089726957  C 11.851851851851851 0.197659297789337  11.910493827160495 0.09709579540528779  12.027777777777779 0.04161248374512372  C 12.145061728395062 -0.013870827915042128  12.253086419753087 0.0034677069787596437  12.351851851851851 0.09362808842652814  L 15.907407407407407 3.734720416124837  Z " fill-rule="nonzero" fill="rgba(0, 0, 0, 1)" stroke="none" transform="matrix(1 0 0 1 86 455 )" class="fill" />
    <path d="M 15.907407407407407 3.734720416124837  C 15.969135802469138 3.8040745557000433  16.000000000000004 3.8838318162115293  16 3.973992197659298  C 16.000000000000004 4.071087993064586  15.969135802469138 4.154312960554832  15.907407407407407 4.223667100130039  L 12.351851851851851 7.906371911573472  C 12.253086419753087 8.003467706978759  12.145061728395062 8.024273948851322  12.027777777777779 7.968790637191157  C 11.910493827160495 7.906371911573472  11.851851851851851 7.805808409189423  11.851851851851851 7.667100130039012  L 11.851851851851851 5.336801040312094  L 0.2962962962962963 5.336801040312094  C 0.20987654320987656 5.336801040312094  0.1388888888888889 5.3055916775032514  0.08333333333333333 5.243172951885565  C 0.027777777777777776 5.18075422626788  0 5.1009969657563925  0 5.003901170351105  L 0 3.006501950585175  C 0 2.9094061551798873  0.027777777777777776 2.8296488946684004  0.08333333333333333 2.7672301690507153  C 0.1388888888888889 2.70481144343303  0.20987654320987656 2.673602080624187  0.2962962962962963 2.673602080624187  L 11.851851851851851 2.673602080624187  L 11.851851851851851 0.34330299089726957  C 11.851851851851851 0.197659297789337  11.910493827160495 0.09709579540528779  12.027777777777779 0.04161248374512372  C 12.145061728395062 -0.013870827915042128  12.253086419753087 0.0034677069787596437  12.351851851851851 0.09362808842652814  L 15.907407407407407 3.734720416124837  Z " stroke-width="0" stroke-dasharray="0" stroke="rgba(255, 255, 255, 0)" fill="none" transform="matrix(1 0 0 1 86 455 )" class="stroke" mask="url(#Clip453)" />
  </g>
</svg>