<?xml version="1.0" encoding="utf-8"?>
<svg version="1.1" xmlns:xlink="http://www.w3.org/1999/xlink" width="116px" height="80px" xmlns="http://www.w3.org/2000/svg">
  <defs>
    <pattern id="BGPattern" patternUnits="userSpaceOnUse" alignment="0 0" imageRepeat="None" />
    <mask fill="white" id="Clip454">
      <path d="M 0 0  L 0 79  L 115 79  L 115 0  L 0 0  Z " fill-rule="evenodd" />
    </mask>
  </defs>
  <g transform="matrix(1 0 0 1 -175 -442 )">
    <path d="M 0 0  L 0 79  L 115 79  L 115 0  L 0 0  Z " fill-rule="nonzero" fill="rgba(202, 249, 130, 0.792156862745098)" stroke="none" transform="matrix(1 0 0 1 175 442 )" class="fill" />
    <path d="M 0 0  L 0 79  L 115 79  L 115 0  L 0 0  Z " stroke-width="2" stroke-dasharray="0" stroke="rgba(0, 0, 0, 1)" fill="none" transform="matrix(1 0 0 1 175 442 )" class="stroke" mask="url(#Clip454)" />
    <path d="M 0 14.5  L 115 14.5  M 21.5 0  L 21.5 79  " stroke-width="1" stroke-dasharray="0" stroke="rgba(0, 0, 0, 1)" fill="none" transform="matrix(1 0 0 1 175 442 )" class="stroke" />
  </g>
</svg>