<?xml version="1.0" encoding="utf-8"?>
<svg version="1.1" xmlns:xlink="http://www.w3.org/1999/xlink" width="15px" height="13px" xmlns="http://www.w3.org/2000/svg">
  <defs>
    <pattern id="BGPattern" patternUnits="userSpaceOnUse" alignment="0 0" imageRepeat="None" />
    <mask fill="white" id="Clip455">
      <path d="M 7.868303571428571 12.84765625  C 7.767857142857143 12.94921875  7.6450892857142865 13  7.5 13  C 7.354910714285714 13  7.232142857142858 12.94921875  7.131696428571428 12.84765625  L 1.9084821428571428 7.752604166666668  C 1.8526785714285716 7.707465277777778  1.775948660714286 7.634114583333332  1.6782924107142856 7.532552083333332  C 1.5806361607142858 7.430989583333332  1.4257812500000002 7.246202256944445  1.2137276785714286 6.978190104166668  C 1.0016741071428572 6.7101779513888875  0.8119419642857143 6.435112847222221  0.64453125 6.152994791666666  C 0.4771205357142857 5.870876736111112  0.32784598214285715 5.529513888888888  0.1967075892857143 5.12890625  C 0.06556919642857142 4.72829861111111  0 4.338975694444444  0 3.9609375  C 0 2.719618055555555  0.3543526785714285 1.7491319444444438  1.0630580357142856 1.049479166666666  C 1.771763392857143 0.34982638888888873  2.751116071428571 0  4.001116071428572 0  C 4.347098214285714 0  4.700055803571428 0.06065538194444364  5.059988839285714 0.18196614583333381  C 5.419921875 0.3032769097222211  5.754743303571428 0.46690538194444364  6.064453125 0.6728515625  C 6.374162946428573 0.8787977430555549  6.640625000000002 1.0720486111111098  6.863839285714286 1.252604166666666  C 7.087053571428572 1.433159722222221  7.299107142857142 1.625  7.5 1.828125  C 7.700892857142857 1.625  7.91294642857143 1.433159722222221  8.136160714285715 1.252604166666666  C 8.359375000000002 1.0720486111111098  8.625837053571429 0.8787977430555549  8.935546875 0.6728515625  C 9.245256696428571 0.46690538194444364  9.580078125 0.3032769097222211  9.940011160714285 0.18196614583333381  C 10.299944196428571 0.06065538194444364  10.652901785714286 0  10.998883928571429 0  C 12.248883928571429 0  13.22823660714286 0.34982638888888873  13.936941964285715 1.049479166666666  C 14.645647321428573 1.7491319444444438  15 2.719618055555555  15 3.9609375  C 15 5.207899305555555  14.361049107142858 6.477430555555555  13.083147321428571 7.76953125  L 7.868303571428571 12.84765625  Z " fill-rule="evenodd" />
    </mask>
  </defs>
  <g transform="matrix(1 0 0 1 -178 -463 )">
    <path d="M 7.868303571428571 12.84765625  C 7.767857142857143 12.94921875  7.6450892857142865 13  7.5 13  C 7.354910714285714 13  7.232142857142858 12.94921875  7.131696428571428 12.84765625  L 1.9084821428571428 7.752604166666668  C 1.8526785714285716 7.707465277777778  1.775948660714286 7.634114583333332  1.6782924107142856 7.532552083333332  C 1.5806361607142858 7.430989583333332  1.4257812500000002 7.246202256944445  1.2137276785714286 6.978190104166668  C 1.0016741071428572 6.7101779513888875  0.8119419642857143 6.435112847222221  0.64453125 6.152994791666666  C 0.4771205357142857 5.870876736111112  0.32784598214285715 5.529513888888888  0.1967075892857143 5.12890625  C 0.06556919642857142 4.72829861111111  0 4.338975694444444  0 3.9609375  C 0 2.719618055555555  0.3543526785714285 1.7491319444444438  1.0630580357142856 1.049479166666666  C 1.771763392857143 0.34982638888888873  2.751116071428571 0  4.001116071428572 0  C 4.347098214285714 0  4.700055803571428 0.06065538194444364  5.059988839285714 0.18196614583333381  C 5.419921875 0.3032769097222211  5.754743303571428 0.46690538194444364  6.064453125 0.6728515625  C 6.374162946428573 0.8787977430555549  6.640625000000002 1.0720486111111098  6.863839285714286 1.252604166666666  C 7.087053571428572 1.433159722222221  7.299107142857142 1.625  7.5 1.828125  C 7.700892857142857 1.625  7.91294642857143 1.433159722222221  8.136160714285715 1.252604166666666  C 8.359375000000002 1.0720486111111098  8.625837053571429 0.8787977430555549  8.935546875 0.6728515625  C 9.245256696428571 0.46690538194444364  9.580078125 0.3032769097222211  9.940011160714285 0.18196614583333381  C 10.299944196428571 0.06065538194444364  10.652901785714286 0  10.998883928571429 0  C 12.248883928571429 0  13.22823660714286 0.34982638888888873  13.936941964285715 1.049479166666666  C 14.645647321428573 1.7491319444444438  15 2.719618055555555  15 3.9609375  C 15 5.207899305555555  14.361049107142858 6.477430555555555  13.083147321428571 7.76953125  L 7.868303571428571 12.84765625  Z " fill-rule="nonzero" fill="rgba(0, 0, 0, 1)" stroke="none" transform="matrix(1 0 0 1 178 463 )" class="fill" />
    <path d="M 7.868303571428571 12.84765625  C 7.767857142857143 12.94921875  7.6450892857142865 13  7.5 13  C 7.354910714285714 13  7.232142857142858 12.94921875  7.131696428571428 12.84765625  L 1.9084821428571428 7.752604166666668  C 1.8526785714285716 7.707465277777778  1.775948660714286 7.634114583333332  1.6782924107142856 7.532552083333332  C 1.5806361607142858 7.430989583333332  1.4257812500000002 7.246202256944445  1.2137276785714286 6.978190104166668  C 1.0016741071428572 6.7101779513888875  0.8119419642857143 6.435112847222221  0.64453125 6.152994791666666  C 0.4771205357142857 5.870876736111112  0.32784598214285715 5.529513888888888  0.1967075892857143 5.12890625  C 0.06556919642857142 4.72829861111111  0 4.338975694444444  0 3.9609375  C 0 2.719618055555555  0.3543526785714285 1.7491319444444438  1.0630580357142856 1.049479166666666  C 1.771763392857143 0.34982638888888873  2.751116071428571 0  4.001116071428572 0  C 4.347098214285714 0  4.700055803571428 0.06065538194444364  5.059988839285714 0.18196614583333381  C 5.419921875 0.3032769097222211  5.754743303571428 0.46690538194444364  6.064453125 0.6728515625  C 6.374162946428573 0.8787977430555549  6.640625000000002 1.0720486111111098  6.863839285714286 1.252604166666666  C 7.087053571428572 1.433159722222221  7.299107142857142 1.625  7.5 1.828125  C 7.700892857142857 1.625  7.91294642857143 1.433159722222221  8.136160714285715 1.252604166666666  C 8.359375000000002 1.0720486111111098  8.625837053571429 0.8787977430555549  8.935546875 0.6728515625  C 9.245256696428571 0.46690538194444364  9.580078125 0.3032769097222211  9.940011160714285 0.18196614583333381  C 10.299944196428571 0.06065538194444364  10.652901785714286 0  10.998883928571429 0  C 12.248883928571429 0  13.22823660714286 0.34982638888888873  13.936941964285715 1.049479166666666  C 14.645647321428573 1.7491319444444438  15 2.719618055555555  15 3.9609375  C 15 5.207899305555555  14.361049107142858 6.477430555555555  13.083147321428571 7.76953125  L 7.868303571428571 12.84765625  Z " stroke-width="0" stroke-dasharray="0" stroke="rgba(255, 255, 255, 0)" fill="none" transform="matrix(1 0 0 1 178 463 )" class="stroke" mask="url(#Clip455)" />
  </g>
</svg>