<?xml version="1.0" encoding="utf-8"?>
<svg version="1.1" xmlns:xlink="http://www.w3.org/1999/xlink" width="12px" height="16px" xmlns="http://www.w3.org/2000/svg">
  <defs>
    <pattern id="BGPattern" patternUnits="userSpaceOnUse" alignment="0 0" imageRepeat="None" />
    <mask fill="white" id="Clip456">
      <path d="M 5.292613636363637 0.16964285714285765  C 5.4005681818181825 0.2827380952380931  5.454545454545454 0.4166666666666661  5.454545454545454 0.5714285714285712  L 5.454545454545454 6.2857142857142865  C 5.454545454545454 6.648809523809522  5.3536931818181825 6.979166666666666  5.151988636363637 7.2767857142857135  C 4.950284090909091 7.574404761904761  4.6875 7.782738095238095  4.363636363636363 7.9017857142857135  L 4.363636363636363 14.857142857142858  C 4.363636363636363 15.166666666666668  4.255681818181818 15.43452380952381  4.0397727272727275 15.660714285714286  C 3.8238636363636367 15.886904761904761  3.5681818181818183 16  3.2727272727272725 16  L 2.1818181818181817 16  C 1.8863636363636367 16  1.6306818181818186 15.886904761904761  1.4147727272727273 15.660714285714286  C 1.1988636363636365 15.43452380952381  1.0909090909090908 15.166666666666668  1.0909090909090908 14.857142857142858  L 1.0909090909090908 7.9017857142857135  C 0.7670454545454546 7.782738095238095  0.5042613636363636 7.574404761904761  0.3025568181818182 7.2767857142857135  C 0.10085227272727272 6.979166666666666  0 6.648809523809522  0 6.2857142857142865  L 0 0.5714285714285712  C 0 0.4166666666666661  0.05397727272727272 0.2827380952380931  0.16193181818181818 0.16964285714285765  C 0.26988636363636365 0.0565476190476204  0.3977272727272728 0  0.5454545454545454 0  C 0.6931818181818182 0  0.8210227272727273 0.0565476190476204  0.9289772727272727 0.16964285714285765  C 1.0369318181818181 0.2827380952380931  1.0909090909090908 0.4166666666666661  1.0909090909090908 0.5714285714285712  L 1.0909090909090908 4.2857142857142865  C 1.0909090909090908 4.44047619047619  1.1448863636363638 4.574404761904761  1.2528409090909092 4.6875  C 1.3607954545454548 4.800595238095237  1.4886363636363638 4.857142857142858  1.6363636363636362 4.857142857142858  C 1.7840909090909092 4.857142857142858  1.9119318181818183 4.800595238095237  2.0198863636363638 4.6875  C 2.127840909090909 4.574404761904761  2.1818181818181817 4.44047619047619  2.1818181818181817 4.2857142857142865  L 2.1818181818181817 0.5714285714285712  C 2.1818181818181817 0.4166666666666661  2.235795454545455 0.2827380952380931  2.34375 0.16964285714285765  C 2.4517045454545454 0.0565476190476204  2.5795454545454546 0  2.727272727272727 0  C 2.8750000000000004 0  3.002840909090909 0.0565476190476204  3.110795454545454 0.16964285714285765  C 3.2187499999999996 0.2827380952380931  3.2727272727272725 0.4166666666666661  3.2727272727272725 0.5714285714285712  L 3.2727272727272725 4.2857142857142865  C 3.2727272727272725 4.44047619047619  3.3267045454545454 4.574404761904761  3.434659090909091 4.6875  C 3.5426136363636367 4.800595238095237  3.670454545454546 4.857142857142858  3.8181818181818183 4.857142857142858  C 3.965909090909091 4.857142857142858  4.09375 4.800595238095237  4.201704545454546 4.6875  C 4.309659090909091 4.574404761904761  4.363636363636363 4.44047619047619  4.363636363636363 4.2857142857142865  L 4.363636363636363 0.5714285714285712  C 4.363636363636363 0.4166666666666661  4.417613636363637 0.2827380952380931  4.525568181818182 0.16964285714285765  C 4.6335227272727275 0.0565476190476204  4.761363636363637 0  4.909090909090909 0  C 5.0568181818181825 0  5.184659090909091 0.0565476190476204  5.292613636363637 0.16964285714285765  Z M 11.838068181818182 0.16964285714285765  C 11.946022727272728 0.2827380952380931  12 0.4166666666666661  12 0.5714285714285712  L 12 14.857142857142858  C 12 15.166666666666668  11.892045454545455 15.43452380952381  11.676136363636363 15.660714285714286  C 11.460227272727273 15.886904761904761  11.204545454545455 16  10.909090909090908 16  L 9.818181818181818 16  C 9.522727272727273 16  9.267045454545455 15.886904761904761  9.051136363636363 15.660714285714286  C 8.835227272727273 15.43452380952381  8.727272727272727 15.166666666666668  8.727272727272727 14.857142857142858  L 8.727272727272727 10.285714285714285  L 6.818181818181818 10.285714285714285  C 6.744318181818182 10.285714285714285  6.680397727272728 10.257440476190478  6.626420454545455 10.200892857142858  C 6.572443181818182 10.144345238095237  6.545454545454545 10.07738095238095  6.545454545454545 10  L 6.545454545454545 2.8571428571428577  C 6.545454545454545 2.071428571428571  6.812499999999999 1.398809523809522  7.346590909090908 0.8392857142857135  C 7.880681818181818 0.2797619047619069  8.522727272727273 0  9.272727272727273 0  L 11.454545454545455 0  C 11.602272727272728 0  11.730113636363638 0.0565476190476204  11.838068181818182 0.16964285714285765  Z " fill-rule="evenodd" />
    </mask>
  </defs>
  <g transform="matrix(1 0 0 1 -180 -481 )">
    <path d="M 5.292613636363637 0.16964285714285765  C 5.4005681818181825 0.2827380952380931  5.454545454545454 0.4166666666666661  5.454545454545454 0.5714285714285712  L 5.454545454545454 6.2857142857142865  C 5.454545454545454 6.648809523809522  5.3536931818181825 6.979166666666666  5.151988636363637 7.2767857142857135  C 4.950284090909091 7.574404761904761  4.6875 7.782738095238095  4.363636363636363 7.9017857142857135  L 4.363636363636363 14.857142857142858  C 4.363636363636363 15.166666666666668  4.255681818181818 15.43452380952381  4.0397727272727275 15.660714285714286  C 3.8238636363636367 15.886904761904761  3.5681818181818183 16  3.2727272727272725 16  L 2.1818181818181817 16  C 1.8863636363636367 16  1.6306818181818186 15.886904761904761  1.4147727272727273 15.660714285714286  C 1.1988636363636365 15.43452380952381  1.0909090909090908 15.166666666666668  1.0909090909090908 14.857142857142858  L 1.0909090909090908 7.9017857142857135  C 0.7670454545454546 7.782738095238095  0.5042613636363636 7.574404761904761  0.3025568181818182 7.2767857142857135  C 0.10085227272727272 6.979166666666666  0 6.648809523809522  0 6.2857142857142865  L 0 0.5714285714285712  C 0 0.4166666666666661  0.05397727272727272 0.2827380952380931  0.16193181818181818 0.16964285714285765  C 0.26988636363636365 0.0565476190476204  0.3977272727272728 0  0.5454545454545454 0  C 0.6931818181818182 0  0.8210227272727273 0.0565476190476204  0.9289772727272727 0.16964285714285765  C 1.0369318181818181 0.2827380952380931  1.0909090909090908 0.4166666666666661  1.0909090909090908 0.5714285714285712  L 1.0909090909090908 4.2857142857142865  C 1.0909090909090908 4.44047619047619  1.1448863636363638 4.574404761904761  1.2528409090909092 4.6875  C 1.3607954545454548 4.800595238095237  1.4886363636363638 4.857142857142858  1.6363636363636362 4.857142857142858  C 1.7840909090909092 4.857142857142858  1.9119318181818183 4.800595238095237  2.0198863636363638 4.6875  C 2.127840909090909 4.574404761904761  2.1818181818181817 4.44047619047619  2.1818181818181817 4.2857142857142865  L 2.1818181818181817 0.5714285714285712  C 2.1818181818181817 0.4166666666666661  2.235795454545455 0.2827380952380931  2.34375 0.16964285714285765  C 2.4517045454545454 0.0565476190476204  2.5795454545454546 0  2.727272727272727 0  C 2.8750000000000004 0  3.002840909090909 0.0565476190476204  3.110795454545454 0.16964285714285765  C 3.2187499999999996 0.2827380952380931  3.2727272727272725 0.4166666666666661  3.2727272727272725 0.5714285714285712  L 3.2727272727272725 4.2857142857142865  C 3.2727272727272725 4.44047619047619  3.3267045454545454 4.574404761904761  3.434659090909091 4.6875  C 3.5426136363636367 4.800595238095237  3.670454545454546 4.857142857142858  3.8181818181818183 4.857142857142858  C 3.965909090909091 4.857142857142858  4.09375 4.800595238095237  4.201704545454546 4.6875  C 4.309659090909091 4.574404761904761  4.363636363636363 4.44047619047619  4.363636363636363 4.2857142857142865  L 4.363636363636363 0.5714285714285712  C 4.363636363636363 0.4166666666666661  4.417613636363637 0.2827380952380931  4.525568181818182 0.16964285714285765  C 4.6335227272727275 0.0565476190476204  4.761363636363637 0  4.909090909090909 0  C 5.0568181818181825 0  5.184659090909091 0.0565476190476204  5.292613636363637 0.16964285714285765  Z M 11.838068181818182 0.16964285714285765  C 11.946022727272728 0.2827380952380931  12 0.4166666666666661  12 0.5714285714285712  L 12 14.857142857142858  C 12 15.166666666666668  11.892045454545455 15.43452380952381  11.676136363636363 15.660714285714286  C 11.460227272727273 15.886904761904761  11.204545454545455 16  10.909090909090908 16  L 9.818181818181818 16  C 9.522727272727273 16  9.267045454545455 15.886904761904761  9.051136363636363 15.660714285714286  C 8.835227272727273 15.43452380952381  8.727272727272727 15.166666666666668  8.727272727272727 14.857142857142858  L 8.727272727272727 10.285714285714285  L 6.818181818181818 10.285714285714285  C 6.744318181818182 10.285714285714285  6.680397727272728 10.257440476190478  6.626420454545455 10.200892857142858  C 6.572443181818182 10.144345238095237  6.545454545454545 10.07738095238095  6.545454545454545 10  L 6.545454545454545 2.8571428571428577  C 6.545454545454545 2.071428571428571  6.812499999999999 1.398809523809522  7.346590909090908 0.8392857142857135  C 7.880681818181818 0.2797619047619069  8.522727272727273 0  9.272727272727273 0  L 11.454545454545455 0  C 11.602272727272728 0  11.730113636363638 0.0565476190476204  11.838068181818182 0.16964285714285765  Z " fill-rule="nonzero" fill="rgba(0, 0, 0, 1)" stroke="none" transform="matrix(1 0 0 1 180 481 )" class="fill" />
    <path d="M 5.292613636363637 0.16964285714285765  C 5.4005681818181825 0.2827380952380931  5.454545454545454 0.4166666666666661  5.454545454545454 0.5714285714285712  L 5.454545454545454 6.2857142857142865  C 5.454545454545454 6.648809523809522  5.3536931818181825 6.979166666666666  5.151988636363637 7.2767857142857135  C 4.950284090909091 7.574404761904761  4.6875 7.782738095238095  4.363636363636363 7.9017857142857135  L 4.363636363636363 14.857142857142858  C 4.363636363636363 15.166666666666668  4.255681818181818 15.43452380952381  4.0397727272727275 15.660714285714286  C 3.8238636363636367 15.886904761904761  3.5681818181818183 16  3.2727272727272725 16  L 2.1818181818181817 16  C 1.8863636363636367 16  1.6306818181818186 15.886904761904761  1.4147727272727273 15.660714285714286  C 1.1988636363636365 15.43452380952381  1.0909090909090908 15.166666666666668  1.0909090909090908 14.857142857142858  L 1.0909090909090908 7.9017857142857135  C 0.7670454545454546 7.782738095238095  0.5042613636363636 7.574404761904761  0.3025568181818182 7.2767857142857135  C 0.10085227272727272 6.979166666666666  0 6.648809523809522  0 6.2857142857142865  L 0 0.5714285714285712  C 0 0.4166666666666661  0.05397727272727272 0.2827380952380931  0.16193181818181818 0.16964285714285765  C 0.26988636363636365 0.0565476190476204  0.3977272727272728 0  0.5454545454545454 0  C 0.6931818181818182 0  0.8210227272727273 0.0565476190476204  0.9289772727272727 0.16964285714285765  C 1.0369318181818181 0.2827380952380931  1.0909090909090908 0.4166666666666661  1.0909090909090908 0.5714285714285712  L 1.0909090909090908 4.2857142857142865  C 1.0909090909090908 4.44047619047619  1.1448863636363638 4.574404761904761  1.2528409090909092 4.6875  C 1.3607954545454548 4.800595238095237  1.4886363636363638 4.857142857142858  1.6363636363636362 4.857142857142858  C 1.7840909090909092 4.857142857142858  1.9119318181818183 4.800595238095237  2.0198863636363638 4.6875  C 2.127840909090909 4.574404761904761  2.1818181818181817 4.44047619047619  2.1818181818181817 4.2857142857142865  L 2.1818181818181817 0.5714285714285712  C 2.1818181818181817 0.4166666666666661  2.235795454545455 0.2827380952380931  2.34375 0.16964285714285765  C 2.4517045454545454 0.0565476190476204  2.5795454545454546 0  2.727272727272727 0  C 2.8750000000000004 0  3.002840909090909 0.0565476190476204  3.110795454545454 0.16964285714285765  C 3.2187499999999996 0.2827380952380931  3.2727272727272725 0.4166666666666661  3.2727272727272725 0.5714285714285712  L 3.2727272727272725 4.2857142857142865  C 3.2727272727272725 4.44047619047619  3.3267045454545454 4.574404761904761  3.434659090909091 4.6875  C 3.5426136363636367 4.800595238095237  3.670454545454546 4.857142857142858  3.8181818181818183 4.857142857142858  C 3.965909090909091 4.857142857142858  4.09375 4.800595238095237  4.201704545454546 4.6875  C 4.309659090909091 4.574404761904761  4.363636363636363 4.44047619047619  4.363636363636363 4.2857142857142865  L 4.363636363636363 0.5714285714285712  C 4.363636363636363 0.4166666666666661  4.417613636363637 0.2827380952380931  4.525568181818182 0.16964285714285765  C 4.6335227272727275 0.0565476190476204  4.761363636363637 0  4.909090909090909 0  C 5.0568181818181825 0  5.184659090909091 0.0565476190476204  5.292613636363637 0.16964285714285765  Z " stroke-width="0" stroke-dasharray="0" stroke="rgba(255, 255, 255, 0)" fill="none" transform="matrix(1 0 0 1 180 481 )" class="stroke" mask="url(#Clip456)" />
    <path d="M 11.838068181818182 0.16964285714285765  C 11.946022727272728 0.2827380952380931  12 0.4166666666666661  12 0.5714285714285712  L 12 14.857142857142858  C 12 15.166666666666668  11.892045454545455 15.43452380952381  11.676136363636363 15.660714285714286  C 11.460227272727273 15.886904761904761  11.204545454545455 16  10.909090909090908 16  L 9.818181818181818 16  C 9.522727272727273 16  9.267045454545455 15.886904761904761  9.051136363636363 15.660714285714286  C 8.835227272727273 15.43452380952381  8.727272727272727 15.166666666666668  8.727272727272727 14.857142857142858  L 8.727272727272727 10.285714285714285  L 6.818181818181818 10.285714285714285  C 6.744318181818182 10.285714285714285  6.680397727272728 10.257440476190478  6.626420454545455 10.200892857142858  C 6.572443181818182 10.144345238095237  6.545454545454545 10.07738095238095  6.545454545454545 10  L 6.545454545454545 2.8571428571428577  C 6.545454545454545 2.071428571428571  6.812499999999999 1.398809523809522  7.346590909090908 0.8392857142857135  C 7.880681818181818 0.2797619047619069  8.522727272727273 0  9.272727272727273 0  L 11.454545454545455 0  C 11.602272727272728 0  11.730113636363638 0.0565476190476204  11.838068181818182 0.16964285714285765  Z " stroke-width="0" stroke-dasharray="0" stroke="rgba(255, 255, 255, 0)" fill="none" transform="matrix(1 0 0 1 180 481 )" class="stroke" mask="url(#Clip456)" />
  </g>
</svg>