<?xml version="1.0" encoding="utf-8"?>
<svg version="1.1" xmlns:xlink="http://www.w3.org/1999/xlink" width="15px" height="15px" xmlns="http://www.w3.org/2000/svg">
  <defs>
    <pattern id="BGPattern" patternUnits="userSpaceOnUse" alignment="0 0" imageRepeat="None" />
    <mask fill="white" id="Clip457">
      <path d="M 6.018415178571428 9.642857142857142  L 5.09765625 6.830357142857143  L 7.5 5.089285714285714  L 9.90234375 6.830357142857143  L 8.989955357142856 9.642857142857142  L 6.018415178571428 9.642857142857142  Z M 4.587053571428572 0.5943080357142855  C 5.513392857142858 0.1981026785714285  6.484375 0  7.5 0  C 8.515625 0  9.486607142857144 0.1981026785714285  10.412946428571429 0.5943080357142855  C 11.339285714285715 0.9905133928571425  12.137276785714285 1.5234375  12.806919642857144 2.1930803571428563  C 13.476562500000002 2.8627232142857144  14.00948660714286 3.6607142857142843  14.405691964285715 4.587053571428571  C 14.801897321428573 5.513392857142856  15 6.484374999999999  15 7.5  C 15 8.515624999999998  14.801897321428573 9.486607142857142  14.405691964285715 10.412946428571429  C 14.00948660714286 11.339285714285714  13.476562500000002 12.137276785714285  12.806919642857144 12.806919642857142  C 12.137276785714285 13.4765625  11.339285714285715 14.009486607142858  10.412946428571429 14.405691964285715  C 9.486607142857144 14.801897321428571  8.515625 15  7.5 15  C 6.484375 15  5.513392857142858 14.801897321428571  4.587053571428572 14.405691964285715  C 3.660714285714286 14.009486607142858  2.862723214285714 13.4765625  2.193080357142857 12.806919642857142  C 1.5234375 12.137276785714285  0.9905133928571429 11.339285714285714  0.5943080357142857 10.412946428571429  C 0.19810267857142855 9.486607142857142  0 8.515624999999998  0 7.5  C 0 6.484374999999999  0.19810267857142855 5.513392857142856  0.5943080357142857 4.587053571428571  C 0.9905133928571429 3.6607142857142843  1.5234375 2.8627232142857144  2.193080357142857 2.1930803571428563  C 2.862723214285714 1.5234375  3.660714285714286 0.9905133928571425  4.587053571428572 0.5943080357142855  Z M 12.430245535714285 10.1953125  L 12.681361607142856 11.300223214285715  C 13.512834821428573 10.167410714285714  13.928571428571429 8.900669642857142  13.928571428571429 7.5  L 13.928571428571429 7.474888392857143  L 13.074776785714285 8.219866071428571  L 11.065848214285715 6.344866071428571  L 11.593191964285715 3.6411830357142856  L 12.71484375 3.7416294642857144  C 11.877790178571429 2.5920758928571415  10.792410714285715 1.805245535714285  9.458705357142856 1.3811383928571437  L 9.90234375 2.419084821428571  L 7.5 3.75  L 5.09765625 2.419084821428571  L 5.541294642857142 1.3811383928571437  C 4.2075892857142865 1.805245535714285  3.1222098214285716 2.5920758928571415  2.28515625 3.7416294642857144  L 3.415178571428571 3.6411830357142856  L 3.9341517857142856 6.344866071428571  L 1.9252232142857142 8.219866071428571  L 1.0714285714285714 7.474888392857143  L 1.0714285714285714 7.5  C 1.0714285714285714 8.900669642857142  1.4871651785714286 10.167410714285714  2.318638392857143 11.300223214285715  L 2.569754464285714 10.1953125  L 5.298549107142858 10.530133928571429  L 6.462053571428572 13.024553571428571  L 5.491071428571428 13.602120535714285  C 6.143973214285714 13.819754464285715  6.813616071428572 13.928571428571429  7.5 13.928571428571429  C 8.186383928571429 13.928571428571429  8.856026785714285 13.819754464285715  9.508928571428571 13.602120535714285  L 8.537946428571429 13.024553571428571  L 9.701450892857144 10.530133928571429  L 12.430245535714285 10.1953125  Z " fill-rule="evenodd" />
    </mask>
  </defs>
  <g transform="matrix(1 0 0 1 -178 -502 )">
    <path d="M 6.018415178571428 9.642857142857142  L 5.09765625 6.830357142857143  L 7.5 5.089285714285714  L 9.90234375 6.830357142857143  L 8.989955357142856 9.642857142857142  L 6.018415178571428 9.642857142857142  Z M 4.587053571428572 0.5943080357142855  C 5.513392857142858 0.1981026785714285  6.484375 0  7.5 0  C 8.515625 0  9.486607142857144 0.1981026785714285  10.412946428571429 0.5943080357142855  C 11.339285714285715 0.9905133928571425  12.137276785714285 1.5234375  12.806919642857144 2.1930803571428563  C 13.476562500000002 2.8627232142857144  14.00948660714286 3.6607142857142843  14.405691964285715 4.587053571428571  C 14.801897321428573 5.513392857142856  15 6.484374999999999  15 7.5  C 15 8.515624999999998  14.801897321428573 9.486607142857142  14.405691964285715 10.412946428571429  C 14.00948660714286 11.339285714285714  13.476562500000002 12.137276785714285  12.806919642857144 12.806919642857142  C 12.137276785714285 13.4765625  11.339285714285715 14.009486607142858  10.412946428571429 14.405691964285715  C 9.486607142857144 14.801897321428571  8.515625 15  7.5 15  C 6.484375 15  5.513392857142858 14.801897321428571  4.587053571428572 14.405691964285715  C 3.660714285714286 14.009486607142858  2.862723214285714 13.4765625  2.193080357142857 12.806919642857142  C 1.5234375 12.137276785714285  0.9905133928571429 11.339285714285714  0.5943080357142857 10.412946428571429  C 0.19810267857142855 9.486607142857142  0 8.515624999999998  0 7.5  C 0 6.484374999999999  0.19810267857142855 5.513392857142856  0.5943080357142857 4.587053571428571  C 0.9905133928571429 3.6607142857142843  1.5234375 2.8627232142857144  2.193080357142857 2.1930803571428563  C 2.862723214285714 1.5234375  3.660714285714286 0.9905133928571425  4.587053571428572 0.5943080357142855  Z M 12.430245535714285 10.1953125  L 12.681361607142856 11.300223214285715  C 13.512834821428573 10.167410714285714  13.928571428571429 8.900669642857142  13.928571428571429 7.5  L 13.928571428571429 7.474888392857143  L 13.074776785714285 8.219866071428571  L 11.065848214285715 6.344866071428571  L 11.593191964285715 3.6411830357142856  L 12.71484375 3.7416294642857144  C 11.877790178571429 2.5920758928571415  10.792410714285715 1.805245535714285  9.458705357142856 1.3811383928571437  L 9.90234375 2.419084821428571  L 7.5 3.75  L 5.09765625 2.419084821428571  L 5.541294642857142 1.3811383928571437  C 4.2075892857142865 1.805245535714285  3.1222098214285716 2.5920758928571415  2.28515625 3.7416294642857144  L 3.415178571428571 3.6411830357142856  L 3.9341517857142856 6.344866071428571  L 1.9252232142857142 8.219866071428571  L 1.0714285714285714 7.474888392857143  L 1.0714285714285714 7.5  C 1.0714285714285714 8.900669642857142  1.4871651785714286 10.167410714285714  2.318638392857143 11.300223214285715  L 2.569754464285714 10.1953125  L 5.298549107142858 10.530133928571429  L 6.462053571428572 13.024553571428571  L 5.491071428571428 13.602120535714285  C 6.143973214285714 13.819754464285715  6.813616071428572 13.928571428571429  7.5 13.928571428571429  C 8.186383928571429 13.928571428571429  8.856026785714285 13.819754464285715  9.508928571428571 13.602120535714285  L 8.537946428571429 13.024553571428571  L 9.701450892857144 10.530133928571429  L 12.430245535714285 10.1953125  Z " fill-rule="nonzero" fill="rgba(0, 0, 0, 1)" stroke="none" transform="matrix(1 0 0 1 178 502 )" class="fill" />
    <path d="M 6.018415178571428 9.642857142857142  L 5.09765625 6.830357142857143  L 7.5 5.089285714285714  L 9.90234375 6.830357142857143  L 8.989955357142856 9.642857142857142  L 6.018415178571428 9.642857142857142  Z " stroke-width="0" stroke-dasharray="0" stroke="rgba(255, 255, 255, 0)" fill="none" transform="matrix(1 0 0 1 178 502 )" class="stroke" mask="url(#Clip457)" />
    <path d="M 4.587053571428572 0.5943080357142855  C 5.513392857142858 0.1981026785714285  6.484375 0  7.5 0  C 8.515625 0  9.486607142857144 0.1981026785714285  10.412946428571429 0.5943080357142855  C 11.339285714285715 0.9905133928571425  12.137276785714285 1.5234375  12.806919642857144 2.1930803571428563  C 13.476562500000002 2.8627232142857144  14.00948660714286 3.6607142857142843  14.405691964285715 4.587053571428571  C 14.801897321428573 5.513392857142856  15 6.484374999999999  15 7.5  C 15 8.515624999999998  14.801897321428573 9.486607142857142  14.405691964285715 10.412946428571429  C 14.00948660714286 11.339285714285714  13.476562500000002 12.137276785714285  12.806919642857144 12.806919642857142  C 12.137276785714285 13.4765625  11.339285714285715 14.009486607142858  10.412946428571429 14.405691964285715  C 9.486607142857144 14.801897321428571  8.515625 15  7.5 15  C 6.484375 15  5.513392857142858 14.801897321428571  4.587053571428572 14.405691964285715  C 3.660714285714286 14.009486607142858  2.862723214285714 13.4765625  2.193080357142857 12.806919642857142  C 1.5234375 12.137276785714285  0.9905133928571429 11.339285714285714  0.5943080357142857 10.412946428571429  C 0.19810267857142855 9.486607142857142  0 8.515624999999998  0 7.5  C 0 6.484374999999999  0.19810267857142855 5.513392857142856  0.5943080357142857 4.587053571428571  C 0.9905133928571429 3.6607142857142843  1.5234375 2.8627232142857144  2.193080357142857 2.1930803571428563  C 2.862723214285714 1.5234375  3.660714285714286 0.9905133928571425  4.587053571428572 0.5943080357142855  Z " stroke-width="0" stroke-dasharray="0" stroke="rgba(255, 255, 255, 0)" fill="none" transform="matrix(1 0 0 1 178 502 )" class="stroke" mask="url(#Clip457)" />
    <path d="M 12.430245535714285 10.1953125  L 12.681361607142856 11.300223214285715  C 13.512834821428573 10.167410714285714  13.928571428571429 8.900669642857142  13.928571428571429 7.5  L 13.928571428571429 7.474888392857143  L 13.074776785714285 8.219866071428571  L 11.065848214285715 6.344866071428571  L 11.593191964285715 3.6411830357142856  L 12.71484375 3.7416294642857144  C 11.877790178571429 2.5920758928571415  10.792410714285715 1.805245535714285  9.458705357142856 1.3811383928571437  L 9.90234375 2.419084821428571  L 7.5 3.75  L 5.09765625 2.419084821428571  L 5.541294642857142 1.3811383928571437  C 4.2075892857142865 1.805245535714285  3.1222098214285716 2.5920758928571415  2.28515625 3.7416294642857144  L 3.415178571428571 3.6411830357142856  L 3.9341517857142856 6.344866071428571  L 1.9252232142857142 8.219866071428571  L 1.0714285714285714 7.474888392857143  L 1.0714285714285714 7.5  C 1.0714285714285714 8.900669642857142  1.4871651785714286 10.167410714285714  2.318638392857143 11.300223214285715  L 2.569754464285714 10.1953125  L 5.298549107142858 10.530133928571429  L 6.462053571428572 13.024553571428571  L 5.491071428571428 13.602120535714285  C 6.143973214285714 13.819754464285715  6.813616071428572 13.928571428571429  7.5 13.928571428571429  C 8.186383928571429 13.928571428571429  8.856026785714285 13.819754464285715  9.508928571428571 13.602120535714285  L 8.537946428571429 13.024553571428571  L 9.701450892857144 10.530133928571429  L 12.430245535714285 10.1953125  Z " stroke-width="0" stroke-dasharray="0" stroke="rgba(255, 255, 255, 0)" fill="none" transform="matrix(1 0 0 1 178 502 )" class="stroke" mask="url(#Clip457)" />
  </g>
</svg>