<?xml version="1.0" encoding="utf-8"?>
<svg version="1.1" xmlns:xlink="http://www.w3.org/1999/xlink" width="31px" height="36px" xmlns="http://www.w3.org/2000/svg">
  <defs>
    <pattern id="BGPattern" patternUnits="userSpaceOnUse" alignment="0 0" imageRepeat="None" />
    <mask fill="white" id="Clip458">
      <path d="M 11.074573863636363 29.7890625  C 11.206676136363637 29.6484375  11.272727272727273 29.46875  11.272727272727273 29.25  L 11.272727272727273 12.749999999999998  C 11.272727272727273 12.53125  11.206676136363637 12.351562500000002  11.074573863636363 12.210937500000002  C 10.94247159090909 12.070312500000002  10.773674242424244 12.000000000000002  10.568181818181817 12.000000000000002  L 9.15909090909091 12.000000000000002  C 8.953598484848486 12.000000000000002  8.784801136363638 12.070312500000002  8.652698863636363 12.210937500000002  C 8.52059659090909 12.351562500000002  8.454545454545453 12.53125  9 12.749999999999998  L 9 29.25  C 8.454545454545453 29.46875  8.52059659090909 29.6484375  8.652698863636363 29.7890625  C 8.784801136363638 29.9296875  8.953598484848486 30  9.15909090909091 30  L 10.568181818181817 30  C 10.773674242424244 30  10.94247159090909 29.9296875  11.074573863636363 29.7890625  Z M 16.7109375 29.7890625  C 16.843039772727273 29.6484375  16.909090909090907 29.46875  17 29.25  L 17 12.749999999999998  C 16.909090909090907 12.53125  16.843039772727273 12.351562500000002  16.7109375 12.210937500000002  C 16.578835227272727 12.070312500000002  16.41003787878788 12.000000000000002  16.204545454545453 12.000000000000002  L 14.795454545454547 12.000000000000002  C 14.589962121212123 12.000000000000002  14.421164772727273 12.070312500000002  14.2890625 12.210937500000002  C 14.156960227272727 12.351562500000002  14.09090909090909 12.53125  14 12.749999999999998  L 14 29.25  C 14.09090909090909 29.46875  14.156960227272727 29.6484375  14.2890625 29.7890625  C 14.421164772727273 29.9296875  14.589962121212123 30  14.795454545454547 30  L 16.204545454545453 30  C 16.41003787878788 30  16.578835227272727 29.9296875  16.7109375 29.7890625  Z M 22.347301136363633 29.7890625  C 22.479403409090907 29.6484375  22.545454545454547 29.46875  22 29.25  L 22 12.749999999999998  C 22.545454545454547 12.53125  22.479403409090907 12.351562500000002  22.347301136363633 12.210937500000002  C 22.215198863636367 12.070312500000002  22.046401515151516 12.000000000000002  21.840909090909093 12.000000000000002  L 20.43181818181818 12.000000000000002  C 20.226325757575758 12.000000000000002  20.057528409090907 12.070312500000002  19.925426136363633 12.210937500000002  C 19.793323863636367 12.351562500000002  19.727272727272727 12.53125  19.727272727272727 12.749999999999998  L 19.727272727272727 29.25  C 19.727272727272727 29.46875  19.793323863636367 29.6484375  19.925426136363633 29.7890625  C 20.057528409090907 29.9296875  20.226325757575758 30  20.43181818181818 30  L 21.840909090909093 30  C 22.046401515151516 30  22.215198863636367 29.9296875  22.347301136363633 29.7890625  Z M 11.647017045454547 3.2578124999999987  L 10.568181818181817 5.999999999999998  L 20.43181818181818 5.999999999999998  L 19.375 3.2578124999999987  C 19.272253787878793 3.1171874999999987  19.14749053030303 3.0312499999999982  19.000710227272727 3.0000000000000013  L 12.021306818181817 3.0000000000000013  C 11.874526515151516 3.0312499999999982  11.74976325757576 3.1171874999999987  11.647017045454547 3.2578124999999987  Z M 30.801846590909093 6.210937499999998  C 30.933948863636367 6.351562499999998  31 6.531249999999998  31 6.75  L 31 8.249999999999998  C 31 8.468749999999996  30.933948863636367 8.6484375  30.801846590909093 8.7890625  C 30.66974431818182 8.9296875  30.500946969696972 9  30.295454545454547 9  L 28 9  L 28 31.21875  C 28.18181818181818 32.515625  27.836884469696972 33.63671875  27.147017045454547 34.58203125  C 26.457149621212125 35.52734375  25.627840909090907 36  24.659090909090907 36  L 6.340909090909092 36  C 5.372159090909092 36  4.54285037878788 35.54296875  3.852982954545454 34.62890625  C 3.1631155303030307 33.71484375  2.8181818181818183 32.609375  3 31.3125  L 3 9  L 0.7045454545454546 9  C 0.4990530303030303 9  0.3302556818181818 8.9296875  0.19815340909090912 8.7890625  C 0.06605113636363635 8.6484375  0 8.468749999999996  0 8.249999999999998  L 0 6.75  C 0 6.531249999999998  0.06605113636363635 6.351562499999998  0.19815340909090912 6.210937499999998  C 0.3302556818181818 6.070312499999998  0.4990530303030303 5.999999999999998  0.7045454545454546 5.999999999999998  L 7.5078125 5.999999999999998  L 9.049005681818183 2.0859375000000013  C 9.269176136363638 1.507812499999997  9.665482954545455 1.015624999999997  10.237926136363637 0.6093750000000013  C 10.810369318181818 0.20312499999999778  11.390151515151516 0  11.977272727272727 0  L 19.022727272727273 0  C 19.609848484848488 0  20.18963068181818 0.20312499999999778  20.762073863636367 0.6093750000000013  C 21.334517045454547 1.015624999999997  21.730823863636367 1.507812499999997  21.95099431818182 2.0859375000000013  L 23.4921875 5.999999999999998  L 30.295454545454547 5.999999999999998  C 30.500946969696972 5.999999999999998  30.66974431818182 6.070312499999998  30.801846590909093 6.210937499999998  Z " fill-rule="evenodd" />
    </mask>
  </defs>
  <g transform="matrix(1 0 0 1 -2 -55 )">
    <path d="M 11.074573863636363 29.7890625  C 11.206676136363637 29.6484375  11.272727272727273 29.46875  11.272727272727273 29.25  L 11.272727272727273 12.749999999999998  C 11.272727272727273 12.53125  11.206676136363637 12.351562500000002  11.074573863636363 12.210937500000002  C 10.94247159090909 12.070312500000002  10.773674242424244 12.000000000000002  10.568181818181817 12.000000000000002  L 9.15909090909091 12.000000000000002  C 8.953598484848486 12.000000000000002  8.784801136363638 12.070312500000002  8.652698863636363 12.210937500000002  C 8.52059659090909 12.351562500000002  8.454545454545453 12.53125  9 12.749999999999998  L 9 29.25  C 8.454545454545453 29.46875  8.52059659090909 29.6484375  8.652698863636363 29.7890625  C 8.784801136363638 29.9296875  8.953598484848486 30  9.15909090909091 30  L 10.568181818181817 30  C 10.773674242424244 30  10.94247159090909 29.9296875  11.074573863636363 29.7890625  Z M 16.7109375 29.7890625  C 16.843039772727273 29.6484375  16.909090909090907 29.46875  17 29.25  L 17 12.749999999999998  C 16.909090909090907 12.53125  16.843039772727273 12.351562500000002  16.7109375 12.210937500000002  C 16.578835227272727 12.070312500000002  16.41003787878788 12.000000000000002  16.204545454545453 12.000000000000002  L 14.795454545454547 12.000000000000002  C 14.589962121212123 12.000000000000002  14.421164772727273 12.070312500000002  14.2890625 12.210937500000002  C 14.156960227272727 12.351562500000002  14.09090909090909 12.53125  14 12.749999999999998  L 14 29.25  C 14.09090909090909 29.46875  14.156960227272727 29.6484375  14.2890625 29.7890625  C 14.421164772727273 29.9296875  14.589962121212123 30  14.795454545454547 30  L 16.204545454545453 30  C 16.41003787878788 30  16.578835227272727 29.9296875  16.7109375 29.7890625  Z M 22.347301136363633 29.7890625  C 22.479403409090907 29.6484375  22.545454545454547 29.46875  22 29.25  L 22 12.749999999999998  C 22.545454545454547 12.53125  22.479403409090907 12.351562500000002  22.347301136363633 12.210937500000002  C 22.215198863636367 12.070312500000002  22.046401515151516 12.000000000000002  21.840909090909093 12.000000000000002  L 20.43181818181818 12.000000000000002  C 20.226325757575758 12.000000000000002  20.057528409090907 12.070312500000002  19.925426136363633 12.210937500000002  C 19.793323863636367 12.351562500000002  19.727272727272727 12.53125  19.727272727272727 12.749999999999998  L 19.727272727272727 29.25  C 19.727272727272727 29.46875  19.793323863636367 29.6484375  19.925426136363633 29.7890625  C 20.057528409090907 29.9296875  20.226325757575758 30  20.43181818181818 30  L 21.840909090909093 30  C 22.046401515151516 30  22.215198863636367 29.9296875  22.347301136363633 29.7890625  Z M 11.647017045454547 3.2578124999999987  L 10.568181818181817 5.999999999999998  L 20.43181818181818 5.999999999999998  L 19.375 3.2578124999999987  C 19.272253787878793 3.1171874999999987  19.14749053030303 3.0312499999999982  19.000710227272727 3.0000000000000013  L 12.021306818181817 3.0000000000000013  C 11.874526515151516 3.0312499999999982  11.74976325757576 3.1171874999999987  11.647017045454547 3.2578124999999987  Z M 30.801846590909093 6.210937499999998  C 30.933948863636367 6.351562499999998  31 6.531249999999998  31 6.75  L 31 8.249999999999998  C 31 8.468749999999996  30.933948863636367 8.6484375  30.801846590909093 8.7890625  C 30.66974431818182 8.9296875  30.500946969696972 9  30.295454545454547 9  L 28 9  L 28 31.21875  C 28.18181818181818 32.515625  27.836884469696972 33.63671875  27.147017045454547 34.58203125  C 26.457149621212125 35.52734375  25.627840909090907 36  24.659090909090907 36  L 6.340909090909092 36  C 5.372159090909092 36  4.54285037878788 35.54296875  3.852982954545454 34.62890625  C 3.1631155303030307 33.71484375  2.8181818181818183 32.609375  3 31.3125  L 3 9  L 0.7045454545454546 9  C 0.4990530303030303 9  0.3302556818181818 8.9296875  0.19815340909090912 8.7890625  C 0.06605113636363635 8.6484375  0 8.468749999999996  0 8.249999999999998  L 0 6.75  C 0 6.531249999999998  0.06605113636363635 6.351562499999998  0.19815340909090912 6.210937499999998  C 0.3302556818181818 6.070312499999998  0.4990530303030303 5.999999999999998  0.7045454545454546 5.999999999999998  L 7.5078125 5.999999999999998  L 9.049005681818183 2.0859375000000013  C 9.269176136363638 1.507812499999997  9.665482954545455 1.015624999999997  10.237926136363637 0.6093750000000013  C 10.810369318181818 0.20312499999999778  11.390151515151516 0  11.977272727272727 0  L 19.022727272727273 0  C 19.609848484848488 0  20.18963068181818 0.20312499999999778  20.762073863636367 0.6093750000000013  C 21.334517045454547 1.015624999999997  21.730823863636367 1.507812499999997  21.95099431818182 2.0859375000000013  L 23.4921875 5.999999999999998  L 30.295454545454547 5.999999999999998  C 30.500946969696972 5.999999999999998  30.66974431818182 6.070312499999998  30.801846590909093 6.210937499999998  Z " fill-rule="nonzero" fill="rgba(0, 0, 0, 1)" stroke="none" transform="matrix(1 0 0 1 2 55 )" class="fill" />
    <path d="M 11.074573863636363 29.7890625  C 11.206676136363637 29.6484375  11.272727272727273 29.46875  11.272727272727273 29.25  L 11.272727272727273 12.749999999999998  C 11.272727272727273 12.53125  11.206676136363637 12.351562500000002  11.074573863636363 12.210937500000002  C 10.94247159090909 12.070312500000002  10.773674242424244 12.000000000000002  10.568181818181817 12.000000000000002  L 9.15909090909091 12.000000000000002  C 8.953598484848486 12.000000000000002  8.784801136363638 12.070312500000002  8.652698863636363 12.210937500000002  C 8.52059659090909 12.351562500000002  8.454545454545453 12.53125  9 12.749999999999998  L 9 29.25  C 8.454545454545453 29.46875  8.52059659090909 29.6484375  8.652698863636363 29.7890625  C 8.784801136363638 29.9296875  8.953598484848486 30  9.15909090909091 30  L 10.568181818181817 30  C 10.773674242424244 30  10.94247159090909 29.9296875  11.074573863636363 29.7890625  Z " stroke-width="0" stroke-dasharray="0" stroke="rgba(255, 255, 255, 0)" fill="none" transform="matrix(1 0 0 1 2 55 )" class="stroke" mask="url(#Clip458)" />
    <path d="M 16.7109375 29.7890625  C 16.843039772727273 29.6484375  16.909090909090907 29.46875  17 29.25  L 17 12.749999999999998  C 16.909090909090907 12.53125  16.843039772727273 12.351562500000002  16.7109375 12.210937500000002  C 16.578835227272727 12.070312500000002  16.41003787878788 12.000000000000002  16.204545454545453 12.000000000000002  L 14.795454545454547 12.000000000000002  C 14.589962121212123 12.000000000000002  14.421164772727273 12.070312500000002  14.2890625 12.210937500000002  C 14.156960227272727 12.351562500000002  14.09090909090909 12.53125  14 12.749999999999998  L 14 29.25  C 14.09090909090909 29.46875  14.156960227272727 29.6484375  14.2890625 29.7890625  C 14.421164772727273 29.9296875  14.589962121212123 30  14.795454545454547 30  L 16.204545454545453 30  C 16.41003787878788 30  16.578835227272727 29.9296875  16.7109375 29.7890625  Z " stroke-width="0" stroke-dasharray="0" stroke="rgba(255, 255, 255, 0)" fill="none" transform="matrix(1 0 0 1 2 55 )" class="stroke" mask="url(#Clip458)" />
    <path d="M 22.347301136363633 29.7890625  C 22.479403409090907 29.6484375  22.545454545454547 29.46875  22 29.25  L 22 12.749999999999998  C 22.545454545454547 12.53125  22.479403409090907 12.351562500000002  22.347301136363633 12.210937500000002  C 22.215198863636367 12.070312500000002  22.046401515151516 12.000000000000002  21.840909090909093 12.000000000000002  L 20.43181818181818 12.000000000000002  C 20.226325757575758 12.000000000000002  20.057528409090907 12.070312500000002  19.925426136363633 12.210937500000002  C 19.793323863636367 12.351562500000002  19.727272727272727 12.53125  19.727272727272727 12.749999999999998  L 19.727272727272727 29.25  C 19.727272727272727 29.46875  19.793323863636367 29.6484375  19.925426136363633 29.7890625  C 20.057528409090907 29.9296875  20.226325757575758 30  20.43181818181818 30  L 21.840909090909093 30  C 22.046401515151516 30  22.215198863636367 29.9296875  22.347301136363633 29.7890625  Z " stroke-width="0" stroke-dasharray="0" stroke="rgba(255, 255, 255, 0)" fill="none" transform="matrix(1 0 0 1 2 55 )" class="stroke" mask="url(#Clip458)" />
    <path d="M 11.647017045454547 3.2578124999999987  L 10.568181818181817 5.999999999999998  L 20.43181818181818 5.999999999999998  L 19.375 3.2578124999999987  C 19.272253787878793 3.1171874999999987  19.14749053030303 3.0312499999999982  19.000710227272727 3.0000000000000013  L 12.021306818181817 3.0000000000000013  C 11.874526515151516 3.0312499999999982  11.74976325757576 3.1171874999999987  11.647017045454547 3.2578124999999987  Z " stroke-width="0" stroke-dasharray="0" stroke="rgba(255, 255, 255, 0)" fill="none" transform="matrix(1 0 0 1 2 55 )" class="stroke" mask="url(#Clip458)" />
    <path d="M 30.801846590909093 6.210937499999998  C 30.933948863636367 6.351562499999998  31 6.531249999999998  31 6.75  L 31 8.249999999999998  C 31 8.468749999999996  30.933948863636367 8.6484375  30.801846590909093 8.7890625  C 30.66974431818182 8.9296875  30.500946969696972 9  30.295454545454547 9  L 28 9  L 28 31.21875  C 28.18181818181818 32.515625  27.836884469696972 33.63671875  27.147017045454547 34.58203125  C 26.457149621212125 35.52734375  25.627840909090907 36  24.659090909090907 36  L 6.340909090909092 36  C 5.372159090909092 36  4.54285037878788 35.54296875  3.852982954545454 34.62890625  C 3.1631155303030307 33.71484375  2.8181818181818183 32.609375  3 31.3125  L 3 9  L 0.7045454545454546 9  C 0.4990530303030303 9  0.3302556818181818 8.9296875  0.19815340909090912 8.7890625  C 0.06605113636363635 8.6484375  0 8.468749999999996  0 8.249999999999998  L 0 6.75  C 0 6.531249999999998  0.06605113636363635 6.351562499999998  0.19815340909090912 6.210937499999998  C 0.3302556818181818 6.070312499999998  0.4990530303030303 5.999999999999998  0.7045454545454546 5.999999999999998  L 7.5078125 5.999999999999998  L 9.049005681818183 2.0859375000000013  C 9.269176136363638 1.507812499999997  9.665482954545455 1.015624999999997  10.237926136363637 0.6093750000000013  C 10.810369318181818 0.20312499999999778  11.390151515151516 0  11.977272727272727 0  L 19.022727272727273 0  C 19.609848484848488 0  20.18963068181818 0.20312499999999778  20.762073863636367 0.6093750000000013  C 21.334517045454547 1.015624999999997  21.730823863636367 1.507812499999997  21.95099431818182 2.0859375000000013  L 23.4921875 5.999999999999998  L 30.295454545454547 5.999999999999998  C 30.500946969696972 5.999999999999998  30.66974431818182 6.070312499999998  30.801846590909093 6.210937499999998  Z " stroke-width="0" stroke-dasharray="0" stroke="rgba(255, 255, 255, 0)" fill="none" transform="matrix(1 0 0 1 2 55 )" class="stroke" mask="url(#Clip458)" />
  </g>
</svg>