<?xml version="1.0" encoding="utf-8"?>
<svg version="1.1" xmlns:xlink="http://www.w3.org/1999/xlink" width="87px" height="91px" xmlns="http://www.w3.org/2000/svg">
  <defs>
    <pattern id="BGPattern" patternUnits="userSpaceOnUse" alignment="0 0" imageRepeat="None" />
    <mask fill="white" id="Clip459">
      <path d="M 0 91  L 0 0  L 87 0  L 87 91  L 0 91  Z " fill-rule="evenodd" />
    </mask>
  </defs>
  <g transform="matrix(1 0 0 1 -247 -73 )">
    <path d="M 0 91  L 0 0  L 87 0  L 87 91  L 0 91  Z " fill-rule="nonzero" fill="rgba(242, 242, 242, 1)" stroke="none" transform="matrix(1 0 0 1 247 73 )" class="fill" />
    <path d="M 0 91  L 0 0  L 87 0  L 87 91  L 0 91  Z " stroke-width="2" stroke-dasharray="0" stroke="rgba(121, 121, 121, 1)" fill="none" transform="matrix(1 0 0 1 247 73 )" class="stroke" mask="url(#Clip459)" />
    <path d="M 86.63859283079076 0.3780235907820782  L 0.3614071692092396 90.62197640921792  M 0.3614071692092396 0.3780235907820782  L 86.63859283079076 90.62197640921792  " stroke-width="1" stroke-dasharray="0" stroke="rgba(121, 121, 121, 1)" fill="none" transform="matrix(1 0 0 1 247 73 )" class="stroke" />
  </g>
</svg>