<?xml version="1.0" encoding="utf-8"?>
<svg version="1.1" xmlns:xlink="http://www.w3.org/1999/xlink" width="35px" height="41px" xmlns="http://www.w3.org/2000/svg">
  <defs>
    <pattern id="BGPattern" patternUnits="userSpaceOnUse" alignment="0 0" imageRepeat="None" />
    <mask fill="white" id="Clip420">
      <path d="M 33.75069715560513 0  C 34.01096858152073 0  34.24521286484477 0.08389136904762273  34.453430005577246 0.2516741071428591  C 34.882877858337984 0.6177455357142864  35.05856107083102 1.1058407738095228  34.98047964305633 1.7159598214285727  L 29.983268265476855 36.858816964285715  C 29.918200408997954 37.301153273809526  29.709983268265475 37.644345238095234  29.35861684327942 37.88839285714286  C 29.176426845138504 38.010416666666664  28.974716490053915 38.07142857142857  28.753485778025656 38.07142857142857  C 28.610336493772078 38.07142857142857  28.45417363822272 38.03329613095238  28.28499721137758 37.95703125  L 19.442275515895147 33.724330357142854  L 14.71834913552705 40.47377232142857  C 14.484104852203012 40.824590773809526  14.165272355456407 41  13.761851645287228 41  C 13.592675218442091 41  13.449525934188511 40.96949404761905  13.332403792526492 40.90848214285714  C 13.085145937906676 40.80171130952381  12.886688975646033 40.622488839285715  12.737032905744563 40.37081473214286  C 12.587376835843093 40.119140625  12.51254880089236 39.84077380952381  12.51254880089236 39.535714285714285  L 12.51254880089236 31.55078125  L 29.37813720022309 7.321428571428573  L 8.510875627440045 28.484933035714285  L 0.800334634690463 24.778459821428573  C 0.3188324967466072 24.5649181547619  0.05856107083100948 24.14546130952381  0.01952035694366983 23.520089285714285  C -0.006506785647889945 22.909970238095237  0.2017103550845882 22.46000744047619  0.6441717791411044 22.170200892857146  L 33.12604573340769 0.20591517857142727  C 33.3212493028444 0.0686383928571409  33.52946644357688 0  33.75069715560513 0  Z " fill-rule="evenodd" />
    </mask>
  </defs>
  <g transform="matrix(1 0 0 1 -276 -394 )">
    <path d="M 33.75069715560513 0  C 34.01096858152073 0  34.24521286484477 0.08389136904762273  34.453430005577246 0.2516741071428591  C 34.882877858337984 0.6177455357142864  35.05856107083102 1.1058407738095228  34.98047964305633 1.7159598214285727  L 29.983268265476855 36.858816964285715  C 29.918200408997954 37.301153273809526  29.709983268265475 37.644345238095234  29.35861684327942 37.88839285714286  C 29.176426845138504 38.010416666666664  28.974716490053915 38.07142857142857  28.753485778025656 38.07142857142857  C 28.610336493772078 38.07142857142857  28.45417363822272 38.03329613095238  28.28499721137758 37.95703125  L 19.442275515895147 33.724330357142854  L 14.71834913552705 40.47377232142857  C 14.484104852203012 40.824590773809526  14.165272355456407 41  13.761851645287228 41  C 13.592675218442091 41  13.449525934188511 40.96949404761905  13.332403792526492 40.90848214285714  C 13.085145937906676 40.80171130952381  12.886688975646033 40.622488839285715  12.737032905744563 40.37081473214286  C 12.587376835843093 40.119140625  12.51254880089236 39.84077380952381  12.51254880089236 39.535714285714285  L 12.51254880089236 31.55078125  L 29.37813720022309 7.321428571428573  L 8.510875627440045 28.484933035714285  L 0.800334634690463 24.778459821428573  C 0.3188324967466072 24.5649181547619  0.05856107083100948 24.14546130952381  0.01952035694366983 23.520089285714285  C -0.006506785647889945 22.909970238095237  0.2017103550845882 22.46000744047619  0.6441717791411044 22.170200892857146  L 33.12604573340769 0.20591517857142727  C 33.3212493028444 0.0686383928571409  33.52946644357688 0  33.75069715560513 0  Z " fill-rule="nonzero" fill="rgba(215, 215, 215, 1)" stroke="none" transform="matrix(1 0 0 1 276 394 )" class="fill" />
    <path d="M 33.75069715560513 0  C 34.01096858152073 0  34.24521286484477 0.08389136904762273  34.453430005577246 0.2516741071428591  C 34.882877858337984 0.6177455357142864  35.05856107083102 1.1058407738095228  34.98047964305633 1.7159598214285727  L 29.983268265476855 36.858816964285715  C 29.918200408997954 37.301153273809526  29.709983268265475 37.644345238095234  29.35861684327942 37.88839285714286  C 29.176426845138504 38.010416666666664  28.974716490053915 38.07142857142857  28.753485778025656 38.07142857142857  C 28.610336493772078 38.07142857142857  28.45417363822272 38.03329613095238  28.28499721137758 37.95703125  L 19.442275515895147 33.724330357142854  L 14.71834913552705 40.47377232142857  C 14.484104852203012 40.824590773809526  14.165272355456407 41  13.761851645287228 41  C 13.592675218442091 41  13.449525934188511 40.96949404761905  13.332403792526492 40.90848214285714  C 13.085145937906676 40.80171130952381  12.886688975646033 40.622488839285715  12.737032905744563 40.37081473214286  C 12.587376835843093 40.119140625  12.51254880089236 39.84077380952381  12.51254880089236 39.535714285714285  L 12.51254880089236 31.55078125  L 29.37813720022309 7.321428571428573  L 8.510875627440045 28.484933035714285  L 0.800334634690463 24.778459821428573  C 0.3188324967466072 24.5649181547619  0.05856107083100948 24.14546130952381  0.01952035694366983 23.520089285714285  C -0.006506785647889945 22.909970238095237  0.2017103550845882 22.46000744047619  0.6441717791411044 22.170200892857146  L 33.12604573340769 0.20591517857142727  C 33.3212493028444 0.0686383928571409  33.52946644357688 0  33.75069715560513 0  Z " stroke-width="0" stroke-dasharray="0" stroke="rgba(255, 255, 255, 0)" fill="none" transform="matrix(1 0 0 1 276 394 )" class="stroke" mask="url(#Clip420)" />
  </g>
</svg>