<?xml version="1.0" encoding="utf-8"?>
<svg version="1.1" xmlns:xlink="http://www.w3.org/1999/xlink" width="42px" height="42px" xmlns="http://www.w3.org/2000/svg">
  <defs>
    <pattern id="BGPattern" patternUnits="userSpaceOnUse" alignment="0 0" imageRepeat="None" />
    <mask fill="white" id="Clip422">
      <path d="M 40.93359375 1.88671875  C 41.64453125 2.196614583333333  42 2.7343749999999982  42 3.5000000000000018  L 42 15.75  C 42 16.223958333333332  41.826822916666664 16.634114583333332  41.48046875 16.98046875  C 41.134114583333336 17.326822916666668  40.723958333333336 17.5  40.25 18  L 28 18  C 27.234375 17.5  26.696614583333336 17.135416666666668  26.38671875 16.40625  C 26.076822916666668 15.695312499999998  26.20442708333334 15.066406250000002  26.76953125 14.51953125  L 30.54296875 10.74609375  C 27.84505208333334 8.24869791666666  24.6640625 6.999999999999998  21 6.999999999999998  C 19.104166666666668 6.999999999999998  17.294921875 7.369140624999998  15.572265625 8.107421874999998  C 13.849609375 8.845703124999998  12.359375 9.84375  11.1015625 11.101562499999998  C 9.84375 12.359375000000002  8.845703125 13.849609374999998  8.107421875 15.572265624999998  C 7.369140625 17.294921875  7 19.104166666666664  7 21  C 7 22.895833333333332  7.369140625 24.705078124999996  8.107421875 26.427734374999996  C 8.845703125 28.150390624999996  9.84375 29.640625000000004  11.1015625 30.898437499999996  C 12.359375 32.15625  13.849609375 33.154296875  15.572265625 33.892578125  C 17.294921875 34.630859375  19.104166666666668 35  21 35  C 23.169270833333336 35  25.220052083333336 34.52604166666667  27.15234375 33.578125  C 29.08463541666667 32.630208333333336  30.71614583333334 31.290364583333336  32.046875 29.558593750000004  C 32.174479166666664 29.376302083333332  32.384114583333336 29.26692708333333  32.67578125 29.230468750000004  C 32.94921875 29.230468750000004  33.177083333333336 29.312500000000004  33.359375 29.476562500000004  L 37.10546875 33.25  C 37.26953125 33.39583333333333  37.35611979166667 33.58268229166667  37.365234375 33.810546875  C 37.374348958333336 34.03841145833333  37.305989583333336 34.24348958333333  37.16015625 34.42578125  C 35.173177083333336 36.83203125  32.766927083333336 38.695963541666664  29.94140625 40.017578125  C 27.11588541666667 41.33919270833333  24.135416666666668 42  21 42  C 18.15625 42  15.44010416666667 41.444010416666664  12.8515625 40.33203125  C 10.263020833333334 39.22005208333333  8.029947916666668 37.72526041666667  6.15234375 35.84765625  C 4.274739583333334 33.97005208333333  2.779947916666667 31.736979166666668  1.6679687500000002 29.148437500000004  C 0.5559895833333335 26.55989583333333  0 23.843749999999996  0 21  C 0 18.15625  0.5559895833333335 15.440104166666668  1.6679687500000002 12.851562500000002  C 2.779947916666667 10.263020833333332  4.274739583333334 8.029947916666664  6.15234375 6.15234375  C 8.029947916666668 4.274739583333331  10.263020833333334 2.7799479166666643  12.8515625 1.6679687499999984  C 15.44010416666667 0.5559895833333328  18.15625 0  21 0  C 23.6796875 0  26.272786458333336 0.5058593750000016  28.779296875 1.517578125  C 31.285807291666668 2.5292968749999982  33.51432291666667 3.9557291666666625  35.46484375 5.796875000000002  L 39.01953125 2.2695312500000018  C 39.548177083333336 1.7044270833333328  40.18619791666667 1.5768229166666625  40.93359375 1.88671875  Z " fill-rule="evenodd" />
    </mask>
  </defs>
  <g transform="matrix(1 0 0 1 -273 -474 )">
    <path d="M 40.93359375 1.88671875  C 41.64453125 2.196614583333333  42 2.7343749999999982  42 3.5000000000000018  L 42 15.75  C 42 16.223958333333332  41.826822916666664 16.634114583333332  41.48046875 16.98046875  C 41.134114583333336 17.326822916666668  40.723958333333336 17.5  40.25 18  L 28 18  C 27.234375 17.5  26.696614583333336 17.135416666666668  26.38671875 16.40625  C 26.076822916666668 15.695312499999998  26.20442708333334 15.066406250000002  26.76953125 14.51953125  L 30.54296875 10.74609375  C 27.84505208333334 8.24869791666666  24.6640625 6.999999999999998  21 6.999999999999998  C 19.104166666666668 6.999999999999998  17.294921875 7.369140624999998  15.572265625 8.107421874999998  C 13.849609375 8.845703124999998  12.359375 9.84375  11.1015625 11.101562499999998  C 9.84375 12.359375000000002  8.845703125 13.849609374999998  8.107421875 15.572265624999998  C 7.369140625 17.294921875  7 19.104166666666664  7 21  C 7 22.895833333333332  7.369140625 24.705078124999996  8.107421875 26.427734374999996  C 8.845703125 28.150390624999996  9.84375 29.640625000000004  11.1015625 30.898437499999996  C 12.359375 32.15625  13.849609375 33.154296875  15.572265625 33.892578125  C 17.294921875 34.630859375  19.104166666666668 35  21 35  C 23.169270833333336 35  25.220052083333336 34.52604166666667  27.15234375 33.578125  C 29.08463541666667 32.630208333333336  30.71614583333334 31.290364583333336  32.046875 29.558593750000004  C 32.174479166666664 29.376302083333332  32.384114583333336 29.26692708333333  32.67578125 29.230468750000004  C 32.94921875 29.230468750000004  33.177083333333336 29.312500000000004  33.359375 29.476562500000004  L 37.10546875 33.25  C 37.26953125 33.39583333333333  37.35611979166667 33.58268229166667  37.365234375 33.810546875  C 37.374348958333336 34.03841145833333  37.305989583333336 34.24348958333333  37.16015625 34.42578125  C 35.173177083333336 36.83203125  32.766927083333336 38.695963541666664  29.94140625 40.017578125  C 27.11588541666667 41.33919270833333  24.135416666666668 42  21 42  C 18.15625 42  15.44010416666667 41.444010416666664  12.8515625 40.33203125  C 10.263020833333334 39.22005208333333  8.029947916666668 37.72526041666667  6.15234375 35.84765625  C 4.274739583333334 33.97005208333333  2.779947916666667 31.736979166666668  1.6679687500000002 29.148437500000004  C 0.5559895833333335 26.55989583333333  0 23.843749999999996  0 21  C 0 18.15625  0.5559895833333335 15.440104166666668  1.6679687500000002 12.851562500000002  C 2.779947916666667 10.263020833333332  4.274739583333334 8.029947916666664  6.15234375 6.15234375  C 8.029947916666668 4.274739583333331  10.263020833333334 2.7799479166666643  12.8515625 1.6679687499999984  C 15.44010416666667 0.5559895833333328  18.15625 0  21 0  C 23.6796875 0  26.272786458333336 0.5058593750000016  28.779296875 1.517578125  C 31.285807291666668 2.5292968749999982  33.51432291666667 3.9557291666666625  35.46484375 5.796875000000002  L 39.01953125 2.2695312500000018  C 39.548177083333336 1.7044270833333328  40.18619791666667 1.5768229166666625  40.93359375 1.88671875  Z " fill-rule="nonzero" fill="rgba(215, 215, 215, 1)" stroke="none" transform="matrix(1 0 0 1 273 474 )" class="fill" />
    <path d="M 40.93359375 1.88671875  C 41.64453125 2.196614583333333  42 2.7343749999999982  42 3.5000000000000018  L 42 15.75  C 42 16.223958333333332  41.826822916666664 16.634114583333332  41.48046875 16.98046875  C 41.134114583333336 17.326822916666668  40.723958333333336 17.5  40.25 18  L 28 18  C 27.234375 17.5  26.696614583333336 17.135416666666668  26.38671875 16.40625  C 26.076822916666668 15.695312499999998  26.20442708333334 15.066406250000002  26.76953125 14.51953125  L 30.54296875 10.74609375  C 27.84505208333334 8.24869791666666  24.6640625 6.999999999999998  21 6.999999999999998  C 19.104166666666668 6.999999999999998  17.294921875 7.369140624999998  15.572265625 8.107421874999998  C 13.849609375 8.845703124999998  12.359375 9.84375  11.1015625 11.101562499999998  C 9.84375 12.359375000000002  8.845703125 13.849609374999998  8.107421875 15.572265624999998  C 7.369140625 17.294921875  7 19.104166666666664  7 21  C 7 22.895833333333332  7.369140625 24.705078124999996  8.107421875 26.427734374999996  C 8.845703125 28.150390624999996  9.84375 29.640625000000004  11.1015625 30.898437499999996  C 12.359375 32.15625  13.849609375 33.154296875  15.572265625 33.892578125  C 17.294921875 34.630859375  19.104166666666668 35  21 35  C 23.169270833333336 35  25.220052083333336 34.52604166666667  27.15234375 33.578125  C 29.08463541666667 32.630208333333336  30.71614583333334 31.290364583333336  32.046875 29.558593750000004  C 32.174479166666664 29.376302083333332  32.384114583333336 29.26692708333333  32.67578125 29.230468750000004  C 32.94921875 29.230468750000004  33.177083333333336 29.312500000000004  33.359375 29.476562500000004  L 37.10546875 33.25  C 37.26953125 33.39583333333333  37.35611979166667 33.58268229166667  37.365234375 33.810546875  C 37.374348958333336 34.03841145833333  37.305989583333336 34.24348958333333  37.16015625 34.42578125  C 35.173177083333336 36.83203125  32.766927083333336 38.695963541666664  29.94140625 40.017578125  C 27.11588541666667 41.33919270833333  24.135416666666668 42  21 42  C 18.15625 42  15.44010416666667 41.444010416666664  12.8515625 40.33203125  C 10.263020833333334 39.22005208333333  8.029947916666668 37.72526041666667  6.15234375 35.84765625  C 4.274739583333334 33.97005208333333  2.779947916666667 31.736979166666668  1.6679687500000002 29.148437500000004  C 0.5559895833333335 26.55989583333333  0 23.843749999999996  0 21  C 0 18.15625  0.5559895833333335 15.440104166666668  1.6679687500000002 12.851562500000002  C 2.779947916666667 10.263020833333332  4.274739583333334 8.029947916666664  6.15234375 6.15234375  C 8.029947916666668 4.274739583333331  10.263020833333334 2.7799479166666643  12.8515625 1.6679687499999984  C 15.44010416666667 0.5559895833333328  18.15625 0  21 0  C 23.6796875 0  26.272786458333336 0.5058593750000016  28.779296875 1.517578125  C 31.285807291666668 2.5292968749999982  33.51432291666667 3.9557291666666625  35.46484375 5.796875000000002  L 39.01953125 2.2695312500000018  C 39.548177083333336 1.7044270833333328  40.18619791666667 1.5768229166666625  40.93359375 1.88671875  Z " stroke-width="0" stroke-dasharray="0" stroke="rgba(255, 255, 255, 0)" fill="none" transform="matrix(1 0 0 1 273 474 )" class="stroke" mask="url(#Clip422)" />
  </g>
</svg>