<?xml version="1.0" encoding="utf-8"?>
<svg version="1.1" xmlns:xlink="http://www.w3.org/1999/xlink" width="50px" height="50px" xmlns="http://www.w3.org/2000/svg">
  <defs>
    <pattern id="BGPattern" patternUnits="userSpaceOnUse" alignment="0 0" imageRepeat="None" />
    <mask fill="white" id="Clip423">
      <path d="M 8.448844884488448 45.775577557755774  L 11.98019801980198 45.775577557755774  L 14.983498349834983 42.772277227722775  L 7.227722772277227 35.01650165016502  L 4.224422442244224 38.01980198019802  L 4.224422442244224 41.55115511551155  L 8.448844884488448 41.55115511551155  L 8.448844884488448 45.775577557755774  Z M 29.00990099009901 15.709570957095709  C 29.163916391639166 15.555555555555555  29.240924092409244 15.368536853685367  29.240924092409244 15.148514851485151  C 29.240924092409244 14.664466446644663  28.998899889988998 14.42244224422442  28.51485148514851 14.42244224422442  C 28.2948294829483 14.42244224422442  28.107810781078115 14.499449944994497  27.953795379537954 14.653465346534656  L 10.066006600660065 32.54125412541254  C 9.911991199119912 32.69526952695269  9.834983498349835 32.88228822882287  9.834983498349835 33.102310231023104  C 9.834983498349835 33.586358635863576  10.077007700770078 33.82838283828383  10.561056105610561 33.82838283828383  C 10.781078107810782 33.82838283828383  10.968096809680969 33.75137513751375  11.122112211221122 33.5973597359736  L 29.00990099009901 15.709570957095709  Z M 0 36.270627062706275  L 27.45874587458746 8.811881188118814  L 41.18811881188119 22.54125412541254  L 13.72937293729373 50  L 0 50  L 0 36.270627062706275  Z M 48.77887788778878 8.976897689768975  C 49.592959295929596 9.834983498349835  50 10.836083608360836  50 11.98019801980198  C 50 13.146314631463147  49.592959295929596 14.136413641364133  48.77887788778878 14.950495049504953  L 43.3003300330033 20.42904290429043  L 29.57095709570957 6.6996699669967015  L 35.04950495049505 1.2541254125412515  C 35.84158415841584 0.4180418041804135  36.83168316831683 0  38.01980198019802 0  C 39.18591859185919 0  40.187018701870194 0.4180418041804135  41.023102310231025 1.2541254125412515  L 48.77887788778878 8.976897689768975  Z " fill-rule="evenodd" />
    </mask>
  </defs>
  <g transform="matrix(1 0 0 1 -295 -60 )">
    <path d="M 8.448844884488448 45.775577557755774  L 11.98019801980198 45.775577557755774  L 14.983498349834983 42.772277227722775  L 7.227722772277227 35.01650165016502  L 4.224422442244224 38.01980198019802  L 4.224422442244224 41.55115511551155  L 8.448844884488448 41.55115511551155  L 8.448844884488448 45.775577557755774  Z M 29.00990099009901 15.709570957095709  C 29.163916391639166 15.555555555555555  29.240924092409244 15.368536853685367  29.240924092409244 15.148514851485151  C 29.240924092409244 14.664466446644663  28.998899889988998 14.42244224422442  28.51485148514851 14.42244224422442  C 28.2948294829483 14.42244224422442  28.107810781078115 14.499449944994497  27.953795379537954 14.653465346534656  L 10.066006600660065 32.54125412541254  C 9.911991199119912 32.69526952695269  9.834983498349835 32.88228822882287  9.834983498349835 33.102310231023104  C 9.834983498349835 33.586358635863576  10.077007700770078 33.82838283828383  10.561056105610561 33.82838283828383  C 10.781078107810782 33.82838283828383  10.968096809680969 33.75137513751375  11.122112211221122 33.5973597359736  L 29.00990099009901 15.709570957095709  Z M 0 36.270627062706275  L 27.45874587458746 8.811881188118814  L 41.18811881188119 22.54125412541254  L 13.72937293729373 50  L 0 50  L 0 36.270627062706275  Z M 48.77887788778878 8.976897689768975  C 49.592959295929596 9.834983498349835  50 10.836083608360836  50 11.98019801980198  C 50 13.146314631463147  49.592959295929596 14.136413641364133  48.77887788778878 14.950495049504953  L 43.3003300330033 20.42904290429043  L 29.57095709570957 6.6996699669967015  L 35.04950495049505 1.2541254125412515  C 35.84158415841584 0.4180418041804135  36.83168316831683 0  38.01980198019802 0  C 39.18591859185919 0  40.187018701870194 0.4180418041804135  41.023102310231025 1.2541254125412515  L 48.77887788778878 8.976897689768975  Z " fill-rule="nonzero" fill="rgba(0, 0, 0, 1)" stroke="none" transform="matrix(1 0 0 1 295 60 )" class="fill" />
    <path d="M 8.448844884488448 45.775577557755774  L 11.98019801980198 45.775577557755774  L 14.983498349834983 42.772277227722775  L 7.227722772277227 35.01650165016502  L 4.224422442244224 38.01980198019802  L 4.224422442244224 41.55115511551155  L 8.448844884488448 41.55115511551155  L 8.448844884488448 45.775577557755774  Z " stroke-width="2" stroke-dasharray="0" stroke="rgba(32, 78, 74, 0.9921568627450981)" fill="none" transform="matrix(1 0 0 1 295 60 )" class="stroke" mask="url(#Clip423)" />
    <path d="M 29.00990099009901 15.709570957095709  C 29.163916391639166 15.555555555555555  29.240924092409244 15.368536853685367  29.240924092409244 15.148514851485151  C 29.240924092409244 14.664466446644663  28.998899889988998 14.42244224422442  28.51485148514851 14.42244224422442  C 28.2948294829483 14.42244224422442  28.107810781078115 14.499449944994497  27.953795379537954 14.653465346534656  L 10.066006600660065 32.54125412541254  C 9.911991199119912 32.69526952695269  9.834983498349835 32.88228822882287  9.834983498349835 33.102310231023104  C 9.834983498349835 33.586358635863576  10.077007700770078 33.82838283828383  10.561056105610561 33.82838283828383  C 10.781078107810782 33.82838283828383  10.968096809680969 33.75137513751375  11.122112211221122 33.5973597359736  L 29.00990099009901 15.709570957095709  Z " stroke-width="2" stroke-dasharray="0" stroke="rgba(32, 78, 74, 0.9921568627450981)" fill="none" transform="matrix(1 0 0 1 295 60 )" class="stroke" mask="url(#Clip423)" />
    <path d="M 0 36.270627062706275  L 27.45874587458746 8.811881188118814  L 41.18811881188119 22.54125412541254  L 13.72937293729373 50  L 0 50  L 0 36.270627062706275  Z " stroke-width="2" stroke-dasharray="0" stroke="rgba(32, 78, 74, 0.9921568627450981)" fill="none" transform="matrix(1 0 0 1 295 60 )" class="stroke" mask="url(#Clip423)" />
    <path d="M 48.77887788778878 8.976897689768975  C 49.592959295929596 9.834983498349835  50 10.836083608360836  50 11.98019801980198  C 50 13.146314631463147  49.592959295929596 14.136413641364133  48.77887788778878 14.950495049504953  L 43.3003300330033 20.42904290429043  L 29.57095709570957 6.6996699669967015  L 35.04950495049505 1.2541254125412515  C 35.84158415841584 0.4180418041804135  36.83168316831683 0  38.01980198019802 0  C 39.18591859185919 0  40.187018701870194 0.4180418041804135  41.023102310231025 1.2541254125412515  L 48.77887788778878 8.976897689768975  Z " stroke-width="2" stroke-dasharray="0" stroke="rgba(32, 78, 74, 0.9921568627450981)" fill="none" transform="matrix(1 0 0 1 295 60 )" class="stroke" mask="url(#Clip423)" />
  </g>
</svg>