<?xml version="1.0" encoding="utf-8"?>
<svg version="1.1" xmlns:xlink="http://www.w3.org/1999/xlink" width="31px" height="29px" xmlns="http://www.w3.org/2000/svg">
  <defs>
    <pattern id="BGPattern" patternUnits="userSpaceOnUse" alignment="0 0" imageRepeat="None" />
    <mask fill="white" id="Clip414">
      <path d="M 30.616536458333336 23.63046875  C 30.872178819444443 23.91744791666667  31 24.25729166666667  31 24.65  L 31 27.549999999999997  C 31 27.942708333333332  30.872178819444443 28.282552083333332  30.616536458333336 28.569531249999997  C 30.360894097222225 28.85651041666667  30.058159722222225 29  29.708333333333336 29  L 1.2916666666666665 29  C 0.9418402777777779 29  0.6391059027777778 28.85651041666667  0.38346354166666663 28.569531249999997  C 0.12782118055555555 28.282552083333332  0 27.942708333333332  0 27.549999999999997  L 0 24.65  C 0 24.25729166666667  0.12782118055555555 23.91744791666667  0.38346354166666663 23.63046875  C 0.6391059027777778 23.343489583333334  0.9418402777777779 23.200000000000003  1.2916666666666665 23  L 29.708333333333336 23  C 30.058159722222225 23.200000000000003  30.360894097222225 23.343489583333334  30.616536458333336 23.63046875  Z M 30.616536458333336 12.030468749999999  C 30.872178819444443 12.317447916666666  31 12.657291666666666  31 13.049999999999999  L 31 15.950000000000001  C 31 16.34270833333333  30.872178819444443 16.68255208333333  30.616536458333336 16.969531250000003  C 30.360894097222225 17.256510416666664  30.058159722222225 17.4  29.708333333333336 17  L 1.2916666666666665 17  C 0.9418402777777779 17.4  0.6391059027777778 17.256510416666664  0.38346354166666663 16.969531250000003  C 0.12782118055555555 16.68255208333333  0 16.34270833333333  0 15.950000000000001  L 0 13.049999999999999  C 0 12.657291666666666  0.12782118055555555 12.317447916666666  0.38346354166666663 12.030468749999999  C 0.6391059027777778 11.743489583333336  0.9418402777777779 11.600000000000001  1.2916666666666665 12  L 29.708333333333336 12  C 30.058159722222225 11.600000000000001  30.360894097222225 11.743489583333336  30.616536458333336 12.030468749999999  Z M 30.616536458333336 0.4304687500000013  C 30.872178819444443 0.7174479166666645  31 1.0572916666666645  31 1.4500000000000013  L 31 4.3500000000000005  C 31 4.742708333333331  30.872178819444443 5.082552083333331  30.616536458333336 5.3695312500000005  C 30.360894097222225 5.656510416666664  30.058159722222225 5.799999999999999  29.708333333333336 6  L 1.2916666666666665 6  C 0.9418402777777779 5.799999999999999  0.6391059027777778 5.656510416666664  0.38346354166666663 5.3695312500000005  C 0.12782118055555555 5.082552083333331  0 4.742708333333331  0 4.3500000000000005  L 0 1.4500000000000013  C 0 1.0572916666666645  0.12782118055555555 0.7174479166666645  0.38346354166666663 0.4304687500000013  C 0.6391059027777778 0.14348958333333162  0.9418402777777779 0  1.2916666666666665 0  L 29.708333333333336 0  C 30.058159722222225 0  30.360894097222225 0.14348958333333162  30.616536458333336 0.4304687500000013  Z " fill-rule="evenodd" />
    </mask>
  </defs>
  <g transform="matrix(1 0 0 1 -318 -11 )">
    <path d="M 30.616536458333336 23.63046875  C 30.872178819444443 23.91744791666667  31 24.25729166666667  31 24.65  L 31 27.549999999999997  C 31 27.942708333333332  30.872178819444443 28.282552083333332  30.616536458333336 28.569531249999997  C 30.360894097222225 28.85651041666667  30.058159722222225 29  29.708333333333336 29  L 1.2916666666666665 29  C 0.9418402777777779 29  0.6391059027777778 28.85651041666667  0.38346354166666663 28.569531249999997  C 0.12782118055555555 28.282552083333332  0 27.942708333333332  0 27.549999999999997  L 0 24.65  C 0 24.25729166666667  0.12782118055555555 23.91744791666667  0.38346354166666663 23.63046875  C 0.6391059027777778 23.343489583333334  0.9418402777777779 23.200000000000003  1.2916666666666665 23  L 29.708333333333336 23  C 30.058159722222225 23.200000000000003  30.360894097222225 23.343489583333334  30.616536458333336 23.63046875  Z M 30.616536458333336 12.030468749999999  C 30.872178819444443 12.317447916666666  31 12.657291666666666  31 13.049999999999999  L 31 15.950000000000001  C 31 16.34270833333333  30.872178819444443 16.68255208333333  30.616536458333336 16.969531250000003  C 30.360894097222225 17.256510416666664  30.058159722222225 17.4  29.708333333333336 17  L 1.2916666666666665 17  C 0.9418402777777779 17.4  0.6391059027777778 17.256510416666664  0.38346354166666663 16.969531250000003  C 0.12782118055555555 16.68255208333333  0 16.34270833333333  0 15.950000000000001  L 0 13.049999999999999  C 0 12.657291666666666  0.12782118055555555 12.317447916666666  0.38346354166666663 12.030468749999999  C 0.6391059027777778 11.743489583333336  0.9418402777777779 11.600000000000001  1.2916666666666665 12  L 29.708333333333336 12  C 30.058159722222225 11.600000000000001  30.360894097222225 11.743489583333336  30.616536458333336 12.030468749999999  Z M 30.616536458333336 0.4304687500000013  C 30.872178819444443 0.7174479166666645  31 1.0572916666666645  31 1.4500000000000013  L 31 4.3500000000000005  C 31 4.742708333333331  30.872178819444443 5.082552083333331  30.616536458333336 5.3695312500000005  C 30.360894097222225 5.656510416666664  30.058159722222225 5.799999999999999  29.708333333333336 6  L 1.2916666666666665 6  C 0.9418402777777779 5.799999999999999  0.6391059027777778 5.656510416666664  0.38346354166666663 5.3695312500000005  C 0.12782118055555555 5.082552083333331  0 4.742708333333331  0 4.3500000000000005  L 0 1.4500000000000013  C 0 1.0572916666666645  0.12782118055555555 0.7174479166666645  0.38346354166666663 0.4304687500000013  C 0.6391059027777778 0.14348958333333162  0.9418402777777779 0  1.2916666666666665 0  L 29.708333333333336 0  C 30.058159722222225 0  30.360894097222225 0.14348958333333162  30.616536458333336 0.4304687500000013  Z " fill-rule="nonzero" fill="rgba(255, 255, 255, 1)" stroke="none" transform="matrix(1 0 0 1 318 11 )" class="fill" />
    <path d="M 30.616536458333336 23.63046875  C 30.872178819444443 23.91744791666667  31 24.25729166666667  31 24.65  L 31 27.549999999999997  C 31 27.942708333333332  30.872178819444443 28.282552083333332  30.616536458333336 28.569531249999997  C 30.360894097222225 28.85651041666667  30.058159722222225 29  29.708333333333336 29  L 1.2916666666666665 29  C 0.9418402777777779 29  0.6391059027777778 28.85651041666667  0.38346354166666663 28.569531249999997  C 0.12782118055555555 28.282552083333332  0 27.942708333333332  0 27.549999999999997  L 0 24.65  C 0 24.25729166666667  0.12782118055555555 23.91744791666667  0.38346354166666663 23.63046875  C 0.6391059027777778 23.343489583333334  0.9418402777777779 23.200000000000003  1.2916666666666665 23  L 29.708333333333336 23  C 30.058159722222225 23.200000000000003  30.360894097222225 23.343489583333334  30.616536458333336 23.63046875  Z " stroke-width="0" stroke-dasharray="0" stroke="rgba(255, 255, 255, 0)" fill="none" transform="matrix(1 0 0 1 318 11 )" class="stroke" mask="url(#Clip414)" />
    <path d="M 30.616536458333336 12.030468749999999  C 30.872178819444443 12.317447916666666  31 12.657291666666666  31 13.049999999999999  L 31 15.950000000000001  C 31 16.34270833333333  30.872178819444443 16.68255208333333  30.616536458333336 16.969531250000003  C 30.360894097222225 17.256510416666664  30.058159722222225 17.4  29.708333333333336 17  L 1.2916666666666665 17  C 0.9418402777777779 17.4  0.6391059027777778 17.256510416666664  0.38346354166666663 16.969531250000003  C 0.12782118055555555 16.68255208333333  0 16.34270833333333  0 15.950000000000001  L 0 13.049999999999999  C 0 12.657291666666666  0.12782118055555555 12.317447916666666  0.38346354166666663 12.030468749999999  C 0.6391059027777778 11.743489583333336  0.9418402777777779 11.600000000000001  1.2916666666666665 12  L 29.708333333333336 12  C 30.058159722222225 11.600000000000001  30.360894097222225 11.743489583333336  30.616536458333336 12.030468749999999  Z " stroke-width="0" stroke-dasharray="0" stroke="rgba(255, 255, 255, 0)" fill="none" transform="matrix(1 0 0 1 318 11 )" class="stroke" mask="url(#Clip414)" />
    <path d="M 30.616536458333336 0.4304687500000013  C 30.872178819444443 0.7174479166666645  31 1.0572916666666645  31 1.4500000000000013  L 31 4.3500000000000005  C 31 4.742708333333331  30.872178819444443 5.082552083333331  30.616536458333336 5.3695312500000005  C 30.360894097222225 5.656510416666664  30.058159722222225 5.799999999999999  29.708333333333336 6  L 1.2916666666666665 6  C 0.9418402777777779 5.799999999999999  0.6391059027777778 5.656510416666664  0.38346354166666663 5.3695312500000005  C 0.12782118055555555 5.082552083333331  0 4.742708333333331  0 4.3500000000000005  L 0 1.4500000000000013  C 0 1.0572916666666645  0.12782118055555555 0.7174479166666645  0.38346354166666663 0.4304687500000013  C 0.6391059027777778 0.14348958333333162  0.9418402777777779 0  1.2916666666666665 0  L 29.708333333333336 0  C 30.058159722222225 0  30.360894097222225 0.14348958333333162  30.616536458333336 0.4304687500000013  Z " stroke-width="0" stroke-dasharray="0" stroke="rgba(255, 255, 255, 0)" fill="none" transform="matrix(1 0 0 1 318 11 )" class="stroke" mask="url(#Clip414)" />
  </g>
</svg>