<?xml version="1.0" encoding="utf-8"?>
<svg version="1.1" xmlns:xlink="http://www.w3.org/1999/xlink" width="68px" height="86px" xmlns="http://www.w3.org/2000/svg">
  <defs>
    <pattern id="BGPattern" patternUnits="userSpaceOnUse" alignment="0 0" imageRepeat="None" />
    <mask fill="white" id="Clip443">
      <path d="M 29.991477272727273 0.9118303571428599  C 30.603219696969703 1.5197172619047505  30.909090909090907 2.2395833333333304  31 3.0714285714285703  L 31 33.78571428571429  C 30.909090909090907 35.73735119047618  30.337594696969703 37.51302083333333  29.194602272727273 39.11272321428571  C 28.051609848484848 40.71242559523809  26.5625 41.83221726190476  25 42.47209821428571  L 25 79.85714285714286  C 24.727272727272727 81.52083333333334  24.115530303030305 82.96056547619048  22.892045454545457 84.17633928571429  C 21.668560606060606 85.39211309523809  20.21969696969697 86  18.545454545454543 86  L 12.363636363636363 86  C 10.689393939393941 86  9.240530303030305 85.39211309523809  8.017045454545455 84.17633928571429  C 6.793560606060606 82.96056547619048  6.181818181818182 81.52083333333334  7 79.85714285714286  L 7 42.47209821428571  C 4.346590909090909 41.83221726190476  2.8574810606060606 40.71242559523809  1.7144886363636362 39.11272321428571  C 0.571496212121212 37.51302083333333  0 35.73735119047618  0 33.78571428571429  L 0 3.0714285714285703  C 0 2.2395833333333304  0.3058712121212121 1.5197172619047505  0.9176136363636364 0.9118303571428599  C 1.5293560606060606 0.30394345238095966  2.2537878787878793 0  3.090909090909091 0  C 3.928030303030303 0  4.652462121212121 0.30394345238095966  5.264204545454545 0.9118303571428599  C 5.87594696969697 1.5197172619047505  6.181818181818182 2.2395833333333304  7 3.0714285714285703  L 7 23.03571428571429  C 6.181818181818182 23.86755952380952  6.4876893939393945 24.58742559523809  7.099431818181818 25.1953125  C 7.711174242424244 25.8031994047619  8.435606060606062 26.10714285714286  9.272727272727272 26.10714285714286  C 10.109848484848484 26.10714285714286  10.834280303030303 25.8031994047619  11.446022727272728 25.1953125  C 12.057765151515152 24.58742559523809  12.363636363636363 23.86755952380952  13 23.03571428571429  L 13 3.0714285714285703  C 12.363636363636363 2.2395833333333304  12.669507575757578 1.5197172619047505  13.28125 0.9118303571428599  C 13.892992424242424 0.30394345238095966  14.617424242424242 0  15.454545454545453 0  C 16.291666666666668 0  17.016098484848484 0.30394345238095966  17.627840909090907 0.9118303571428599  C 18.239583333333332 1.5197172619047505  18.545454545454543 2.2395833333333304  19 3.0714285714285703  L 19 23.03571428571429  C 18.545454545454543 23.86755952380952  18.851325757575758 24.58742559523809  19.46306818181818 25.1953125  C 20.074810606060606 25.8031994047619  20.799242424242426 26.10714285714286  21.636363636363637 26.10714285714286  C 22.473484848484848 26.10714285714286  23.197916666666668 25.8031994047619  23.809659090909093 25.1953125  C 24.421401515151516 24.58742559523809  24.727272727272727 23.86755952380952  25 23.03571428571429  L 25 3.0714285714285703  C 24.727272727272727 2.2395833333333304  25.03314393939394 1.5197172619047505  25.644886363636363 0.9118303571428599  C 26.25662878787879 0.30394345238095966  26.98106060606061 0  27.81818181818182 0  C 28.655303030303035 0  29.379734848484848 0.30394345238095966  29.991477272727273 0.9118303571428599  Z M 67.08238636363636 0.9118303571428599  C 67.6941287878788 1.5197172619047505  68 2.2395833333333304  68 3.0714285714285703  L 68 79.85714285714286  C 68 81.52083333333334  67.38825757575758 82.96056547619048  66.16477272727273 84.17633928571429  C 64.94128787878788 85.39211309523809  63.49242424242424 86  61.81818181818181 86  L 55.63636363636364 86  C 53.96212121212122 86  52.51325757575758 85.39211309523809  51.28977272727273 84.17633928571429  C 50.06628787878788 82.96056547619048  49.45454545454545 81.52083333333334  49 79.85714285714286  L 49 55  L 38.63636363636364 55  C 38.21780303030303 55.28571428571428  37.855587121212125 55.13374255952382  37.549715909090914 54.82979910714286  C 37.243844696969695 54.5258556547619  37.090909090909086 54.16592261904761  37 53.75  L 37 15.35714285714286  C 37.090909090909086 11.13392857142857  38.604166666666664 7.518601190476181  41.63068181818181 4.51116071428571  C 44.65719696969697 1.5037202380952495  48.29545454545455 0  52.54545454545455 0  L 64.9090909090909 0  C 65.74621212121212 0  66.47064393939395 0.30394345238095966  67.08238636363636 0.9118303571428599  Z " fill-rule="evenodd" />
    </mask>
  </defs>
  <g transform="matrix(1 0 0 1 -52 -108 )">
    <path d="M 29.991477272727273 0.9118303571428599  C 30.603219696969703 1.5197172619047505  30.909090909090907 2.2395833333333304  31 3.0714285714285703  L 31 33.78571428571429  C 30.909090909090907 35.73735119047618  30.337594696969703 37.51302083333333  29.194602272727273 39.11272321428571  C 28.051609848484848 40.71242559523809  26.5625 41.83221726190476  25 42.47209821428571  L 25 79.85714285714286  C 24.727272727272727 81.52083333333334  24.115530303030305 82.96056547619048  22.892045454545457 84.17633928571429  C 21.668560606060606 85.39211309523809  20.21969696969697 86  18.545454545454543 86  L 12.363636363636363 86  C 10.689393939393941 86  9.240530303030305 85.39211309523809  8.017045454545455 84.17633928571429  C 6.793560606060606 82.96056547619048  6.181818181818182 81.52083333333334  7 79.85714285714286  L 7 42.47209821428571  C 4.346590909090909 41.83221726190476  2.8574810606060606 40.71242559523809  1.7144886363636362 39.11272321428571  C 0.571496212121212 37.51302083333333  0 35.73735119047618  0 33.78571428571429  L 0 3.0714285714285703  C 0 2.2395833333333304  0.3058712121212121 1.5197172619047505  0.9176136363636364 0.9118303571428599  C 1.5293560606060606 0.30394345238095966  2.2537878787878793 0  3.090909090909091 0  C 3.928030303030303 0  4.652462121212121 0.30394345238095966  5.264204545454545 0.9118303571428599  C 5.87594696969697 1.5197172619047505  6.181818181818182 2.2395833333333304  7 3.0714285714285703  L 7 23.03571428571429  C 6.181818181818182 23.86755952380952  6.4876893939393945 24.58742559523809  7.099431818181818 25.1953125  C 7.711174242424244 25.8031994047619  8.435606060606062 26.10714285714286  9.272727272727272 26.10714285714286  C 10.109848484848484 26.10714285714286  10.834280303030303 25.8031994047619  11.446022727272728 25.1953125  C 12.057765151515152 24.58742559523809  12.363636363636363 23.86755952380952  13 23.03571428571429  L 13 3.0714285714285703  C 12.363636363636363 2.2395833333333304  12.669507575757578 1.5197172619047505  13.28125 0.9118303571428599  C 13.892992424242424 0.30394345238095966  14.617424242424242 0  15.454545454545453 0  C 16.291666666666668 0  17.016098484848484 0.30394345238095966  17.627840909090907 0.9118303571428599  C 18.239583333333332 1.5197172619047505  18.545454545454543 2.2395833333333304  19 3.0714285714285703  L 19 23.03571428571429  C 18.545454545454543 23.86755952380952  18.851325757575758 24.58742559523809  19.46306818181818 25.1953125  C 20.074810606060606 25.8031994047619  20.799242424242426 26.10714285714286  21.636363636363637 26.10714285714286  C 22.473484848484848 26.10714285714286  23.197916666666668 25.8031994047619  23.809659090909093 25.1953125  C 24.421401515151516 24.58742559523809  24.727272727272727 23.86755952380952  25 23.03571428571429  L 25 3.0714285714285703  C 24.727272727272727 2.2395833333333304  25.03314393939394 1.5197172619047505  25.644886363636363 0.9118303571428599  C 26.25662878787879 0.30394345238095966  26.98106060606061 0  27.81818181818182 0  C 28.655303030303035 0  29.379734848484848 0.30394345238095966  29.991477272727273 0.9118303571428599  Z M 67.08238636363636 0.9118303571428599  C 67.6941287878788 1.5197172619047505  68 2.2395833333333304  68 3.0714285714285703  L 68 79.85714285714286  C 68 81.52083333333334  67.38825757575758 82.96056547619048  66.16477272727273 84.17633928571429  C 64.94128787878788 85.39211309523809  63.49242424242424 86  61.81818181818181 86  L 55.63636363636364 86  C 53.96212121212122 86  52.51325757575758 85.39211309523809  51.28977272727273 84.17633928571429  C 50.06628787878788 82.96056547619048  49.45454545454545 81.52083333333334  49 79.85714285714286  L 49 55  L 38.63636363636364 55  C 38.21780303030303 55.28571428571428  37.855587121212125 55.13374255952382  37.549715909090914 54.82979910714286  C 37.243844696969695 54.5258556547619  37.090909090909086 54.16592261904761  37 53.75  L 37 15.35714285714286  C 37.090909090909086 11.13392857142857  38.604166666666664 7.518601190476181  41.63068181818181 4.51116071428571  C 44.65719696969697 1.5037202380952495  48.29545454545455 0  52.54545454545455 0  L 64.9090909090909 0  C 65.74621212121212 0  66.47064393939395 0.30394345238095966  67.08238636363636 0.9118303571428599  Z " fill-rule="nonzero" fill="rgba(0, 0, 0, 1)" stroke="none" transform="matrix(1 0 0 1 52 108 )" class="fill" />
    <path d="M 29.991477272727273 0.9118303571428599  C 30.603219696969703 1.5197172619047505  30.909090909090907 2.2395833333333304  31 3.0714285714285703  L 31 33.78571428571429  C 30.909090909090907 35.73735119047618  30.337594696969703 37.51302083333333  29.194602272727273 39.11272321428571  C 28.051609848484848 40.71242559523809  26.5625 41.83221726190476  25 42.47209821428571  L 25 79.85714285714286  C 24.727272727272727 81.52083333333334  24.115530303030305 82.96056547619048  22.892045454545457 84.17633928571429  C 21.668560606060606 85.39211309523809  20.21969696969697 86  18.545454545454543 86  L 12.363636363636363 86  C 10.689393939393941 86  9.240530303030305 85.39211309523809  8.017045454545455 84.17633928571429  C 6.793560606060606 82.96056547619048  6.181818181818182 81.52083333333334  7 79.85714285714286  L 7 42.47209821428571  C 4.346590909090909 41.83221726190476  2.8574810606060606 40.71242559523809  1.7144886363636362 39.11272321428571  C 0.571496212121212 37.51302083333333  0 35.73735119047618  0 33.78571428571429  L 0 3.0714285714285703  C 0 2.2395833333333304  0.3058712121212121 1.5197172619047505  0.9176136363636364 0.9118303571428599  C 1.5293560606060606 0.30394345238095966  2.2537878787878793 0  3.090909090909091 0  C 3.928030303030303 0  4.652462121212121 0.30394345238095966  5.264204545454545 0.9118303571428599  C 5.87594696969697 1.5197172619047505  6.181818181818182 2.2395833333333304  7 3.0714285714285703  L 7 23.03571428571429  C 6.181818181818182 23.86755952380952  6.4876893939393945 24.58742559523809  7.099431818181818 25.1953125  C 7.711174242424244 25.8031994047619  8.435606060606062 26.10714285714286  9.272727272727272 26.10714285714286  C 10.109848484848484 26.10714285714286  10.834280303030303 25.8031994047619  11.446022727272728 25.1953125  C 12.057765151515152 24.58742559523809  12.363636363636363 23.86755952380952  13 23.03571428571429  L 13 3.0714285714285703  C 12.363636363636363 2.2395833333333304  12.669507575757578 1.5197172619047505  13.28125 0.9118303571428599  C 13.892992424242424 0.30394345238095966  14.617424242424242 0  15.454545454545453 0  C 16.291666666666668 0  17.016098484848484 0.30394345238095966  17.627840909090907 0.9118303571428599  C 18.239583333333332 1.5197172619047505  18.545454545454543 2.2395833333333304  19 3.0714285714285703  L 19 23.03571428571429  C 18.545454545454543 23.86755952380952  18.851325757575758 24.58742559523809  19.46306818181818 25.1953125  C 20.074810606060606 25.8031994047619  20.799242424242426 26.10714285714286  21.636363636363637 26.10714285714286  C 22.473484848484848 26.10714285714286  23.197916666666668 25.8031994047619  23.809659090909093 25.1953125  C 24.421401515151516 24.58742559523809  24.727272727272727 23.86755952380952  25 23.03571428571429  L 25 3.0714285714285703  C 24.727272727272727 2.2395833333333304  25.03314393939394 1.5197172619047505  25.644886363636363 0.9118303571428599  C 26.25662878787879 0.30394345238095966  26.98106060606061 0  27.81818181818182 0  C 28.655303030303035 0  29.379734848484848 0.30394345238095966  29.991477272727273 0.9118303571428599  Z " stroke-width="0" stroke-dasharray="0" stroke="rgba(255, 255, 255, 0)" fill="none" transform="matrix(1 0 0 1 52 108 )" class="stroke" mask="url(#Clip443)" />
    <path d="M 67.08238636363636 0.9118303571428599  C 67.6941287878788 1.5197172619047505  68 2.2395833333333304  68 3.0714285714285703  L 68 79.85714285714286  C 68 81.52083333333334  67.38825757575758 82.96056547619048  66.16477272727273 84.17633928571429  C 64.94128787878788 85.39211309523809  63.49242424242424 86  61.81818181818181 86  L 55.63636363636364 86  C 53.96212121212122 86  52.51325757575758 85.39211309523809  51.28977272727273 84.17633928571429  C 50.06628787878788 82.96056547619048  49.45454545454545 81.52083333333334  49 79.85714285714286  L 49 55  L 38.63636363636364 55  C 38.21780303030303 55.28571428571428  37.855587121212125 55.13374255952382  37.549715909090914 54.82979910714286  C 37.243844696969695 54.5258556547619  37.090909090909086 54.16592261904761  37 53.75  L 37 15.35714285714286  C 37.090909090909086 11.13392857142857  38.604166666666664 7.518601190476181  41.63068181818181 4.51116071428571  C 44.65719696969697 1.5037202380952495  48.29545454545455 0  52.54545454545455 0  L 64.9090909090909 0  C 65.74621212121212 0  66.47064393939395 0.30394345238095966  67.08238636363636 0.9118303571428599  Z " stroke-width="0" stroke-dasharray="0" stroke="rgba(255, 255, 255, 0)" fill="none" transform="matrix(1 0 0 1 52 108 )" class="stroke" mask="url(#Clip443)" />
  </g>
</svg>