<?xml version="1.0" encoding="utf-8"?>
<svg version="1.1" xmlns:xlink="http://www.w3.org/1999/xlink" width="46px" height="36px" xmlns="http://www.w3.org/2000/svg">
  <defs>
    <pattern id="BGPattern" patternUnits="userSpaceOnUse" alignment="0 0" imageRepeat="None" />
    <mask fill="white" id="Clip470">
      <path d="M 45.16903225806452 4.969696969696971  C 45.72301075268818 5.535353535353535  46.00000000000001 6.222222222222221  46 7.03030303030303  C 46.00000000000001 7.838383838383835  45.72301075268818 8.525252525252522  45.16903225806452 9.09090909090909  L 23.68258064516129 31.030303030303028  L 19.646451612903228 35.15151515151515  C 19.09247311827957 35.717171717171716  18.41978494623656 36  17.628387096774194 36  C 16.836989247311827 36  16.16430107526882 35.717171717171716  15.61032258064516 35.15151515151515  L 11.574193548387095 31.030303030303028  L 0.830967741935484 20.060606060606062  C 0.2769892473118282 19.49494949494949  0 18.808080808080803  0 18  C 0 17.19191919191919  0.2769892473118282 16.505050505050505  0.830967741935484 15.939393939393941  L 4.8670967741935485 11.818181818181818  C 5.421075268817205 11.25252525252525  6.093763440860217 10.969696969696965  6.885161290322581 10.969696969696969  C 7.676559139784948 10.969696969696965  8.349247311827957 11.25252525252525  8.903225806451612 11.818181818181818  L 17.628387096774194 20.757575757575758  L 37.096774193548384 0.8484848484848486  C 37.65075268817205 0.28282828282828154  38.32344086021506 0  39.11483870967742 0  C 39.906236559139785 0  40.578924731182795 0.28282828282828154  41.13290322580645 0.8484848484848486  L 45.16903225806452 4.969696969696971  Z " fill-rule="evenodd" />
    </mask>
  </defs>
  <g transform="matrix(1 0 0 1 -155 -424 )">
    <path d="M 45.16903225806452 4.969696969696971  C 45.72301075268818 5.535353535353535  46.00000000000001 6.222222222222221  46 7.03030303030303  C 46.00000000000001 7.838383838383835  45.72301075268818 8.525252525252522  45.16903225806452 9.09090909090909  L 23.68258064516129 31.030303030303028  L 19.646451612903228 35.15151515151515  C 19.09247311827957 35.717171717171716  18.41978494623656 36  17.628387096774194 36  C 16.836989247311827 36  16.16430107526882 35.717171717171716  15.61032258064516 35.15151515151515  L 11.574193548387095 31.030303030303028  L 0.830967741935484 20.060606060606062  C 0.2769892473118282 19.49494949494949  0 18.808080808080803  0 18  C 0 17.19191919191919  0.2769892473118282 16.505050505050505  0.830967741935484 15.939393939393941  L 4.8670967741935485 11.818181818181818  C 5.421075268817205 11.25252525252525  6.093763440860217 10.969696969696965  6.885161290322581 10.969696969696969  C 7.676559139784948 10.969696969696965  8.349247311827957 11.25252525252525  8.903225806451612 11.818181818181818  L 17.628387096774194 20.757575757575758  L 37.096774193548384 0.8484848484848486  C 37.65075268817205 0.28282828282828154  38.32344086021506 0  39.11483870967742 0  C 39.906236559139785 0  40.578924731182795 0.28282828282828154  41.13290322580645 0.8484848484848486  L 45.16903225806452 4.969696969696971  Z " fill-rule="nonzero" fill="rgba(215, 215, 215, 1)" stroke="none" transform="matrix(1 0 0 1 155 424 )" class="fill" />
    <path d="M 45.16903225806452 4.969696969696971  C 45.72301075268818 5.535353535353535  46.00000000000001 6.222222222222221  46 7.03030303030303  C 46.00000000000001 7.838383838383835  45.72301075268818 8.525252525252522  45.16903225806452 9.09090909090909  L 23.68258064516129 31.030303030303028  L 19.646451612903228 35.15151515151515  C 19.09247311827957 35.717171717171716  18.41978494623656 36  17.628387096774194 36  C 16.836989247311827 36  16.16430107526882 35.717171717171716  15.61032258064516 35.15151515151515  L 11.574193548387095 31.030303030303028  L 0.830967741935484 20.060606060606062  C 0.2769892473118282 19.49494949494949  0 18.808080808080803  0 18  C 0 17.19191919191919  0.2769892473118282 16.505050505050505  0.830967741935484 15.939393939393941  L 4.8670967741935485 11.818181818181818  C 5.421075268817205 11.25252525252525  6.093763440860217 10.969696969696965  6.885161290322581 10.969696969696969  C 7.676559139784948 10.969696969696965  8.349247311827957 11.25252525252525  8.903225806451612 11.818181818181818  L 17.628387096774194 20.757575757575758  L 37.096774193548384 0.8484848484848486  C 37.65075268817205 0.28282828282828154  38.32344086021506 0  39.11483870967742 0  C 39.906236559139785 0  40.578924731182795 0.28282828282828154  41.13290322580645 0.8484848484848486  L 45.16903225806452 4.969696969696971  Z " stroke-width="0" stroke-dasharray="0" stroke="rgba(255, 255, 255, 0)" fill="none" transform="matrix(1 0 0 1 155 424 )" class="stroke" mask="url(#Clip470)" />
  </g>
</svg>