<?xml version="1.0" encoding="utf-8"?>
<svg version="1.1" xmlns:xlink="http://www.w3.org/1999/xlink" width="40px" height="40px" xmlns="http://www.w3.org/2000/svg">
  <defs>
    <pattern id="BGPattern" patternUnits="userSpaceOnUse" alignment="0 0" imageRepeat="None" />
    <mask fill="white" id="Clip434">
      <path d="M 3 15  L 3 37  L 37 37  L 37 15  L 3 15  Z M 12.091346153846153 10.513392857142856  C 12.235576923076923 10.379464285714285  12.307692307692308 10.20833333333333  12.307692307692308 10  L 12.307692307692308 3.571428571428572  C 12.307692307692308 3.363095238095233  12.235576923076923 3.191964285714284  12.091346153846153 3.058035714285716  C 11.947115384615385 2.924107142857144  11.762820512820513 2.857142857142856  11.538461538461537 2.857142857142856  L 10 2.857142857142856  C 9.775641025641027 2.857142857142856  9.591346153846155 2.924107142857144  9.447115384615385 3.058035714285716  C 9.302884615384615 3.191964285714284  9.230769230769232 3.363095238095233  9.230769230769232 3.571428571428572  L 9.230769230769232 10  C 9.230769230769232 10.20833333333333  9.302884615384615 10.379464285714285  9.447115384615385 10.513392857142856  C 9.591346153846155 10.647321428571427  9.775641025641027 10.714285714285715  10 10.714285714285715  L 11.538461538461537 10.714285714285715  C 11.762820512820513 10.714285714285715  11.947115384615385 10.647321428571427  12.091346153846153 10.513392857142856  Z M 30.552884615384617 10.513392857142856  C 30.697115384615383 10.379464285714285  30.76923076923077 10.20833333333333  30.76923076923077 10  L 30.76923076923077 3.571428571428572  C 30.76923076923077 3.363095238095233  30.697115384615383 3.191964285714284  30.552884615384617 3.058035714285716  C 30.408653846153847 2.924107142857144  30.224358974358978 2.857142857142856  30 2.857142857142856  L 28.461538461538463 2.857142857142856  C 28.23717948717949 2.857142857142856  28.052884615384617 2.924107142857144  27.908653846153847 3.058035714285716  C 27.764423076923073 3.191964285714284  27.692307692307693 3.363095238095233  27.692307692307693 3.571428571428572  L 27.692307692307693 10  C 27.692307692307693 10.20833333333333  27.764423076923073 10.379464285714285  27.908653846153847 10.513392857142856  C 28.052884615384617 10.647321428571427  28.23717948717949 10.714285714285715  28.461538461538463 10.714285714285715  L 30 10.714285714285715  C 30.224358974358978 10.714285714285715  30.408653846153847 10.647321428571427  30.552884615384617 10.513392857142856  Z M 39.08653846153846 6.5625  C 39.695512820512825 7.127976190476191  40 7.797619047619047  40 8.571428571428573  L 40 37.142857142857146  C 40 37.91666666666667  39.695512820512825 38.586309523809526  39.08653846153846 39.151785714285715  C 38.4775641025641 39.717261904761905  37.75641025641026 40  36.92307692307693 40  L 3.076923076923077 40  C 2.243589743589744 40  1.5224358974358976 39.717261904761905  0.9134615384615384 39.151785714285715  C 0.30448717948717946 38.586309523809526  0 37.91666666666667  0 37.142857142857146  L 0 8.571428571428573  C 0 7.797619047619047  0.30448717948717946 7.127976190476191  0.9134615384615384 6.5625  C 1.5224358974358976 5.997023809523805  2.243589743589744 5.714285714285716  3.076923076923077 5.714285714285716  L 6.153846153846154 5.714285714285716  L 6.153846153846154 3.571428571428572  C 6.153846153846154 2.589285714285716  6.530448717948718 1.7485119047619024  7.283653846153846 1.0491071428571441  C 8.036858974358976 0.3497023809523814  8.942307692307693 0  10 0  L 11.538461538461537 0  C 12.596153846153847 0  13.501602564102566 0.3497023809523814  14.254807692307692 1.0491071428571441  C 15.008012820512821 1.7485119047619024  15.384615384615385 2.589285714285716  15.384615384615385 3.571428571428572  L 15.384615384615385 5.714285714285716  L 24.615384615384617 5.714285714285716  L 24.615384615384617 3.571428571428572  C 24.615384615384617 2.589285714285716  24.991987179487182 1.7485119047619024  25.745192307692307 1.0491071428571441  C 26.49839743589744 0.3497023809523814  27.403846153846153 0  28.461538461538463 0  L 30 0  C 31.057692307692307 0  31.963141025641026 0.3497023809523814  32.71634615384615 1.0491071428571441  C 33.469551282051285 1.7485119047619024  33.84615384615385 2.589285714285716  33.84615384615385 3.571428571428572  L 33.84615384615385 5.714285714285716  L 36.92307692307693 5.714285714285716  C 37.75641025641026 5.714285714285716  38.4775641025641 5.997023809523805  39.08653846153846 6.5625  Z " fill-rule="evenodd" />
    </mask>
  </defs>
  <g transform="matrix(1 0 0 1 -287 -595 )">
    <path d="M 3 15  L 3 37  L 37 37  L 37 15  L 3 15  Z M 12.091346153846153 10.513392857142856  C 12.235576923076923 10.379464285714285  12.307692307692308 10.20833333333333  12.307692307692308 10  L 12.307692307692308 3.571428571428572  C 12.307692307692308 3.363095238095233  12.235576923076923 3.191964285714284  12.091346153846153 3.058035714285716  C 11.947115384615385 2.924107142857144  11.762820512820513 2.857142857142856  11.538461538461537 2.857142857142856  L 10 2.857142857142856  C 9.775641025641027 2.857142857142856  9.591346153846155 2.924107142857144  9.447115384615385 3.058035714285716  C 9.302884615384615 3.191964285714284  9.230769230769232 3.363095238095233  9.230769230769232 3.571428571428572  L 9.230769230769232 10  C 9.230769230769232 10.20833333333333  9.302884615384615 10.379464285714285  9.447115384615385 10.513392857142856  C 9.591346153846155 10.647321428571427  9.775641025641027 10.714285714285715  10 10.714285714285715  L 11.538461538461537 10.714285714285715  C 11.762820512820513 10.714285714285715  11.947115384615385 10.647321428571427  12.091346153846153 10.513392857142856  Z M 30.552884615384617 10.513392857142856  C 30.697115384615383 10.379464285714285  30.76923076923077 10.20833333333333  30.76923076923077 10  L 30.76923076923077 3.571428571428572  C 30.76923076923077 3.363095238095233  30.697115384615383 3.191964285714284  30.552884615384617 3.058035714285716  C 30.408653846153847 2.924107142857144  30.224358974358978 2.857142857142856  30 2.857142857142856  L 28.461538461538463 2.857142857142856  C 28.23717948717949 2.857142857142856  28.052884615384617 2.924107142857144  27.908653846153847 3.058035714285716  C 27.764423076923073 3.191964285714284  27.692307692307693 3.363095238095233  27.692307692307693 3.571428571428572  L 27.692307692307693 10  C 27.692307692307693 10.20833333333333  27.764423076923073 10.379464285714285  27.908653846153847 10.513392857142856  C 28.052884615384617 10.647321428571427  28.23717948717949 10.714285714285715  28.461538461538463 10.714285714285715  L 30 10.714285714285715  C 30.224358974358978 10.714285714285715  30.408653846153847 10.647321428571427  30.552884615384617 10.513392857142856  Z M 39.08653846153846 6.5625  C 39.695512820512825 7.127976190476191  40 7.797619047619047  40 8.571428571428573  L 40 37.142857142857146  C 40 37.91666666666667  39.695512820512825 38.586309523809526  39.08653846153846 39.151785714285715  C 38.4775641025641 39.717261904761905  37.75641025641026 40  36.92307692307693 40  L 3.076923076923077 40  C 2.243589743589744 40  1.5224358974358976 39.717261904761905  0.9134615384615384 39.151785714285715  C 0.30448717948717946 38.586309523809526  0 37.91666666666667  0 37.142857142857146  L 0 8.571428571428573  C 0 7.797619047619047  0.30448717948717946 7.127976190476191  0.9134615384615384 6.5625  C 1.5224358974358976 5.997023809523805  2.243589743589744 5.714285714285716  3.076923076923077 5.714285714285716  L 6.153846153846154 5.714285714285716  L 6.153846153846154 3.571428571428572  C 6.153846153846154 2.589285714285716  6.530448717948718 1.7485119047619024  7.283653846153846 1.0491071428571441  C 8.036858974358976 0.3497023809523814  8.942307692307693 0  10 0  L 11.538461538461537 0  C 12.596153846153847 0  13.501602564102566 0.3497023809523814  14.254807692307692 1.0491071428571441  C 15.008012820512821 1.7485119047619024  15.384615384615385 2.589285714285716  15.384615384615385 3.571428571428572  L 15.384615384615385 5.714285714285716  L 24.615384615384617 5.714285714285716  L 24.615384615384617 3.571428571428572  C 24.615384615384617 2.589285714285716  24.991987179487182 1.7485119047619024  25.745192307692307 1.0491071428571441  C 26.49839743589744 0.3497023809523814  27.403846153846153 0  28.461538461538463 0  L 30 0  C 31.057692307692307 0  31.963141025641026 0.3497023809523814  32.71634615384615 1.0491071428571441  C 33.469551282051285 1.7485119047619024  33.84615384615385 2.589285714285716  33.84615384615385 3.571428571428572  L 33.84615384615385 5.714285714285716  L 36.92307692307693 5.714285714285716  C 37.75641025641026 5.714285714285716  38.4775641025641 5.997023809523805  39.08653846153846 6.5625  Z " fill-rule="nonzero" fill="rgba(255, 255, 255, 1)" stroke="none" transform="matrix(1 0 0 1 287 595 )" class="fill" />
    <path d="M 3 15  L 3 37  L 37 37  L 37 15  L 3 15  Z " stroke-width="0" stroke-dasharray="0" stroke="rgba(255, 255, 255, 0)" fill="none" transform="matrix(1 0 0 1 287 595 )" class="stroke" mask="url(#Clip434)" />
    <path d="M 12.091346153846153 10.513392857142856  C 12.235576923076923 10.379464285714285  12.307692307692308 10.20833333333333  12.307692307692308 10  L 12.307692307692308 3.571428571428572  C 12.307692307692308 3.363095238095233  12.235576923076923 3.191964285714284  12.091346153846153 3.058035714285716  C 11.947115384615385 2.924107142857144  11.762820512820513 2.857142857142856  11.538461538461537 2.857142857142856  L 10 2.857142857142856  C 9.775641025641027 2.857142857142856  9.591346153846155 2.924107142857144  9.447115384615385 3.058035714285716  C 9.302884615384615 3.191964285714284  9.230769230769232 3.363095238095233  9.230769230769232 3.571428571428572  L 9.230769230769232 10  C 9.230769230769232 10.20833333333333  9.302884615384615 10.379464285714285  9.447115384615385 10.513392857142856  C 9.591346153846155 10.647321428571427  9.775641025641027 10.714285714285715  10 10.714285714285715  L 11.538461538461537 10.714285714285715  C 11.762820512820513 10.714285714285715  11.947115384615385 10.647321428571427  12.091346153846153 10.513392857142856  Z " stroke-width="0" stroke-dasharray="0" stroke="rgba(255, 255, 255, 0)" fill="none" transform="matrix(1 0 0 1 287 595 )" class="stroke" mask="url(#Clip434)" />
    <path d="M 30.552884615384617 10.513392857142856  C 30.697115384615383 10.379464285714285  30.76923076923077 10.20833333333333  30.76923076923077 10  L 30.76923076923077 3.571428571428572  C 30.76923076923077 3.363095238095233  30.697115384615383 3.191964285714284  30.552884615384617 3.058035714285716  C 30.408653846153847 2.924107142857144  30.224358974358978 2.857142857142856  30 2.857142857142856  L 28.461538461538463 2.857142857142856  C 28.23717948717949 2.857142857142856  28.052884615384617 2.924107142857144  27.908653846153847 3.058035714285716  C 27.764423076923073 3.191964285714284  27.692307692307693 3.363095238095233  27.692307692307693 3.571428571428572  L 27.692307692307693 10  C 27.692307692307693 10.20833333333333  27.764423076923073 10.379464285714285  27.908653846153847 10.513392857142856  C 28.052884615384617 10.647321428571427  28.23717948717949 10.714285714285715  28.461538461538463 10.714285714285715  L 30 10.714285714285715  C 30.224358974358978 10.714285714285715  30.408653846153847 10.647321428571427  30.552884615384617 10.513392857142856  Z " stroke-width="0" stroke-dasharray="0" stroke="rgba(255, 255, 255, 0)" fill="none" transform="matrix(1 0 0 1 287 595 )" class="stroke" mask="url(#Clip434)" />
    <path d="M 39.08653846153846 6.5625  C 39.695512820512825 7.127976190476191  40 7.797619047619047  40 8.571428571428573  L 40 37.142857142857146  C 40 37.91666666666667  39.695512820512825 38.586309523809526  39.08653846153846 39.151785714285715  C 38.4775641025641 39.717261904761905  37.75641025641026 40  36.92307692307693 40  L 3.076923076923077 40  C 2.243589743589744 40  1.5224358974358976 39.717261904761905  0.9134615384615384 39.151785714285715  C 0.30448717948717946 38.586309523809526  0 37.91666666666667  0 37.142857142857146  L 0 8.571428571428573  C 0 7.797619047619047  0.30448717948717946 7.127976190476191  0.9134615384615384 6.5625  C 1.5224358974358976 5.997023809523805  2.243589743589744 5.714285714285716  3.076923076923077 5.714285714285716  L 6.153846153846154 5.714285714285716  L 6.153846153846154 3.571428571428572  C 6.153846153846154 2.589285714285716  6.530448717948718 1.7485119047619024  7.283653846153846 1.0491071428571441  C 8.036858974358976 0.3497023809523814  8.942307692307693 0  10 0  L 11.538461538461537 0  C 12.596153846153847 0  13.501602564102566 0.3497023809523814  14.254807692307692 1.0491071428571441  C 15.008012820512821 1.7485119047619024  15.384615384615385 2.589285714285716  15.384615384615385 3.571428571428572  L 15.384615384615385 5.714285714285716  L 24.615384615384617 5.714285714285716  L 24.615384615384617 3.571428571428572  C 24.615384615384617 2.589285714285716  24.991987179487182 1.7485119047619024  25.745192307692307 1.0491071428571441  C 26.49839743589744 0.3497023809523814  27.403846153846153 0  28.461538461538463 0  L 30 0  C 31.057692307692307 0  31.963141025641026 0.3497023809523814  32.71634615384615 1.0491071428571441  C 33.469551282051285 1.7485119047619024  33.84615384615385 2.589285714285716  33.84615384615385 3.571428571428572  L 33.84615384615385 5.714285714285716  L 36.92307692307693 5.714285714285716  C 37.75641025641026 5.714285714285716  38.4775641025641 5.997023809523805  39.08653846153846 6.5625  Z " stroke-width="0" stroke-dasharray="0" stroke="rgba(255, 255, 255, 0)" fill="none" transform="matrix(1 0 0 1 287 595 )" class="stroke" mask="url(#Clip434)" />
  </g>
</svg>