<?xml version="1.0" encoding="utf-8"?>
<svg version="1.1" xmlns:xlink="http://www.w3.org/1999/xlink" width="45px" height="40px" xmlns="http://www.w3.org/2000/svg">
  <defs>
    <pattern id="BGPattern" patternUnits="userSpaceOnUse" alignment="0 0" imageRepeat="None" />
    <mask fill="white" id="Clip435">
      <path d="M 37.55862898376428 21.960227272727273  C 37.91942273000602 22.111742424242422  38.09981960312688 22.386363636363633  38.09981960312688 22.784090909090907  L 38.09981960312688 31.818181818181817  C 38.09981960312688 34.071969696969695  37.33764281419123 35.99905303030303  35.8132892363199 37.59943181818181  C 34.28893565844859 39.19981060606061  32.45339747444378 40  30.306674684305474 40  L 7.793144918821407 40  C 5.646422128683104 40  3.8108839446782925 39.19981060606061  2.2865303668069754 37.59943181818181  C 0.7621767889356583 35.99905303030303  0 34.071969696969695  0 31.818181818181817  L 0 8.181818181818183  C 0 5.928030303030298  0.7621767889356583 4.000946969696968  2.2865303668069754 2.4005681818181834  C 3.8108839446782925 0.80018939393939  5.646422128683104 0  7.793144918821407 0  L 30.306674684305474 0  C 31.443174984966927 0  32.49849669272399 0.2367424242424221  33.47263980757667 0.7102272727272707  C 33.74323511725797 0.8428030303030276  33.90559230306675 1.0606060606060597  33.95971136500301 1.3636363636363624  C 34.013830426939265 1.6856060606060597  33.93265183403488 1.9602272727272707  33.71617558628984 2.1875  L 32.39025856885147 3.579545454545454  C 32.20986169573061 3.76893939393939  32.002405291641615 3.8636363636363624  31.767889356584487 3.8636363636363624  C 31.713770294648228 3.8636363636363624  31.632591701743834 3.844696969696968  31.524353577871317 3.8068181818181834  C 31.10944076969333 3.6931818181818166  30.70354780517138 3.6363636363636376  30.306674684305474 4  L 7.793144918821407 4  C 6.602525556223693 3.6363636363636376  5.583283223090801 4.08143939393939  4.73541791942273 4.971590909090908  C 3.887552615754661 5.861742424242422  3.4636199639206255 6.931818181818183  4 8.181818181818183  L 4 31.818181818181817  C 3.4636199639206255 33.06818181818181  3.887552615754661 34.13825757575757  4.73541791942273 35.02840909090909  C 5.583283223090801 35.91856060606061  6.602525556223693 36.36363636363636  7.793144918821407 36  L 30.306674684305474 36  C 31.497294046903185 36.36363636363636  32.51653638003608 35.91856060606061  33.364401683704145 35.02840909090909  C 34.212266987372224 34.13825757575757  34.636199639206254 33.06818181818181  34.636199639206254 31.818181818181817  L 34.636199639206254 24.602272727272727  C 34.636199639206254 24.356060606060606  34.71737823211064 24.147727272727273  34.87973541791943 23.977272727272727  L 36.61154539987974 22.159090909090907  C 36.7919422730006 21.96969696969697  36.9993986770896 21.875  37.23391461214673 21.875  C 37.342152736019244 21.875  37.45039085989176 21.903409090909093  37.55862898376428 21.960227272727273  Z M 45 7.272727272727271  C 45 7.897727272727271  44.783523752254965 8.4375  44.35057125676489 8.892045454545453  L 22.324113048707158 32.01704545454545  C 21.89116055321708 32.47159090909091  21.377029464822613 32.69886363636364  20.781719783523755 32.69886363636364  C 20.186410102224894 32.69886363636364  19.672279013830426 32.47159090909091  19.23932651834035 32.01704545454545  L 7.603728202044498 19.801136363636363  C 7.170775706554419 19.346590909090907  6.9542994588093805 18.806818181818183  6.9542994588093805 18.181818181818183  C 6.9542994588093805 17.55681818181818  7.170775706554419 17.01704545454545  7.603728202044498 16.5625  L 10.580276608538785 13.4375  C 11.013229104028863 12.982954545454547  11.52736019242333 12.755681818181817  12.12266987372219 12.755681818181817  C 12.717979555021047 12.755681818181817  13.232110643415515 12.982954545454547  13.665063138905593 13.4375  L 20.781719783523755 20.909090909090907  L 38.28923631990379 2.5284090909090917  C 38.72218881539387 2.0738636363636376  39.236319903788335 1.8465909090909083  39.83162958508719 1.8465909090909083  C 40.42693926638605 1.8465909090909083  40.94107035478052 2.0738636363636376  41.3740228502706 2.5284090909090917  L 44.35057125676489 5.653409090909092  C 44.783523752254965 6.107954545454546  45 6.647727272727271  45 7.272727272727271  Z " fill-rule="evenodd" />
    </mask>
  </defs>
  <g transform="matrix(1 0 0 1 -157 -595 )">
    <path d="M 37.55862898376428 21.960227272727273  C 37.91942273000602 22.111742424242422  38.09981960312688 22.386363636363633  38.09981960312688 22.784090909090907  L 38.09981960312688 31.818181818181817  C 38.09981960312688 34.071969696969695  37.33764281419123 35.99905303030303  35.8132892363199 37.59943181818181  C 34.28893565844859 39.19981060606061  32.45339747444378 40  30.306674684305474 40  L 7.793144918821407 40  C 5.646422128683104 40  3.8108839446782925 39.19981060606061  2.2865303668069754 37.59943181818181  C 0.7621767889356583 35.99905303030303  0 34.071969696969695  0 31.818181818181817  L 0 8.181818181818183  C 0 5.928030303030298  0.7621767889356583 4.000946969696968  2.2865303668069754 2.4005681818181834  C 3.8108839446782925 0.80018939393939  5.646422128683104 0  7.793144918821407 0  L 30.306674684305474 0  C 31.443174984966927 0  32.49849669272399 0.2367424242424221  33.47263980757667 0.7102272727272707  C 33.74323511725797 0.8428030303030276  33.90559230306675 1.0606060606060597  33.95971136500301 1.3636363636363624  C 34.013830426939265 1.6856060606060597  33.93265183403488 1.9602272727272707  33.71617558628984 2.1875  L 32.39025856885147 3.579545454545454  C 32.20986169573061 3.76893939393939  32.002405291641615 3.8636363636363624  31.767889356584487 3.8636363636363624  C 31.713770294648228 3.8636363636363624  31.632591701743834 3.844696969696968  31.524353577871317 3.8068181818181834  C 31.10944076969333 3.6931818181818166  30.70354780517138 3.6363636363636376  30.306674684305474 4  L 7.793144918821407 4  C 6.602525556223693 3.6363636363636376  5.583283223090801 4.08143939393939  4.73541791942273 4.971590909090908  C 3.887552615754661 5.861742424242422  3.4636199639206255 6.931818181818183  4 8.181818181818183  L 4 31.818181818181817  C 3.4636199639206255 33.06818181818181  3.887552615754661 34.13825757575757  4.73541791942273 35.02840909090909  C 5.583283223090801 35.91856060606061  6.602525556223693 36.36363636363636  7.793144918821407 36  L 30.306674684305474 36  C 31.497294046903185 36.36363636363636  32.51653638003608 35.91856060606061  33.364401683704145 35.02840909090909  C 34.212266987372224 34.13825757575757  34.636199639206254 33.06818181818181  34.636199639206254 31.818181818181817  L 34.636199639206254 24.602272727272727  C 34.636199639206254 24.356060606060606  34.71737823211064 24.147727272727273  34.87973541791943 23.977272727272727  L 36.61154539987974 22.159090909090907  C 36.7919422730006 21.96969696969697  36.9993986770896 21.875  37.23391461214673 21.875  C 37.342152736019244 21.875  37.45039085989176 21.903409090909093  37.55862898376428 21.960227272727273  Z M 45 7.272727272727271  C 45 7.897727272727271  44.783523752254965 8.4375  44.35057125676489 8.892045454545453  L 22.324113048707158 32.01704545454545  C 21.89116055321708 32.47159090909091  21.377029464822613 32.69886363636364  20.781719783523755 32.69886363636364  C 20.186410102224894 32.69886363636364  19.672279013830426 32.47159090909091  19.23932651834035 32.01704545454545  L 7.603728202044498 19.801136363636363  C 7.170775706554419 19.346590909090907  6.9542994588093805 18.806818181818183  6.9542994588093805 18.181818181818183  C 6.9542994588093805 17.55681818181818  7.170775706554419 17.01704545454545  7.603728202044498 16.5625  L 10.580276608538785 13.4375  C 11.013229104028863 12.982954545454547  11.52736019242333 12.755681818181817  12.12266987372219 12.755681818181817  C 12.717979555021047 12.755681818181817  13.232110643415515 12.982954545454547  13.665063138905593 13.4375  L 20.781719783523755 20.909090909090907  L 38.28923631990379 2.5284090909090917  C 38.72218881539387 2.0738636363636376  39.236319903788335 1.8465909090909083  39.83162958508719 1.8465909090909083  C 40.42693926638605 1.8465909090909083  40.94107035478052 2.0738636363636376  41.3740228502706 2.5284090909090917  L 44.35057125676489 5.653409090909092  C 44.783523752254965 6.107954545454546  45 6.647727272727271  45 7.272727272727271  Z " fill-rule="nonzero" fill="rgba(255, 255, 255, 1)" stroke="none" transform="matrix(1 0 0 1 157 595 )" class="fill" />
    <path d="M 37.55862898376428 21.960227272727273  C 37.91942273000602 22.111742424242422  38.09981960312688 22.386363636363633  38.09981960312688 22.784090909090907  L 38.09981960312688 31.818181818181817  C 38.09981960312688 34.071969696969695  37.33764281419123 35.99905303030303  35.8132892363199 37.59943181818181  C 34.28893565844859 39.19981060606061  32.45339747444378 40  30.306674684305474 40  L 7.793144918821407 40  C 5.646422128683104 40  3.8108839446782925 39.19981060606061  2.2865303668069754 37.59943181818181  C 0.7621767889356583 35.99905303030303  0 34.071969696969695  0 31.818181818181817  L 0 8.181818181818183  C 0 5.928030303030298  0.7621767889356583 4.000946969696968  2.2865303668069754 2.4005681818181834  C 3.8108839446782925 0.80018939393939  5.646422128683104 0  7.793144918821407 0  L 30.306674684305474 0  C 31.443174984966927 0  32.49849669272399 0.2367424242424221  33.47263980757667 0.7102272727272707  C 33.74323511725797 0.8428030303030276  33.90559230306675 1.0606060606060597  33.95971136500301 1.3636363636363624  C 34.013830426939265 1.6856060606060597  33.93265183403488 1.9602272727272707  33.71617558628984 2.1875  L 32.39025856885147 3.579545454545454  C 32.20986169573061 3.76893939393939  32.002405291641615 3.8636363636363624  31.767889356584487 3.8636363636363624  C 31.713770294648228 3.8636363636363624  31.632591701743834 3.844696969696968  31.524353577871317 3.8068181818181834  C 31.10944076969333 3.6931818181818166  30.70354780517138 3.6363636363636376  30.306674684305474 4  L 7.793144918821407 4  C 6.602525556223693 3.6363636363636376  5.583283223090801 4.08143939393939  4.73541791942273 4.971590909090908  C 3.887552615754661 5.861742424242422  3.4636199639206255 6.931818181818183  4 8.181818181818183  L 4 31.818181818181817  C 3.4636199639206255 33.06818181818181  3.887552615754661 34.13825757575757  4.73541791942273 35.02840909090909  C 5.583283223090801 35.91856060606061  6.602525556223693 36.36363636363636  7.793144918821407 36  L 30.306674684305474 36  C 31.497294046903185 36.36363636363636  32.51653638003608 35.91856060606061  33.364401683704145 35.02840909090909  C 34.212266987372224 34.13825757575757  34.636199639206254 33.06818181818181  34.636199639206254 31.818181818181817  L 34.636199639206254 24.602272727272727  C 34.636199639206254 24.356060606060606  34.71737823211064 24.147727272727273  34.87973541791943 23.977272727272727  L 36.61154539987974 22.159090909090907  C 36.7919422730006 21.96969696969697  36.9993986770896 21.875  37.23391461214673 21.875  C 37.342152736019244 21.875  37.45039085989176 21.903409090909093  37.55862898376428 21.960227272727273  Z " stroke-width="0" stroke-dasharray="0" stroke="rgba(255, 255, 255, 0)" fill="none" transform="matrix(1 0 0 1 157 595 )" class="stroke" mask="url(#Clip435)" />
    <path d="M 45 7.272727272727271  C 45 7.897727272727271  44.783523752254965 8.4375  44.35057125676489 8.892045454545453  L 22.324113048707158 32.01704545454545  C 21.89116055321708 32.47159090909091  21.377029464822613 32.69886363636364  20.781719783523755 32.69886363636364  C 20.186410102224894 32.69886363636364  19.672279013830426 32.47159090909091  19.23932651834035 32.01704545454545  L 7.603728202044498 19.801136363636363  C 7.170775706554419 19.346590909090907  6.9542994588093805 18.806818181818183  6.9542994588093805 18.181818181818183  C 6.9542994588093805 17.55681818181818  7.170775706554419 17.01704545454545  7.603728202044498 16.5625  L 10.580276608538785 13.4375  C 11.013229104028863 12.982954545454547  11.52736019242333 12.755681818181817  12.12266987372219 12.755681818181817  C 12.717979555021047 12.755681818181817  13.232110643415515 12.982954545454547  13.665063138905593 13.4375  L 20.781719783523755 20.909090909090907  L 38.28923631990379 2.5284090909090917  C 38.72218881539387 2.0738636363636376  39.236319903788335 1.8465909090909083  39.83162958508719 1.8465909090909083  C 40.42693926638605 1.8465909090909083  40.94107035478052 2.0738636363636376  41.3740228502706 2.5284090909090917  L 44.35057125676489 5.653409090909092  C 44.783523752254965 6.107954545454546  45 6.647727272727271  45 7.272727272727271  Z " stroke-width="0" stroke-dasharray="0" stroke="rgba(255, 255, 255, 0)" fill="none" transform="matrix(1 0 0 1 157 595 )" class="stroke" mask="url(#Clip435)" />
  </g>
</svg>