<?xml version="1.0" encoding="utf-8"?>
<svg version="1.1" xmlns:xlink="http://www.w3.org/1999/xlink" width="60px" height="62px" xmlns="http://www.w3.org/2000/svg">
  <defs>
    <pattern id="BGPattern" patternUnits="userSpaceOnUse" alignment="0 0" imageRepeat="None" />
    <mask fill="white" id="Clip416">
      <path d="M 49.2578125 35.399739583333336  C 49.75260416666667 34.88845486111111  50 34.28298611111111  50 33.583333333333336  L 50 28.416666666666668  C 50 27.717013888888886  49.75260416666667 27.111545138888886  49.2578125 26.600260416666668  C 48.763020833333336 26.088975694444446  48.177083333333336 25.833333333333332  47.5 26  L 35 26  L 35 12.91666666666667  C 35 12.217013888888886  34.75260416666667 11.611545138888886  34.2578125 11.10026041666667  C 33.763020833333336 10.58897569444444  33.177083333333336 10.33333333333333  32.5 10.33333333333333  L 27.5 10.33333333333333  C 26.82291666666667 10.33333333333333  26.23697916666667 10.58897569444444  25.7421875 11.10026041666667  C 25.247395833333336 11.611545138888886  25 12.217013888888886  25 12.91666666666667  L 25 26  L 12.5 26  C 11.822916666666668 25.833333333333332  11.236979166666668 26.088975694444446  10.7421875 26.600260416666668  C 10.247395833333336 27.111545138888886  10 27.717013888888886  10 28.416666666666668  L 10 33.583333333333336  C 10 34.28298611111111  10.247395833333336 34.88845486111111  10.7421875 35.399739583333336  C 11.236979166666668 35.91102430555556  11.822916666666668 36.166666666666664  12.5 36  L 25 36  L 25 49.08333333333333  C 25 49.78298611111111  25.247395833333336 50.38845486111111  25.7421875 50.89973958333333  C 26.23697916666667 51.411024305555564  26.82291666666667 51.66666666666667  27.5 51.66666666666667  L 32.5 51.66666666666667  C 33.177083333333336 51.66666666666667  33.763020833333336 51.411024305555564  34.2578125 50.89973958333333  C 34.75260416666667 50.38845486111111  35 49.78298611111111  35 49.08333333333333  L 35 36  L 47.5 36  C 48.177083333333336 36.166666666666664  48.763020833333336 35.91102430555556  49.2578125 35.399739583333336  Z M 56.69921875 3.4108072916666687  C 58.89973958333333 5.684678819444439  60 8.422743055555546  60 11.625  L 60 50.375  C 60 53.577256944444436  58.89973958333333 56.315321180555564  56.69921875 58.58919270833333  C 54.49869791666667 60.86306423611111  51.84895833333334 62  48.75 62  L 11.25 62  C 8.151041666666666 62  5.501302083333334 60.86306423611111  3.30078125 58.58919270833333  C 1.1002604166666665 56.315321180555564  0 53.577256944444436  0 50.375  L 0 11.625  C 0 8.422743055555546  1.1002604166666665 5.684678819444439  3.30078125 3.4108072916666687  C 5.501302083333334 1.136935763888885  8.151041666666666 0  11.25 0  L 48.75 0  C 51.84895833333334 0  54.49869791666667 1.136935763888885  56.69921875 3.4108072916666687  Z " fill-rule="evenodd" />
    </mask>
  </defs>
  <g transform="matrix(1 0 0 1 -146 -276 )">
    <path d="M 49.2578125 35.399739583333336  C 49.75260416666667 34.88845486111111  50 34.28298611111111  50 33.583333333333336  L 50 28.416666666666668  C 50 27.717013888888886  49.75260416666667 27.111545138888886  49.2578125 26.600260416666668  C 48.763020833333336 26.088975694444446  48.177083333333336 25.833333333333332  47.5 26  L 35 26  L 35 12.91666666666667  C 35 12.217013888888886  34.75260416666667 11.611545138888886  34.2578125 11.10026041666667  C 33.763020833333336 10.58897569444444  33.177083333333336 10.33333333333333  32.5 10.33333333333333  L 27.5 10.33333333333333  C 26.82291666666667 10.33333333333333  26.23697916666667 10.58897569444444  25.7421875 11.10026041666667  C 25.247395833333336 11.611545138888886  25 12.217013888888886  25 12.91666666666667  L 25 26  L 12.5 26  C 11.822916666666668 25.833333333333332  11.236979166666668 26.088975694444446  10.7421875 26.600260416666668  C 10.247395833333336 27.111545138888886  10 27.717013888888886  10 28.416666666666668  L 10 33.583333333333336  C 10 34.28298611111111  10.247395833333336 34.88845486111111  10.7421875 35.399739583333336  C 11.236979166666668 35.91102430555556  11.822916666666668 36.166666666666664  12.5 36  L 25 36  L 25 49.08333333333333  C 25 49.78298611111111  25.247395833333336 50.38845486111111  25.7421875 50.89973958333333  C 26.23697916666667 51.411024305555564  26.82291666666667 51.66666666666667  27.5 51.66666666666667  L 32.5 51.66666666666667  C 33.177083333333336 51.66666666666667  33.763020833333336 51.411024305555564  34.2578125 50.89973958333333  C 34.75260416666667 50.38845486111111  35 49.78298611111111  35 49.08333333333333  L 35 36  L 47.5 36  C 48.177083333333336 36.166666666666664  48.763020833333336 35.91102430555556  49.2578125 35.399739583333336  Z M 56.69921875 3.4108072916666687  C 58.89973958333333 5.684678819444439  60 8.422743055555546  60 11.625  L 60 50.375  C 60 53.577256944444436  58.89973958333333 56.315321180555564  56.69921875 58.58919270833333  C 54.49869791666667 60.86306423611111  51.84895833333334 62  48.75 62  L 11.25 62  C 8.151041666666666 62  5.501302083333334 60.86306423611111  3.30078125 58.58919270833333  C 1.1002604166666665 56.315321180555564  0 53.577256944444436  0 50.375  L 0 11.625  C 0 8.422743055555546  1.1002604166666665 5.684678819444439  3.30078125 3.4108072916666687  C 5.501302083333334 1.136935763888885  8.151041666666666 0  11.25 0  L 48.75 0  C 51.84895833333334 0  54.49869791666667 1.136935763888885  56.69921875 3.4108072916666687  Z " fill-rule="nonzero" fill="rgba(129, 193, 75, 0.9921568627450981)" stroke="none" transform="matrix(1 0 0 1 146 276 )" class="fill" />
    <path d="M 49.2578125 35.399739583333336  C 49.75260416666667 34.88845486111111  50 34.28298611111111  50 33.583333333333336  L 50 28.416666666666668  C 50 27.717013888888886  49.75260416666667 27.111545138888886  49.2578125 26.600260416666668  C 48.763020833333336 26.088975694444446  48.177083333333336 25.833333333333332  47.5 26  L 35 26  L 35 12.91666666666667  C 35 12.217013888888886  34.75260416666667 11.611545138888886  34.2578125 11.10026041666667  C 33.763020833333336 10.58897569444444  33.177083333333336 10.33333333333333  32.5 10.33333333333333  L 27.5 10.33333333333333  C 26.82291666666667 10.33333333333333  26.23697916666667 10.58897569444444  25.7421875 11.10026041666667  C 25.247395833333336 11.611545138888886  25 12.217013888888886  25 12.91666666666667  L 25 26  L 12.5 26  C 11.822916666666668 25.833333333333332  11.236979166666668 26.088975694444446  10.7421875 26.600260416666668  C 10.247395833333336 27.111545138888886  10 27.717013888888886  10 28.416666666666668  L 10 33.583333333333336  C 10 34.28298611111111  10.247395833333336 34.88845486111111  10.7421875 35.399739583333336  C 11.236979166666668 35.91102430555556  11.822916666666668 36.166666666666664  12.5 36  L 25 36  L 25 49.08333333333333  C 25 49.78298611111111  25.247395833333336 50.38845486111111  25.7421875 50.89973958333333  C 26.23697916666667 51.411024305555564  26.82291666666667 51.66666666666667  27.5 51.66666666666667  L 32.5 51.66666666666667  C 33.177083333333336 51.66666666666667  33.763020833333336 51.411024305555564  34.2578125 50.89973958333333  C 34.75260416666667 50.38845486111111  35 49.78298611111111  35 49.08333333333333  L 35 36  L 47.5 36  C 48.177083333333336 36.166666666666664  48.763020833333336 35.91102430555556  49.2578125 35.399739583333336  Z " stroke-width="0" stroke-dasharray="0" stroke="rgba(255, 255, 255, 0)" fill="none" transform="matrix(1 0 0 1 146 276 )" class="stroke" mask="url(#Clip416)" />
    <path d="M 56.69921875 3.4108072916666687  C 58.89973958333333 5.684678819444439  60 8.422743055555546  60 11.625  L 60 50.375  C 60 53.577256944444436  58.89973958333333 56.315321180555564  56.69921875 58.58919270833333  C 54.49869791666667 60.86306423611111  51.84895833333334 62  48.75 62  L 11.25 62  C 8.151041666666666 62  5.501302083333334 60.86306423611111  3.30078125 58.58919270833333  C 1.1002604166666665 56.315321180555564  0 53.577256944444436  0 50.375  L 0 11.625  C 0 8.422743055555546  1.1002604166666665 5.684678819444439  3.30078125 3.4108072916666687  C 5.501302083333334 1.136935763888885  8.151041666666666 0  11.25 0  L 48.75 0  C 51.84895833333334 0  54.49869791666667 1.136935763888885  56.69921875 3.4108072916666687  Z " stroke-width="0" stroke-dasharray="0" stroke="rgba(255, 255, 255, 0)" fill="none" transform="matrix(1 0 0 1 146 276 )" class="stroke" mask="url(#Clip416)" />
  </g>
</svg>