<?xml version="1.0" encoding="utf-8"?>
<svg version="1.1" xmlns:xlink="http://www.w3.org/1999/xlink" width="44px" height="44px" xmlns="http://www.w3.org/2000/svg">
  <defs>
    <pattern id="BGPattern" patternUnits="userSpaceOnUse" alignment="0 0" imageRepeat="None" />
    <mask fill="white" id="Clip417">
      <path d="M 7.434983498349835 40.28250825082508  L 10.542574257425741 40.28250825082508  L 13.185478547854785 37.63960396039604  L 6.36039603960396 30.814521452145215  L 3.7174917491749175 33.45742574257426  L 3.7174917491749175 36.56501650165016  L 7.434983498349835 36.56501650165016  L 7.434983498349835 40.28250825082508  Z M 25.528712871287127 13.824422442244224  C 25.664246424642467 13.68888888888889  25.732013201320132 13.524312431243121  25.732013201320132 13.330693069306932  C 25.732013201320132 12.904730473047305  25.51903190319032 12.69174917491749  25.09306930693069 12.69174917491749  C 24.8994499449945 12.69174917491749  24.73487348734874 12.759515951595157  24.5993399339934 12.895049504950496  L 8.858085808580858 28.636303630363038  C 8.722552255225523 28.771837183718368  8.654785478547854 28.93641364136413  8.654785478547854 29.13003300330033  C 8.654785478547854 29.55599559955995  8.86776677667767 29.76897689768977  9.293729372937294 29.76897689768977  C 9.487348734873489 29.76897689768977  9.651925192519252 29.7012101210121  9.787458745874588 29.565676567656766  L 25.528712871287127 13.824422442244224  Z M 0 31.91815181518152  L 24.163696369636963 7.754455445544556  L 36.24554455445544 19.836303630363037  L 12.081848184818481 44  L 0 44  L 0 31.91815181518152  Z M 42.925412541254126 7.899669966996699  C 43.64180418041804 8.654785478547856  44 9.535753575357536  44 10.542574257425741  C 44 11.56875687568757  43.64180418041804 12.440044004400436  42.925412541254126 13.156435643564357  L 38.104290429042905 17.977557755775578  L 26.022442244224422 5.895709570957098  L 30.843564356435643 1.1036303630363014  C 31.54059405940594 0.36787678767876386  32.41188118811881 0  33.45742574257426 0  C 34.48360836083609 0  35.36457645764577 0.36787678767876386  36.1003300330033 1.1036303630363014  L 42.925412541254126 7.899669966996699  Z " fill-rule="evenodd" />
    </mask>
  </defs>
  <g transform="matrix(1 0 0 1 -238 -86 )">
    <path d="M 7.434983498349835 40.28250825082508  L 10.542574257425741 40.28250825082508  L 13.185478547854785 37.63960396039604  L 6.36039603960396 30.814521452145215  L 3.7174917491749175 33.45742574257426  L 3.7174917491749175 36.56501650165016  L 7.434983498349835 36.56501650165016  L 7.434983498349835 40.28250825082508  Z M 25.528712871287127 13.824422442244224  C 25.664246424642467 13.68888888888889  25.732013201320132 13.524312431243121  25.732013201320132 13.330693069306932  C 25.732013201320132 12.904730473047305  25.51903190319032 12.69174917491749  25.09306930693069 12.69174917491749  C 24.8994499449945 12.69174917491749  24.73487348734874 12.759515951595157  24.5993399339934 12.895049504950496  L 8.858085808580858 28.636303630363038  C 8.722552255225523 28.771837183718368  8.654785478547854 28.93641364136413  8.654785478547854 29.13003300330033  C 8.654785478547854 29.55599559955995  8.86776677667767 29.76897689768977  9.293729372937294 29.76897689768977  C 9.487348734873489 29.76897689768977  9.651925192519252 29.7012101210121  9.787458745874588 29.565676567656766  L 25.528712871287127 13.824422442244224  Z M 0 31.91815181518152  L 24.163696369636963 7.754455445544556  L 36.24554455445544 19.836303630363037  L 12.081848184818481 44  L 0 44  L 0 31.91815181518152  Z M 42.925412541254126 7.899669966996699  C 43.64180418041804 8.654785478547856  44 9.535753575357536  44 10.542574257425741  C 44 11.56875687568757  43.64180418041804 12.440044004400436  42.925412541254126 13.156435643564357  L 38.104290429042905 17.977557755775578  L 26.022442244224422 5.895709570957098  L 30.843564356435643 1.1036303630363014  C 31.54059405940594 0.36787678767876386  32.41188118811881 0  33.45742574257426 0  C 34.48360836083609 0  35.36457645764577 0.36787678767876386  36.1003300330033 1.1036303630363014  L 42.925412541254126 7.899669966996699  Z " fill-rule="nonzero" fill="rgba(0, 0, 0, 1)" stroke="none" transform="matrix(1 0 0 1 238 86 )" class="fill" />
    <path d="M 7.434983498349835 40.28250825082508  L 10.542574257425741 40.28250825082508  L 13.185478547854785 37.63960396039604  L 6.36039603960396 30.814521452145215  L 3.7174917491749175 33.45742574257426  L 3.7174917491749175 36.56501650165016  L 7.434983498349835 36.56501650165016  L 7.434983498349835 40.28250825082508  Z " stroke-width="0" stroke-dasharray="0" stroke="rgba(255, 255, 255, 0)" fill="none" transform="matrix(1 0 0 1 238 86 )" class="stroke" mask="url(#Clip417)" />
    <path d="M 25.528712871287127 13.824422442244224  C 25.664246424642467 13.68888888888889  25.732013201320132 13.524312431243121  25.732013201320132 13.330693069306932  C 25.732013201320132 12.904730473047305  25.51903190319032 12.69174917491749  25.09306930693069 12.69174917491749  C 24.8994499449945 12.69174917491749  24.73487348734874 12.759515951595157  24.5993399339934 12.895049504950496  L 8.858085808580858 28.636303630363038  C 8.722552255225523 28.771837183718368  8.654785478547854 28.93641364136413  8.654785478547854 29.13003300330033  C 8.654785478547854 29.55599559955995  8.86776677667767 29.76897689768977  9.293729372937294 29.76897689768977  C 9.487348734873489 29.76897689768977  9.651925192519252 29.7012101210121  9.787458745874588 29.565676567656766  L 25.528712871287127 13.824422442244224  Z " stroke-width="0" stroke-dasharray="0" stroke="rgba(255, 255, 255, 0)" fill="none" transform="matrix(1 0 0 1 238 86 )" class="stroke" mask="url(#Clip417)" />
    <path d="M 0 31.91815181518152  L 24.163696369636963 7.754455445544556  L 36.24554455445544 19.836303630363037  L 12.081848184818481 44  L 0 44  L 0 31.91815181518152  Z " stroke-width="0" stroke-dasharray="0" stroke="rgba(255, 255, 255, 0)" fill="none" transform="matrix(1 0 0 1 238 86 )" class="stroke" mask="url(#Clip417)" />
    <path d="M 42.925412541254126 7.899669966996699  C 43.64180418041804 8.654785478547856  44 9.535753575357536  44 10.542574257425741  C 44 11.56875687568757  43.64180418041804 12.440044004400436  42.925412541254126 13.156435643564357  L 38.104290429042905 17.977557755775578  L 26.022442244224422 5.895709570957098  L 30.843564356435643 1.1036303630363014  C 31.54059405940594 0.36787678767876386  32.41188118811881 0  33.45742574257426 0  C 34.48360836083609 0  35.36457645764577 0.36787678767876386  36.1003300330033 1.1036303630363014  L 42.925412541254126 7.899669966996699  Z " stroke-width="0" stroke-dasharray="0" stroke="rgba(255, 255, 255, 0)" fill="none" transform="matrix(1 0 0 1 238 86 )" class="stroke" mask="url(#Clip417)" />
  </g>
</svg>