<?xml version="1.0" encoding="utf-8"?>
<svg version="1.1" xmlns:xlink="http://www.w3.org/1999/xlink" width="45px" height="45px" xmlns="http://www.w3.org/2000/svg">
  <defs>
    <pattern id="BGPattern" patternUnits="userSpaceOnUse" alignment="0 0" imageRepeat="None" />
    <mask fill="white" id="Clip440">
      <path d="M 18.055245535714285 28.928571428571427  L 15.29296875 20.49107142857143  L 22.5 15.267857142857144  L 29.70703125 20.49107142857143  L 26.96986607142857 28.928571428571427  L 18.055245535714285 28.928571428571427  Z M 13.761160714285715 1.7829241071428563  C 16.540178571428573 0.5943080357142855  19.453125 0  22.5 0  C 25.546875 0  28.45982142857143 0.5943080357142855  31.23883928571429 1.7829241071428563  C 34.017857142857146 2.9715401785714275  36.411830357142854 4.5703125  38.42075892857143 6.579241071428569  C 40.42968750000001 8.588169642857144  42.02845982142858 10.982142857142852  43.217075892857146 13.761160714285714  C 44.40569196428572 16.54017857142857  45 19.453125  45 22.5  C 45 25.546874999999996  44.40569196428572 28.459821428571427  43.217075892857146 31.23883928571429  C 42.02845982142858 34.01785714285714  40.42968750000001 36.411830357142854  38.42075892857143 38.42075892857142  C 36.411830357142854 40.4296875  34.017857142857146 42.02845982142857  31.23883928571429 43.217075892857146  C 28.45982142857143 44.405691964285715  25.546875 45  22.5 45  C 19.453125 45  16.540178571428573 44.405691964285715  13.761160714285715 43.217075892857146  C 10.982142857142858 42.02845982142857  8.588169642857142 40.4296875  6.579241071428572 38.42075892857142  C 4.5703125 36.411830357142854  2.971540178571429 34.01785714285714  1.782924107142857 31.23883928571429  C 0.5943080357142856 28.459821428571427  0 25.546874999999996  0 22.5  C 0 19.453125  0.5943080357142856 16.54017857142857  1.782924107142857 13.761160714285714  C 2.971540178571429 10.982142857142852  4.5703125 8.588169642857144  6.579241071428572 6.579241071428569  C 8.588169642857142 4.5703125  10.982142857142858 2.9715401785714275  13.761160714285715 1.7829241071428563  Z M 37.290736607142854 30.5859375  L 38.04408482142857 33.900669642857146  C 40.53850446428572 30.502232142857142  41.785714285714285 26.702008928571427  41.785714285714285 22.5  L 41.785714285714285 22.42466517857143  L 39.224330357142854 24.65959821428571  L 33.197544642857146 19.03459821428571  L 34.779575892857146 10.923549107142856  L 38.14453125 11.224888392857144  C 35.633370535714285 7.776227678571424  32.377232142857146 5.415736607142855  28.37611607142857 4.143415178571431  L 29.70703125 7.257254464285713  L 22.5 11.25  L 15.29296875 7.257254464285713  L 16.623883928571427 4.143415178571431  C 12.62276785714286 5.415736607142855  9.366629464285715 7.776227678571424  6.85546875 11.224888392857144  L 10.245535714285714 10.923549107142856  L 11.802455357142856 19.03459821428571  L 5.775669642857142 24.65959821428571  L 3.214285714285714 22.42466517857143  L 3.214285714285714 22.5  C 3.214285714285714 26.702008928571427  4.4614955357142865 30.502232142857142  6.955915178571428 33.900669642857146  L 7.709263392857142 30.5859375  L 15.895647321428571 31.59040178571429  L 19.386160714285715 39.073660714285715  L 16.473214285714285 40.806361607142854  C 18.431919642857142 41.459263392857146  20.440848214285715 41.785714285714285  22.5 41.785714285714285  C 24.55915178571429 41.785714285714285  26.568080357142858 41.459263392857146  28.52678571428571 40.806361607142854  L 25.61383928571429 39.073660714285715  L 29.10435267857143 31.59040178571429  L 37.290736607142854 30.5859375  Z " fill-rule="evenodd" />
    </mask>
  </defs>
  <g transform="matrix(1 0 0 1 -48 -91 )">
    <path d="M 18.055245535714285 28.928571428571427  L 15.29296875 20.49107142857143  L 22.5 15.267857142857144  L 29.70703125 20.49107142857143  L 26.96986607142857 28.928571428571427  L 18.055245535714285 28.928571428571427  Z M 13.761160714285715 1.7829241071428563  C 16.540178571428573 0.5943080357142855  19.453125 0  22.5 0  C 25.546875 0  28.45982142857143 0.5943080357142855  31.23883928571429 1.7829241071428563  C 34.017857142857146 2.9715401785714275  36.411830357142854 4.5703125  38.42075892857143 6.579241071428569  C 40.42968750000001 8.588169642857144  42.02845982142858 10.982142857142852  43.217075892857146 13.761160714285714  C 44.40569196428572 16.54017857142857  45 19.453125  45 22.5  C 45 25.546874999999996  44.40569196428572 28.459821428571427  43.217075892857146 31.23883928571429  C 42.02845982142858 34.01785714285714  40.42968750000001 36.411830357142854  38.42075892857143 38.42075892857142  C 36.411830357142854 40.4296875  34.017857142857146 42.02845982142857  31.23883928571429 43.217075892857146  C 28.45982142857143 44.405691964285715  25.546875 45  22.5 45  C 19.453125 45  16.540178571428573 44.405691964285715  13.761160714285715 43.217075892857146  C 10.982142857142858 42.02845982142857  8.588169642857142 40.4296875  6.579241071428572 38.42075892857142  C 4.5703125 36.411830357142854  2.971540178571429 34.01785714285714  1.782924107142857 31.23883928571429  C 0.5943080357142856 28.459821428571427  0 25.546874999999996  0 22.5  C 0 19.453125  0.5943080357142856 16.54017857142857  1.782924107142857 13.761160714285714  C 2.971540178571429 10.982142857142852  4.5703125 8.588169642857144  6.579241071428572 6.579241071428569  C 8.588169642857142 4.5703125  10.982142857142858 2.9715401785714275  13.761160714285715 1.7829241071428563  Z M 37.290736607142854 30.5859375  L 38.04408482142857 33.900669642857146  C 40.53850446428572 30.502232142857142  41.785714285714285 26.702008928571427  41.785714285714285 22.5  L 41.785714285714285 22.42466517857143  L 39.224330357142854 24.65959821428571  L 33.197544642857146 19.03459821428571  L 34.779575892857146 10.923549107142856  L 38.14453125 11.224888392857144  C 35.633370535714285 7.776227678571424  32.377232142857146 5.415736607142855  28.37611607142857 4.143415178571431  L 29.70703125 7.257254464285713  L 22.5 11.25  L 15.29296875 7.257254464285713  L 16.623883928571427 4.143415178571431  C 12.62276785714286 5.415736607142855  9.366629464285715 7.776227678571424  6.85546875 11.224888392857144  L 10.245535714285714 10.923549107142856  L 11.802455357142856 19.03459821428571  L 5.775669642857142 24.65959821428571  L 3.214285714285714 22.42466517857143  L 3.214285714285714 22.5  C 3.214285714285714 26.702008928571427  4.4614955357142865 30.502232142857142  6.955915178571428 33.900669642857146  L 7.709263392857142 30.5859375  L 15.895647321428571 31.59040178571429  L 19.386160714285715 39.073660714285715  L 16.473214285714285 40.806361607142854  C 18.431919642857142 41.459263392857146  20.440848214285715 41.785714285714285  22.5 41.785714285714285  C 24.55915178571429 41.785714285714285  26.568080357142858 41.459263392857146  28.52678571428571 40.806361607142854  L 25.61383928571429 39.073660714285715  L 29.10435267857143 31.59040178571429  L 37.290736607142854 30.5859375  Z " fill-rule="nonzero" fill="rgba(0, 0, 0, 1)" stroke="none" transform="matrix(1 0 0 1 48 91 )" class="fill" />
    <path d="M 18.055245535714285 28.928571428571427  L 15.29296875 20.49107142857143  L 22.5 15.267857142857144  L 29.70703125 20.49107142857143  L 26.96986607142857 28.928571428571427  L 18.055245535714285 28.928571428571427  Z " stroke-width="0" stroke-dasharray="0" stroke="rgba(255, 255, 255, 0)" fill="none" transform="matrix(1 0 0 1 48 91 )" class="stroke" mask="url(#Clip440)" />
    <path d="M 13.761160714285715 1.7829241071428563  C 16.540178571428573 0.5943080357142855  19.453125 0  22.5 0  C 25.546875 0  28.45982142857143 0.5943080357142855  31.23883928571429 1.7829241071428563  C 34.017857142857146 2.9715401785714275  36.411830357142854 4.5703125  38.42075892857143 6.579241071428569  C 40.42968750000001 8.588169642857144  42.02845982142858 10.982142857142852  43.217075892857146 13.761160714285714  C 44.40569196428572 16.54017857142857  45 19.453125  45 22.5  C 45 25.546874999999996  44.40569196428572 28.459821428571427  43.217075892857146 31.23883928571429  C 42.02845982142858 34.01785714285714  40.42968750000001 36.411830357142854  38.42075892857143 38.42075892857142  C 36.411830357142854 40.4296875  34.017857142857146 42.02845982142857  31.23883928571429 43.217075892857146  C 28.45982142857143 44.405691964285715  25.546875 45  22.5 45  C 19.453125 45  16.540178571428573 44.405691964285715  13.761160714285715 43.217075892857146  C 10.982142857142858 42.02845982142857  8.588169642857142 40.4296875  6.579241071428572 38.42075892857142  C 4.5703125 36.411830357142854  2.971540178571429 34.01785714285714  1.782924107142857 31.23883928571429  C 0.5943080357142856 28.459821428571427  0 25.546874999999996  0 22.5  C 0 19.453125  0.5943080357142856 16.54017857142857  1.782924107142857 13.761160714285714  C 2.971540178571429 10.982142857142852  4.5703125 8.588169642857144  6.579241071428572 6.579241071428569  C 8.588169642857142 4.5703125  10.982142857142858 2.9715401785714275  13.761160714285715 1.7829241071428563  Z " stroke-width="0" stroke-dasharray="0" stroke="rgba(255, 255, 255, 0)" fill="none" transform="matrix(1 0 0 1 48 91 )" class="stroke" mask="url(#Clip440)" />
    <path d="M 37.290736607142854 30.5859375  L 38.04408482142857 33.900669642857146  C 40.53850446428572 30.502232142857142  41.785714285714285 26.702008928571427  41.785714285714285 22.5  L 41.785714285714285 22.42466517857143  L 39.224330357142854 24.65959821428571  L 33.197544642857146 19.03459821428571  L 34.779575892857146 10.923549107142856  L 38.14453125 11.224888392857144  C 35.633370535714285 7.776227678571424  32.377232142857146 5.415736607142855  28.37611607142857 4.143415178571431  L 29.70703125 7.257254464285713  L 22.5 11.25  L 15.29296875 7.257254464285713  L 16.623883928571427 4.143415178571431  C 12.62276785714286 5.415736607142855  9.366629464285715 7.776227678571424  6.85546875 11.224888392857144  L 10.245535714285714 10.923549107142856  L 11.802455357142856 19.03459821428571  L 5.775669642857142 24.65959821428571  L 3.214285714285714 22.42466517857143  L 3.214285714285714 22.5  C 3.214285714285714 26.702008928571427  4.4614955357142865 30.502232142857142  6.955915178571428 33.900669642857146  L 7.709263392857142 30.5859375  L 15.895647321428571 31.59040178571429  L 19.386160714285715 39.073660714285715  L 16.473214285714285 40.806361607142854  C 18.431919642857142 41.459263392857146  20.440848214285715 41.785714285714285  22.5 41.785714285714285  C 24.55915178571429 41.785714285714285  26.568080357142858 41.459263392857146  28.52678571428571 40.806361607142854  L 25.61383928571429 39.073660714285715  L 29.10435267857143 31.59040178571429  L 37.290736607142854 30.5859375  Z " stroke-width="0" stroke-dasharray="0" stroke="rgba(255, 255, 255, 0)" fill="none" transform="matrix(1 0 0 1 48 91 )" class="stroke" mask="url(#Clip440)" />
  </g>
</svg>