<?xml version="1.0" encoding="utf-8"?>
<svg version="1.1" xmlns:xlink="http://www.w3.org/1999/xlink" width="49px" height="42px" xmlns="http://www.w3.org/2000/svg">
  <defs>
    <pattern id="BGPattern" patternUnits="userSpaceOnUse" alignment="0 0" imageRepeat="None" />
    <mask fill="white" id="Clip441">
      <path d="M 40.359375 22.531249999999996  C 43.786458333333336 19.104166666666664  45.5 15.859374999999998  45.5 12.796875  C 45.5 11.3203125  45.304036458333336 10.016927083333332  44.912109375 8.886718749999998  C 44.52018229166667 7.756510416666661  44.01888020833334 6.858723958333331  43.408203125 6.193359375  C 42.79752604166667 5.527994791666664  42.05468750000001 4.985677083333333  41.1796875 4.566406250000002  C 40.3046875 4.147135416666661  39.44791666666667 3.8645833333333313  38.609375 3.7187499999999982  C 37.770833333333336 3.5729166666666607  36.87760416666667 3.5000000000000018  35.9296875 3.5000000000000018  C 34.981770833333336 3.5000000000000018  33.9609375 3.732421875  32.8671875 4.197265625000002  C 31.7734375 4.662109374999998  30.766276041666668 5.2454427083333295  29.845703124999996 5.947265625  C 28.92513020833334 6.649088541666661  28.13671875 7.305338541666661  27.480468750000004 7.916015625  C 26.824218750000004 8.52669270833333  26.277343750000004 9.087239583333332  25.83984375 9.59765625  C 25.511718750000004 9.998697916666664  25.065104166666668 10.199218749999998  24.5 10.199218749999998  C 23.934895833333336 10.199218749999998  23.48828125 9.998697916666664  23.16015625 9.59765625  C 22.72265625 9.087239583333332  22.17578125 8.52669270833333  21.51953125 7.916015625  C 20.86328125 7.305338541666661  20.074869791666668 6.649088541666661  19.154296875 5.947265625  C 18.233723958333336 5.2454427083333295  17.2265625 4.662109374999998  16.1328125 4.197265625000002  C 15.0390625 3.732421875  14.01822916666667 3.5000000000000018  13.070312500000002 3.5000000000000018  C 12.122395833333334 3.5000000000000018  11.22916666666667 3.5729166666666607  10.390625 3.7187499999999982  C 9.552083333333334 3.8645833333333313  8.6953125 4.147135416666661  7.820312499999999 4.566406250000002  C 6.9453125 4.985677083333333  6.202473958333333 5.527994791666664  5.591796875 6.193359375  C 4.981119791666667 6.858723958333331  4.479817708333333 7.756510416666661  4.087890625 8.886718749999998  C 3.6959635416666674 10.016927083333332  3.5 11.3203125  3.5 12.796875  C 3.5 15.859374999999998  5.204427083333334 19.095052083333332  8.61328125 22.503906250000004  L 24.5 37.81640625  L 40.359375 22.531249999999996  Z M 45.52734375 3.3906249999999982  C 47.84244791666667 5.651041666666664  49 8.786458333333332  49 12.796875  C 49 16.825520833333332  46.91276041666667 20.927083333333332  42.73828125 25.1015625  L 25.703125 41.5078125  C 25.375000000000004 41.8359375  24.973958333333336 42  24.5 42  C 24.026041666666668 42  23.625000000000004 41.8359375  23.296875 41.5078125  L 6.234375 25.046875000000004  C 6.052083333333334 24.901041666666664  5.801432291666668 24.664062499999996  5.482421875 24.335937499999996  C 5.163411458333334 24.007812499999996  4.657552083333334 23.410807291666668  3.96484375 22.544921875000004  C 3.2721354166666665 21.67903645833333  2.65234375 20.79036458333333  2.10546875 19.87890625  C 1.55859375 18.967447916666668  1.0709635416666667 17.864583333333332  0.642578125 16.5703125  C 0.21419270833333334 15.276041666666663  0 14.018229166666664  0 12.796875  C 0 8.786458333333332  1.157552083333333 5.651041666666664  3.47265625 3.3906249999999982  C 5.787760416666667 1.1302083333333328  8.986979166666666 0  13.070312500000002 0  C 14.200520833333334 0  15.353515624999998 0.19596354166666408  16.529296875 0.5878906250000016  C 17.705078125 0.9798177083333297  18.798828125 1.508463541666664  19.810546875 2.173828125  C 20.822265625000004 2.8391927083333313  21.69270833333334 3.4635416666666625  22.421875 4.046874999999998  C 23.151041666666668 4.6302083333333295  23.84375 5.25  24.5 5.90625  C 25.156249999999996 5.25  25.848958333333336 4.6302083333333295  26.578125 4.046874999999998  C 27.30729166666667 3.4635416666666625  28.177734375 2.8391927083333313  29.189453125 2.173828125  C 30.201171875 1.508463541666664  31.294921875 0.9798177083333297  32.470703125 0.5878906250000016  C 33.646484375 0.19596354166666408  34.79947916666667 0  35.9296875 0  C 40.013020833333336 0  43.212239583333336 1.1302083333333328  45.52734375 3.3906249999999982  Z " fill-rule="evenodd" />
    </mask>
  </defs>
  <g transform="matrix(1 0 0 1 -46 -191 )">
    <path d="M 40.359375 22.531249999999996  C 43.786458333333336 19.104166666666664  45.5 15.859374999999998  45.5 12.796875  C 45.5 11.3203125  45.304036458333336 10.016927083333332  44.912109375 8.886718749999998  C 44.52018229166667 7.756510416666661  44.01888020833334 6.858723958333331  43.408203125 6.193359375  C 42.79752604166667 5.527994791666664  42.05468750000001 4.985677083333333  41.1796875 4.566406250000002  C 40.3046875 4.147135416666661  39.44791666666667 3.8645833333333313  38.609375 3.7187499999999982  C 37.770833333333336 3.5729166666666607  36.87760416666667 3.5000000000000018  35.9296875 3.5000000000000018  C 34.981770833333336 3.5000000000000018  33.9609375 3.732421875  32.8671875 4.197265625000002  C 31.7734375 4.662109374999998  30.766276041666668 5.2454427083333295  29.845703124999996 5.947265625  C 28.92513020833334 6.649088541666661  28.13671875 7.305338541666661  27.480468750000004 7.916015625  C 26.824218750000004 8.52669270833333  26.277343750000004 9.087239583333332  25.83984375 9.59765625  C 25.511718750000004 9.998697916666664  25.065104166666668 10.199218749999998  24.5 10.199218749999998  C 23.934895833333336 10.199218749999998  23.48828125 9.998697916666664  23.16015625 9.59765625  C 22.72265625 9.087239583333332  22.17578125 8.52669270833333  21.51953125 7.916015625  C 20.86328125 7.305338541666661  20.074869791666668 6.649088541666661  19.154296875 5.947265625  C 18.233723958333336 5.2454427083333295  17.2265625 4.662109374999998  16.1328125 4.197265625000002  C 15.0390625 3.732421875  14.01822916666667 3.5000000000000018  13.070312500000002 3.5000000000000018  C 12.122395833333334 3.5000000000000018  11.22916666666667 3.5729166666666607  10.390625 3.7187499999999982  C 9.552083333333334 3.8645833333333313  8.6953125 4.147135416666661  7.820312499999999 4.566406250000002  C 6.9453125 4.985677083333333  6.202473958333333 5.527994791666664  5.591796875 6.193359375  C 4.981119791666667 6.858723958333331  4.479817708333333 7.756510416666661  4.087890625 8.886718749999998  C 3.6959635416666674 10.016927083333332  3.5 11.3203125  3.5 12.796875  C 3.5 15.859374999999998  5.204427083333334 19.095052083333332  8.61328125 22.503906250000004  L 24.5 37.81640625  L 40.359375 22.531249999999996  Z M 45.52734375 3.3906249999999982  C 47.84244791666667 5.651041666666664  49 8.786458333333332  49 12.796875  C 49 16.825520833333332  46.91276041666667 20.927083333333332  42.73828125 25.1015625  L 25.703125 41.5078125  C 25.375000000000004 41.8359375  24.973958333333336 42  24.5 42  C 24.026041666666668 42  23.625000000000004 41.8359375  23.296875 41.5078125  L 6.234375 25.046875000000004  C 6.052083333333334 24.901041666666664  5.801432291666668 24.664062499999996  5.482421875 24.335937499999996  C 5.163411458333334 24.007812499999996  4.657552083333334 23.410807291666668  3.96484375 22.544921875000004  C 3.2721354166666665 21.67903645833333  2.65234375 20.79036458333333  2.10546875 19.87890625  C 1.55859375 18.967447916666668  1.0709635416666667 17.864583333333332  0.642578125 16.5703125  C 0.21419270833333334 15.276041666666663  0 14.018229166666664  0 12.796875  C 0 8.786458333333332  1.157552083333333 5.651041666666664  3.47265625 3.3906249999999982  C 5.787760416666667 1.1302083333333328  8.986979166666666 0  13.070312500000002 0  C 14.200520833333334 0  15.353515624999998 0.19596354166666408  16.529296875 0.5878906250000016  C 17.705078125 0.9798177083333297  18.798828125 1.508463541666664  19.810546875 2.173828125  C 20.822265625000004 2.8391927083333313  21.69270833333334 3.4635416666666625  22.421875 4.046874999999998  C 23.151041666666668 4.6302083333333295  23.84375 5.25  24.5 5.90625  C 25.156249999999996 5.25  25.848958333333336 4.6302083333333295  26.578125 4.046874999999998  C 27.30729166666667 3.4635416666666625  28.177734375 2.8391927083333313  29.189453125 2.173828125  C 30.201171875 1.508463541666664  31.294921875 0.9798177083333297  32.470703125 0.5878906250000016  C 33.646484375 0.19596354166666408  34.79947916666667 0  35.9296875 0  C 40.013020833333336 0  43.212239583333336 1.1302083333333328  45.52734375 3.3906249999999982  Z " fill-rule="nonzero" fill="rgba(0, 0, 0, 1)" stroke="none" transform="matrix(1 0 0 1 46 191 )" class="fill" />
    <path d="M 40.359375 22.531249999999996  C 43.786458333333336 19.104166666666664  45.5 15.859374999999998  45.5 12.796875  C 45.5 11.3203125  45.304036458333336 10.016927083333332  44.912109375 8.886718749999998  C 44.52018229166667 7.756510416666661  44.01888020833334 6.858723958333331  43.408203125 6.193359375  C 42.79752604166667 5.527994791666664  42.05468750000001 4.985677083333333  41.1796875 4.566406250000002  C 40.3046875 4.147135416666661  39.44791666666667 3.8645833333333313  38.609375 3.7187499999999982  C 37.770833333333336 3.5729166666666607  36.87760416666667 3.5000000000000018  35.9296875 3.5000000000000018  C 34.981770833333336 3.5000000000000018  33.9609375 3.732421875  32.8671875 4.197265625000002  C 31.7734375 4.662109374999998  30.766276041666668 5.2454427083333295  29.845703124999996 5.947265625  C 28.92513020833334 6.649088541666661  28.13671875 7.305338541666661  27.480468750000004 7.916015625  C 26.824218750000004 8.52669270833333  26.277343750000004 9.087239583333332  25.83984375 9.59765625  C 25.511718750000004 9.998697916666664  25.065104166666668 10.199218749999998  24.5 10.199218749999998  C 23.934895833333336 10.199218749999998  23.48828125 9.998697916666664  23.16015625 9.59765625  C 22.72265625 9.087239583333332  22.17578125 8.52669270833333  21.51953125 7.916015625  C 20.86328125 7.305338541666661  20.074869791666668 6.649088541666661  19.154296875 5.947265625  C 18.233723958333336 5.2454427083333295  17.2265625 4.662109374999998  16.1328125 4.197265625000002  C 15.0390625 3.732421875  14.01822916666667 3.5000000000000018  13.070312500000002 3.5000000000000018  C 12.122395833333334 3.5000000000000018  11.22916666666667 3.5729166666666607  10.390625 3.7187499999999982  C 9.552083333333334 3.8645833333333313  8.6953125 4.147135416666661  7.820312499999999 4.566406250000002  C 6.9453125 4.985677083333333  6.202473958333333 5.527994791666664  5.591796875 6.193359375  C 4.981119791666667 6.858723958333331  4.479817708333333 7.756510416666661  4.087890625 8.886718749999998  C 3.6959635416666674 10.016927083333332  3.5 11.3203125  3.5 12.796875  C 3.5 15.859374999999998  5.204427083333334 19.095052083333332  8.61328125 22.503906250000004  L 24.5 37.81640625  L 40.359375 22.531249999999996  Z " stroke-width="2" stroke-dasharray="0" stroke="rgba(0, 0, 0, 1)" fill="none" transform="matrix(1 0 0 1 46 191 )" class="stroke" mask="url(#Clip441)" />
    <path d="M 45.52734375 3.3906249999999982  C 47.84244791666667 5.651041666666664  49 8.786458333333332  49 12.796875  C 49 16.825520833333332  46.91276041666667 20.927083333333332  42.73828125 25.1015625  L 25.703125 41.5078125  C 25.375000000000004 41.8359375  24.973958333333336 42  24.5 42  C 24.026041666666668 42  23.625000000000004 41.8359375  23.296875 41.5078125  L 6.234375 25.046875000000004  C 6.052083333333334 24.901041666666664  5.801432291666668 24.664062499999996  5.482421875 24.335937499999996  C 5.163411458333334 24.007812499999996  4.657552083333334 23.410807291666668  3.96484375 22.544921875000004  C 3.2721354166666665 21.67903645833333  2.65234375 20.79036458333333  2.10546875 19.87890625  C 1.55859375 18.967447916666668  1.0709635416666667 17.864583333333332  0.642578125 16.5703125  C 0.21419270833333334 15.276041666666663  0 14.018229166666664  0 12.796875  C 0 8.786458333333332  1.157552083333333 5.651041666666664  3.47265625 3.3906249999999982  C 5.787760416666667 1.1302083333333328  8.986979166666666 0  13.070312500000002 0  C 14.200520833333334 0  15.353515624999998 0.19596354166666408  16.529296875 0.5878906250000016  C 17.705078125 0.9798177083333297  18.798828125 1.508463541666664  19.810546875 2.173828125  C 20.822265625000004 2.8391927083333313  21.69270833333334 3.4635416666666625  22.421875 4.046874999999998  C 23.151041666666668 4.6302083333333295  23.84375 5.25  24.5 5.90625  C 25.156249999999996 5.25  25.848958333333336 4.6302083333333295  26.578125 4.046874999999998  C 27.30729166666667 3.4635416666666625  28.177734375 2.8391927083333313  29.189453125 2.173828125  C 30.201171875 1.508463541666664  31.294921875 0.9798177083333297  32.470703125 0.5878906250000016  C 33.646484375 0.19596354166666408  34.79947916666667 0  35.9296875 0  C 40.013020833333336 0  43.212239583333336 1.1302083333333328  45.52734375 3.3906249999999982  Z " stroke-width="2" stroke-dasharray="0" stroke="rgba(0, 0, 0, 1)" fill="none" transform="matrix(1 0 0 1 46 191 )" class="stroke" mask="url(#Clip441)" />
  </g>
</svg>