<?xml version="1.0" encoding="utf-8"?>
<svg version="1.1" xmlns:xlink="http://www.w3.org/1999/xlink" width="30px" height="38px" xmlns="http://www.w3.org/2000/svg">
  <defs>
    <pattern id="BGPattern" patternUnits="userSpaceOnUse" alignment="0 0" imageRepeat="None" />
    <mask fill="white" id="Clip442">
      <path d="M 13.23153409090909 0.4029017857142869  C 13.501420454545457 0.6715029761904712  13.636363636363637 0.9895833333333319  14 1.3571428571428565  L 14 14.92857142857143  C 13.636363636363637 15.790922619047615  13.384232954545457 16.575520833333332  12.87997159090909 17.28236607142857  C 12.375710227272728 17.989211309523807  11.71875 18.484002976190474  11 18.76674107142857  L 11 35.285714285714285  C 10.90909090909091 36.020833333333336  10.639204545454547 36.65699404761905  10.099431818181818 37.19419642857143  C 9.559659090909092 37.73139880952381  8.920454545454547 38  8.181818181818182 38  L 5.454545454545455 38  C 4.715909090909092 38  4.076704545454547 37.73139880952381  3.5369318181818183 37.19419642857143  C 2.9971590909090913 36.65699404761905  2.7272727272727275 36.020833333333336  3 35.285714285714285  L 3 18.76674107142857  C 1.9176136363636362 18.484002976190474  1.2606534090909092 17.989211309523807  0.7563920454545454 17.28236607142857  C 0.2521306818181818 16.575520833333332  0 15.790922619047615  0 14.92857142857143  L 0 1.3571428571428565  C 0 0.9895833333333319  0.1349431818181818 0.6715029761904712  0.40482954545454547 0.4029017857142869  C 0.6747159090909092 0.13430059523809845  0.994318181818182 0  1.3636363636363638 0  C 1.7329545454545456 0  2.0525568181818183 0.13430059523809845  2.3224431818181817 0.4029017857142869  C 2.5923295454545454 0.6715029761904712  2.7272727272727275 0.9895833333333319  2.7272727272727275 1.3571428571428565  L 2.7272727272727275 10.17857142857143  C 2.7272727272727275 10.54613095238095  2.862215909090909 10.864211309523807  3.1321022727272725 11.1328125  C 3.4019886363636367 11.401413690476188  3.7215909090909096 11.535714285714286  4.090909090909091 11.535714285714286  C 4.460227272727273 11.535714285714286  4.779829545454546 11.401413690476188  5.049715909090909 11.1328125  C 5.319602272727273 10.864211309523807  5.454545454545455 10.54613095238095  5.454545454545455 10.17857142857143  L 5.454545454545455 1.3571428571428565  C 5.454545454545455 0.9895833333333319  5.589488636363637 0.6715029761904712  5.859375 0.4029017857142869  C 6.129261363636364 0.13430059523809845  6.448863636363637 0  6.818181818181818 0  C 7.187500000000001 0  7.507102272727273 0.13430059523809845  7.776988636363636 0.4029017857142869  C 8.046874999999998 0.6715029761904712  8.181818181818182 0.9895833333333319  8.181818181818182 1.3571428571428565  L 8.181818181818182 10.17857142857143  C 8.181818181818182 10.54613095238095  8.316761363636363 10.864211309523807  8.586647727272727 11.1328125  C 8.856534090909092 11.401413690476188  9.176136363636365 11.535714285714286  9.545454545454545 11.535714285714286  C 9.914772727272728 11.535714285714286  10.234375000000002 11.401413690476188  10.504261363636363 11.1328125  C 10.774147727272727 10.864211309523807  10.90909090909091 10.54613095238095  10.90909090909091 10.17857142857143  L 10.90909090909091 1.3571428571428565  C 10.90909090909091 0.9895833333333319  11.044034090909092 0.6715029761904712  11.313920454545455 0.4029017857142869  C 11.58380681818182 0.13430059523809845  11.903409090909093 0  12.272727272727273 0  C 12.642045454545455 0  12.961647727272728 0.13430059523809845  13.23153409090909 0.4029017857142869  Z M 29.595170454545453 0.4029017857142869  C 29.86505681818182 0.6715029761904712  30 0.9895833333333319  30 1.3571428571428565  L 30 35.285714285714285  C 30 36.020833333333336  29.73011363636364 36.65699404761905  29.19034090909091 37.19419642857143  C 28.650568181818183 37.73139880952381  28.011363636363637 38  27.272727272727273 38  L 24.545454545454547 38  C 23.806818181818187 38  23.16761363636364 37.73139880952381  22.62784090909091 37.19419642857143  C 22.088068181818183 36.65699404761905  21.81818181818182 36.020833333333336  21.81818181818182 35.285714285714285  L 21.81818181818182 24.428571428571427  L 17.045454545454547 24.428571428571427  C 16.860795454545453 24.428571428571427  16.70099431818182 24.361421130952387  16.566051136363637 24.22712053571429  C 16.431107954545457 24.09281994047619  16.363636363636363 23.93377976190476  16 23.75  L 16 6.7857142857142865  C 16.363636363636363 4.919642857142857  17.031249999999996 3.3221726190476146  18.366477272727273 1.9933035714285696  C 19.701704545454547 0.6644345238095288  21.30681818181818 0  23.18181818181818 0  L 28.636363636363637 0  C 29.00568181818182 0  29.325284090909093 0.13430059523809845  29.595170454545453 0.4029017857142869  Z " fill-rule="evenodd" />
    </mask>
  </defs>
  <g transform="matrix(1 0 0 1 -55 -291 )">
    <path d="M 13.23153409090909 0.4029017857142869  C 13.501420454545457 0.6715029761904712  13.636363636363637 0.9895833333333319  14 1.3571428571428565  L 14 14.92857142857143  C 13.636363636363637 15.790922619047615  13.384232954545457 16.575520833333332  12.87997159090909 17.28236607142857  C 12.375710227272728 17.989211309523807  11.71875 18.484002976190474  11 18.76674107142857  L 11 35.285714285714285  C 10.90909090909091 36.020833333333336  10.639204545454547 36.65699404761905  10.099431818181818 37.19419642857143  C 9.559659090909092 37.73139880952381  8.920454545454547 38  8.181818181818182 38  L 5.454545454545455 38  C 4.715909090909092 38  4.076704545454547 37.73139880952381  3.5369318181818183 37.19419642857143  C 2.9971590909090913 36.65699404761905  2.7272727272727275 36.020833333333336  3 35.285714285714285  L 3 18.76674107142857  C 1.9176136363636362 18.484002976190474  1.2606534090909092 17.989211309523807  0.7563920454545454 17.28236607142857  C 0.2521306818181818 16.575520833333332  0 15.790922619047615  0 14.92857142857143  L 0 1.3571428571428565  C 0 0.9895833333333319  0.1349431818181818 0.6715029761904712  0.40482954545454547 0.4029017857142869  C 0.6747159090909092 0.13430059523809845  0.994318181818182 0  1.3636363636363638 0  C 1.7329545454545456 0  2.0525568181818183 0.13430059523809845  2.3224431818181817 0.4029017857142869  C 2.5923295454545454 0.6715029761904712  2.7272727272727275 0.9895833333333319  2.7272727272727275 1.3571428571428565  L 2.7272727272727275 10.17857142857143  C 2.7272727272727275 10.54613095238095  2.862215909090909 10.864211309523807  3.1321022727272725 11.1328125  C 3.4019886363636367 11.401413690476188  3.7215909090909096 11.535714285714286  4.090909090909091 11.535714285714286  C 4.460227272727273 11.535714285714286  4.779829545454546 11.401413690476188  5.049715909090909 11.1328125  C 5.319602272727273 10.864211309523807  5.454545454545455 10.54613095238095  5.454545454545455 10.17857142857143  L 5.454545454545455 1.3571428571428565  C 5.454545454545455 0.9895833333333319  5.589488636363637 0.6715029761904712  5.859375 0.4029017857142869  C 6.129261363636364 0.13430059523809845  6.448863636363637 0  6.818181818181818 0  C 7.187500000000001 0  7.507102272727273 0.13430059523809845  7.776988636363636 0.4029017857142869  C 8.046874999999998 0.6715029761904712  8.181818181818182 0.9895833333333319  8.181818181818182 1.3571428571428565  L 8.181818181818182 10.17857142857143  C 8.181818181818182 10.54613095238095  8.316761363636363 10.864211309523807  8.586647727272727 11.1328125  C 8.856534090909092 11.401413690476188  9.176136363636365 11.535714285714286  9.545454545454545 11.535714285714286  C 9.914772727272728 11.535714285714286  10.234375000000002 11.401413690476188  10.504261363636363 11.1328125  C 10.774147727272727 10.864211309523807  10.90909090909091 10.54613095238095  10.90909090909091 10.17857142857143  L 10.90909090909091 1.3571428571428565  C 10.90909090909091 0.9895833333333319  11.044034090909092 0.6715029761904712  11.313920454545455 0.4029017857142869  C 11.58380681818182 0.13430059523809845  11.903409090909093 0  12.272727272727273 0  C 12.642045454545455 0  12.961647727272728 0.13430059523809845  13.23153409090909 0.4029017857142869  Z M 29.595170454545453 0.4029017857142869  C 29.86505681818182 0.6715029761904712  30 0.9895833333333319  30 1.3571428571428565  L 30 35.285714285714285  C 30 36.020833333333336  29.73011363636364 36.65699404761905  29.19034090909091 37.19419642857143  C 28.650568181818183 37.73139880952381  28.011363636363637 38  27.272727272727273 38  L 24.545454545454547 38  C 23.806818181818187 38  23.16761363636364 37.73139880952381  22.62784090909091 37.19419642857143  C 22.088068181818183 36.65699404761905  21.81818181818182 36.020833333333336  21.81818181818182 35.285714285714285  L 21.81818181818182 24.428571428571427  L 17.045454545454547 24.428571428571427  C 16.860795454545453 24.428571428571427  16.70099431818182 24.361421130952387  16.566051136363637 24.22712053571429  C 16.431107954545457 24.09281994047619  16.363636363636363 23.93377976190476  16 23.75  L 16 6.7857142857142865  C 16.363636363636363 4.919642857142857  17.031249999999996 3.3221726190476146  18.366477272727273 1.9933035714285696  C 19.701704545454547 0.6644345238095288  21.30681818181818 0  23.18181818181818 0  L 28.636363636363637 0  C 29.00568181818182 0  29.325284090909093 0.13430059523809845  29.595170454545453 0.4029017857142869  Z " fill-rule="nonzero" fill="rgba(0, 0, 0, 1)" stroke="none" transform="matrix(1 0 0 1 55 291 )" class="fill" />
    <path d="M 13.23153409090909 0.4029017857142869  C 13.501420454545457 0.6715029761904712  13.636363636363637 0.9895833333333319  14 1.3571428571428565  L 14 14.92857142857143  C 13.636363636363637 15.790922619047615  13.384232954545457 16.575520833333332  12.87997159090909 17.28236607142857  C 12.375710227272728 17.989211309523807  11.71875 18.484002976190474  11 18.76674107142857  L 11 35.285714285714285  C 10.90909090909091 36.020833333333336  10.639204545454547 36.65699404761905  10.099431818181818 37.19419642857143  C 9.559659090909092 37.73139880952381  8.920454545454547 38  8.181818181818182 38  L 5.454545454545455 38  C 4.715909090909092 38  4.076704545454547 37.73139880952381  3.5369318181818183 37.19419642857143  C 2.9971590909090913 36.65699404761905  2.7272727272727275 36.020833333333336  3 35.285714285714285  L 3 18.76674107142857  C 1.9176136363636362 18.484002976190474  1.2606534090909092 17.989211309523807  0.7563920454545454 17.28236607142857  C 0.2521306818181818 16.575520833333332  0 15.790922619047615  0 14.92857142857143  L 0 1.3571428571428565  C 0 0.9895833333333319  0.1349431818181818 0.6715029761904712  0.40482954545454547 0.4029017857142869  C 0.6747159090909092 0.13430059523809845  0.994318181818182 0  1.3636363636363638 0  C 1.7329545454545456 0  2.0525568181818183 0.13430059523809845  2.3224431818181817 0.4029017857142869  C 2.5923295454545454 0.6715029761904712  2.7272727272727275 0.9895833333333319  2.7272727272727275 1.3571428571428565  L 2.7272727272727275 10.17857142857143  C 2.7272727272727275 10.54613095238095  2.862215909090909 10.864211309523807  3.1321022727272725 11.1328125  C 3.4019886363636367 11.401413690476188  3.7215909090909096 11.535714285714286  4.090909090909091 11.535714285714286  C 4.460227272727273 11.535714285714286  4.779829545454546 11.401413690476188  5.049715909090909 11.1328125  C 5.319602272727273 10.864211309523807  5.454545454545455 10.54613095238095  5.454545454545455 10.17857142857143  L 5.454545454545455 1.3571428571428565  C 5.454545454545455 0.9895833333333319  5.589488636363637 0.6715029761904712  5.859375 0.4029017857142869  C 6.129261363636364 0.13430059523809845  6.448863636363637 0  6.818181818181818 0  C 7.187500000000001 0  7.507102272727273 0.13430059523809845  7.776988636363636 0.4029017857142869  C 8.046874999999998 0.6715029761904712  8.181818181818182 0.9895833333333319  8.181818181818182 1.3571428571428565  L 8.181818181818182 10.17857142857143  C 8.181818181818182 10.54613095238095  8.316761363636363 10.864211309523807  8.586647727272727 11.1328125  C 8.856534090909092 11.401413690476188  9.176136363636365 11.535714285714286  9.545454545454545 11.535714285714286  C 9.914772727272728 11.535714285714286  10.234375000000002 11.401413690476188  10.504261363636363 11.1328125  C 10.774147727272727 10.864211309523807  10.90909090909091 10.54613095238095  10.90909090909091 10.17857142857143  L 10.90909090909091 1.3571428571428565  C 10.90909090909091 0.9895833333333319  11.044034090909092 0.6715029761904712  11.313920454545455 0.4029017857142869  C 11.58380681818182 0.13430059523809845  11.903409090909093 0  12.272727272727273 0  C 12.642045454545455 0  12.961647727272728 0.13430059523809845  13.23153409090909 0.4029017857142869  Z " stroke-width="0" stroke-dasharray="0" stroke="rgba(255, 255, 255, 0)" fill="none" transform="matrix(1 0 0 1 55 291 )" class="stroke" mask="url(#Clip442)" />
    <path d="M 29.595170454545453 0.4029017857142869  C 29.86505681818182 0.6715029761904712  30 0.9895833333333319  30 1.3571428571428565  L 30 35.285714285714285  C 30 36.020833333333336  29.73011363636364 36.65699404761905  29.19034090909091 37.19419642857143  C 28.650568181818183 37.73139880952381  28.011363636363637 38  27.272727272727273 38  L 24.545454545454547 38  C 23.806818181818187 38  23.16761363636364 37.73139880952381  22.62784090909091 37.19419642857143  C 22.088068181818183 36.65699404761905  21.81818181818182 36.020833333333336  21.81818181818182 35.285714285714285  L 21.81818181818182 24.428571428571427  L 17.045454545454547 24.428571428571427  C 16.860795454545453 24.428571428571427  16.70099431818182 24.361421130952387  16.566051136363637 24.22712053571429  C 16.431107954545457 24.09281994047619  16.363636363636363 23.93377976190476  16 23.75  L 16 6.7857142857142865  C 16.363636363636363 4.919642857142857  17.031249999999996 3.3221726190476146  18.366477272727273 1.9933035714285696  C 19.701704545454547 0.6644345238095288  21.30681818181818 0  23.18181818181818 0  L 28.636363636363637 0  C 29.00568181818182 0  29.325284090909093 0.13430059523809845  29.595170454545453 0.4029017857142869  Z " stroke-width="0" stroke-dasharray="0" stroke="rgba(255, 255, 255, 0)" fill="none" transform="matrix(1 0 0 1 55 291 )" class="stroke" mask="url(#Clip442)" />
  </g>
</svg>