<?xml version="1.0" encoding="utf-8"?>
<svg version="1.1" xmlns:xlink="http://www.w3.org/1999/xlink" width="50px" height="39px" xmlns="http://www.w3.org/2000/svg">
  <defs>
    <pattern id="BGPattern" patternUnits="userSpaceOnUse" alignment="0 0" imageRepeat="None" />
    <mask fill="white" id="Clip437">
      <path d="M 49.096774193548384 5.383838383838385  C 49.6989247311828 5.996632996632996  50.000000000000014 6.7407407407407405  50 7.616161616161616  C 50.000000000000014 8.491582491582488  49.6989247311828 9.235690235690232  49.096774193548384 9.848484848484848  L 25.74193548387097 33.61616161616161  L 21.35483870967742 38.08080808080808  C 20.752688172043012 38.69360269360269  20.02150537634409 39  19.161290322580644 39  C 18.301075268817204 39  17.56989247311828 38.69360269360269  16.967741935483872 38.08080808080808  L 12.580645161290322 33.61616161616161  L 0.903225806451613 21.732323232323235  C 0.3010752688172046 21.119528619528616  0 20.375420875420872  0 19.5  C 0 18.624579124579125  0.3010752688172046 17.88047138047138  0.903225806451613 17.267676767676768  L 5.290322580645161 12.803030303030303  C 5.89247311827957 12.190235690235689  6.623655913978496 11.883838383838379  7.483870967741936 11.883838383838384  C 8.344086021505378 11.883838383838379  9.075268817204302 12.190235690235689  9.67741935483871 12.803030303030303  L 19.161290322580644 22.487373737373737  L 40.32258064516129 0.9191919191919193  C 40.9247311827957 0.306397306397305  41.65591397849463 0  42.516129032258064 0  C 43.376344086021504 0  44.10752688172043 0.306397306397305  44.70967741935484 0.9191919191919193  L 49.096774193548384 5.383838383838385  Z " fill-rule="evenodd" />
    </mask>
  </defs>
  <g transform="matrix(1 0 0 1 -274 -469 )">
    <path d="M 49.096774193548384 5.383838383838385  C 49.6989247311828 5.996632996632996  50.000000000000014 6.7407407407407405  50 7.616161616161616  C 50.000000000000014 8.491582491582488  49.6989247311828 9.235690235690232  49.096774193548384 9.848484848484848  L 25.74193548387097 33.61616161616161  L 21.35483870967742 38.08080808080808  C 20.752688172043012 38.69360269360269  20.02150537634409 39  19.161290322580644 39  C 18.301075268817204 39  17.56989247311828 38.69360269360269  16.967741935483872 38.08080808080808  L 12.580645161290322 33.61616161616161  L 0.903225806451613 21.732323232323235  C 0.3010752688172046 21.119528619528616  0 20.375420875420872  0 19.5  C 0 18.624579124579125  0.3010752688172046 17.88047138047138  0.903225806451613 17.267676767676768  L 5.290322580645161 12.803030303030303  C 5.89247311827957 12.190235690235689  6.623655913978496 11.883838383838379  7.483870967741936 11.883838383838384  C 8.344086021505378 11.883838383838379  9.075268817204302 12.190235690235689  9.67741935483871 12.803030303030303  L 19.161290322580644 22.487373737373737  L 40.32258064516129 0.9191919191919193  C 40.9247311827957 0.306397306397305  41.65591397849463 0  42.516129032258064 0  C 43.376344086021504 0  44.10752688172043 0.306397306397305  44.70967741935484 0.9191919191919193  L 49.096774193548384 5.383838383838385  Z " fill-rule="nonzero" fill="rgba(255, 255, 255, 1)" stroke="none" transform="matrix(1 0 0 1 274 469 )" class="fill" />
    <path d="M 49.096774193548384 5.383838383838385  C 49.6989247311828 5.996632996632996  50.000000000000014 6.7407407407407405  50 7.616161616161616  C 50.000000000000014 8.491582491582488  49.6989247311828 9.235690235690232  49.096774193548384 9.848484848484848  L 25.74193548387097 33.61616161616161  L 21.35483870967742 38.08080808080808  C 20.752688172043012 38.69360269360269  20.02150537634409 39  19.161290322580644 39  C 18.301075268817204 39  17.56989247311828 38.69360269360269  16.967741935483872 38.08080808080808  L 12.580645161290322 33.61616161616161  L 0.903225806451613 21.732323232323235  C 0.3010752688172046 21.119528619528616  0 20.375420875420872  0 19.5  C 0 18.624579124579125  0.3010752688172046 17.88047138047138  0.903225806451613 17.267676767676768  L 5.290322580645161 12.803030303030303  C 5.89247311827957 12.190235690235689  6.623655913978496 11.883838383838379  7.483870967741936 11.883838383838384  C 8.344086021505378 11.883838383838379  9.075268817204302 12.190235690235689  9.67741935483871 12.803030303030303  L 19.161290322580644 22.487373737373737  L 40.32258064516129 0.9191919191919193  C 40.9247311827957 0.306397306397305  41.65591397849463 0  42.516129032258064 0  C 43.376344086021504 0  44.10752688172043 0.306397306397305  44.70967741935484 0.9191919191919193  L 49.096774193548384 5.383838383838385  Z " stroke-width="0" stroke-dasharray="0" stroke="rgba(255, 255, 255, 0)" fill="none" transform="matrix(1 0 0 1 274 469 )" class="stroke" mask="url(#Clip437)" />
  </g>
</svg>