<?xml version="1.0" encoding="utf-8"?>
<svg version="1.1" xmlns:xlink="http://www.w3.org/1999/xlink" width="50px" height="37px" xmlns="http://www.w3.org/2000/svg">
  <defs>
    <pattern id="BGPattern" patternUnits="userSpaceOnUse" alignment="0 0" imageRepeat="None" />
    <mask fill="white" id="Clip491">
      <path d="M 33.0859375 19.932173295454547  C 33.25086805555556 19.76574337121212  33.33333333333333 19.5686553030303  33.33333333333333 19.34090909090909  C 33.33333333333333 19.09564393939394  33.255208333333336 18.89417613636364  33.098958333333336 18.73650568181818  L 23.932291666666668 9.48650568181818  C 23.776041666666668 9.328835227272725  23.576388888888893 9.25  23.333333333333332 9.25  C 23.09027777777778 9.25  22.890625000000004 9.328835227272725  22.734375 9.48650568181818  L 13.593749999999998 18.71022727272727  C 13.420138888888891 18.920454545454547  13.333333333333334 19.13068181818182  13.333333333333334 19.34090909090909  C 13.333333333333334 19.586174242424242  13.411458333333334 19.787642045454547  13.567708333333334 19.9453125  C 13.723958333333334 20.102982954545453  13.923611111111114 20.18181818181818  14.166666666666666 20.18181818181818  L 20 20.18181818181818  L 20 29.43181818181818  C 20 29.65956439393939  20.08246527777778 29.85665246212121  20.247395833333336 30.023082386363637  C 20.41232638888889 30.18951231060606  20.60763888888889 30.27272727272727  20.833333333333336 30.27272727272727  L 25.833333333333336 30.27272727272727  C 26.059027777777782 30.27272727272727  26.254340277777782 30.18951231060606  26.419270833333336 30.023082386363637  C 26.58420138888889 29.85665246212121  26.666666666666668 29.65956439393939  26.666666666666668 29.43181818181818  L 26.666666666666668 20.18181818181818  L 32.5 20.18181818181818  C 32.72569444444445 20.18181818181818  32.92100694444445 20.09860321969697  33.0859375 19.932173295454547  Z M 47.825520833333336 20.64169034090909  C 49.275173611111114 22.472419507575758  50.000000000000014 24.561553030303028  50 26.90909090909091  C 50.000000000000014 29.69460227272727  49.02343750000001 32.07279829545455  47.0703125 34.04367897727273  C 45.11718750000001 36.01455965909091  42.76041666666667 37  40 37  L 11.666666666666666 37  C 8.45486111111111 37  5.707465277777779 35.848129734848484  3.424479166666667 33.54438920454545  C 1.1414930555555556 31.240648674242422  0 28.46827651515152  0 25.22727272727273  C 0 22.949810606060602  0.607638888888889 20.84753787878788  1.8229166666666667 18.920454545454547  C 3.038194444444444 16.993371212121207  4.670138888888889 15.548058712121206  6.71875 14.584517045454545  C 6.684027777777778 14.058948863636365  6.666666666666667 13.682291666666666  6.666666666666667 13.454545454545455  C 6.666666666666667 9.740530303030301  7.968749999999999 6.569602272727274  10.572916666666666 3.9417613636363646  C 13.177083333333334 1.313920454545455  16.319444444444446 0  20 0  C 22.708333333333336 0  25.18663194444445 0.7620738636363648  27.434895833333332 2.28622159090909  C 29.683159722222225 3.8103693181818197  31.319444444444443 5.83380681818182  32.34375 8.35653409090909  C 33.57638888888889 7.270359848484846  35.017361111111114 6.727272727272726  36.666666666666664 6.727272727272726  C 38.50694444444444 6.727272727272726  40.078125 7.384232954545455  41.380208333333336 8.69815340909091  C 42.682291666666664 10.012073863636365  43.333333333333336 11.597537878787875  43.333333333333336 13.454545454545455  C 43.333333333333336 14.785984848484846  42.97743055555556 15.994791666666666  42.265625 17.08096590909091  C 44.52256944444445 17.62405303030303  46.37586805555556 18.810961174242422  47.825520833333336 20.64169034090909  Z " fill-rule="evenodd" />
    </mask>
  </defs>
  <g transform="matrix(1 0 0 1 -50 -485 )">
    <path d="M 33.0859375 19.932173295454547  C 33.25086805555556 19.76574337121212  33.33333333333333 19.5686553030303  33.33333333333333 19.34090909090909  C 33.33333333333333 19.09564393939394  33.255208333333336 18.89417613636364  33.098958333333336 18.73650568181818  L 23.932291666666668 9.48650568181818  C 23.776041666666668 9.328835227272725  23.576388888888893 9.25  23.333333333333332 9.25  C 23.09027777777778 9.25  22.890625000000004 9.328835227272725  22.734375 9.48650568181818  L 13.593749999999998 18.71022727272727  C 13.420138888888891 18.920454545454547  13.333333333333334 19.13068181818182  13.333333333333334 19.34090909090909  C 13.333333333333334 19.586174242424242  13.411458333333334 19.787642045454547  13.567708333333334 19.9453125  C 13.723958333333334 20.102982954545453  13.923611111111114 20.18181818181818  14.166666666666666 20.18181818181818  L 20 20.18181818181818  L 20 29.43181818181818  C 20 29.65956439393939  20.08246527777778 29.85665246212121  20.247395833333336 30.023082386363637  C 20.41232638888889 30.18951231060606  20.60763888888889 30.27272727272727  20.833333333333336 30.27272727272727  L 25.833333333333336 30.27272727272727  C 26.059027777777782 30.27272727272727  26.254340277777782 30.18951231060606  26.419270833333336 30.023082386363637  C 26.58420138888889 29.85665246212121  26.666666666666668 29.65956439393939  26.666666666666668 29.43181818181818  L 26.666666666666668 20.18181818181818  L 32.5 20.18181818181818  C 32.72569444444445 20.18181818181818  32.92100694444445 20.09860321969697  33.0859375 19.932173295454547  Z M 47.825520833333336 20.64169034090909  C 49.275173611111114 22.472419507575758  50.000000000000014 24.561553030303028  50 26.90909090909091  C 50.000000000000014 29.69460227272727  49.02343750000001 32.07279829545455  47.0703125 34.04367897727273  C 45.11718750000001 36.01455965909091  42.76041666666667 37  40 37  L 11.666666666666666 37  C 8.45486111111111 37  5.707465277777779 35.848129734848484  3.424479166666667 33.54438920454545  C 1.1414930555555556 31.240648674242422  0 28.46827651515152  0 25.22727272727273  C 0 22.949810606060602  0.607638888888889 20.84753787878788  1.8229166666666667 18.920454545454547  C 3.038194444444444 16.993371212121207  4.670138888888889 15.548058712121206  6.71875 14.584517045454545  C 6.684027777777778 14.058948863636365  6.666666666666667 13.682291666666666  6.666666666666667 13.454545454545455  C 6.666666666666667 9.740530303030301  7.968749999999999 6.569602272727274  10.572916666666666 3.9417613636363646  C 13.177083333333334 1.313920454545455  16.319444444444446 0  20 0  C 22.708333333333336 0  25.18663194444445 0.7620738636363648  27.434895833333332 2.28622159090909  C 29.683159722222225 3.8103693181818197  31.319444444444443 5.83380681818182  32.34375 8.35653409090909  C 33.57638888888889 7.270359848484846  35.017361111111114 6.727272727272726  36.666666666666664 6.727272727272726  C 38.50694444444444 6.727272727272726  40.078125 7.384232954545455  41.380208333333336 8.69815340909091  C 42.682291666666664 10.012073863636365  43.333333333333336 11.597537878787875  43.333333333333336 13.454545454545455  C 43.333333333333336 14.785984848484846  42.97743055555556 15.994791666666666  42.265625 17.08096590909091  C 44.52256944444445 17.62405303030303  46.37586805555556 18.810961174242422  47.825520833333336 20.64169034090909  Z " fill-rule="nonzero" fill="rgba(255, 255, 255, 1)" stroke="none" transform="matrix(1 0 0 1 50 485 )" class="fill" />
    <path d="M 33.0859375 19.932173295454547  C 33.25086805555556 19.76574337121212  33.33333333333333 19.5686553030303  33.33333333333333 19.34090909090909  C 33.33333333333333 19.09564393939394  33.255208333333336 18.89417613636364  33.098958333333336 18.73650568181818  L 23.932291666666668 9.48650568181818  C 23.776041666666668 9.328835227272725  23.576388888888893 9.25  23.333333333333332 9.25  C 23.09027777777778 9.25  22.890625000000004 9.328835227272725  22.734375 9.48650568181818  L 13.593749999999998 18.71022727272727  C 13.420138888888891 18.920454545454547  13.333333333333334 19.13068181818182  13.333333333333334 19.34090909090909  C 13.333333333333334 19.586174242424242  13.411458333333334 19.787642045454547  13.567708333333334 19.9453125  C 13.723958333333334 20.102982954545453  13.923611111111114 20.18181818181818  14.166666666666666 20.18181818181818  L 20 20.18181818181818  L 20 29.43181818181818  C 20 29.65956439393939  20.08246527777778 29.85665246212121  20.247395833333336 30.023082386363637  C 20.41232638888889 30.18951231060606  20.60763888888889 30.27272727272727  20.833333333333336 30.27272727272727  L 25.833333333333336 30.27272727272727  C 26.059027777777782 30.27272727272727  26.254340277777782 30.18951231060606  26.419270833333336 30.023082386363637  C 26.58420138888889 29.85665246212121  26.666666666666668 29.65956439393939  26.666666666666668 29.43181818181818  L 26.666666666666668 20.18181818181818  L 32.5 20.18181818181818  C 32.72569444444445 20.18181818181818  32.92100694444445 20.09860321969697  33.0859375 19.932173295454547  Z " stroke-width="0" stroke-dasharray="0" stroke="rgba(255, 255, 255, 0)" fill="none" transform="matrix(1 0 0 1 50 485 )" class="stroke" mask="url(#Clip491)" />
    <path d="M 47.825520833333336 20.64169034090909  C 49.275173611111114 22.472419507575758  50.000000000000014 24.561553030303028  50 26.90909090909091  C 50.000000000000014 29.69460227272727  49.02343750000001 32.07279829545455  47.0703125 34.04367897727273  C 45.11718750000001 36.01455965909091  42.76041666666667 37  40 37  L 11.666666666666666 37  C 8.45486111111111 37  5.707465277777779 35.848129734848484  3.424479166666667 33.54438920454545  C 1.1414930555555556 31.240648674242422  0 28.46827651515152  0 25.22727272727273  C 0 22.949810606060602  0.607638888888889 20.84753787878788  1.8229166666666667 18.920454545454547  C 3.038194444444444 16.993371212121207  4.670138888888889 15.548058712121206  6.71875 14.584517045454545  C 6.684027777777778 14.058948863636365  6.666666666666667 13.682291666666666  6.666666666666667 13.454545454545455  C 6.666666666666667 9.740530303030301  7.968749999999999 6.569602272727274  10.572916666666666 3.9417613636363646  C 13.177083333333334 1.313920454545455  16.319444444444446 0  20 0  C 22.708333333333336 0  25.18663194444445 0.7620738636363648  27.434895833333332 2.28622159090909  C 29.683159722222225 3.8103693181818197  31.319444444444443 5.83380681818182  32.34375 8.35653409090909  C 33.57638888888889 7.270359848484846  35.017361111111114 6.727272727272726  36.666666666666664 6.727272727272726  C 38.50694444444444 6.727272727272726  40.078125 7.384232954545455  41.380208333333336 8.69815340909091  C 42.682291666666664 10.012073863636365  43.333333333333336 11.597537878787875  43.333333333333336 13.454545454545455  C 43.333333333333336 14.785984848484846  42.97743055555556 15.994791666666666  42.265625 17.08096590909091  C 44.52256944444445 17.62405303030303  46.37586805555556 18.810961174242422  47.825520833333336 20.64169034090909  Z " stroke-width="0" stroke-dasharray="0" stroke="rgba(255, 255, 255, 0)" fill="none" transform="matrix(1 0 0 1 50 485 )" class="stroke" mask="url(#Clip491)" />
  </g>
</svg>