<?xml version="1.0" encoding="utf-8"?>
<svg version="1.1" xmlns:xlink="http://www.w3.org/1999/xlink" width="50px" height="36px" xmlns="http://www.w3.org/2000/svg">
  <defs>
    <pattern id="BGPattern" patternUnits="userSpaceOnUse" alignment="0 0" imageRepeat="None" />
    <mask fill="white" id="Clip489">
      <path d="M 48.911830357142854 1.0406250000000008  C 49.637276785714285 1.3593749999999987  50 1.9124999999999992  50 2.6999999999999984  L 50 33.300000000000004  C 50 34.0875  49.637276785714285 34.640625  48.911830357142854 34.959375  C 48.67001488095239 35.053124999999994  48.43750000000001 35.1  48.214285714285715 35.1  C 47.71205357142858 35.1  47.29352678571429 34.921875  46.958705357142854 34.565625000000004  L 35.714285714285715 23.23125  L 35.714285714285715 27.900000000000002  C 35.714285714285715 30.131249999999998  34.92838541666667 32.0390625  33.35658482142857 33.6234375  C 31.784784226190478 35.207812499999996  29.8921130952381 36  27.67857142857143 36  L 8.035714285714286 36  C 5.8221726190476195 36  3.929501488095238 35.207812499999996  2.357700892857143 33.6234375  C 0.7859002976190476 32.0390625  0 30.131249999999998  0 27.900000000000002  L 0 8.1  C 0 5.868749999999994  0.7859002976190476 3.9609374999999987  2.357700892857143 2.376562500000001  C 3.929501488095238 0.7921874999999949  5.8221726190476195 0  8.035714285714286 0  L 27.67857142857143 0  C 29.8921130952381 0  31.784784226190478 0.7921874999999949  33.35658482142857 2.376562500000001  C 34.92838541666667 3.9609374999999987  35.714285714285715 5.868749999999994  35.714285714285715 8.1  L 35.714285714285715 12.740625  L 46.958705357142854 1.4343749999999984  C 47.29352678571429 1.0781249999999987  47.71205357142858 0.9000000000000008  48.214285714285715 0.9000000000000008  C 48.43750000000001 0.9000000000000008  48.67001488095239 0.9468749999999941  48.911830357142854 1.0406250000000008  Z " fill-rule="evenodd" />
    </mask>
  </defs>
  <g transform="matrix(1 0 0 1 -57 -319 )">
    <path d="M 48.911830357142854 1.0406250000000008  C 49.637276785714285 1.3593749999999987  50 1.9124999999999992  50 2.6999999999999984  L 50 33.300000000000004  C 50 34.0875  49.637276785714285 34.640625  48.911830357142854 34.959375  C 48.67001488095239 35.053124999999994  48.43750000000001 35.1  48.214285714285715 35.1  C 47.71205357142858 35.1  47.29352678571429 34.921875  46.958705357142854 34.565625000000004  L 35.714285714285715 23.23125  L 35.714285714285715 27.900000000000002  C 35.714285714285715 30.131249999999998  34.92838541666667 32.0390625  33.35658482142857 33.6234375  C 31.784784226190478 35.207812499999996  29.8921130952381 36  27.67857142857143 36  L 8.035714285714286 36  C 5.8221726190476195 36  3.929501488095238 35.207812499999996  2.357700892857143 33.6234375  C 0.7859002976190476 32.0390625  0 30.131249999999998  0 27.900000000000002  L 0 8.1  C 0 5.868749999999994  0.7859002976190476 3.9609374999999987  2.357700892857143 2.376562500000001  C 3.929501488095238 0.7921874999999949  5.8221726190476195 0  8.035714285714286 0  L 27.67857142857143 0  C 29.8921130952381 0  31.784784226190478 0.7921874999999949  33.35658482142857 2.376562500000001  C 34.92838541666667 3.9609374999999987  35.714285714285715 5.868749999999994  35.714285714285715 8.1  L 35.714285714285715 12.740625  L 46.958705357142854 1.4343749999999984  C 47.29352678571429 1.0781249999999987  47.71205357142858 0.9000000000000008  48.214285714285715 0.9000000000000008  C 48.43750000000001 0.9000000000000008  48.67001488095239 0.9468749999999941  48.911830357142854 1.0406250000000008  Z " fill-rule="nonzero" fill="rgba(255, 255, 255, 1)" stroke="none" transform="matrix(1 0 0 1 57 319 )" class="fill" />
    <path d="M 48.911830357142854 1.0406250000000008  C 49.637276785714285 1.3593749999999987  50 1.9124999999999992  50 2.6999999999999984  L 50 33.300000000000004  C 50 34.0875  49.637276785714285 34.640625  48.911830357142854 34.959375  C 48.67001488095239 35.053124999999994  48.43750000000001 35.1  48.214285714285715 35.1  C 47.71205357142858 35.1  47.29352678571429 34.921875  46.958705357142854 34.565625000000004  L 35.714285714285715 23.23125  L 35.714285714285715 27.900000000000002  C 35.714285714285715 30.131249999999998  34.92838541666667 32.0390625  33.35658482142857 33.6234375  C 31.784784226190478 35.207812499999996  29.8921130952381 36  27.67857142857143 36  L 8.035714285714286 36  C 5.8221726190476195 36  3.929501488095238 35.207812499999996  2.357700892857143 33.6234375  C 0.7859002976190476 32.0390625  0 30.131249999999998  0 27.900000000000002  L 0 8.1  C 0 5.868749999999994  0.7859002976190476 3.9609374999999987  2.357700892857143 2.376562500000001  C 3.929501488095238 0.7921874999999949  5.8221726190476195 0  8.035714285714286 0  L 27.67857142857143 0  C 29.8921130952381 0  31.784784226190478 0.7921874999999949  33.35658482142857 2.376562500000001  C 34.92838541666667 3.9609374999999987  35.714285714285715 5.868749999999994  35.714285714285715 8.1  L 35.714285714285715 12.740625  L 46.958705357142854 1.4343749999999984  C 47.29352678571429 1.0781249999999987  47.71205357142858 0.9000000000000008  48.214285714285715 0.9000000000000008  C 48.43750000000001 0.9000000000000008  48.67001488095239 0.9468749999999941  48.911830357142854 1.0406250000000008  Z " stroke-width="0" stroke-dasharray="0" stroke="rgba(255, 255, 255, 0)" fill="none" transform="matrix(1 0 0 1 57 319 )" class="stroke" mask="url(#Clip489)" />
  </g>
</svg>