<?xml version="1.0" encoding="utf-8"?>
<svg version="1.1" xmlns:xlink="http://www.w3.org/1999/xlink" width="300px" height="206px" xmlns="http://www.w3.org/2000/svg">
  <defs>
    <pattern id="BGPattern" patternUnits="userSpaceOnUse" alignment="0 0" imageRepeat="None" />
    <mask fill="white" id="Clip492">
      <path d="M 0 206  L 0 0  L 300 0  L 300 206  L 0 206  Z " fill-rule="evenodd" />
    </mask>
  </defs>
  <g transform="matrix(1 0 0 1 -32 -319 )">
    <path d="M 0 206  L 0 0  L 300 0  L 300 206  L 0 206  Z " fill-rule="nonzero" fill="rgba(242, 242, 242, 1)" stroke="none" transform="matrix(1 0 0 1 32 319 )" class="fill" />
    <path d="M 0 206  L 0 0  L 300 0  L 300 206  L 0 206  Z " stroke-width="2" stroke-dasharray="0" stroke="rgba(121, 121, 121, 1)" fill="none" transform="matrix(1 0 0 1 32 319 )" class="stroke" mask="url(#Clip492)" />
    <path d="M 299.39973604437404 0.41218124952984286  L 0.6002639556259848 205.58781875047015  M 0.6002639556259848 0.41218124952984286  L 299.39973604437404 205.58781875047015  " stroke-width="1" stroke-dasharray="0" stroke="rgba(121, 121, 121, 1)" fill="none" transform="matrix(1 0 0 1 32 319 )" class="stroke" />
  </g>
</svg>