<?xml version="1.0" encoding="utf-8"?>
<svg version="1.1" xmlns:xlink="http://www.w3.org/1999/xlink" width="41px" height="33px" xmlns="http://www.w3.org/2000/svg">
  <defs>
    <pattern id="BGPattern" patternUnits="userSpaceOnUse" alignment="0 0" imageRepeat="None" />
    <mask fill="white" id="Clip429">
      <path d="M 40.259354838709676 4.555555555555557  C 40.7531182795699 5.074074074074073  41.00000000000001 5.703703703703703  41 6.444444444444445  C 41.00000000000001 7.185185185185182  40.7531182795699 7.814814814814812  40.259354838709676 8.333333333333332  L 21.108387096774194 28.444444444444443  L 17.510967741935485 32.22222222222222  C 17.01720430107527 32.74074074074074  16.417634408602154 33  15.71225806451613 33  C 15.006881720430108 33  14.40731182795699 32.74074074074074  13.913548387096775 32.22222222222222  L 10.316129032258063 28.444444444444443  L 0.7406451612903227 18.388888888888893  C 0.24688172043010778 17.870370370370367  0 17.240740740740737  0 16.5  C 0 15.75925925925926  0.24688172043010778 15.129629629629628  0.7406451612903227 14.611111111111112  L 4.338064516129032 10.833333333333334  C 4.8318279569892475 10.314814814814813  5.431397849462367 10.055555555555552  6.136774193548388 10.055555555555555  C 6.84215053763441 10.055555555555552  7.4417204301075275 10.314814814814813  7.935483870967742 10.833333333333334  L 15.71225806451613 19.027777777777775  L 33.064516129032256 0.7777777777777779  C 33.55827956989248 0.2592592592592581  34.1578494623656 0  34.86322580645162 0  C 35.568602150537636 0  36.168172043010756 0.2592592592592581  36.66193548387097 0.7777777777777779  L 40.259354838709676 4.555555555555557  Z " fill-rule="evenodd" />
    </mask>
  </defs>
  <g transform="matrix(1 0 0 1 -160 -523 )">
    <path d="M 40.259354838709676 4.555555555555557  C 40.7531182795699 5.074074074074073  41.00000000000001 5.703703703703703  41 6.444444444444445  C 41.00000000000001 7.185185185185182  40.7531182795699 7.814814814814812  40.259354838709676 8.333333333333332  L 21.108387096774194 28.444444444444443  L 17.510967741935485 32.22222222222222  C 17.01720430107527 32.74074074074074  16.417634408602154 33  15.71225806451613 33  C 15.006881720430108 33  14.40731182795699 32.74074074074074  13.913548387096775 32.22222222222222  L 10.316129032258063 28.444444444444443  L 0.7406451612903227 18.388888888888893  C 0.24688172043010778 17.870370370370367  0 17.240740740740737  0 16.5  C 0 15.75925925925926  0.24688172043010778 15.129629629629628  0.7406451612903227 14.611111111111112  L 4.338064516129032 10.833333333333334  C 4.8318279569892475 10.314814814814813  5.431397849462367 10.055555555555552  6.136774193548388 10.055555555555555  C 6.84215053763441 10.055555555555552  7.4417204301075275 10.314814814814813  7.935483870967742 10.833333333333334  L 15.71225806451613 19.027777777777775  L 33.064516129032256 0.7777777777777779  C 33.55827956989248 0.2592592592592581  34.1578494623656 0  34.86322580645162 0  C 35.568602150537636 0  36.168172043010756 0.2592592592592581  36.66193548387097 0.7777777777777779  L 40.259354838709676 4.555555555555557  Z " fill-rule="nonzero" fill="rgba(255, 255, 255, 1)" stroke="none" transform="matrix(1 0 0 1 160 523 )" class="fill" />
    <path d="M 40.259354838709676 4.555555555555557  C 40.7531182795699 5.074074074074073  41.00000000000001 5.703703703703703  41 6.444444444444445  C 41.00000000000001 7.185185185185182  40.7531182795699 7.814814814814812  40.259354838709676 8.333333333333332  L 21.108387096774194 28.444444444444443  L 17.510967741935485 32.22222222222222  C 17.01720430107527 32.74074074074074  16.417634408602154 33  15.71225806451613 33  C 15.006881720430108 33  14.40731182795699 32.74074074074074  13.913548387096775 32.22222222222222  L 10.316129032258063 28.444444444444443  L 0.7406451612903227 18.388888888888893  C 0.24688172043010778 17.870370370370367  0 17.240740740740737  0 16.5  C 0 15.75925925925926  0.24688172043010778 15.129629629629628  0.7406451612903227 14.611111111111112  L 4.338064516129032 10.833333333333334  C 4.8318279569892475 10.314814814814813  5.431397849462367 10.055555555555552  6.136774193548388 10.055555555555555  C 6.84215053763441 10.055555555555552  7.4417204301075275 10.314814814814813  7.935483870967742 10.833333333333334  L 15.71225806451613 19.027777777777775  L 33.064516129032256 0.7777777777777779  C 33.55827956989248 0.2592592592592581  34.1578494623656 0  34.86322580645162 0  C 35.568602150537636 0  36.168172043010756 0.2592592592592581  36.66193548387097 0.7777777777777779  L 40.259354838709676 4.555555555555557  Z " stroke-width="0" stroke-dasharray="0" stroke="rgba(255, 255, 255, 0)" fill="none" transform="matrix(1 0 0 1 160 523 )" class="stroke" mask="url(#Clip429)" />
  </g>
</svg>