<?xml version="1.0" encoding="utf-8"?>
<svg version="1.1" xmlns:xlink="http://www.w3.org/1999/xlink" width="72px" height="72px" xmlns="http://www.w3.org/2000/svg">
  <defs>
    <pattern id="BGPattern" patternUnits="userSpaceOnUse" alignment="0 0" imageRepeat="None" />
    <mask fill="white" id="Clip430">
      <path d="M 0 36  C 0 15.839999999999998  15.839999999999998 0  36 0  C 56.160000000000004 0  72 15.839999999999998  72 36  C 72 56.160000000000004  56.160000000000004 72  36 72  C 15.839999999999998 72  0 56.160000000000004  0 36  Z " fill-rule="evenodd" />
    </mask>
  </defs>
  <g transform="matrix(1 0 0 1 -39 -423 )">
    <path d="M 0 36  C 0 15.839999999999998  15.839999999999998 0  36 0  C 56.160000000000004 0  72 15.839999999999998  72 36  C 72 56.160000000000004  56.160000000000004 72  36 72  C 15.839999999999998 72  0 56.160000000000004  0 36  Z " fill-rule="nonzero" fill="rgba(245, 154, 35, 0.8274509803921568)" stroke="none" transform="matrix(1 0 0 1 39 423 )" class="fill" />
    <path d="M 0 36  C 0 15.839999999999998  15.839999999999998 0  36 0  C 56.160000000000004 0  72 15.839999999999998  72 36  C 72 56.160000000000004  56.160000000000004 72  36 72  C 15.839999999999998 72  0 56.160000000000004  0 36  Z " stroke-width="2" stroke-dasharray="0" stroke="rgba(0, 0, 0, 1)" fill="none" transform="matrix(1 0 0 1 39 423 )" class="stroke" mask="url(#Clip430)" />
  </g>
</svg>