<?xml version="1.0" encoding="utf-8"?>
<svg version="1.1" xmlns:xlink="http://www.w3.org/1999/xlink" width="329px" height="350px" xmlns="http://www.w3.org/2000/svg">
  <defs>
    <pattern id="BGPattern" patternUnits="userSpaceOnUse" alignment="0 0" imageRepeat="None" />
    <mask fill="white" id="Clip466">
      <path d="M 0 350  L 0 0  L 329 0  L 329 350  L 0 350  Z " fill-rule="evenodd" />
    </mask>
  </defs>
  <g transform="matrix(1 0 0 1 -16 -155 )">
    <path d="M 0 350  L 0 0  L 329 0  L 329 350  L 0 350  Z " fill-rule="nonzero" fill="rgba(242, 242, 242, 1)" stroke="none" transform="matrix(1 0 0 1 16 155 )" class="fill" />
    <path d="M 0 350  L 0 0  L 329 0  L 329 350  L 0 350  Z " stroke-width="2" stroke-dasharray="0" stroke="rgba(121, 121, 121, 1)" fill="none" transform="matrix(1 0 0 1 16 155 )" class="stroke" mask="url(#Clip466)" />
    <path d="M 328.635686165549 0.38756790899042937  L 0.3643138344510036 349.61243209100957  M 0.3643138344510036 0.38756790899042937  L 328.635686165549 349.61243209100957  " stroke-width="1" stroke-dasharray="0" stroke="rgba(121, 121, 121, 1)" fill="none" transform="matrix(1 0 0 1 16 155 )" class="stroke" />
  </g>
</svg>