<?xml version="1.0" encoding="utf-8"?>
<svg version="1.1" xmlns:xlink="http://www.w3.org/1999/xlink" width="25px" height="27px" xmlns="http://www.w3.org/2000/svg">
  <defs>
    <pattern id="BGPattern" patternUnits="userSpaceOnUse" alignment="0 0" imageRepeat="None" />
    <mask fill="white" id="Clip424">
      <path d="M 24.448029891304348 10.822528883183569  C 24.816009963768114 11.255776636713737  25 11.778562259306803  25 12.390885750962772  L 25 14.609114249037228  C 25 15.221437740693196  24.816009963768114 15.744223363286263  24.448029891304348 16.17747111681643  C 24.080049818840582 16.6107188703466  23.601675724637683 16.827342747111683  23.012907608695652 16.827342747111683  L 11.056385869565217 16.827342747111683  L 16.032608695652172 21.922336328626443  C 16.462862318840582 22.338254172015404  16.677989130434785 22.858151476251603  16.677989130434785 23.482028241335044  C 16.677989130434785 24.105905006418485  16.462862318840582 24.625802310654684  16.032608695652172 25.041720154043645  L 14.758831521739129 26.358793324775352  C 14.339900362318842 26.786264441591786  13.830389492753623 27  13.230298913043478 27  C 12.64153079710145 27  12.126358695652174 26.786264441591786  11.684782608695652 26.358793324775352  L 0.6283967391304348 15.059691912708601  C 0.20946557971014507 14.632220795892168  0 14.112323491655967  0 13.5  C 0 12.899229781771503  0.20946557971014507 12.373555840821567  0.6283967391304348 11.922978177150192  L 11.684782608695652 0.6585365853658542  C 12.115036231884059 0.21951219512194942  12.630208333333334 0  13.230298913043478 0  C 13.819067028985508 0  14.328577898550726 0.21951219512194942  14.758831521739129 0.6585365853658542  L 16.032608695652172 1.9409499358151474  C 16.462862318840582 2.379974326059049  16.677989130434785 2.9056482670089823  16.677989130434785 3.517971758664955  C 16.677989130434785 4.130295250320922  16.462862318840582 4.655969191270858  16.032608695652172 5.094993581514763  L 11.056385869565217 10.17265725288832  L 23.012907608695652 10.17265725288832  C 23.601675724637683 10.17265725288832  24.080049818840582 10.389281129653401  24.448029891304348 10.822528883183569  Z " fill-rule="evenodd" />
    </mask>
  </defs>
  <g transform="matrix(1 0 0 1 -130 -387 )">
    <path d="M 24.448029891304348 10.822528883183569  C 24.816009963768114 11.255776636713737  25 11.778562259306803  25 12.390885750962772  L 25 14.609114249037228  C 25 15.221437740693196  24.816009963768114 15.744223363286263  24.448029891304348 16.17747111681643  C 24.080049818840582 16.6107188703466  23.601675724637683 16.827342747111683  23.012907608695652 16.827342747111683  L 11.056385869565217 16.827342747111683  L 16.032608695652172 21.922336328626443  C 16.462862318840582 22.338254172015404  16.677989130434785 22.858151476251603  16.677989130434785 23.482028241335044  C 16.677989130434785 24.105905006418485  16.462862318840582 24.625802310654684  16.032608695652172 25.041720154043645  L 14.758831521739129 26.358793324775352  C 14.339900362318842 26.786264441591786  13.830389492753623 27  13.230298913043478 27  C 12.64153079710145 27  12.126358695652174 26.786264441591786  11.684782608695652 26.358793324775352  L 0.6283967391304348 15.059691912708601  C 0.20946557971014507 14.632220795892168  0 14.112323491655967  0 13.5  C 0 12.899229781771503  0.20946557971014507 12.373555840821567  0.6283967391304348 11.922978177150192  L 11.684782608695652 0.6585365853658542  C 12.115036231884059 0.21951219512194942  12.630208333333334 0  13.230298913043478 0  C 13.819067028985508 0  14.328577898550726 0.21951219512194942  14.758831521739129 0.6585365853658542  L 16.032608695652172 1.9409499358151474  C 16.462862318840582 2.379974326059049  16.677989130434785 2.9056482670089823  16.677989130434785 3.517971758664955  C 16.677989130434785 4.130295250320922  16.462862318840582 4.655969191270858  16.032608695652172 5.094993581514763  L 11.056385869565217 10.17265725288832  L 23.012907608695652 10.17265725288832  C 23.601675724637683 10.17265725288832  24.080049818840582 10.389281129653401  24.448029891304348 10.822528883183569  Z " fill-rule="nonzero" fill="rgba(0, 0, 0, 1)" stroke="none" transform="matrix(1 0 0 1 130 387 )" class="fill" />
    <path d="M 24.448029891304348 10.822528883183569  C 24.816009963768114 11.255776636713737  25 11.778562259306803  25 12.390885750962772  L 25 14.609114249037228  C 25 15.221437740693196  24.816009963768114 15.744223363286263  24.448029891304348 16.17747111681643  C 24.080049818840582 16.6107188703466  23.601675724637683 16.827342747111683  23.012907608695652 16.827342747111683  L 11.056385869565217 16.827342747111683  L 16.032608695652172 21.922336328626443  C 16.462862318840582 22.338254172015404  16.677989130434785 22.858151476251603  16.677989130434785 23.482028241335044  C 16.677989130434785 24.105905006418485  16.462862318840582 24.625802310654684  16.032608695652172 25.041720154043645  L 14.758831521739129 26.358793324775352  C 14.339900362318842 26.786264441591786  13.830389492753623 27  13.230298913043478 27  C 12.64153079710145 27  12.126358695652174 26.786264441591786  11.684782608695652 26.358793324775352  L 0.6283967391304348 15.059691912708601  C 0.20946557971014507 14.632220795892168  0 14.112323491655967  0 13.5  C 0 12.899229781771503  0.20946557971014507 12.373555840821567  0.6283967391304348 11.922978177150192  L 11.684782608695652 0.6585365853658542  C 12.115036231884059 0.21951219512194942  12.630208333333334 0  13.230298913043478 0  C 13.819067028985508 0  14.328577898550726 0.21951219512194942  14.758831521739129 0.6585365853658542  L 16.032608695652172 1.9409499358151474  C 16.462862318840582 2.379974326059049  16.677989130434785 2.9056482670089823  16.677989130434785 3.517971758664955  C 16.677989130434785 4.130295250320922  16.462862318840582 4.655969191270858  16.032608695652172 5.094993581514763  L 11.056385869565217 10.17265725288832  L 23.012907608695652 10.17265725288832  C 23.601675724637683 10.17265725288832  24.080049818840582 10.389281129653401  24.448029891304348 10.822528883183569  Z " stroke-width="0" stroke-dasharray="0" stroke="rgba(255, 255, 255, 0)" fill="none" transform="matrix(1 0 0 1 130 387 )" class="stroke" mask="url(#Clip424)" />
  </g>
</svg>