<?xml version="1.0" encoding="utf-8"?>
<svg version="1.1" xmlns:xlink="http://www.w3.org/1999/xlink" width="50px" height="42px" xmlns="http://www.w3.org/2000/svg">
  <defs>
    <pattern id="BGPattern" patternUnits="userSpaceOnUse" alignment="0 0" imageRepeat="None" />
    <mask fill="white" id="Clip428">
      <path d="M 49.096774193548384 5.797979797979799  C 49.6989247311828 6.457912457912457  50.000000000000014 7.259259259259259  50 8.202020202020202  C 50.000000000000014 9.14478114478114  49.6989247311828 9.946127946127943  49.096774193548384 10.606060606060604  L 25.74193548387097 36.2020202020202  L 21.35483870967742 41.01010101010101  C 20.752688172043012 41.670033670033675  20.02150537634409 42  19.161290322580644 42  C 18.301075268817204 42  17.56989247311828 41.670033670033675  16.967741935483872 41.01010101010101  L 12.580645161290322 36.2020202020202  L 0.903225806451613 23.40404040404041  C 0.3010752688172046 22.74410774410774  0 21.942760942760938  0 21  C 0 20.057239057239055  0.3010752688172046 19.255892255892256  0.903225806451613 18.5959595959596  L 5.290322580645161 13.787878787878789  C 5.89247311827957 13.127946127946126  6.623655913978496 12.797979797979794  7.483870967741936 12.797979797979798  C 8.344086021505378 12.797979797979794  9.075268817204302 13.127946127946126  9.67741935483871 13.787878787878789  L 19.161290322580644 24.217171717171716  L 40.32258064516129 0.9898989898989901  C 40.9247311827957 0.32996632996632846  41.65591397849463 0  42.516129032258064 0  C 43.376344086021504 0  44.10752688172043 0.32996632996632846  44.70967741935484 0.9898989898989901  L 49.096774193548384 5.797979797979799  Z " fill-rule="evenodd" />
    </mask>
  </defs>
  <g transform="matrix(1 0 0 1 -299 -62 )">
    <path d="M 49.096774193548384 5.797979797979799  C 49.6989247311828 6.457912457912457  50.000000000000014 7.259259259259259  50 8.202020202020202  C 50.000000000000014 9.14478114478114  49.6989247311828 9.946127946127943  49.096774193548384 10.606060606060604  L 25.74193548387097 36.2020202020202  L 21.35483870967742 41.01010101010101  C 20.752688172043012 41.670033670033675  20.02150537634409 42  19.161290322580644 42  C 18.301075268817204 42  17.56989247311828 41.670033670033675  16.967741935483872 41.01010101010101  L 12.580645161290322 36.2020202020202  L 0.903225806451613 23.40404040404041  C 0.3010752688172046 22.74410774410774  0 21.942760942760938  0 21  C 0 20.057239057239055  0.3010752688172046 19.255892255892256  0.903225806451613 18.5959595959596  L 5.290322580645161 13.787878787878789  C 5.89247311827957 13.127946127946126  6.623655913978496 12.797979797979794  7.483870967741936 12.797979797979798  C 8.344086021505378 12.797979797979794  9.075268817204302 13.127946127946126  9.67741935483871 13.787878787878789  L 19.161290322580644 24.217171717171716  L 40.32258064516129 0.9898989898989901  C 40.9247311827957 0.32996632996632846  41.65591397849463 0  42.516129032258064 0  C 43.376344086021504 0  44.10752688172043 0.32996632996632846  44.70967741935484 0.9898989898989901  L 49.096774193548384 5.797979797979799  Z " fill-rule="nonzero" fill="rgba(0, 0, 0, 1)" stroke="none" transform="matrix(1 0 0 1 299 62 )" class="fill" />
    <path d="M 49.096774193548384 5.797979797979799  C 49.6989247311828 6.457912457912457  50.000000000000014 7.259259259259259  50 8.202020202020202  C 50.000000000000014 9.14478114478114  49.6989247311828 9.946127946127943  49.096774193548384 10.606060606060604  L 25.74193548387097 36.2020202020202  L 21.35483870967742 41.01010101010101  C 20.752688172043012 41.670033670033675  20.02150537634409 42  19.161290322580644 42  C 18.301075268817204 42  17.56989247311828 41.670033670033675  16.967741935483872 41.01010101010101  L 12.580645161290322 36.2020202020202  L 0.903225806451613 23.40404040404041  C 0.3010752688172046 22.74410774410774  0 21.942760942760938  0 21  C 0 20.057239057239055  0.3010752688172046 19.255892255892256  0.903225806451613 18.5959595959596  L 5.290322580645161 13.787878787878789  C 5.89247311827957 13.127946127946126  6.623655913978496 12.797979797979794  7.483870967741936 12.797979797979798  C 8.344086021505378 12.797979797979794  9.075268817204302 13.127946127946126  9.67741935483871 13.787878787878789  L 19.161290322580644 24.217171717171716  L 40.32258064516129 0.9898989898989901  C 40.9247311827957 0.32996632996632846  41.65591397849463 0  42.516129032258064 0  C 43.376344086021504 0  44.10752688172043 0.32996632996632846  44.70967741935484 0.9898989898989901  L 49.096774193548384 5.797979797979799  Z " stroke-width="2" stroke-dasharray="0" stroke="rgba(32, 78, 74, 0.9921568627450981)" fill="none" transform="matrix(1 0 0 1 299 62 )" class="stroke" mask="url(#Clip428)" />
  </g>
</svg>