<?xml version="1.0" encoding="utf-8"?>
<svg version="1.1" xmlns:xlink="http://www.w3.org/1999/xlink" width="154px" height="154px" xmlns="http://www.w3.org/2000/svg">
  <defs>
    <pattern id="BGPattern" patternUnits="userSpaceOnUse" alignment="0 0" imageRepeat="None" />
    <mask fill="white" id="Clip485">
      <path d="M 104.37109375 29.77734375  C 96.01605902777779 24.89800347222222  86.89236111111111 22.45833333333334  77 22.45833333333334  C 67.10763888888889 22.45833333333334  57.98394097222223 24.89800347222222  49.62890625 29.77734375  C 41.27387152777778 34.656684027777764  34.65668402777778 41.273871527777764  29.77734375 49.62890625  C 24.898003472222225 57.98394097222222  22.458333333333336 67.10763888888889  22.458333333333336 77  C 22.458333333333336 86.89236111111111  24.898003472222225 96.01605902777776  29.77734375 104.37109375  C 34.65668402777778 112.7261284722222  41.27387152777778 119.34331597222221  49.62890625 124.22265625  C 57.98394097222223 129.10199652777777  67.10763888888889 131.54166666666666  77 131.54166666666666  C 86.89236111111111 131.54166666666666  96.01605902777779 129.10199652777777  104.37109375 124.22265625  C 112.72612847222224 119.34331597222221  119.34331597222224 112.7261284722222  124.22265625 104.37109375  C 129.10199652777777 96.01605902777776  131.54166666666666 86.89236111111111  131.54166666666666 77  C 131.54166666666666 67.10763888888889  129.10199652777777 57.98394097222222  124.22265625 49.62890625  C 119.34331597222224 41.273871527777764  112.72612847222224 34.656684027777764  104.37109375 29.77734375  Z M 143.67317708333334 38.349609375  C 150.55772569444443 50.146918402777764  154 63.03038194444442  154 77  C 154 90.96961805555556  150.55772569444443 103.8530815972222  143.67317708333334 115.650390625  C 136.78862847222223 127.44769965277779  127.44769965277779 136.78862847222223  115.650390625 143.67317708333334  C 103.85308159722224 150.55772569444446  90.96961805555556 154  77 154  C 63.03038194444445 154  50.14691840277778 150.55772569444446  38.349609375 143.67317708333334  C 26.552300347222225 136.78862847222223  17.21137152777778 127.44769965277779  10.326822916666668 115.650390625  C 3.442274305555555 103.8530815972222  0 90.96961805555556  0 77  C 0 63.03038194444442  3.442274305555555 50.146918402777764  10.326822916666668 38.349609375  C 17.21137152777778 26.55230034722222  26.552300347222225 17.211371527777764  38.349609375 10.32682291666666  C 50.14691840277778 3.442274305555542  63.03038194444445 0  77 0  C 90.96961805555556 0  103.85308159722224 3.442274305555542  115.650390625 10.32682291666666  C 127.44769965277779 17.211371527777764  136.78862847222223 26.55230034722222  143.67317708333334 38.349609375  Z " fill-rule="evenodd" />
    </mask>
  </defs>
  <g transform="matrix(1 0 0 1 -103 -86 )">
    <path d="M 104.37109375 29.77734375  C 96.01605902777779 24.89800347222222  86.89236111111111 22.45833333333334  77 22.45833333333334  C 67.10763888888889 22.45833333333334  57.98394097222223 24.89800347222222  49.62890625 29.77734375  C 41.27387152777778 34.656684027777764  34.65668402777778 41.273871527777764  29.77734375 49.62890625  C 24.898003472222225 57.98394097222222  22.458333333333336 67.10763888888889  22.458333333333336 77  C 22.458333333333336 86.89236111111111  24.898003472222225 96.01605902777776  29.77734375 104.37109375  C 34.65668402777778 112.7261284722222  41.27387152777778 119.34331597222221  49.62890625 124.22265625  C 57.98394097222223 129.10199652777777  67.10763888888889 131.54166666666666  77 131.54166666666666  C 86.89236111111111 131.54166666666666  96.01605902777779 129.10199652777777  104.37109375 124.22265625  C 112.72612847222224 119.34331597222221  119.34331597222224 112.7261284722222  124.22265625 104.37109375  C 129.10199652777777 96.01605902777776  131.54166666666666 86.89236111111111  131.54166666666666 77  C 131.54166666666666 67.10763888888889  129.10199652777777 57.98394097222222  124.22265625 49.62890625  C 119.34331597222224 41.273871527777764  112.72612847222224 34.656684027777764  104.37109375 29.77734375  Z M 143.67317708333334 38.349609375  C 150.55772569444443 50.146918402777764  154 63.03038194444442  154 77  C 154 90.96961805555556  150.55772569444443 103.8530815972222  143.67317708333334 115.650390625  C 136.78862847222223 127.44769965277779  127.44769965277779 136.78862847222223  115.650390625 143.67317708333334  C 103.85308159722224 150.55772569444446  90.96961805555556 154  77 154  C 63.03038194444445 154  50.14691840277778 150.55772569444446  38.349609375 143.67317708333334  C 26.552300347222225 136.78862847222223  17.21137152777778 127.44769965277779  10.326822916666668 115.650390625  C 3.442274305555555 103.8530815972222  0 90.96961805555556  0 77  C 0 63.03038194444442  3.442274305555555 50.146918402777764  10.326822916666668 38.349609375  C 17.21137152777778 26.55230034722222  26.552300347222225 17.211371527777764  38.349609375 10.32682291666666  C 50.14691840277778 3.442274305555542  63.03038194444445 0  77 0  C 90.96961805555556 0  103.85308159722224 3.442274305555542  115.650390625 10.32682291666666  C 127.44769965277779 17.211371527777764  136.78862847222223 26.55230034722222  143.67317708333334 38.349609375  Z " fill-rule="nonzero" fill="rgba(0, 0, 0, 1)" stroke="none" transform="matrix(1 0 0 1 103 86 )" class="fill" />
    <path d="M 104.37109375 29.77734375  C 96.01605902777779 24.89800347222222  86.89236111111111 22.45833333333334  77 22.45833333333334  C 67.10763888888889 22.45833333333334  57.98394097222223 24.89800347222222  49.62890625 29.77734375  C 41.27387152777778 34.656684027777764  34.65668402777778 41.273871527777764  29.77734375 49.62890625  C 24.898003472222225 57.98394097222222  22.458333333333336 67.10763888888889  22.458333333333336 77  C 22.458333333333336 86.89236111111111  24.898003472222225 96.01605902777776  29.77734375 104.37109375  C 34.65668402777778 112.7261284722222  41.27387152777778 119.34331597222221  49.62890625 124.22265625  C 57.98394097222223 129.10199652777777  67.10763888888889 131.54166666666666  77 131.54166666666666  C 86.89236111111111 131.54166666666666  96.01605902777779 129.10199652777777  104.37109375 124.22265625  C 112.72612847222224 119.34331597222221  119.34331597222224 112.7261284722222  124.22265625 104.37109375  C 129.10199652777777 96.01605902777776  131.54166666666666 86.89236111111111  131.54166666666666 77  C 131.54166666666666 67.10763888888889  129.10199652777777 57.98394097222222  124.22265625 49.62890625  C 119.34331597222224 41.273871527777764  112.72612847222224 34.656684027777764  104.37109375 29.77734375  Z " stroke-width="0" stroke-dasharray="0" stroke="rgba(255, 255, 255, 0)" fill="none" transform="matrix(1 0 0 1 103 86 )" class="stroke" mask="url(#Clip485)" />
    <path d="M 143.67317708333334 38.349609375  C 150.55772569444443 50.146918402777764  154 63.03038194444442  154 77  C 154 90.96961805555556  150.55772569444443 103.8530815972222  143.67317708333334 115.650390625  C 136.78862847222223 127.44769965277779  127.44769965277779 136.78862847222223  115.650390625 143.67317708333334  C 103.85308159722224 150.55772569444446  90.96961805555556 154  77 154  C 63.03038194444445 154  50.14691840277778 150.55772569444446  38.349609375 143.67317708333334  C 26.552300347222225 136.78862847222223  17.21137152777778 127.44769965277779  10.326822916666668 115.650390625  C 3.442274305555555 103.8530815972222  0 90.96961805555556  0 77  C 0 63.03038194444442  3.442274305555555 50.146918402777764  10.326822916666668 38.349609375  C 17.21137152777778 26.55230034722222  26.552300347222225 17.211371527777764  38.349609375 10.32682291666666  C 50.14691840277778 3.442274305555542  63.03038194444445 0  77 0  C 90.96961805555556 0  103.85308159722224 3.442274305555542  115.650390625 10.32682291666666  C 127.44769965277779 17.211371527777764  136.78862847222223 26.55230034722222  143.67317708333334 38.349609375  Z " stroke-width="0" stroke-dasharray="0" stroke="rgba(255, 255, 255, 0)" fill="none" transform="matrix(1 0 0 1 103 86 )" class="stroke" mask="url(#Clip485)" />
  </g>
</svg>