<?xml version="1.0" encoding="utf-8"?>
<svg version="1.1" xmlns:xlink="http://www.w3.org/1999/xlink" width="300px" height="76px" xmlns="http://www.w3.org/2000/svg">
  <defs>
    <pattern id="BGPattern" patternUnits="userSpaceOnUse" alignment="0 0" imageRepeat="None" />
    <mask fill="white" id="Clip486">
      <path d="M 0 76  L 0 0  L 300 0  L 300 76  L 0 76  Z " fill-rule="evenodd" />
    </mask>
  </defs>
  <g transform="matrix(1 0 0 1 -34 -381 )">
    <path d="M 0 76  L 0 0  L 300 0  L 300 76  L 0 76  Z " fill-rule="nonzero" fill="rgba(242, 242, 242, 1)" stroke="none" transform="matrix(1 0 0 1 34 381 )" class="fill" />
    <path d="M 0 76  L 0 0  L 300 0  L 300 76  L 0 76  Z " stroke-width="2" stroke-dasharray="0" stroke="rgba(121, 121, 121, 1)" fill="none" transform="matrix(1 0 0 1 34 381 )" class="stroke" mask="url(#Clip486)" />
    <path d="M 298.0867550577998 0.48468871869072916  L 1.9132449422002467 75.51531128130928  M 1.9132449422002467 0.48468871869072916  L 298.0867550577998 75.51531128130928  " stroke-width="1" stroke-dasharray="0" stroke="rgba(121, 121, 121, 1)" fill="none" transform="matrix(1 0 0 1 34 381 )" class="stroke" />
  </g>
</svg>