<?xml version="1.0" encoding="utf-8"?>
<svg version="1.1" xmlns:xlink="http://www.w3.org/1999/xlink" width="20px" height="24px" xmlns="http://www.w3.org/2000/svg">
  <defs>
    <pattern id="BGPattern" patternUnits="userSpaceOnUse" alignment="0 0" imageRepeat="None" />
    <mask fill="white" id="Clip468">
      <path d="M 7.144886363636363 19.859375  C 7.230113636363637 19.765625  7.272727272727273 19.645833333333332  7.272727272727273 19.5  L 7.272727272727273 8.5  C 7.272727272727273 8.354166666666668  7.230113636363637 8.234375  7.144886363636363 8.140625  C 7.059659090909091 8.046875  6.950757575757577 8  6.8181818181818175 8  L 5.909090909090909 8  C 5.776515151515152 8  5.667613636363638 8.046875  5.582386363636363 8.140625  C 5.497159090909091 8.234375  5.454545454545454 8.354166666666668  5.454545454545454 8.5  L 5.454545454545454 19.5  C 5.454545454545454 19.645833333333332  5.497159090909091 19.765625  5.582386363636363 19.859375  C 5.667613636363638 19.953125  5.776515151515152 20  5.909090909090909 20  L 6.8181818181818175 20  C 6.950757575757577 20  7.059659090909091 19.953125  7.144886363636363 19.859375  Z M 10.78125 19.859375  C 10.866477272727273 19.765625  10.909090909090908 19.645833333333332  11 19.5  L 11 8.5  C 10.909090909090908 8.354166666666668  10.866477272727273 8.234375  10.78125 8.140625  C 10.696022727272727 8.046875  10.587121212121213 8  10.454545454545453 8  L 9.545454545454547 8  C 9.412878787878789 8  9.303977272727273 8.046875  9.21875 8.140625  C 9.133522727272727 8.234375  9.09090909090909 8.354166666666668  9 8.5  L 9 19.5  C 9.09090909090909 19.645833333333332  9.133522727272727 19.765625  9.21875 19.859375  C 9.303977272727273 19.953125  9.412878787878789 20  9.545454545454547 20  L 10.454545454545453 20  C 10.587121212121213 20  10.696022727272727 19.953125  10.78125 19.859375  Z M 14.417613636363635 19.859375  C 14.502840909090908 19.765625  14.545454545454547 19.645833333333332  14.545454545454547 19.5  L 14.545454545454547 8.5  C 14.545454545454547 8.354166666666668  14.502840909090908 8.234375  14.417613636363635 8.140625  C 14.332386363636365 8.046875  14.223484848484848 8  14.090909090909092 8  L 13.181818181818182 8  C 13.049242424242424 8  12.940340909090908 8.046875  12.855113636363635 8.140625  C 12.769886363636365 8.234375  12.727272727272727 8.354166666666668  12.727272727272727 8.5  L 12.727272727272727 19.5  C 12.727272727272727 19.645833333333332  12.769886363636365 19.765625  12.855113636363635 19.859375  C 12.940340909090908 19.953125  13.049242424242424 20  13.181818181818182 20  L 14.090909090909092 20  C 14.223484848484848 20  14.332386363636365 19.953125  14.417613636363635 19.859375  Z M 7.514204545454546 2.171874999999999  L 6.8181818181818175 3.999999999999999  L 13.181818181818182 3.999999999999999  L 12.5 2.171874999999999  C 12.433712121212125 2.078124999999999  12.353219696969697 2.020833333333332  12.258522727272727 2.000000000000001  L 7.7556818181818175 2.000000000000001  C 7.660984848484849 2.020833333333332  7.580492424242426 2.078124999999999  7.514204545454546 2.171874999999999  Z M 19.872159090909093 4.140624999999999  C 19.957386363636363 4.234374999999999  20 4.354166666666665  20 4.5  L 20 5.499999999999999  C 20 5.645833333333331  19.957386363636363 5.765625  19.872159090909093 5.859375  C 19.78693181818182 5.953125  19.678030303030305 6  19.545454545454547 6  L 18 6  L 18 20.8125  C 18.18181818181818 21.677083333333332  17.959280303030305 22.424479166666668  17.514204545454547 23.0546875  C 17.06912878787879 23.684895833333332  16.534090909090907 24  15.909090909090908 24  L 4.090909090909091 24  C 3.4659090909090913 24  2.930871212121213 23.6953125  2.4857954545454546 23.0859375  C 2.0407196969696972 22.4765625  1.8181818181818183 21.739583333333332  2 20.875  L 2 6  L 0.4545454545454546 6  C 0.32196969696969696 6  0.21306818181818182 5.953125  0.1278409090909091 5.859375  C 0.04261363636363636 5.765625  0 5.645833333333331  0 5.499999999999999  L 0 4.5  C 0 4.354166666666665  0.04261363636363636 4.234374999999999  0.1278409090909091 4.140624999999999  C 0.21306818181818182 4.046874999999999  0.32196969696969696 3.999999999999999  0.4545454545454546 3.999999999999999  L 4.84375 3.999999999999999  L 5.8380681818181825 1.3906250000000009  C 5.980113636363638 1.0052083333333313  6.235795454545455 0.6770833333333313  6.605113636363637 0.4062500000000009  C 6.974431818181818 0.1354166666666652  7.348484848484849 0  7.727272727272727 0  L 12.272727272727273 0  C 12.651515151515154 0  13.025568181818182 0.1354166666666652  13.394886363636365 0.4062500000000009  C 13.764204545454547 0.6770833333333313  14.019886363636365 1.0052083333333313  14.161931818181818 1.3906250000000009  L 15.15625 3.999999999999999  L 19.545454545454547 3.999999999999999  C 19.678030303030305 3.999999999999999  19.78693181818182 4.046874999999999  19.872159090909093 4.140624999999999  Z " fill-rule="evenodd" />
    </mask>
  </defs>
  <g transform="matrix(1 0 0 1 -287 -245 )">
    <path d="M 7.144886363636363 19.859375  C 7.230113636363637 19.765625  7.272727272727273 19.645833333333332  7.272727272727273 19.5  L 7.272727272727273 8.5  C 7.272727272727273 8.354166666666668  7.230113636363637 8.234375  7.144886363636363 8.140625  C 7.059659090909091 8.046875  6.950757575757577 8  6.8181818181818175 8  L 5.909090909090909 8  C 5.776515151515152 8  5.667613636363638 8.046875  5.582386363636363 8.140625  C 5.497159090909091 8.234375  5.454545454545454 8.354166666666668  5.454545454545454 8.5  L 5.454545454545454 19.5  C 5.454545454545454 19.645833333333332  5.497159090909091 19.765625  5.582386363636363 19.859375  C 5.667613636363638 19.953125  5.776515151515152 20  5.909090909090909 20  L 6.8181818181818175 20  C 6.950757575757577 20  7.059659090909091 19.953125  7.144886363636363 19.859375  Z M 10.78125 19.859375  C 10.866477272727273 19.765625  10.909090909090908 19.645833333333332  11 19.5  L 11 8.5  C 10.909090909090908 8.354166666666668  10.866477272727273 8.234375  10.78125 8.140625  C 10.696022727272727 8.046875  10.587121212121213 8  10.454545454545453 8  L 9.545454545454547 8  C 9.412878787878789 8  9.303977272727273 8.046875  9.21875 8.140625  C 9.133522727272727 8.234375  9.09090909090909 8.354166666666668  9 8.5  L 9 19.5  C 9.09090909090909 19.645833333333332  9.133522727272727 19.765625  9.21875 19.859375  C 9.303977272727273 19.953125  9.412878787878789 20  9.545454545454547 20  L 10.454545454545453 20  C 10.587121212121213 20  10.696022727272727 19.953125  10.78125 19.859375  Z M 14.417613636363635 19.859375  C 14.502840909090908 19.765625  14.545454545454547 19.645833333333332  14.545454545454547 19.5  L 14.545454545454547 8.5  C 14.545454545454547 8.354166666666668  14.502840909090908 8.234375  14.417613636363635 8.140625  C 14.332386363636365 8.046875  14.223484848484848 8  14.090909090909092 8  L 13.181818181818182 8  C 13.049242424242424 8  12.940340909090908 8.046875  12.855113636363635 8.140625  C 12.769886363636365 8.234375  12.727272727272727 8.354166666666668  12.727272727272727 8.5  L 12.727272727272727 19.5  C 12.727272727272727 19.645833333333332  12.769886363636365 19.765625  12.855113636363635 19.859375  C 12.940340909090908 19.953125  13.049242424242424 20  13.181818181818182 20  L 14.090909090909092 20  C 14.223484848484848 20  14.332386363636365 19.953125  14.417613636363635 19.859375  Z M 7.514204545454546 2.171874999999999  L 6.8181818181818175 3.999999999999999  L 13.181818181818182 3.999999999999999  L 12.5 2.171874999999999  C 12.433712121212125 2.078124999999999  12.353219696969697 2.020833333333332  12.258522727272727 2.000000000000001  L 7.7556818181818175 2.000000000000001  C 7.660984848484849 2.020833333333332  7.580492424242426 2.078124999999999  7.514204545454546 2.171874999999999  Z M 19.872159090909093 4.140624999999999  C 19.957386363636363 4.234374999999999  20 4.354166666666665  20 4.5  L 20 5.499999999999999  C 20 5.645833333333331  19.957386363636363 5.765625  19.872159090909093 5.859375  C 19.78693181818182 5.953125  19.678030303030305 6  19.545454545454547 6  L 18 6  L 18 20.8125  C 18.18181818181818 21.677083333333332  17.959280303030305 22.424479166666668  17.514204545454547 23.0546875  C 17.06912878787879 23.684895833333332  16.534090909090907 24  15.909090909090908 24  L 4.090909090909091 24  C 3.4659090909090913 24  2.930871212121213 23.6953125  2.4857954545454546 23.0859375  C 2.0407196969696972 22.4765625  1.8181818181818183 21.739583333333332  2 20.875  L 2 6  L 0.4545454545454546 6  C 0.32196969696969696 6  0.21306818181818182 5.953125  0.1278409090909091 5.859375  C 0.04261363636363636 5.765625  0 5.645833333333331  0 5.499999999999999  L 0 4.5  C 0 4.354166666666665  0.04261363636363636 4.234374999999999  0.1278409090909091 4.140624999999999  C 0.21306818181818182 4.046874999999999  0.32196969696969696 3.999999999999999  0.4545454545454546 3.999999999999999  L 4.84375 3.999999999999999  L 5.8380681818181825 1.3906250000000009  C 5.980113636363638 1.0052083333333313  6.235795454545455 0.6770833333333313  6.605113636363637 0.4062500000000009  C 6.974431818181818 0.1354166666666652  7.348484848484849 0  7.727272727272727 0  L 12.272727272727273 0  C 12.651515151515154 0  13.025568181818182 0.1354166666666652  13.394886363636365 0.4062500000000009  C 13.764204545454547 0.6770833333333313  14.019886363636365 1.0052083333333313  14.161931818181818 1.3906250000000009  L 15.15625 3.999999999999999  L 19.545454545454547 3.999999999999999  C 19.678030303030305 3.999999999999999  19.78693181818182 4.046874999999999  19.872159090909093 4.140624999999999  Z " fill-rule="nonzero" fill="rgba(0, 0, 0, 1)" stroke="none" transform="matrix(1 0 0 1 287 245 )" class="fill" />
    <path d="M 7.144886363636363 19.859375  C 7.230113636363637 19.765625  7.272727272727273 19.645833333333332  7.272727272727273 19.5  L 7.272727272727273 8.5  C 7.272727272727273 8.354166666666668  7.230113636363637 8.234375  7.144886363636363 8.140625  C 7.059659090909091 8.046875  6.950757575757577 8  6.8181818181818175 8  L 5.909090909090909 8  C 5.776515151515152 8  5.667613636363638 8.046875  5.582386363636363 8.140625  C 5.497159090909091 8.234375  5.454545454545454 8.354166666666668  5.454545454545454 8.5  L 5.454545454545454 19.5  C 5.454545454545454 19.645833333333332  5.497159090909091 19.765625  5.582386363636363 19.859375  C 5.667613636363638 19.953125  5.776515151515152 20  5.909090909090909 20  L 6.8181818181818175 20  C 6.950757575757577 20  7.059659090909091 19.953125  7.144886363636363 19.859375  Z " stroke-width="0" stroke-dasharray="0" stroke="rgba(255, 255, 255, 0)" fill="none" transform="matrix(1 0 0 1 287 245 )" class="stroke" mask="url(#Clip468)" />
    <path d="M 10.78125 19.859375  C 10.866477272727273 19.765625  10.909090909090908 19.645833333333332  11 19.5  L 11 8.5  C 10.909090909090908 8.354166666666668  10.866477272727273 8.234375  10.78125 8.140625  C 10.696022727272727 8.046875  10.587121212121213 8  10.454545454545453 8  L 9.545454545454547 8  C 9.412878787878789 8  9.303977272727273 8.046875  9.21875 8.140625  C 9.133522727272727 8.234375  9.09090909090909 8.354166666666668  9 8.5  L 9 19.5  C 9.09090909090909 19.645833333333332  9.133522727272727 19.765625  9.21875 19.859375  C 9.303977272727273 19.953125  9.412878787878789 20  9.545454545454547 20  L 10.454545454545453 20  C 10.587121212121213 20  10.696022727272727 19.953125  10.78125 19.859375  Z " stroke-width="0" stroke-dasharray="0" stroke="rgba(255, 255, 255, 0)" fill="none" transform="matrix(1 0 0 1 287 245 )" class="stroke" mask="url(#Clip468)" />
    <path d="M 14.417613636363635 19.859375  C 14.502840909090908 19.765625  14.545454545454547 19.645833333333332  14.545454545454547 19.5  L 14.545454545454547 8.5  C 14.545454545454547 8.354166666666668  14.502840909090908 8.234375  14.417613636363635 8.140625  C 14.332386363636365 8.046875  14.223484848484848 8  14.090909090909092 8  L 13.181818181818182 8  C 13.049242424242424 8  12.940340909090908 8.046875  12.855113636363635 8.140625  C 12.769886363636365 8.234375  12.727272727272727 8.354166666666668  12.727272727272727 8.5  L 12.727272727272727 19.5  C 12.727272727272727 19.645833333333332  12.769886363636365 19.765625  12.855113636363635 19.859375  C 12.940340909090908 19.953125  13.049242424242424 20  13.181818181818182 20  L 14.090909090909092 20  C 14.223484848484848 20  14.332386363636365 19.953125  14.417613636363635 19.859375  Z " stroke-width="0" stroke-dasharray="0" stroke="rgba(255, 255, 255, 0)" fill="none" transform="matrix(1 0 0 1 287 245 )" class="stroke" mask="url(#Clip468)" />
    <path d="M 7.514204545454546 2.171874999999999  L 6.8181818181818175 3.999999999999999  L 13.181818181818182 3.999999999999999  L 12.5 2.171874999999999  C 12.433712121212125 2.078124999999999  12.353219696969697 2.020833333333332  12.258522727272727 2.000000000000001  L 7.7556818181818175 2.000000000000001  C 7.660984848484849 2.020833333333332  7.580492424242426 2.078124999999999  7.514204545454546 2.171874999999999  Z " stroke-width="0" stroke-dasharray="0" stroke="rgba(255, 255, 255, 0)" fill="none" transform="matrix(1 0 0 1 287 245 )" class="stroke" mask="url(#Clip468)" />
    <path d="M 19.872159090909093 4.140624999999999  C 19.957386363636363 4.234374999999999  20 4.354166666666665  20 4.5  L 20 5.499999999999999  C 20 5.645833333333331  19.957386363636363 5.765625  19.872159090909093 5.859375  C 19.78693181818182 5.953125  19.678030303030305 6  19.545454545454547 6  L 18 6  L 18 20.8125  C 18.18181818181818 21.677083333333332  17.959280303030305 22.424479166666668  17.514204545454547 23.0546875  C 17.06912878787879 23.684895833333332  16.534090909090907 24  15.909090909090908 24  L 4.090909090909091 24  C 3.4659090909090913 24  2.930871212121213 23.6953125  2.4857954545454546 23.0859375  C 2.0407196969696972 22.4765625  1.8181818181818183 21.739583333333332  2 20.875  L 2 6  L 0.4545454545454546 6  C 0.32196969696969696 6  0.21306818181818182 5.953125  0.1278409090909091 5.859375  C 0.04261363636363636 5.765625  0 5.645833333333331  0 5.499999999999999  L 0 4.5  C 0 4.354166666666665  0.04261363636363636 4.234374999999999  0.1278409090909091 4.140624999999999  C 0.21306818181818182 4.046874999999999  0.32196969696969696 3.999999999999999  0.4545454545454546 3.999999999999999  L 4.84375 3.999999999999999  L 5.8380681818181825 1.3906250000000009  C 5.980113636363638 1.0052083333333313  6.235795454545455 0.6770833333333313  6.605113636363637 0.4062500000000009  C 6.974431818181818 0.1354166666666652  7.348484848484849 0  7.727272727272727 0  L 12.272727272727273 0  C 12.651515151515154 0  13.025568181818182 0.1354166666666652  13.394886363636365 0.4062500000000009  C 13.764204545454547 0.6770833333333313  14.019886363636365 1.0052083333333313  14.161931818181818 1.3906250000000009  L 15.15625 3.999999999999999  L 19.545454545454547 3.999999999999999  C 19.678030303030305 3.999999999999999  19.78693181818182 4.046874999999999  19.872159090909093 4.140624999999999  Z " stroke-width="0" stroke-dasharray="0" stroke="rgba(255, 255, 255, 0)" fill="none" transform="matrix(1 0 0 1 287 245 )" class="stroke" mask="url(#Clip468)" />
  </g>
</svg>