<?xml version="1.0" encoding="utf-8"?>
<svg version="1.1" xmlns:xlink="http://www.w3.org/1999/xlink" width="20px" height="24px" xmlns="http://www.w3.org/2000/svg">
  <defs>
    <pattern id="BGPattern" patternUnits="userSpaceOnUse" alignment="0 0" imageRepeat="None" />
    <mask fill="white" id="Clip469">
      <path d="M 7.144886363636374 19.859375  C 7.230113636363626 19.765625  7.272727272727252 19.645833333333314  7.272727272727252 19.5  L 7.272727272727252 8.5  C 7.272727272727252 8.354166666666686  7.230113636363626 8.234375  7.144886363636374 8.140625  C 7.059659090909065 8.046875  6.950757575757564 8  6.818181818181813 8  L 5.909090909090935 8  C 5.776515151515127 8  5.667613636363626 8.046875  5.582386363636374 8.140625  C 5.497159090909065 8.234375  5.454545454545439 8.354166666666686  5.454545454545439 8.5  L 5.454545454545439 19.5  C 5.454545454545439 19.645833333333314  5.497159090909065 19.765625  5.582386363636374 19.859375  C 5.667613636363626 19.953125  5.776515151515127 20  5.909090909090935 20  L 6.818181818181813 20  C 6.950757575757564 20  7.059659090909065 19.953125  7.144886363636374 19.859375  Z M 10.78125 19.859375  C 10.866477272727252 19.765625  10.909090909090935 19.645833333333314  11 19.5  L 11 8.5  C 10.909090909090935 8.354166666666686  10.866477272727252 8.234375  10.78125 8.140625  C 10.696022727272748 8.046875  10.58712121212119 8  10.454545454545439 8  L 9.545454545454561 8  C 9.41287878787881 8  9.303977272727252 8.046875  9.21875 8.140625  C 9.133522727272748 8.234375  9.090909090909065 8.354166666666686  9 8.5  L 9 19.5  C 9.090909090909065 19.645833333333314  9.133522727272748 19.765625  9.21875 19.859375  C 9.303977272727252 19.953125  9.41287878787881 20  9.545454545454561 20  L 10.454545454545439 20  C 10.58712121212119 20  10.696022727272748 19.953125  10.78125 19.859375  Z M 14.417613636363626 19.859375  C 14.502840909090935 19.765625  14.545454545454561 19.645833333333314  14.545454545454561 19.5  L 14.545454545454561 15.648648648648646  L 14.545454545454561 8.5  C 14.545454545454561 8.354166666666686  14.502840909090935 8.234375  14.417613636363626 8.140625  C 14.332386363636374 8.046875  14.223484848484873 8  14.090909090909065 8  L 13.181818181818187 8  C 13.049242424242436 8  12.940340909090935 8.046875  12.855113636363626 8.140625  C 12.769886363636374 8.234375  12.727272727272748 8.354166666666686  12.727272727272748 8.5  L 12.727272727272748 19.5  C 12.727272727272748 19.645833333333314  12.769886363636374 19.765625  12.855113636363626 19.859375  C 12.940340909090935 19.953125  13.049242424242436 20  13.181818181818187 20  L 14.090909090909065 20  C 14.223484848484873 20  14.332386363636374 19.953125  14.417613636363626 19.859375  Z M 7.514204545454561 2.171875  L 6.818181818181813 4  L 13.181818181818187 4  L 12.5 2.171875  C 12.433712121212125 2.078125  12.353219696969688 2.0208333333333144  12.258522727272748 2  L 7.755681818181813 2  C 7.660984848484873 2.0208333333333144  7.580492424242436 2.078125  7.514204545454561 2.171875  Z M 19.872159090909122 4.140625  C 19.957386363636374 4.234375  20 4.354166666666686  20 4.5  L 20 5.5  C 20 5.645833333333314  19.957386363636374 5.765625  19.872159090909122 5.859375  C 19.786931818181813 5.953125  19.67803030303031 6  19.54545454545456 6  L 18 6  L 18 20.8125  C 18.181818181818187 21.677083333333314  17.95928030303031 22.424479166666686  17.51420454545456 23.0546875  C 17.06912878787881 23.684895833333314  16.534090909090878 24  15.909090909090935 24  L 4.090909090909065 24  C 3.465909090909065 24  2.9308712121211897 23.6953125  2.485795454545439 23.0859375  C 2.0407196969696884 22.4765625  1.818181818181813 21.739583333333314  2 20.875  L 2 6  L 0.45454545454543904 6  C 0.32196969696968836 6  0.21306818181818699 5.953125  0.12784090909093493 5.859375  C 0.04261363636362603 5.765625  0 5.645833333333314  0 5.5  L 0 4.5  C 0 4.354166666666686  0.04261363636362603 4.234375  0.12784090909093493 4.140625  C 0.21306818181818699 4.046875  0.32196969696968836 4  0.45454545454543904 4  L 4.84375 4  L 5.838068181818187 1.390625  C 5.980113636363626 1.0052083333333144  6.235795454545439 0.6770833333333144  6.605113636363626 0.40625  C 6.974431818181813 0.13541666666668561  7.348484848484873 0  7.727272727272748 0  L 12.272727272727252 0  C 12.651515151515127 0  13.025568181818187 0.13541666666668561  13.394886363636374 0.40625  C 13.764204545454561 0.6770833333333144  14.019886363636374 1.0052083333333144  14.161931818181813 1.390625  L 15.15625 4  L 19.54545454545456 4  C 19.67803030303031 4  19.786931818181813 4.046875  19.872159090909122 4.140625  Z " fill-rule="evenodd" />
    </mask>
  </defs>
  <g transform="matrix(1 0 0 1 -287 -282 )">
    <path d="M 7.144886363636374 19.859375  C 7.230113636363626 19.765625  7.272727272727252 19.645833333333314  7.272727272727252 19.5  L 7.272727272727252 8.5  C 7.272727272727252 8.354166666666686  7.230113636363626 8.234375  7.144886363636374 8.140625  C 7.059659090909065 8.046875  6.950757575757564 8  6.818181818181813 8  L 5.909090909090935 8  C 5.776515151515127 8  5.667613636363626 8.046875  5.582386363636374 8.140625  C 5.497159090909065 8.234375  5.454545454545439 8.354166666666686  5.454545454545439 8.5  L 5.454545454545439 19.5  C 5.454545454545439 19.645833333333314  5.497159090909065 19.765625  5.582386363636374 19.859375  C 5.667613636363626 19.953125  5.776515151515127 20  5.909090909090935 20  L 6.818181818181813 20  C 6.950757575757564 20  7.059659090909065 19.953125  7.144886363636374 19.859375  Z M 10.78125 19.859375  C 10.866477272727252 19.765625  10.909090909090935 19.645833333333314  11 19.5  L 11 8.5  C 10.909090909090935 8.354166666666686  10.866477272727252 8.234375  10.78125 8.140625  C 10.696022727272748 8.046875  10.58712121212119 8  10.454545454545439 8  L 9.545454545454561 8  C 9.41287878787881 8  9.303977272727252 8.046875  9.21875 8.140625  C 9.133522727272748 8.234375  9.090909090909065 8.354166666666686  9 8.5  L 9 19.5  C 9.090909090909065 19.645833333333314  9.133522727272748 19.765625  9.21875 19.859375  C 9.303977272727252 19.953125  9.41287878787881 20  9.545454545454561 20  L 10.454545454545439 20  C 10.58712121212119 20  10.696022727272748 19.953125  10.78125 19.859375  Z M 14.417613636363626 19.859375  C 14.502840909090935 19.765625  14.545454545454561 19.645833333333314  14.545454545454561 19.5  L 14.545454545454561 15.648648648648646  L 14.545454545454561 8.5  C 14.545454545454561 8.354166666666686  14.502840909090935 8.234375  14.417613636363626 8.140625  C 14.332386363636374 8.046875  14.223484848484873 8  14.090909090909065 8  L 13.181818181818187 8  C 13.049242424242436 8  12.940340909090935 8.046875  12.855113636363626 8.140625  C 12.769886363636374 8.234375  12.727272727272748 8.354166666666686  12.727272727272748 8.5  L 12.727272727272748 19.5  C 12.727272727272748 19.645833333333314  12.769886363636374 19.765625  12.855113636363626 19.859375  C 12.940340909090935 19.953125  13.049242424242436 20  13.181818181818187 20  L 14.090909090909065 20  C 14.223484848484873 20  14.332386363636374 19.953125  14.417613636363626 19.859375  Z M 7.514204545454561 2.171875  L 6.818181818181813 4  L 13.181818181818187 4  L 12.5 2.171875  C 12.433712121212125 2.078125  12.353219696969688 2.0208333333333144  12.258522727272748 2  L 7.755681818181813 2  C 7.660984848484873 2.0208333333333144  7.580492424242436 2.078125  7.514204545454561 2.171875  Z M 19.872159090909122 4.140625  C 19.957386363636374 4.234375  20 4.354166666666686  20 4.5  L 20 5.5  C 20 5.645833333333314  19.957386363636374 5.765625  19.872159090909122 5.859375  C 19.786931818181813 5.953125  19.67803030303031 6  19.54545454545456 6  L 18 6  L 18 20.8125  C 18.181818181818187 21.677083333333314  17.95928030303031 22.424479166666686  17.51420454545456 23.0546875  C 17.06912878787881 23.684895833333314  16.534090909090878 24  15.909090909090935 24  L 4.090909090909065 24  C 3.465909090909065 24  2.9308712121211897 23.6953125  2.485795454545439 23.0859375  C 2.0407196969696884 22.4765625  1.818181818181813 21.739583333333314  2 20.875  L 2 6  L 0.45454545454543904 6  C 0.32196969696968836 6  0.21306818181818699 5.953125  0.12784090909093493 5.859375  C 0.04261363636362603 5.765625  0 5.645833333333314  0 5.5  L 0 4.5  C 0 4.354166666666686  0.04261363636362603 4.234375  0.12784090909093493 4.140625  C 0.21306818181818699 4.046875  0.32196969696968836 4  0.45454545454543904 4  L 4.84375 4  L 5.838068181818187 1.390625  C 5.980113636363626 1.0052083333333144  6.235795454545439 0.6770833333333144  6.605113636363626 0.40625  C 6.974431818181813 0.13541666666668561  7.348484848484873 0  7.727272727272748 0  L 12.272727272727252 0  C 12.651515151515127 0  13.025568181818187 0.13541666666668561  13.394886363636374 0.40625  C 13.764204545454561 0.6770833333333144  14.019886363636374 1.0052083333333144  14.161931818181813 1.390625  L 15.15625 4  L 19.54545454545456 4  C 19.67803030303031 4  19.786931818181813 4.046875  19.872159090909122 4.140625  Z " fill-rule="nonzero" fill="rgba(0, 0, 0, 1)" stroke="none" transform="matrix(1 0 0 1 287 282 )" class="fill" />
    <path d="M 7.144886363636374 19.859375  C 7.230113636363626 19.765625  7.272727272727252 19.645833333333314  7.272727272727252 19.5  L 7.272727272727252 8.5  C 7.272727272727252 8.354166666666686  7.230113636363626 8.234375  7.144886363636374 8.140625  C 7.059659090909065 8.046875  6.950757575757564 8  6.818181818181813 8  L 5.909090909090935 8  C 5.776515151515127 8  5.667613636363626 8.046875  5.582386363636374 8.140625  C 5.497159090909065 8.234375  5.454545454545439 8.354166666666686  5.454545454545439 8.5  L 5.454545454545439 19.5  C 5.454545454545439 19.645833333333314  5.497159090909065 19.765625  5.582386363636374 19.859375  C 5.667613636363626 19.953125  5.776515151515127 20  5.909090909090935 20  L 6.818181818181813 20  C 6.950757575757564 20  7.059659090909065 19.953125  7.144886363636374 19.859375  Z " stroke-width="0" stroke-dasharray="0" stroke="rgba(255, 255, 255, 0)" fill="none" transform="matrix(1 0 0 1 287 282 )" class="stroke" mask="url(#Clip469)" />
    <path d="M 10.78125 19.859375  C 10.866477272727252 19.765625  10.909090909090935 19.645833333333314  11 19.5  L 11 8.5  C 10.909090909090935 8.354166666666686  10.866477272727252 8.234375  10.78125 8.140625  C 10.696022727272748 8.046875  10.58712121212119 8  10.454545454545439 8  L 9.545454545454561 8  C 9.41287878787881 8  9.303977272727252 8.046875  9.21875 8.140625  C 9.133522727272748 8.234375  9.090909090909065 8.354166666666686  9 8.5  L 9 19.5  C 9.090909090909065 19.645833333333314  9.133522727272748 19.765625  9.21875 19.859375  C 9.303977272727252 19.953125  9.41287878787881 20  9.545454545454561 20  L 10.454545454545439 20  C 10.58712121212119 20  10.696022727272748 19.953125  10.78125 19.859375  Z " stroke-width="0" stroke-dasharray="0" stroke="rgba(255, 255, 255, 0)" fill="none" transform="matrix(1 0 0 1 287 282 )" class="stroke" mask="url(#Clip469)" />
    <path d="M 14.417613636363626 19.859375  C 14.502840909090935 19.765625  14.545454545454561 19.645833333333314  14.545454545454561 19.5  L 14.545454545454561 15.648648648648646  L 14.545454545454561 8.5  C 14.545454545454561 8.354166666666686  14.502840909090935 8.234375  14.417613636363626 8.140625  C 14.332386363636374 8.046875  14.223484848484873 8  14.090909090909065 8  L 13.181818181818187 8  C 13.049242424242436 8  12.940340909090935 8.046875  12.855113636363626 8.140625  C 12.769886363636374 8.234375  12.727272727272748 8.354166666666686  12.727272727272748 8.5  L 12.727272727272748 19.5  C 12.727272727272748 19.645833333333314  12.769886363636374 19.765625  12.855113636363626 19.859375  C 12.940340909090935 19.953125  13.049242424242436 20  13.181818181818187 20  L 14.090909090909065 20  C 14.223484848484873 20  14.332386363636374 19.953125  14.417613636363626 19.859375  Z " stroke-width="0" stroke-dasharray="0" stroke="rgba(255, 255, 255, 0)" fill="none" transform="matrix(1 0 0 1 287 282 )" class="stroke" mask="url(#Clip469)" />
    <path d="M 7.514204545454561 2.171875  L 6.818181818181813 4  L 13.181818181818187 4  L 12.5 2.171875  C 12.433712121212125 2.078125  12.353219696969688 2.0208333333333144  12.258522727272748 2  L 7.755681818181813 2  C 7.660984848484873 2.0208333333333144  7.580492424242436 2.078125  7.514204545454561 2.171875  Z " stroke-width="0" stroke-dasharray="0" stroke="rgba(255, 255, 255, 0)" fill="none" transform="matrix(1 0 0 1 287 282 )" class="stroke" mask="url(#Clip469)" />
    <path d="M 19.872159090909122 4.140625  C 19.957386363636374 4.234375  20 4.354166666666686  20 4.5  L 20 5.5  C 20 5.645833333333314  19.957386363636374 5.765625  19.872159090909122 5.859375  C 19.786931818181813 5.953125  19.67803030303031 6  19.54545454545456 6  L 18 6  L 18 20.8125  C 18.181818181818187 21.677083333333314  17.95928030303031 22.424479166666686  17.51420454545456 23.0546875  C 17.06912878787881 23.684895833333314  16.534090909090878 24  15.909090909090935 24  L 4.090909090909065 24  C 3.465909090909065 24  2.9308712121211897 23.6953125  2.485795454545439 23.0859375  C 2.0407196969696884 22.4765625  1.818181818181813 21.739583333333314  2 20.875  L 2 6  L 0.45454545454543904 6  C 0.32196969696968836 6  0.21306818181818699 5.953125  0.12784090909093493 5.859375  C 0.04261363636362603 5.765625  0 5.645833333333314  0 5.5  L 0 4.5  C 0 4.354166666666686  0.04261363636362603 4.234375  0.12784090909093493 4.140625  C 0.21306818181818699 4.046875  0.32196969696968836 4  0.45454545454543904 4  L 4.84375 4  L 5.838068181818187 1.390625  C 5.980113636363626 1.0052083333333144  6.235795454545439 0.6770833333333144  6.605113636363626 0.40625  C 6.974431818181813 0.13541666666668561  7.348484848484873 0  7.727272727272748 0  L 12.272727272727252 0  C 12.651515151515127 0  13.025568181818187 0.13541666666668561  13.394886363636374 0.40625  C 13.764204545454561 0.6770833333333144  14.019886363636374 1.0052083333333144  14.161931818181813 1.390625  L 15.15625 4  L 19.54545454545456 4  C 19.67803030303031 4  19.786931818181813 4.046875  19.872159090909122 4.140625  Z " stroke-width="0" stroke-dasharray="0" stroke="rgba(255, 255, 255, 0)" fill="none" transform="matrix(1 0 0 1 287 282 )" class="stroke" mask="url(#Clip469)" />
  </g>
</svg>